<?xml version="1.0" encoding="utf-8"?>
<!-- Generator: Adobe Illustrator 16.0.3, SVG Export Plug-In . SVG Version: 6.00 Build 0)  -->
<!DOCTYPE svg PUBLIC "-//W3C//DTD SVG 1.1//EN" "http://www.w3.org/Graphics/SVG/1.1/DTD/svg11.dtd">
<svg version="1.1" id="Layer_1" xmlns="http://www.w3.org/2000/svg" xmlns:xlink="http://www.w3.org/1999/xlink" x="0px" y="0px"
	 width="60px" height="60px" viewBox="0 0 60 60" enable-background="new 0 0 60 60" xml:space="preserve">
<path fill="#FFFFFF" d="M10.58,25.78c-0.02,0-0.04,0-0.06,0s-0.04,0-0.06-0.02v-2.24c0-0.02,0.02-0.06,0.04-0.08s0.06-0.02,0.1-0.02
	c0.02,0,0.04,0,0.06,0s0.04,0,0.06,0.02v1.12l1-1.06c0.02-0.02,0.04-0.04,0.06-0.04c0.02-0.02,0.06-0.02,0.08-0.02
	c0.06,0,0.12,0.02,0.18,0.04l-1.06,1.12l1.1,1.16c-0.06,0.02-0.12,0.04-0.2,0.04c-0.04,0-0.06,0-0.08-0.02s-0.04-0.02-0.06-0.04
	l-1.02-1.1v1.06c0,0.02-0.02,0.06-0.04,0.08C10.66,25.78,10.62,25.78,10.58,25.78z M12.44,25.78c-0.02,0-0.04,0-0.06,0
	s-0.04,0-0.06-0.02v-1.7c0.04-0.02,0.06-0.02,0.1-0.02c0.1,0,0.14,0.06,0.14,0.16v0.1l0,0c0.06-0.08,0.14-0.16,0.24-0.2
	c0.1-0.06,0.22-0.08,0.34-0.08c0.2,0,0.36,0.06,0.48,0.2c0.12,0.14,0.16,0.3,0.16,0.52v0.94c0,0.02,0,0.06-0.02,0.08
	c-0.02,0.02-0.06,0.02-0.1,0.02c-0.02,0-0.04,0-0.06,0s-0.04,0-0.06-0.02v-1c0-0.18-0.04-0.32-0.12-0.42
	c-0.08-0.1-0.2-0.14-0.34-0.14c-0.04,0-0.1,0-0.14,0.02c-0.06,0.02-0.1,0.04-0.14,0.06s-0.08,0.06-0.12,0.1s-0.06,0.08-0.1,0.12
	v1.16c0,0.02,0,0.06-0.02,0.08C12.52,25.78,12.48,25.78,12.44,25.78z M15,25.8c-0.12,0-0.24-0.02-0.36-0.06
	c-0.1-0.04-0.2-0.1-0.28-0.18s-0.14-0.18-0.18-0.28c-0.04-0.1-0.06-0.22-0.06-0.36c0-0.12,0.02-0.24,0.06-0.34s0.1-0.2,0.18-0.28
	c0.08-0.08,0.16-0.14,0.28-0.2c0.12-0.06,0.22-0.08,0.36-0.08c0.12,0,0.24,0.02,0.34,0.08c0.1,0.04,0.2,0.12,0.26,0.2
	c0.06,0.08,0.14,0.18,0.18,0.28c0.04,0.1,0.06,0.22,0.06,0.34s-0.02,0.24-0.06,0.34c-0.04,0.1-0.1,0.2-0.16,0.28
	c-0.08,0.08-0.16,0.14-0.26,0.2C15.24,25.78,15.14,25.8,15,25.8z M15,25.6c0.08,0,0.14-0.02,0.22-0.04c0.08-0.02,0.14-0.06,0.2-0.12
	s0.1-0.12,0.14-0.22c0.04-0.08,0.06-0.18,0.06-0.3c0-0.1-0.02-0.2-0.06-0.28s-0.08-0.16-0.14-0.22s-0.12-0.1-0.2-0.14
	c-0.08-0.04-0.16-0.04-0.24-0.04s-0.16,0.02-0.22,0.04c-0.08,0.04-0.14,0.08-0.2,0.14s-0.1,0.14-0.14,0.22s-0.06,0.18-0.06,0.28
	c0,0.12,0.02,0.22,0.06,0.3c0.04,0.08,0.08,0.16,0.14,0.22s0.12,0.1,0.2,0.12C14.84,25.58,14.92,25.6,15,25.6z M16.58,25.8
	c-0.02,0-0.04,0-0.08,0s-0.06,0-0.08-0.02L16,24.08c0.02,0,0.04-0.02,0.06-0.02s0.04,0,0.08,0s0.06,0,0.1,0.02
	c0.04,0.02,0.04,0.04,0.06,0.08l0.2,0.86c0.02,0.1,0.04,0.2,0.06,0.3c0.02,0.1,0.04,0.18,0.06,0.26l0,0c0-0.04,0.02-0.08,0.04-0.14
	s0.02-0.1,0.04-0.16c0.02-0.06,0.04-0.1,0.04-0.14c0.02-0.04,0.02-0.1,0.04-0.12l0.28-0.92c0.04-0.02,0.08-0.02,0.12-0.02
	c0.06,0,0.1,0,0.12,0.02s0.04,0.04,0.06,0.1L17.6,25c0.04,0.12,0.06,0.22,0.08,0.3c0.02,0.1,0.04,0.18,0.06,0.26l0,0
	c0.02-0.08,0.04-0.16,0.06-0.26c0.02-0.08,0.04-0.2,0.08-0.3l0.22-0.88c0.02-0.06,0.06-0.08,0.12-0.08c0.02,0,0.04,0,0.06,0
	s0.04,0.02,0.06,0.02l-0.42,1.62c-0.02,0.04-0.04,0.06-0.06,0.08c-0.02,0.02-0.08,0.04-0.12,0.04c-0.02,0-0.06,0-0.08,0
	s-0.06,0-0.06-0.02l-0.42-1.44l-0.4,1.34c-0.02,0.04-0.04,0.08-0.06,0.1S16.64,25.8,16.58,25.8z M18.46,24.96c0-0.02,0-0.02,0-0.04
	s0-0.04,0-0.06c0-0.04,0-0.08,0.02-0.08c0.02-0.02,0.04-0.02,0.06-0.02h0.92c0,0.02,0,0.02,0,0.04s0,0.04,0,0.06
	c0,0.04,0,0.08-0.02,0.1s-0.04,0.02-0.06,0.02h-0.92V24.96z M19.98,25.78c-0.02,0-0.04,0-0.06,0s-0.04,0-0.06-0.02v-2.24
	c0-0.02,0.02-0.06,0.04-0.08s0.06-0.02,0.1-0.02c0.02,0,0.04,0,0.06,0s0.04,0,0.06,0.02v1.04h1.3v-0.96c0-0.02,0.02-0.06,0.04-0.08
	s0.06-0.02,0.1-0.02c0.02,0,0.04,0,0.06,0s0.04,0,0.06,0.02v2.26c0,0.02-0.02,0.06-0.04,0.08s-0.06,0.02-0.1,0.02
	c-0.02,0-0.04,0-0.06,0s-0.04,0-0.06-0.02V24.7h-1.3v1c0,0.02-0.02,0.06-0.04,0.08C20.06,25.78,20.02,25.78,19.98,25.78z
	 M22.92,25.8c-0.12,0-0.24-0.02-0.36-0.06c-0.1-0.04-0.2-0.1-0.28-0.18c-0.08-0.08-0.14-0.18-0.18-0.28
	c-0.04-0.1-0.06-0.22-0.06-0.36c0-0.12,0.02-0.24,0.06-0.34s0.1-0.2,0.18-0.28c0.08-0.08,0.16-0.14,0.28-0.2s0.22-0.08,0.36-0.08
	c0.12,0,0.24,0.02,0.34,0.08c0.1,0.04,0.2,0.12,0.26,0.2c0.06,0.08,0.14,0.18,0.18,0.28s0.06,0.22,0.06,0.34s-0.02,0.24-0.06,0.34
	c-0.04,0.1-0.1,0.2-0.16,0.28c-0.08,0.08-0.16,0.14-0.26,0.2C23.16,25.78,23.06,25.8,22.92,25.8z M22.92,25.6
	c0.08,0,0.14-0.02,0.22-0.04s0.14-0.06,0.2-0.12s0.1-0.12,0.14-0.22c0.04-0.08,0.06-0.18,0.06-0.3c0-0.1-0.02-0.2-0.06-0.28
	s-0.08-0.16-0.14-0.22s-0.12-0.1-0.2-0.14c-0.08-0.04-0.16-0.04-0.24-0.04s-0.16,0.02-0.22,0.04c-0.08,0.04-0.14,0.08-0.2,0.14
	s-0.1,0.14-0.14,0.22s-0.06,0.18-0.06,0.28c0,0.12,0.02,0.22,0.06,0.3c0.04,0.08,0.08,0.16,0.14,0.22s0.12,0.1,0.2,0.12
	C22.76,25.58,22.84,25.6,22.92,25.6z M24.5,25.8c-0.02,0-0.04,0-0.08,0s-0.06,0-0.08-0.02l-0.44-1.7c0.02,0,0.04-0.02,0.06-0.02
	s0.04,0,0.08,0s0.06,0,0.1,0.02s0.04,0.04,0.06,0.08l0.2,0.86c0.02,0.1,0.04,0.2,0.06,0.3c0.02,0.1,0.04,0.18,0.06,0.26l0,0
	c0-0.04,0.02-0.08,0.04-0.14s0.02-0.1,0.04-0.16c0.02-0.06,0.04-0.1,0.04-0.14c0.02-0.04,0.02-0.1,0.04-0.12l0.28-0.92
	c0.04-0.02,0.08-0.02,0.12-0.02c0.06,0,0.1,0,0.12,0.02s0.04,0.04,0.06,0.1l0.24,0.84c0.04,0.12,0.06,0.22,0.08,0.3
	c0.02,0.1,0.04,0.18,0.06,0.26l0,0c0.02-0.08,0.04-0.16,0.06-0.26c0.02-0.08,0.04-0.2,0.08-0.3L26,24.16
	c0.02-0.06,0.06-0.08,0.12-0.08c0.02,0,0.04,0,0.06,0s0.04,0.02,0.06,0.02l-0.42,1.62c-0.02,0.04-0.04,0.06-0.06,0.08
	c-0.02,0.02-0.08,0.02-0.12,0.02c-0.02,0-0.06,0-0.08,0s-0.06,0-0.06-0.02l-0.42-1.44l-0.4,1.34c-0.02,0.04-0.04,0.08-0.06,0.1
	S24.56,25.8,24.5,25.8z"/>
<path fill="#FFFFFF" d="M44.46,37.46c-0.14,0-0.26-0.04-0.36-0.101c-0.1-0.06-0.18-0.139-0.24-0.239l0,0c0,0.021,0,0.04,0,0.08
	s0,0.06,0,0.079c0,0.041-0.02,0.08-0.039,0.101c-0.021,0.021-0.061,0.04-0.1,0.04c-0.041,0-0.08,0-0.101-0.02
	c0-0.08,0-0.18,0.021-0.28c0-0.12,0-0.24,0-0.38v-1.68c0-0.021,0-0.061,0.02-0.08c0.02-0.021,0.061-0.021,0.1-0.021
	c0.02,0,0.04,0,0.061,0c0.02,0,0.039,0,0.039,0.021v0.959C43.92,35.88,44,35.8,44.1,35.76c0.101-0.06,0.221-0.08,0.36-0.08
	c0.101,0,0.2,0.021,0.3,0.061c0.1,0.039,0.18,0.1,0.26,0.16c0.08,0.06,0.141,0.16,0.181,0.279c0.04,0.1,0.06,0.24,0.06,0.381
	c0,0.119-0.02,0.239-0.06,0.359s-0.101,0.2-0.16,0.28c-0.08,0.079-0.16,0.14-0.261,0.2C44.68,37.439,44.58,37.46,44.46,37.46z
	 M44.42,37.26c0.08,0,0.16-0.02,0.221-0.039c0.08-0.021,0.139-0.08,0.18-0.141c0.06-0.061,0.1-0.12,0.119-0.221
	c0.041-0.08,0.041-0.18,0.041-0.299c0-0.101-0.021-0.201-0.041-0.281c-0.039-0.079-0.08-0.159-0.119-0.219
	C44.76,36,44.7,35.96,44.641,35.92c-0.08-0.04-0.16-0.04-0.24-0.04c-0.121,0-0.24,0.04-0.34,0.101
	c-0.101,0.06-0.181,0.14-0.221,0.24V36.7c0,0.079,0.02,0.14,0.04,0.22c0.021,0.061,0.06,0.12,0.12,0.18
	c0.061,0.061,0.1,0.08,0.18,0.121C44.26,37.26,44.34,37.26,44.42,37.26z M46.38,37.48c-0.14,0-0.26-0.021-0.38-0.061
	s-0.2-0.1-0.279-0.199c-0.08-0.101-0.141-0.181-0.181-0.281c-0.04-0.1-0.06-0.219-0.06-0.359c0-0.12,0.02-0.24,0.06-0.359
	c0.04-0.121,0.101-0.201,0.181-0.281c0.079-0.08,0.159-0.14,0.26-0.18c0.1-0.039,0.199-0.06,0.319-0.06
	c0.14,0,0.24,0.021,0.341,0.079c0.1,0.061,0.18,0.121,0.239,0.201s0.12,0.16,0.14,0.26c0.041,0.1,0.041,0.18,0.041,0.279
	c0,0.08,0,0.121-0.021,0.16h-1.36c0,0.1,0.021,0.18,0.061,0.26c0.039,0.08,0.08,0.141,0.14,0.181c0.06,0.06,0.12,0.101,0.2,0.12
	s0.16,0.039,0.24,0.039s0.14,0,0.18-0.02c0.061-0.02,0.1-0.02,0.141-0.039c0.039-0.021,0.08-0.021,0.1-0.041
	c0.039-0.02,0.06-0.02,0.08-0.02c0.039,0,0.06,0.02,0.08,0.04c0.02,0.04,0.02,0.079,0.02,0.12c-0.061,0.039-0.16,0.06-0.26,0.1
	S46.52,37.48,46.38,37.48z M45.74,36.48h1.14c0-0.08-0.021-0.16-0.04-0.24s-0.061-0.141-0.119-0.18
	C46.68,36,46.62,35.96,46.561,35.939C46.5,35.9,46.42,35.9,46.34,35.9s-0.16,0.02-0.22,0.039c-0.06,0.041-0.12,0.08-0.181,0.121
	c-0.06,0.06-0.1,0.119-0.119,0.18C45.76,36.32,45.74,36.4,45.74,36.48z M48.08,37.46c-0.18,0-0.301-0.06-0.4-0.16
	c-0.1-0.1-0.14-0.239-0.14-0.399v-0.98h-0.28c0-0.02-0.02-0.061-0.02-0.1c0-0.041,0-0.061,0.02-0.08s0.04-0.02,0.061-0.02h0.199
	V35.38c0-0.04,0-0.06,0.021-0.101c0.021-0.02,0.06-0.039,0.12-0.039c0.02,0,0.04,0,0.061,0c0.02,0,0.039,0,0.039,0.02v0.48h0.66
	c0,0.02,0.02,0.06,0.02,0.08c0,0.039,0,0.06-0.02,0.08c-0.02,0.02-0.04,0.02-0.061,0.02h-0.58v0.96c0,0.101,0.021,0.2,0.08,0.261
	c0.061,0.06,0.141,0.1,0.24,0.1c0.041,0,0.08,0,0.121-0.02c0.039-0.021,0.059-0.021,0.1-0.041c0.02-0.02,0.06-0.02,0.08-0.039
	c0.02,0,0.039-0.021,0.06-0.021c0.04,0,0.06,0.021,0.08,0.04s0.021,0.061,0.021,0.119c-0.061,0.041-0.141,0.08-0.201,0.101
	C48.26,37.46,48.16,37.46,48.08,37.46z M49.32,37.46c-0.1,0-0.18-0.021-0.26-0.04s-0.141-0.061-0.181-0.12
	c-0.06-0.04-0.08-0.1-0.12-0.159c-0.02-0.061-0.039-0.141-0.039-0.201c0-0.16,0.059-0.299,0.18-0.399
	c0.119-0.101,0.3-0.16,0.56-0.16c0.14,0,0.319,0.021,0.521,0.06V36.3c0-0.14-0.041-0.26-0.101-0.319
	c-0.06-0.061-0.18-0.101-0.34-0.101c-0.08,0-0.16,0-0.22,0.021c-0.061,0-0.12,0.02-0.16,0.039c-0.04,0.021-0.08,0.021-0.1,0.041
	C49.04,35.98,49,36,48.98,36c-0.041,0-0.061-0.02-0.08-0.04c-0.021-0.04-0.021-0.08-0.021-0.14c0.06-0.021,0.14-0.041,0.261-0.061
	c0.119-0.02,0.26-0.039,0.399-0.039s0.239,0.02,0.319,0.039c0.08,0.04,0.16,0.08,0.201,0.141c0.039,0.06,0.08,0.14,0.1,0.22
	s0.04,0.18,0.04,0.28v0.379c0,0.08,0,0.141,0,0.201c0,0.06,0,0.119,0.021,0.16c0.02,0.039,0.02,0.1,0.039,0.139
	c0.02,0.041,0.04,0.101,0.061,0.16c-0.021,0-0.041,0.021-0.061,0.021s-0.039,0-0.06,0c-0.04,0-0.06,0-0.08-0.021
	c-0.021-0.02-0.04-0.039-0.04-0.06c-0.02-0.021-0.02-0.06-0.04-0.101c-0.021-0.039-0.021-0.1-0.021-0.159l0,0
	c-0.06,0.101-0.14,0.18-0.26,0.239C49.641,37.439,49.5,37.46,49.32,37.46z M49.359,37.26c0.141,0,0.261-0.039,0.361-0.1
	c0.1-0.061,0.18-0.16,0.239-0.28v-0.26c-0.181-0.04-0.34-0.06-0.46-0.06c-0.18,0-0.32,0.039-0.42,0.1s-0.141,0.16-0.141,0.26
	s0.041,0.18,0.101,0.24C49.141,37.24,49.24,37.26,49.359,37.26z"/>
<path fill="#27AAE1" d="M14.66,33.38c-0.64,0.261-1.24,0.399-1.8,0.399c-0.58,0-1.08-0.119-1.54-0.379s-0.8-0.621-1.06-1.101
	C10,31.82,9.88,31.26,9.88,30.641C9.88,30.04,10,29.5,10.24,29c0.24-0.48,0.6-0.88,1.06-1.16c0.46-0.28,0.98-0.42,1.56-0.42
	c0.56,0,1.18,0.14,1.8,0.4c0,0.18-0.06,0.28-0.2,0.28c-0.04,0-0.1-0.02-0.18-0.04c-0.08-0.02-0.16-0.06-0.26-0.08
	c-0.24-0.08-0.44-0.12-0.62-0.14c-0.18-0.02-0.36-0.04-0.56-0.04c-0.48,0-0.92,0.12-1.32,0.36c-0.38,0.24-0.7,0.56-0.92,1
	c-0.22,0.44-0.34,0.94-0.34,1.5c0,0.54,0.1,1.02,0.32,1.439c0.22,0.42,0.52,0.74,0.9,0.98c0.4,0.24,0.84,0.359,1.36,0.359
	c0.44,0,0.88-0.08,1.28-0.219c0.18-0.061,0.3-0.101,0.34-0.101C14.6,33.1,14.66,33.2,14.66,33.38z M18.52,33.76
	c-0.54,0-1.04-0.14-1.48-0.4c-0.44-0.26-0.8-0.639-1.06-1.139c-0.26-0.5-0.4-1.061-0.4-1.681c0-0.6,0.12-1.14,0.36-1.62
	c0.24-0.48,0.58-0.88,1.04-1.16c0.44-0.28,0.96-0.44,1.54-0.44c0.54,0,1.04,0.14,1.48,0.4c0.44,0.26,0.8,0.64,1.06,1.14
	c0.26,0.5,0.4,1.06,0.4,1.68c0,0.601-0.12,1.14-0.36,1.62c-0.24,0.48-0.58,0.88-1.04,1.16C19.6,33.62,19.1,33.76,18.52,33.76z
	 M18.52,33.4c0.46,0,0.88-0.121,1.26-0.36c0.38-0.24,0.68-0.58,0.92-1c0.22-0.44,0.34-0.92,0.34-1.5c0-0.52-0.1-1-0.32-1.44
	c-0.2-0.44-0.5-0.78-0.9-1.04c-0.4-0.26-0.82-0.38-1.32-0.38c-0.46,0-0.88,0.12-1.26,0.36c-0.38,0.24-0.68,0.58-0.92,1
	c-0.22,0.44-0.34,0.92-0.34,1.5c0,0.521,0.1,1,0.32,1.44c0.2,0.439,0.5,0.779,0.9,1.039C17.58,33.279,18.02,33.4,18.52,33.4z
	 M23.36,27.92v5.641c0,0.119-0.08,0.18-0.22,0.18c-0.06,0-0.12,0-0.18-0.02V27.48c0.1-0.04,0.18-0.06,0.28-0.06
	c0.1,0,0.16,0.02,0.22,0.04s0.1,0.08,0.14,0.14l3.56,5.64V27.6c0-0.12,0.08-0.18,0.22-0.18c0.06,0,0.12,0,0.18,0.02v6.24
	c-0.1,0.041-0.18,0.061-0.28,0.061c-0.08,0-0.16-0.02-0.2-0.04c-0.06-0.021-0.1-0.08-0.14-0.14L23.36,27.92z M29.82,27.92v5.641
	c0,0.119-0.08,0.18-0.22,0.18c-0.06,0-0.12,0-0.18-0.02V27.48c0.1-0.04,0.18-0.06,0.28-0.06c0.1,0,0.16,0.02,0.22,0.04
	s0.1,0.08,0.14,0.14l3.54,5.64V27.6c0-0.12,0.08-0.18,0.221-0.18c0.06,0,0.119,0,0.18,0.02v6.24c-0.1,0.041-0.18,0.061-0.279,0.061
	c-0.08,0-0.16-0.02-0.201-0.04c-0.06-0.021-0.1-0.08-0.14-0.14L29.82,27.92z M36.04,33.68c-0.101,0-0.16-0.06-0.16-0.16V27.6
	c0-0.1,0.06-0.16,0.16-0.16h3.26c0.021,0.06,0.021,0.1,0.021,0.14c0,0.14-0.061,0.2-0.18,0.2H36.26v2.6h2.76
	c0.021,0.06,0.021,0.1,0.021,0.14c0,0.141-0.06,0.201-0.181,0.201h-2.6v2.6h3.08c0.02,0.06,0.02,0.1,0.02,0.14
	c0,0.14-0.06,0.2-0.18,0.2h-3.14V33.68z M45.279,33.38c-0.639,0.261-1.239,0.399-1.799,0.399c-0.58,0-1.08-0.119-1.541-0.379
	c-0.459-0.26-0.799-0.621-1.06-1.101c-0.26-0.479-0.38-1.04-0.38-1.659c0-0.601,0.12-1.141,0.359-1.641
	c0.24-0.48,0.601-0.88,1.061-1.16c0.46-0.28,0.98-0.42,1.561-0.42c0.56,0,1.18,0.14,1.799,0.4c0,0.18-0.059,0.28-0.199,0.28
	c-0.04,0-0.1-0.02-0.18-0.04s-0.16-0.06-0.26-0.08c-0.24-0.08-0.44-0.12-0.621-0.14c-0.18-0.02-0.359-0.04-0.56-0.04
	c-0.479,0-0.92,0.12-1.319,0.36c-0.381,0.24-0.701,0.56-0.92,1C41,29.6,40.88,30.1,40.88,30.66c0,0.54,0.101,1.02,0.32,1.439
	s0.521,0.74,0.899,0.98c0.4,0.24,0.84,0.359,1.36,0.359c0.44,0,0.88-0.08,1.28-0.219c0.18-0.061,0.3-0.101,0.34-0.101
	C45.221,33.1,45.279,33.2,45.279,33.38z M48.061,27.78h-2.08c-0.021-0.06-0.021-0.1-0.021-0.14c0-0.14,0.06-0.2,0.181-0.2h4.399
	c0.021,0.06,0.021,0.1,0.021,0.14c0,0.14-0.061,0.2-0.181,0.2h-1.92v5.76c0,0.12-0.08,0.181-0.22,0.181c-0.061,0-0.12,0-0.18-0.021
	V27.78z"/>
</svg>
