<?xml version="1.0" encoding="utf-8"?>
<!-- Generator: Adobe Illustrator 19.1.0, SVG Export Plug-In . SVG Version: 6.00 Build 0)  -->
<svg version="1.1" id="Layer_1" xmlns="http://www.w3.org/2000/svg" xmlns:xlink="http://www.w3.org/1999/xlink" x="0px" y="0px"
	 viewBox="0 0 300 110" style="enable-background:new 0 0 300 110;" xml:space="preserve">
<style type="text/css">
	.st0{fill:#EAEAEA;}
	.st1{fill:#F4F4F4;}
	.st2{fill:#0073C5;}
	.st3{fill:#44AD3A;}
	.st4{fill:#ED1C24;}
	.st5{fill:#0077AE;}
	.st6{fill:#0076BE;}
	.st7{fill:#003663;}
	.st8{fill:#734993;}
	.st9{fill:#87A0AF;}
	.st10{fill:#A51D4D;}
	.st11{fill:#FF6000;}
	.st12{fill:#1998F2;}
	.st13{fill:#D92231;}
	.st14{fill:#EFEFEF;}
	.st15{fill:#29C1AD;}
	.st16{fill:#ED0677;}
	.st17{fill:#FDB913;}
	.st18{fill:#A6CE39;}
	.st19{fill:#00AEEF;}
	.st20{fill:#FFFFFF;}
	.st21{fill:#939598;}
	.st22{fill:#27AAE1;}
	.st23{fill:#A7A9AC;}
	.st24{fill:#CCCCCC;}
	.st25{fill:#C2C2C2;}
	.st26{fill:#F2F2F2;}
	.st27{fill:#AEAEAE;}
	.st28{fill:#333333;}
	.st29{clip-path:url(#SVGID_2_);}
	.st30{fill:none;}
	.st31{fill:#666666;}
	.st32{fill:#DADADA;}
	.st33{clip-path:url(#SVGID_4_);}
	.st34{fill:url(#shadow_46_);}
	.st35{fill:#F6CCB8;}
	.st36{fill:#221F1F;}
	.st37{fill:#3C2417;}
	.st38{fill:#43414D;}
	.st39{fill:#7FA1CC;}
	.st40{opacity:0.8;fill:#F6CCB8;}
	.st41{fill:#C5672F;}
	.st42{fill:url(#shadow_47_);}
	.st43{fill:#BF8858;}
	.st44{fill:#F05D44;}
	.st45{fill:#2D1B10;}
	.st46{fill:url(#shadow_48_);}
	.st47{fill:#E6E6E6;}
	.st48{fill:#F4AF76;}
	.st49{fill:#3C2415;}
	.st50{fill:#84D1C9;}
	.st51{fill:#F7CDB9;}
	.st52{opacity:0.8;fill:#F7CDB9;}
	.st53{fill:url(#shadow_49_);}
	.st54{fill:#A5927D;}
	.st55{fill:#F2AE75;}
	.st56{fill:#DCC2A7;}
	.st57{fill:#A4917D;}
	.st58{fill:#231F20;}
	.st59{fill:url(#shadow_50_);}
	.st60{fill:#C18958;}
	.st61{fill:#F4B350;}
	.st62{fill:url(#shadow_51_);}
	.st63{fill:#826AAE;}
	.st64{fill:#9B88BE;}
	.st65{fill:#F1AD75;}
	.st66{fill:#816AAD;}
	.st67{fill:#DADCDD;}
	.st68{fill:#EE9D25;}
	.st69{fill:url(#shadow_52_);}
	.st70{fill:#32303A;}
	.st71{clip-path:url(#SVGID_6_);}
	.st72{clip-path:url(#SVGID_8_);}
	.st73{clip-path:url(#SVGID_10_);}
	.st74{clip-path:url(#SVGID_12_);}
	.st75{clip-path:url(#SVGID_14_);}
	.st76{clip-path:url(#SVGID_16_);}
	.st77{clip-path:url(#SVGID_18_);}
	.st78{fill:#2D1C12;}
	.st79{fill:url(#shadow_53_);}
	.st80{fill:#F080B1;}
	.st81{fill:#EF80B0;}
	.st82{fill:url(#shadow_54_);}
	.st83{fill:#08507C;}
	.st84{fill:#7CCCEC;}
	.st85{fill:#B0E0F4;}
	.st86{fill:url(#shadow_55_);}
	.st87{fill:#2675A8;}
	.st88{clip-path:url(#SVGID_20_);}
	.st89{clip-path:url(#SVGID_22_);}
	.st90{fill:#DAF1EF;}
	.st91{clip-path:url(#SVGID_24_);}
	.st92{fill:#67BEE1;}
	.st93{fill:url(#shadow_56_);}
	.st94{clip-path:url(#SVGID_26_);}
	.st95{clip-path:url(#SVGID_28_);}
	.st96{clip-path:url(#SVGID_30_);}
	.st97{clip-path:url(#SVGID_32_);}
	.st98{clip-path:url(#SVGID_34_);}
	.st99{fill:url(#shadow_57_);}
	.st100{fill:#33444A;}
	.st101{fill:#C3996C;}
	.st102{fill:#445A64;}
	.st103{fill:#F15D44;}
	.st104{fill:url(#shadow_58_);}
	.st105{fill:#8CC541;}
	.st106{fill:#F5CBB7;}
	.st107{fill:url(#shadow_59_);}
	.st108{fill:#42404D;}
	.st109{fill:url(#shadow_60_);}
	.st110{fill:#1A1718;}
	.st111{fill:#E6E7E8;}
	.st112{fill:#4F4C4D;}
	.st113{fill:#C8C8C8;}
	.st114{clip-path:url(#SVGID_36_);}
	.st115{clip-path:url(#SVGID_38_);}
	.st116{fill:url(#shadow_61_);}
	.st117{fill:url(#shadow_62_);}
	.st118{fill:url(#shadow_63_);}
	.st119{fill:url(#shadow_64_);}
	.st120{fill:url(#shadow_65_);}
	.st121{fill:url(#shadow_66_);}
	.st122{fill:url(#shadow_67_);}
	.st123{clip-path:url(#SVGID_40_);}
	.st124{clip-path:url(#SVGID_42_);}
	.st125{clip-path:url(#SVGID_44_);}
	.st126{clip-path:url(#SVGID_46_);}
	.st127{clip-path:url(#SVGID_48_);}
	.st128{clip-path:url(#SVGID_50_);}
	.st129{clip-path:url(#SVGID_52_);}
	.st130{fill:url(#shadow_68_);}
	.st131{fill:url(#shadow_69_);}
	.st132{fill:url(#shadow_70_);}
	.st133{clip-path:url(#SVGID_54_);}
	.st134{clip-path:url(#SVGID_56_);}
	.st135{clip-path:url(#SVGID_58_);}
	.st136{fill:url(#shadow_71_);}
	.st137{clip-path:url(#SVGID_60_);}
	.st138{clip-path:url(#SVGID_62_);}
	.st139{clip-path:url(#SVGID_64_);}
	.st140{clip-path:url(#SVGID_66_);}
	.st141{clip-path:url(#SVGID_68_);}
	.st142{fill:url(#shadow_72_);}
	.st143{fill:url(#shadow_73_);}
	.st144{fill:url(#shadow_74_);}
	.st145{fill:url(#shadow_75_);}
	.st146{display:none;}
	.st147{display:inline;}
	.st148{display:inline;clip-path:url(#SVGID_70_);}
	.st149{clip-path:url(#SVGID_72_);}
	.st150{fill:url(#shadow_76_);}
	.st151{fill:url(#shadow_77_);}
	.st152{fill:url(#shadow_78_);}
	.st153{fill:url(#shadow_79_);}
	.st154{fill:url(#shadow_80_);}
	.st155{fill:url(#shadow_81_);}
	.st156{fill:url(#shadow_82_);}
	.st157{clip-path:url(#SVGID_74_);}
	.st158{clip-path:url(#SVGID_76_);}
	.st159{clip-path:url(#SVGID_78_);}
	.st160{clip-path:url(#SVGID_80_);}
	.st161{clip-path:url(#SVGID_82_);}
	.st162{clip-path:url(#SVGID_84_);}
	.st163{clip-path:url(#SVGID_86_);}
	.st164{fill:url(#shadow_83_);}
	.st165{fill:url(#shadow_84_);}
	.st166{fill:url(#shadow_85_);}
	.st167{clip-path:url(#SVGID_88_);}
	.st168{clip-path:url(#SVGID_90_);}
	.st169{clip-path:url(#SVGID_92_);}
	.st170{fill:url(#shadow_86_);}
	.st171{clip-path:url(#SVGID_94_);}
	.st172{clip-path:url(#SVGID_96_);}
	.st173{clip-path:url(#SVGID_98_);}
	.st174{clip-path:url(#SVGID_100_);}
	.st175{clip-path:url(#SVGID_102_);}
	.st176{fill:url(#shadow_87_);}
	.st177{fill:url(#shadow_88_);}
	.st178{fill:url(#shadow_89_);}
	.st179{fill:url(#shadow_90_);}
</style>
<path class="st23" d="M52.9,33.9c-0.1,0-0.2,0-0.3,0c-0.1,0-0.2,0-0.3-0.1V22.6c0-0.1,0.1-0.3,0.2-0.4c0.1-0.1,0.3-0.1,0.5-0.1
	c0.1,0,0.2,0,0.3,0c0.1,0,0.2,0,0.3,0.1v5.6l5-5.3c0.1-0.1,0.2-0.2,0.3-0.2c0.1-0.1,0.3-0.1,0.4-0.1c0.3,0,0.6,0.1,0.9,0.2l-5.3,5.6
	l5.5,5.8c-0.3,0.1-0.6,0.2-1,0.2c-0.2,0-0.3,0-0.4-0.1c-0.1-0.1-0.2-0.1-0.3-0.2l-5.1-5.5v5.3c0,0.1-0.1,0.3-0.2,0.4
	C53.3,33.9,53.1,33.9,52.9,33.9z M62.2,33.9c-0.1,0-0.2,0-0.3,0s-0.2,0-0.3-0.1v-8.5c0.2-0.1,0.3-0.1,0.5-0.1c0.5,0,0.7,0.3,0.7,0.8
	v0.5h0c0.3-0.4,0.7-0.8,1.2-1c0.5-0.3,1.1-0.4,1.7-0.4c1,0,1.8,0.3,2.4,1c0.6,0.7,0.8,1.5,0.8,2.6v4.7c0,0.1,0,0.3-0.1,0.4
	c-0.1,0.1-0.3,0.1-0.5,0.1c-0.1,0-0.2,0-0.3,0c-0.1,0-0.2,0-0.3-0.1v-5c0-0.9-0.2-1.6-0.6-2.1s-1-0.7-1.7-0.7c-0.2,0-0.5,0-0.7,0.1
	c-0.3,0.1-0.5,0.2-0.7,0.3c-0.2,0.1-0.4,0.3-0.6,0.5c-0.2,0.2-0.3,0.4-0.5,0.6v5.8c0,0.1,0,0.3-0.1,0.4
	C62.6,33.9,62.4,33.9,62.2,33.9z M75,34c-0.6,0-1.2-0.1-1.8-0.3c-0.5-0.2-1-0.5-1.4-0.9c-0.4-0.4-0.7-0.9-0.9-1.4
	c-0.2-0.5-0.3-1.1-0.3-1.8c0-0.6,0.1-1.2,0.3-1.7c0.2-0.5,0.5-1,0.9-1.4c0.4-0.4,0.8-0.7,1.4-1s1.1-0.4,1.8-0.4
	c0.6,0,1.2,0.1,1.7,0.4c0.5,0.2,1,0.6,1.3,1s0.7,0.9,0.9,1.4s0.3,1.1,0.3,1.7c0,0.6-0.1,1.2-0.3,1.7c-0.2,0.5-0.5,1-0.8,1.4
	c-0.4,0.4-0.8,0.7-1.3,1C76.2,33.9,75.7,34,75,34z M75,33c0.4,0,0.7-0.1,1.1-0.2c0.4-0.1,0.7-0.3,1-0.6c0.3-0.3,0.5-0.6,0.7-1.1
	c0.2-0.4,0.3-0.9,0.3-1.5c0-0.5-0.1-1-0.3-1.4c-0.2-0.4-0.4-0.8-0.7-1.1c-0.3-0.3-0.6-0.5-1-0.7c-0.4-0.2-0.8-0.2-1.2-0.2
	c-0.4,0-0.8,0.1-1.1,0.2c-0.4,0.2-0.7,0.4-1,0.7c-0.3,0.3-0.5,0.7-0.7,1.1c-0.2,0.4-0.3,0.9-0.3,1.4c0,0.6,0.1,1.1,0.3,1.5
	c0.2,0.4,0.4,0.8,0.7,1.1s0.6,0.5,1,0.6C74.2,32.9,74.6,33,75,33z M82.9,34c-0.1,0-0.2,0-0.4,0c-0.2,0-0.3,0-0.4-0.1L80,25.4
	c0.1,0,0.2-0.1,0.3-0.1c0.1,0,0.2,0,0.4,0c0.2,0,0.3,0,0.5,0.1s0.2,0.2,0.3,0.4l1,4.3c0.1,0.5,0.2,1,0.3,1.5s0.2,0.9,0.3,1.3h0
	c0-0.2,0.1-0.4,0.2-0.7c0.1-0.3,0.1-0.5,0.2-0.8c0.1-0.3,0.2-0.5,0.2-0.7c0.1-0.2,0.1-0.5,0.2-0.6l1.4-4.6c0.2-0.1,0.4-0.1,0.6-0.1
	c0.3,0,0.5,0,0.6,0.1s0.2,0.2,0.3,0.5L88,30c0.2,0.6,0.3,1.1,0.4,1.5c0.1,0.5,0.2,0.9,0.3,1.3h0c0.1-0.4,0.2-0.8,0.3-1.3
	c0.1-0.4,0.2-1,0.4-1.5l1.1-4.4c0.1-0.3,0.3-0.4,0.6-0.4c0.1,0,0.2,0,0.3,0c0.1,0,0.2,0.1,0.3,0.1l-2.1,8.1
	c-0.1,0.2-0.2,0.3-0.3,0.4S88.9,34,88.7,34c-0.1,0-0.3,0-0.4,0c-0.1,0-0.3,0-0.3-0.1l-2.1-7.2l-2,6.7c-0.1,0.2-0.2,0.4-0.3,0.5
	S83.2,34,82.9,34z M92.3,29.8c0-0.1,0-0.1,0-0.2c0-0.1,0-0.2,0-0.3c0-0.2,0-0.4,0.1-0.4c0.1-0.1,0.2-0.1,0.3-0.1h4.6
	c0,0.1,0,0.1,0,0.2c0,0.1,0,0.2,0,0.3c0,0.2,0,0.4-0.1,0.5c-0.1,0.1-0.2,0.1-0.3,0.1H92.3z M99.9,33.9c-0.1,0-0.2,0-0.3,0
	c-0.1,0-0.2,0-0.3-0.1V22.6c0-0.1,0.1-0.3,0.2-0.4c0.1-0.1,0.3-0.1,0.5-0.1c0.1,0,0.2,0,0.3,0c0.1,0,0.2,0,0.3,0.1v5.2h6.5v-4.8
	c0-0.1,0.1-0.3,0.2-0.4c0.1-0.1,0.3-0.1,0.5-0.1c0.1,0,0.2,0,0.3,0c0.1,0,0.2,0,0.3,0.1v11.3c0,0.1-0.1,0.3-0.2,0.4
	c-0.1,0.1-0.3,0.1-0.5,0.1c-0.1,0-0.2,0-0.3,0s-0.2,0-0.3-0.1v-5.4h-6.5v5c0,0.1-0.1,0.3-0.2,0.4C100.3,33.9,100.1,33.9,99.9,33.9z
	 M114.6,34c-0.6,0-1.2-0.1-1.8-0.3c-0.5-0.2-1-0.5-1.4-0.9c-0.4-0.4-0.7-0.9-0.9-1.4c-0.2-0.5-0.3-1.1-0.3-1.8
	c0-0.6,0.1-1.2,0.3-1.7c0.2-0.5,0.5-1,0.9-1.4c0.4-0.4,0.8-0.7,1.4-1s1.1-0.4,1.8-0.4c0.6,0,1.2,0.1,1.7,0.4c0.5,0.2,1,0.6,1.3,1
	s0.7,0.9,0.9,1.4s0.3,1.1,0.3,1.7c0,0.6-0.1,1.2-0.3,1.7c-0.2,0.5-0.5,1-0.8,1.4c-0.4,0.4-0.8,0.7-1.3,1
	C115.8,33.9,115.3,34,114.6,34z M114.6,33c0.4,0,0.7-0.1,1.1-0.2c0.4-0.1,0.7-0.3,1-0.6c0.3-0.3,0.5-0.6,0.7-1.1
	c0.2-0.4,0.3-0.9,0.3-1.5c0-0.5-0.1-1-0.3-1.4c-0.2-0.4-0.4-0.8-0.7-1.1c-0.3-0.3-0.6-0.5-1-0.7c-0.4-0.2-0.8-0.2-1.2-0.2
	c-0.4,0-0.8,0.1-1.1,0.2c-0.4,0.2-0.7,0.4-1,0.7c-0.3,0.3-0.5,0.7-0.7,1.1c-0.2,0.4-0.3,0.9-0.3,1.4c0,0.6,0.1,1.1,0.3,1.5
	c0.2,0.4,0.4,0.8,0.7,1.1s0.6,0.5,1,0.6C113.8,32.9,114.2,33,114.6,33z M122.5,34c-0.1,0-0.2,0-0.4,0c-0.2,0-0.3,0-0.4-0.1l-2.2-8.5
	c0.1,0,0.2-0.1,0.3-0.1c0.1,0,0.2,0,0.4,0c0.2,0,0.3,0,0.5,0.1s0.2,0.2,0.3,0.4l1,4.3c0.1,0.5,0.2,1,0.3,1.5s0.2,0.9,0.3,1.3h0
	c0-0.2,0.1-0.4,0.2-0.7c0.1-0.3,0.1-0.5,0.2-0.8c0.1-0.3,0.2-0.5,0.2-0.7c0.1-0.2,0.1-0.5,0.2-0.6l1.4-4.6c0.2-0.1,0.4-0.1,0.6-0.1
	c0.3,0,0.5,0,0.6,0.1s0.2,0.2,0.3,0.5l1.2,4.2c0.2,0.6,0.3,1.1,0.4,1.5c0.1,0.5,0.2,0.9,0.3,1.3h0c0.1-0.4,0.2-0.8,0.3-1.3
	c0.1-0.4,0.2-1,0.4-1.5l1.1-4.4c0.1-0.3,0.3-0.4,0.6-0.4c0.1,0,0.2,0,0.3,0c0.1,0,0.2,0.1,0.3,0.1l-2.1,8.1
	c-0.1,0.2-0.2,0.3-0.3,0.4s-0.4,0.1-0.6,0.1c-0.1,0-0.3,0-0.4,0c-0.1,0-0.3,0-0.3-0.1l-2.1-7.2l-2,6.7c-0.1,0.2-0.2,0.4-0.3,0.5
	S122.8,34,122.5,34z"/>
<path class="st23" d="M222.3,92.3c-0.7,0-1.3-0.2-1.8-0.5c-0.5-0.3-0.9-0.7-1.2-1.2h0c0,0.1,0,0.2,0,0.4c0,0.2,0,0.3,0,0.4
	c0,0.2-0.1,0.4-0.2,0.5s-0.3,0.2-0.5,0.2c-0.2,0-0.4,0-0.5-0.1c0-0.4,0-0.9,0.1-1.4c0-0.6,0-1.2,0-1.9v-8.4c0-0.1,0-0.3,0.1-0.4
	c0.1-0.1,0.3-0.1,0.5-0.1c0.1,0,0.2,0,0.3,0c0.1,0,0.2,0,0.2,0.1v4.8c0.3-0.3,0.7-0.7,1.2-0.9c0.5-0.3,1.1-0.4,1.8-0.4
	c0.5,0,1,0.1,1.5,0.3c0.5,0.2,0.9,0.5,1.3,0.8s0.7,0.8,0.9,1.4c0.2,0.5,0.3,1.2,0.3,1.9c0,0.6-0.1,1.2-0.3,1.8
	c-0.2,0.6-0.5,1-0.8,1.4c-0.4,0.4-0.8,0.7-1.3,1C223.4,92.2,222.9,92.3,222.3,92.3z M222.1,91.3c0.4,0,0.8-0.1,1.1-0.2
	c0.4-0.1,0.7-0.4,0.9-0.7c0.3-0.3,0.5-0.6,0.6-1.1c0.2-0.4,0.2-0.9,0.2-1.5c0-0.5-0.1-1-0.2-1.4c-0.2-0.4-0.4-0.8-0.6-1.1
	c-0.3-0.3-0.6-0.5-0.9-0.7c-0.4-0.2-0.8-0.2-1.2-0.2c-0.6,0-1.2,0.2-1.7,0.5s-0.9,0.7-1.1,1.2v2.4c0,0.4,0.1,0.7,0.2,1.1
	c0.1,0.3,0.3,0.6,0.6,0.9s0.5,0.4,0.9,0.6S221.7,91.3,222.1,91.3z M231.9,92.4c-0.7,0-1.3-0.1-1.9-0.3c-0.6-0.2-1-0.5-1.4-1
	s-0.7-0.9-0.9-1.4c-0.2-0.5-0.3-1.1-0.3-1.8c0-0.6,0.1-1.2,0.3-1.8s0.5-1,0.9-1.4c0.4-0.4,0.8-0.7,1.3-0.9c0.5-0.2,1-0.3,1.6-0.3
	c0.7,0,1.2,0.1,1.7,0.4c0.5,0.3,0.9,0.6,1.2,1c0.3,0.4,0.6,0.8,0.7,1.3c0.2,0.5,0.2,0.9,0.2,1.4c0,0.4,0,0.6-0.1,0.8h-6.8
	c0,0.5,0.1,0.9,0.3,1.3s0.4,0.7,0.7,0.9c0.3,0.3,0.6,0.5,1,0.6c0.4,0.1,0.8,0.2,1.2,0.2c0.4,0,0.7,0,0.9-0.1
	c0.3-0.1,0.5-0.1,0.7-0.2c0.2-0.1,0.4-0.1,0.5-0.2c0.2-0.1,0.3-0.1,0.4-0.1c0.2,0,0.3,0.1,0.4,0.2c0.1,0.2,0.1,0.4,0.1,0.6
	c-0.3,0.2-0.8,0.3-1.3,0.5S232.6,92.4,231.9,92.4z M228.7,87.4h5.7c0-0.4-0.1-0.8-0.2-1.2c-0.1-0.4-0.3-0.7-0.6-0.9
	c-0.2-0.3-0.5-0.5-0.8-0.6c-0.3-0.2-0.7-0.2-1.1-0.2c-0.4,0-0.8,0.1-1.1,0.2c-0.3,0.2-0.6,0.4-0.9,0.6c-0.3,0.3-0.5,0.6-0.6,0.9
	C228.8,86.6,228.7,87,228.7,87.4z M240.4,92.3c-0.9,0-1.5-0.3-2-0.8c-0.5-0.5-0.7-1.2-0.7-2v-4.9h-1.4c0-0.1-0.1-0.3-0.1-0.5
	c0-0.2,0-0.3,0.1-0.4c0.1-0.1,0.2-0.1,0.3-0.1h1v-1.7c0-0.2,0-0.3,0.1-0.5c0.1-0.1,0.3-0.2,0.6-0.2c0.1,0,0.2,0,0.3,0
	c0.1,0,0.2,0,0.2,0.1v2.4h3.3c0,0.1,0.1,0.3,0.1,0.4c0,0.2,0,0.3-0.1,0.4c-0.1,0.1-0.2,0.1-0.3,0.1h-2.9v4.8c0,0.5,0.1,1,0.4,1.3
	c0.3,0.3,0.7,0.5,1.2,0.5c0.2,0,0.4,0,0.6-0.1s0.3-0.1,0.5-0.2c0.1-0.1,0.3-0.1,0.4-0.2c0.1,0,0.2-0.1,0.3-0.1
	c0.2,0,0.3,0.1,0.4,0.2c0.1,0.1,0.1,0.3,0.1,0.6c-0.3,0.2-0.7,0.4-1,0.5C241.3,92.3,240.8,92.3,240.4,92.3z M246.6,92.3
	c-0.5,0-0.9-0.1-1.3-0.2s-0.7-0.3-0.9-0.6c-0.3-0.2-0.4-0.5-0.6-0.8c-0.1-0.3-0.2-0.7-0.2-1c0-0.8,0.3-1.5,0.9-2s1.5-0.8,2.8-0.8
	c0.7,0,1.6,0.1,2.6,0.3v-0.7c0-0.7-0.2-1.3-0.5-1.6c-0.3-0.3-0.9-0.5-1.7-0.5c-0.4,0-0.8,0-1.1,0.1c-0.3,0-0.6,0.1-0.8,0.2
	c-0.2,0.1-0.4,0.1-0.5,0.2c-0.1,0-0.3,0.1-0.4,0.1c-0.2,0-0.3-0.1-0.4-0.2c-0.1-0.2-0.1-0.4-0.1-0.7c0.3-0.1,0.7-0.2,1.3-0.3
	s1.3-0.2,2-0.2c0.7,0,1.2,0.1,1.6,0.2c0.4,0.2,0.8,0.4,1,0.7s0.4,0.7,0.5,1.1c0.1,0.4,0.2,0.9,0.2,1.4v1.9c0,0.4,0,0.7,0,1
	s0,0.6,0.1,0.8s0.1,0.5,0.2,0.7s0.2,0.5,0.3,0.8c-0.1,0-0.2,0.1-0.3,0.1c-0.1,0-0.2,0-0.3,0c-0.2,0-0.3,0-0.4-0.1
	c-0.1-0.1-0.2-0.2-0.2-0.3c-0.1-0.1-0.1-0.3-0.2-0.5c-0.1-0.2-0.1-0.5-0.1-0.8h0c-0.3,0.5-0.7,0.9-1.3,1.2
	C248.2,92.2,247.5,92.3,246.6,92.3z M246.8,91.3c0.7,0,1.3-0.2,1.8-0.5s0.9-0.8,1.2-1.4v-1.3c-0.9-0.2-1.7-0.3-2.3-0.3
	c-0.9,0-1.6,0.2-2.1,0.5c-0.5,0.3-0.7,0.8-0.7,1.3c0,0.5,0.2,0.9,0.5,1.2C245.7,91.2,246.2,91.3,246.8,91.3z"/>
<path class="st22" d="M73.3,71.9c-3.2,1.3-6.2,2-9,2c-2.9,0-5.4-0.6-7.7-1.9s-4-3.1-5.3-5.5s-1.9-5.2-1.9-8.3c0-3,0.6-5.7,1.8-8.2
	c1.2-2.4,3-4.4,5.3-5.8c2.3-1.4,4.9-2.1,7.8-2.1c2.8,0,5.9,0.7,9,2c0,0.9-0.3,1.4-1,1.4c-0.2,0-0.5-0.1-0.9-0.2
	c-0.4-0.1-0.8-0.3-1.3-0.4c-1.2-0.4-2.2-0.6-3.1-0.7c-0.9-0.1-1.8-0.2-2.8-0.2c-2.4,0-4.6,0.6-6.6,1.8c-1.9,1.2-3.5,2.8-4.6,5
	c-1.1,2.2-1.7,4.7-1.7,7.5c0,2.7,0.5,5.1,1.6,7.2c1.1,2.1,2.6,3.7,4.5,4.9c2,1.2,4.2,1.8,6.8,1.8c2.2,0,4.4-0.4,6.4-1.1
	c0.9-0.3,1.5-0.5,1.7-0.5C73,70.5,73.3,71,73.3,71.9z M92.6,73.8c-2.7,0-5.2-0.7-7.4-2s-4-3.2-5.3-5.7c-1.3-2.5-2-5.3-2-8.4
	c0-3,0.6-5.7,1.8-8.1c1.2-2.4,2.9-4.4,5.2-5.8c2.2-1.4,4.8-2.2,7.7-2.2c2.7,0,5.2,0.7,7.4,2c2.2,1.3,4,3.2,5.3,5.7
	c1.3,2.5,2,5.3,2,8.4c0,3-0.6,5.7-1.8,8.1c-1.2,2.4-2.9,4.4-5.2,5.8C98,73.1,95.5,73.8,92.6,73.8z M92.6,72c2.3,0,4.4-0.6,6.3-1.8
	c1.9-1.2,3.4-2.9,4.6-5c1.1-2.2,1.7-4.6,1.7-7.5c0-2.6-0.5-5-1.6-7.2c-1-2.2-2.5-3.9-4.5-5.2s-4.1-1.9-6.6-1.9
	c-2.3,0-4.4,0.6-6.3,1.8c-1.9,1.2-3.4,2.9-4.6,5c-1.1,2.2-1.7,4.6-1.7,7.5c0,2.6,0.5,5,1.6,7.2c1,2.2,2.5,3.9,4.5,5.2
	C87.9,71.4,90.1,72,92.6,72z M116.8,44.6v28.2c0,0.6-0.4,0.9-1.1,0.9c-0.3,0-0.6,0-0.9-0.1V42.4c0.5-0.2,0.9-0.3,1.4-0.3
	s0.8,0.1,1.1,0.2c0.3,0.1,0.5,0.4,0.7,0.7l17.8,28.2V43c0-0.6,0.4-0.9,1.1-0.9c0.3,0,0.6,0,0.9,0.1v31.2c-0.5,0.2-0.9,0.3-1.4,0.3
	c-0.4,0-0.8-0.1-1-0.2c-0.3-0.1-0.5-0.4-0.7-0.7L116.8,44.6z M149.1,44.6v28.2c0,0.6-0.4,0.9-1.1,0.9c-0.3,0-0.6,0-0.9-0.1V42.4
	c0.5-0.2,0.9-0.3,1.4-0.3s0.8,0.1,1.1,0.2c0.3,0.1,0.5,0.4,0.7,0.7L168,71.2V43c0-0.6,0.4-0.9,1.1-0.9c0.3,0,0.6,0,0.9,0.1v31.2
	c-0.5,0.2-0.9,0.3-1.4,0.3c-0.4,0-0.8-0.1-1-0.2c-0.3-0.1-0.5-0.4-0.7-0.7L149.1,44.6z M180.2,73.4c-0.5,0-0.8-0.3-0.8-0.8V43
	c0-0.5,0.3-0.8,0.8-0.8h16.3c0.1,0.3,0.1,0.5,0.1,0.7c0,0.7-0.3,1-0.9,1h-14.4v13h13.8c0.1,0.3,0.1,0.5,0.1,0.7c0,0.7-0.3,1-0.9,1
	h-13v13h15.4c0.1,0.3,0.1,0.5,0.1,0.7c0,0.7-0.3,1-0.9,1H180.2z M226.4,71.9c-3.2,1.3-6.2,2-9,2c-2.9,0-5.4-0.6-7.7-1.9
	s-4-3.1-5.3-5.5s-1.9-5.2-1.9-8.3c0-3,0.6-5.7,1.8-8.2c1.2-2.4,3-4.4,5.3-5.8c2.3-1.4,4.9-2.1,7.8-2.1c2.8,0,5.9,0.7,9,2
	c0,0.9-0.3,1.4-1,1.4c-0.2,0-0.5-0.1-0.9-0.2c-0.4-0.1-0.8-0.3-1.3-0.4c-1.2-0.4-2.2-0.6-3.1-0.7c-0.9-0.1-1.8-0.2-2.8-0.2
	c-2.4,0-4.6,0.6-6.6,1.8c-1.9,1.2-3.5,2.8-4.6,5c-1.1,2.2-1.7,4.7-1.7,7.5c0,2.7,0.5,5.1,1.6,7.2c1.1,2.1,2.6,3.7,4.5,4.9
	c2,1.2,4.2,1.8,6.8,1.8c2.2,0,4.4-0.4,6.4-1.1c0.9-0.3,1.5-0.5,1.7-0.5C226.1,70.5,226.4,71,226.4,71.9z M240.3,43.9h-10.4
	c-0.1-0.3-0.1-0.5-0.1-0.7c0-0.7,0.3-1,0.9-1h22c0.1,0.3,0.1,0.5,0.1,0.7c0,0.7-0.3,1-0.9,1h-9.6v28.8c0,0.6-0.4,0.9-1.1,0.9
	c-0.3,0-0.6,0-0.9-0.1V43.9z"/>
</svg>
