<?xml version="1.0" encoding="utf-8"?>
<!-- Generator: Adobe Illustrator 19.1.0, SVG Export Plug-In . SVG Version: 6.00 Build 0)  -->
<svg version="1.1" id="Layer_1" xmlns="http://www.w3.org/2000/svg" xmlns:xlink="http://www.w3.org/1999/xlink" x="0px" y="0px"
	 viewBox="-149 31 300 90" style="enable-background:new -149 31 300 90;" xml:space="preserve">
<style type="text/css">
	.st0{fill:#A7A9AC;}
	.st1{fill:#1998F2;}
	.st2{fill:#77033C;}
	.st3{fill:url(#SVGID_1_);}
	.st4{fill:url(#SVGID_2_);}
	.st5{fill:#ED0677;}
	.st6{fill:#FF6000;}
	.st7{fill:#29C1AD;}
	.st8{fill:#FFFFFF;}
</style>
<path class="st0" d="M-134.4,60.6c-0.1,0-0.2,0-0.3,0c-0.1,0-0.2,0-0.3-0.1V49.3c0-0.1,0.1-0.3,0.2-0.4s0.3-0.1,0.5-0.1
	c0.1,0,0.2,0,0.3,0c0.1,0,0.2,0,0.3,0.1v5.6l5-5.3c0.1-0.1,0.2-0.2,0.3-0.2c0.1-0.1,0.3-0.1,0.4-0.1c0.3,0,0.6,0.1,0.9,0.2l-5.3,5.6
	l5.5,5.8c-0.3,0.1-0.6,0.2-1,0.2c-0.2,0-0.3,0-0.4-0.1c-0.1-0.1-0.2-0.1-0.3-0.2l-5.1-5.5v5.3c0,0.1-0.1,0.3-0.2,0.4
	C-134,60.6-134.2,60.6-134.4,60.6z M-125.1,60.6c-0.1,0-0.2,0-0.3,0c-0.1,0-0.2,0-0.3-0.1V52c0.2-0.1,0.3-0.1,0.5-0.1
	c0.5,0,0.7,0.3,0.7,0.8v0.5h0c0.3-0.4,0.7-0.8,1.2-1c0.5-0.3,1.1-0.4,1.7-0.4c1,0,1.8,0.3,2.4,1c0.6,0.7,0.8,1.5,0.8,2.6v4.7
	c0,0.1,0,0.3-0.1,0.4c-0.1,0.1-0.3,0.1-0.5,0.1c-0.1,0-0.2,0-0.3,0c-0.1,0-0.2,0-0.3-0.1v-5c0-0.9-0.2-1.6-0.6-2.1s-1-0.7-1.7-0.7
	c-0.2,0-0.5,0-0.7,0.1c-0.3,0.1-0.5,0.2-0.7,0.3c-0.2,0.1-0.4,0.3-0.6,0.5c-0.2,0.2-0.3,0.4-0.5,0.6v5.8c0,0.1,0,0.3-0.1,0.4
	C-124.7,60.6-124.9,60.6-125.1,60.6z M-112.3,60.7c-0.6,0-1.2-0.1-1.8-0.3c-0.5-0.2-1-0.5-1.4-0.9c-0.4-0.4-0.7-0.9-0.9-1.4
	c-0.2-0.5-0.3-1.1-0.3-1.8c0-0.6,0.1-1.2,0.3-1.7c0.2-0.5,0.5-1,0.9-1.4c0.4-0.4,0.8-0.7,1.4-1c0.5-0.2,1.1-0.4,1.8-0.4
	c0.6,0,1.2,0.1,1.7,0.4c0.5,0.2,1,0.6,1.3,1c0.4,0.4,0.7,0.9,0.9,1.4s0.3,1.1,0.3,1.7c0,0.6-0.1,1.2-0.3,1.7c-0.2,0.5-0.5,1-0.8,1.4
	c-0.4,0.4-0.8,0.7-1.3,1C-111.1,60.5-111.6,60.7-112.3,60.7z M-112.3,59.6c0.4,0,0.7-0.1,1.1-0.2c0.4-0.1,0.7-0.3,1-0.6
	c0.3-0.3,0.5-0.6,0.7-1.1c0.2-0.4,0.3-0.9,0.3-1.5c0-0.5-0.1-1-0.3-1.4s-0.4-0.8-0.7-1.1c-0.3-0.3-0.6-0.5-1-0.7
	c-0.4-0.2-0.8-0.2-1.2-0.2c-0.4,0-0.8,0.1-1.1,0.2c-0.4,0.2-0.7,0.4-1,0.7s-0.5,0.7-0.7,1.1c-0.2,0.4-0.3,0.9-0.3,1.4
	c0,0.6,0.1,1.1,0.3,1.5c0.2,0.4,0.4,0.8,0.7,1.1s0.6,0.5,1,0.6C-113.1,59.6-112.7,59.6-112.3,59.6z M-104.4,60.6c-0.1,0-0.2,0-0.4,0
	s-0.3,0-0.4-0.1l-2.2-8.5c0.1,0,0.2-0.1,0.3-0.1c0.1,0,0.2,0,0.4,0c0.2,0,0.3,0,0.5,0.1c0.1,0.1,0.2,0.2,0.3,0.4l1,4.3
	c0.1,0.5,0.2,1,0.3,1.5s0.2,0.9,0.3,1.3h0c0-0.2,0.1-0.4,0.2-0.7c0.1-0.3,0.1-0.5,0.2-0.8c0.1-0.3,0.2-0.5,0.2-0.7
	c0.1-0.2,0.1-0.5,0.2-0.6l1.4-4.6c0.2-0.1,0.4-0.1,0.6-0.1c0.3,0,0.5,0,0.6,0.1c0.1,0.1,0.2,0.2,0.3,0.5l1.2,4.2
	c0.2,0.6,0.3,1.1,0.4,1.5s0.2,0.9,0.3,1.3h0c0.1-0.4,0.2-0.8,0.3-1.3c0.1-0.4,0.2-1,0.4-1.5l1.1-4.4c0.1-0.3,0.3-0.4,0.6-0.4
	c0.1,0,0.2,0,0.3,0c0.1,0,0.2,0.1,0.3,0.1l-2.1,8.1c-0.1,0.2-0.2,0.3-0.3,0.4c-0.2,0.1-0.4,0.1-0.6,0.1c-0.1,0-0.3,0-0.4,0
	c-0.1,0-0.3,0-0.3-0.1l-2.1-7.2l-2,6.7c-0.1,0.2-0.2,0.4-0.3,0.5C-103.9,60.6-104.1,60.6-104.4,60.6z M-95,56.5c0-0.1,0-0.1,0-0.2
	c0-0.1,0-0.2,0-0.3c0-0.2,0-0.4,0.1-0.4c0.1-0.1,0.2-0.1,0.3-0.1h4.6c0,0.1,0,0.1,0,0.2c0,0.1,0,0.2,0,0.3c0,0.2,0,0.4-0.1,0.5
	c-0.1,0.1-0.2,0.1-0.3,0.1H-95z M-87.4,60.6c-0.1,0-0.2,0-0.3,0c-0.1,0-0.2,0-0.3-0.1V49.3c0-0.1,0.1-0.3,0.2-0.4s0.3-0.1,0.5-0.1
	c0.1,0,0.2,0,0.3,0c0.1,0,0.2,0,0.3,0.1v5.2h6.5v-4.8c0-0.1,0.1-0.3,0.2-0.4c0.1-0.1,0.3-0.1,0.5-0.1c0.1,0,0.2,0,0.3,0
	c0.1,0,0.2,0,0.3,0.1v11.3c0,0.1-0.1,0.3-0.2,0.4c-0.1,0.1-0.3,0.1-0.5,0.1c-0.1,0-0.2,0-0.3,0c-0.1,0-0.2,0-0.3-0.1v-5.4h-6.5v5
	c0,0.1-0.1,0.3-0.2,0.4C-87,60.6-87.2,60.6-87.4,60.6z M-72.7,60.7c-0.6,0-1.2-0.1-1.8-0.3c-0.5-0.2-1-0.5-1.4-0.9
	c-0.4-0.4-0.7-0.9-0.9-1.4c-0.2-0.5-0.3-1.1-0.3-1.8c0-0.6,0.1-1.2,0.3-1.7c0.2-0.5,0.5-1,0.9-1.4c0.4-0.4,0.8-0.7,1.4-1
	c0.5-0.2,1.1-0.4,1.8-0.4c0.6,0,1.2,0.1,1.7,0.4c0.5,0.2,1,0.6,1.3,1c0.4,0.4,0.7,0.9,0.9,1.4s0.3,1.1,0.3,1.7
	c0,0.6-0.1,1.2-0.3,1.7c-0.2,0.5-0.5,1-0.8,1.4c-0.4,0.4-0.8,0.7-1.3,1C-71.5,60.5-72,60.7-72.7,60.7z M-72.7,59.6
	c0.4,0,0.7-0.1,1.1-0.2c0.4-0.1,0.7-0.3,1-0.6c0.3-0.3,0.5-0.6,0.7-1.1c0.2-0.4,0.3-0.9,0.3-1.5c0-0.5-0.1-1-0.3-1.4
	s-0.4-0.8-0.7-1.1c-0.3-0.3-0.6-0.5-1-0.7c-0.4-0.2-0.8-0.2-1.2-0.2c-0.4,0-0.8,0.1-1.1,0.2c-0.4,0.2-0.7,0.4-1,0.7
	s-0.5,0.7-0.7,1.1c-0.2,0.4-0.3,0.9-0.3,1.4c0,0.6,0.1,1.1,0.3,1.5c0.2,0.4,0.4,0.8,0.7,1.1s0.6,0.5,1,0.6
	C-73.5,59.6-73.1,59.6-72.7,59.6z M-64.8,60.6c-0.1,0-0.2,0-0.4,0s-0.3,0-0.4-0.1l-2.2-8.5c0.1,0,0.2-0.1,0.3-0.1c0.1,0,0.2,0,0.4,0
	c0.2,0,0.3,0,0.5,0.1c0.1,0.1,0.2,0.2,0.3,0.4l1,4.3c0.1,0.5,0.2,1,0.3,1.5s0.2,0.9,0.3,1.3h0c0-0.2,0.1-0.4,0.2-0.7
	c0.1-0.3,0.1-0.5,0.2-0.8c0.1-0.3,0.2-0.5,0.2-0.7c0.1-0.2,0.1-0.5,0.2-0.6l1.4-4.6c0.2-0.1,0.4-0.1,0.6-0.1c0.3,0,0.5,0,0.6,0.1
	c0.1,0.1,0.2,0.2,0.3,0.5l1.2,4.2c0.2,0.6,0.3,1.1,0.4,1.5s0.2,0.9,0.3,1.3h0c0.1-0.4,0.2-0.8,0.3-1.3c0.1-0.4,0.2-1,0.4-1.5
	l1.1-4.4c0.1-0.3,0.3-0.4,0.6-0.4c0.1,0,0.2,0,0.3,0c0.1,0,0.2,0.1,0.3,0.1l-2.1,8.1c-0.1,0.2-0.2,0.3-0.3,0.4
	c-0.2,0.1-0.4,0.1-0.6,0.1c-0.1,0-0.3,0-0.4,0c-0.1,0-0.3,0-0.3-0.1l-2.1-7.2l-2,6.7c-0.1,0.2-0.2,0.4-0.3,0.5
	C-64.3,60.6-64.5,60.6-64.8,60.6z"/>
<g>
	<path class="st1" d="M-116.2,114.6c-3.3,0-6.3-0.6-9-1.8c-2.8-1.2-5.2-2.8-7.2-4.9c-2-2.1-3.6-4.6-4.8-7.5
		c-1.1-2.9-1.7-6.1-1.7-9.5c0-3.3,0.6-6.5,1.7-9.4c1.1-2.9,2.7-5.5,4.8-7.6c2-2.2,4.4-3.8,7.2-5.1c2.8-1.2,5.8-1.8,9-1.8
		c2.4,0,4.8,0.2,7,0.7c2.2,0.5,4.3,1.1,6.4,1.9c0,0.3,0.1,0.6,0.1,0.9c0,0.3,0,0.5,0,0.8c0,1.5-0.3,2.7-1,3.6
		c-0.7,0.9-1.5,1.3-2.5,1.3c-0.5,0-1-0.1-1.6-0.3c-0.6-0.2-1.2-0.4-2-0.6c-0.7-0.2-1.6-0.5-2.6-0.6c-1-0.2-2.2-0.3-3.5-0.3
		c-2.1,0-4,0.4-5.7,1.2c-1.8,0.8-3.3,1.9-4.6,3.3c-1.3,1.4-2.3,3.2-3.1,5.2c-0.7,2-1.1,4.3-1.1,6.8c0,2.6,0.4,4.9,1.1,6.9
		c0.7,2,1.8,3.8,3.1,5.2c1.3,1.4,2.9,2.5,4.6,3.2c1.8,0.7,3.7,1.1,5.7,1.1c1.3,0,2.5-0.1,3.5-0.3c1-0.2,1.8-0.4,2.5-0.6
		c0.7-0.2,1.3-0.5,1.9-0.6c0.5-0.2,1.1-0.3,1.6-0.3c1.2,0,2.2,0.4,2.9,1.2c0.7,0.8,1.1,2,1.1,3.5c0,0.3,0,0.6,0,0.9s0,0.6-0.1,1
		c-2,0.9-4.1,1.5-6.2,2C-111.1,114.4-113.5,114.6-116.2,114.6z"/>
	<polygon class="st2" points="132.3,98.8 126.5,100.2 126.5,98.8 129.3,98.8 	"/>
	<path class="st1" d="M87.1,114.6c-3.3,0-6.3-0.6-9-1.8c-2.8-1.2-5.2-2.8-7.2-4.9c-2-2.1-3.6-4.6-4.8-7.5c-1.1-2.9-1.7-6.1-1.7-9.5
		c0-3.3,0.6-6.5,1.7-9.4c1.1-2.9,2.7-5.5,4.8-7.6c2-2.2,4.4-3.8,7.2-5.1c2.8-1.2,5.8-1.8,9-1.8c2.4,0,4.8,0.2,7,0.7
		c2.2,0.5,4.3,1.1,6.4,1.9c0,0.3,0.1,0.6,0.1,0.9c0,0.3,0,0.5,0,0.8c0,1.5-0.3,2.7-1,3.6c-0.7,0.9-1.5,1.3-2.5,1.3
		c-0.5,0-1-0.1-1.6-0.3c-0.6-0.2-1.2-0.4-2-0.6c-0.7-0.2-1.6-0.5-2.6-0.6c-1-0.2-2.2-0.3-3.5-0.3c-2.1,0-4,0.4-5.7,1.2
		c-1.8,0.8-3.3,1.9-4.6,3.3c-1.3,1.4-2.3,3.2-3.1,5.2c-0.7,2-1.1,4.3-1.1,6.8c0,2.6,0.4,4.9,1.1,6.9c0.7,2,1.8,3.8,3.1,5.2
		c1.3,1.4,2.9,2.5,4.6,3.2c1.8,0.7,3.7,1.1,5.7,1.1c1.3,0,2.5-0.1,3.5-0.3c1-0.2,1.8-0.4,2.5-0.6c0.7-0.2,1.3-0.5,1.9-0.6
		c0.5-0.2,1.1-0.3,1.6-0.3c1.2,0,2.2,0.4,2.9,1.2c0.7,0.8,1.1,2,1.1,3.5c0,0.3,0,0.6,0,0.9s0,0.6-0.1,1c-2,0.9-4.1,1.5-6.2,2
		C92.3,114.4,89.8,114.6,87.1,114.6z"/>
	<path class="st1" d="M122.4,114.4c-0.8,0-1.5,0-2.3-0.1c-0.7-0.1-1.3-0.2-1.7-0.3V74.6h-14.4c-0.1-0.4-0.2-0.9-0.2-1.5
		c0-0.6-0.1-1.3-0.1-2c0-1.5,0.3-2.5,0.9-3c0.6-0.5,1.4-0.7,2.4-0.7h33.6c0.2,0.7,0.3,1.8,0.3,3.3c0,2.7-1.1,4-3.3,4h-11.2V111
		c0,1-0.3,1.8-0.9,2.4C125,114.1,123.9,114.4,122.4,114.4z"/>
	<path class="st1" d="M58.6,70.9c0,1.4-0.3,2.4-0.9,2.9c-0.6,0.6-1.3,0.8-2.2,0.8H39h-3.9h-4.7c-0.1-0.4-0.2-0.9-0.3-1.6
		C30,72.4,30,71.7,30,71c0-1.4,0.3-2.4,0.9-2.9c0.6-0.6,1.3-0.8,2.2-0.8h2h23.2c0.1,0.4,0.2,0.9,0.3,1.6
		C58.6,69.5,58.6,70.2,58.6,70.9z M58.5,88.5c-0.1-0.7-0.2-1.2-0.3-1.6H35.1h-2c-0.9,0-1.6,0.3-2.2,0.8c-0.6,0.5-0.9,1.5-0.9,2.9
		c0,0.7,0,1.3,0.1,2c0.1,0.7,0.2,1.2,0.3,1.6h4.7H39h16.6c0.9,0,1.6-0.3,2.2-0.8c0.6-0.5,0.9-1.5,0.9-2.9
		C58.6,89.8,58.6,89.2,58.5,88.5z M58.5,108.2c-0.1-0.7-0.2-1.2-0.3-1.6H35.1h-2c-0.9,0-1.6,0.3-2.2,0.8c-0.6,0.5-0.9,1.5-0.9,2.9
		c0,0.7,0,1.3,0.1,2c0.1,0.7,0.2,1.2,0.3,1.6h4.7H39h16.6c0.9,0,1.6-0.3,2.2-0.8c0.6-0.5,0.9-1.5,0.9-2.9
		C58.6,109.6,58.6,108.9,58.5,108.2z"/>
	<path class="st1" d="M22.8,67.5v46.2c-1.1,0.4-2.4,0.6-3.9,0.6c-1.7,0-3-0.3-3.8-0.8c-0.8-0.5-1.5-1.2-2-2L-8.1,78.6v-11
		c0.3,0.1,0.6,0.2,0.8,0.3c0.8,0.5,1.6,1.2,2.2,2.2l20.9,32.3l-0.4-32.1c0-0.9,0.3-1.6,0.8-2.2c0.6-0.6,1.5-0.9,3-0.9
		c0.7,0,1.4,0,2,0.1C21.9,67.3,22.4,67.4,22.8,67.5z M-8.1,67.6c-0.4-0.1-0.9-0.2-1.6-0.3c-0.7-0.1-1.4-0.1-2-0.1
		c-1.4,0-2.4,0.3-3,0.9c-0.2,0.2-0.3,0.4-0.4,0.6l7.1,10L-8.1,67.6z"/>
	<linearGradient id="SVGID_1_" gradientUnits="userSpaceOnUse" x1="-13.1941" y1="75.9201" x2="-10.5302" y2="73.0633">
		<stop  offset="0.1318" style="stop-color:#1998F2"/>
		<stop  offset="1" style="stop-color:#1973F2"/>
	</linearGradient>
	<path class="st3" d="M-8.1,78.8l-7.1-10.1c-0.3,0.5-0.4,1-0.4,1.6l0,3.4l7.4,6.1V78.8z"/>
	<path class="st1" d="M-15.5,73.7l0.4,28.7l-20.1-31l-4.2,6.6V67.4c-0.8-0.2-1.8-0.3-2.9-0.3c-0.7,0-1.4,0.1-2.2,0.2
		c-0.8,0.1-1.5,0.3-2,0.5v46.2c0.4,0.1,0.9,0.2,1.6,0.2c0.7,0,1.4,0.1,2.1,0.1c1.5,0,2.5-0.3,3.1-0.9c0.6-0.6,0.8-1.4,0.8-2.3
		L-39.4,78l21.6,33.7c0.5,0.8,1.2,1.5,2,2c0.8,0.5,2.1,0.8,3.8,0.8c1.5,0,2.8-0.2,3.9-0.6V79.8L-15.5,73.7z"/>
	<linearGradient id="SVGID_2_" gradientUnits="userSpaceOnUse" x1="-41.6144" y1="71.4006" x2="-36.7281" y2="74.1092">
		<stop  offset="0" style="stop-color:#1973F2"/>
		<stop  offset="0.8392" style="stop-color:#1998F2"/>
	</linearGradient>
	<path class="st4" d="M-35.2,71.4l-0.8-1.3c-0.6-1-1.4-1.7-2.2-2.2c-0.3-0.2-0.7-0.3-1.2-0.5V78L-35.2,71.4z"/>
	<path class="st5" d="M-57.4,96.4c-1.9,0-3.6-0.9-4.6-2.4c-0.2,0.9-0.4,1.8-0.8,2.7c-0.7,1.9-1.7,3.5-3,4.9
		c-1.3,1.4-2.8,2.5-4.6,3.3c-1.8,0.8-3.8,1.2-5.9,1.2v0c-0.1,0-0.1,0-0.2,0c-2.5,0-4.4,2-4.4,4.4c0,2.5,2,4.4,4.4,4.4
		c0.1,0,0.1,0,0.2,0v0c3.4,0,6.5-0.6,9.3-1.9c2.8-1.3,5.2-3,7.3-5.2c2-2.2,3.6-4.8,4.7-7.8c0.6-1.6,1.1-3.3,1.4-5.1
		C-54.6,95.9-55.9,96.4-57.4,96.4z"/>
	<path class="st6" d="M-53.3,90.6c0-3.4-0.6-6.5-1.7-9.4c-1.1-2.9-2.7-5.5-4.7-7.6c-2-2.2-4.4-3.9-7.3-5.1c-1.8-0.8-3.6-1.3-5.6-1.6
		c1.1,1,1.8,2.5,1.8,4.2c0,2-1,3.7-2.5,4.7c1,0.2,2,0.5,2.9,0.9c1.8,0.8,3.3,1.9,4.6,3.2c1.3,1.4,2.3,3,3,4.8
		c0.7,1.8,1.1,3.8,1.1,5.9h0c0,2.3,1.9,4.2,4.2,4.2C-55.2,94.8-53.3,92.9-53.3,90.6C-53.3,90.6-53.3,90.6-53.3,90.6z"/>
	<path class="st1" d="M-76.2,66.5L-76.2,66.5c0,0-0.1,0-0.1,0c0,0,0,0,0,0c0,0,0,0,0,0c-3.3,0-6.4,0.6-9.1,1.9
		c-2.8,1.2-5.2,2.9-7.3,5.1c-2,2.2-3.6,4.7-4.7,7.6c-0.6,1.6-1.1,3.3-1.3,5c1-0.9,2.3-1.4,3.8-1.4c1.9,0,3.6,0.9,4.6,2.4
		c0.2-0.8,0.4-1.6,0.7-2.4c0.7-1.9,1.7-3.5,3-4.8c1.3-1.4,2.8-2.4,4.6-3.2c1.8-0.8,3.8-1.2,5.9-1.2v0c2.4-0.1,4.3-2,4.3-4.4
		C-72,68.6-73.9,66.6-76.2,66.5z"/>
	<path class="st7" d="M-82.6,110.3c0-1.9,1-3.6,2.4-4.7c-0.7-0.2-1.4-0.4-2-0.7c-1.8-0.8-3.3-1.9-4.6-3.3c-1.3-1.4-2.3-3-3-4.9
		s-1.1-3.9-1.1-6c0,0,0,0,0-0.1c0-2.3-1.9-4.2-4.2-4.2c-2.3,0-4.2,1.9-4.2,4.2c0,3.4,0.6,6.6,1.7,9.5c1.1,2.9,2.7,5.5,4.7,7.8
		c2,2.2,4.4,4,7.3,5.2c1.6,0.7,3.2,1.2,5,1.5C-81.8,113.6-82.6,112-82.6,110.3z"/>
	<path class="st5" d="M132,98.8H97.8c-1.4,0-2.5-1.1-2.5-2.5V86.3c0-1.4,1.1-2.5,2.5-2.5H132c1.4,0,2.5,1.1,2.5,2.5v10.1
		C134.5,97.7,133.4,98.8,132,98.8z"/>
	<g>
		<path class="st8" d="M100.8,96.2c-0.4,0-0.6-0.1-0.7-0.2c-0.1-0.1-0.2-0.3-0.2-0.6v-8.2c0-0.2,0.1-0.4,0.2-0.6
			c0.1-0.1,0.3-0.2,0.7-0.2h2.5c0.6,0,1.2,0.1,1.6,0.2c0.4,0.1,0.8,0.3,1.1,0.5c0.3,0.2,0.5,0.5,0.6,0.8c0.1,0.3,0.2,0.6,0.2,1
			c0,0.5-0.1,1-0.4,1.3c-0.3,0.4-0.7,0.7-1.2,0.8c0.7,0.2,1.2,0.4,1.5,0.9c0.3,0.4,0.5,0.9,0.5,1.4c0,0.9-0.3,1.6-0.9,2.1
			c-0.6,0.5-1.6,0.7-2.9,0.7H100.8z M101.6,90.5h1.6c0.4,0,0.7,0,0.9-0.1c0.2-0.1,0.4-0.2,0.6-0.3c0.1-0.1,0.2-0.3,0.3-0.4
			c0.1-0.2,0.1-0.3,0.1-0.5c0-0.8-0.6-1.2-1.9-1.2h-1.7V90.5z M101.6,94.7h1.6c0.8,0,1.3-0.1,1.7-0.3c0.4-0.2,0.5-0.6,0.5-1.1
			c0-0.2,0-0.4-0.1-0.5c-0.1-0.2-0.2-0.3-0.3-0.4c-0.2-0.1-0.4-0.2-0.7-0.3c-0.3-0.1-0.6-0.1-1.1-0.1h-1.7V94.7z"/>
		<path class="st8" d="M109.4,96.2c-0.4,0-0.6-0.1-0.7-0.2c-0.1-0.1-0.2-0.3-0.2-0.6v-8.2c0-0.2,0.1-0.4,0.2-0.6
			c0.1-0.1,0.3-0.2,0.7-0.2h5c0,0.1,0,0.2,0.1,0.3c0,0.1,0,0.3,0,0.4c0,0.3-0.1,0.5-0.2,0.6c-0.1,0.1-0.3,0.2-0.5,0.2h-3.7v2.6h3.9
			c0,0.1,0,0.2,0,0.3c0,0.1,0,0.3,0,0.4c0,0.3-0.1,0.5-0.2,0.6c-0.1,0.1-0.3,0.2-0.4,0.2h-3.3v2.6h4.4c0,0.1,0,0.2,0,0.3
			c0,0.1,0,0.3,0,0.4c0,0.3-0.1,0.5-0.2,0.6c-0.1,0.1-0.3,0.2-0.4,0.2H109.4z"/>
		<path class="st8" d="M119.1,96.3c-0.2,0-0.3,0-0.5,0c-0.2,0-0.3,0-0.4-0.1V88h-3c0-0.1,0-0.2,0-0.3c0-0.1,0-0.3,0-0.4
			c0-0.3,0.1-0.5,0.2-0.6c0.1-0.1,0.3-0.1,0.5-0.1h7c0,0.1,0.1,0.4,0.1,0.7c0,0.6-0.2,0.8-0.7,0.8h-2.3v7.6c0,0.2-0.1,0.4-0.2,0.5
			C119.6,96.2,119.4,96.3,119.1,96.3z"/>
		<path class="st8" d="M122.8,96.3c-0.1,0-0.3,0-0.5,0c-0.2,0-0.3-0.1-0.4-0.1l3.3-9.6c0.2,0,0.4-0.1,0.6-0.1c0.2,0,0.4,0,0.5,0
			c0.2,0,0.4,0,0.6,0.1c0.2,0,0.3,0.1,0.4,0.2c0.1,0.1,0.2,0.2,0.3,0.3c0.1,0.1,0.1,0.3,0.2,0.4l3,8.8c-0.1,0.1-0.3,0.1-0.4,0.1
			c-0.2,0-0.3,0.1-0.4,0.1c-0.2,0-0.4,0-0.6-0.1c-0.2-0.1-0.3-0.2-0.4-0.4l-0.7-2.1h-3.8l-0.7,2.1c-0.1,0.2-0.2,0.4-0.3,0.4
			C123.2,96.3,123,96.3,122.8,96.3z M124.9,92.2h2.9l-1.4-4.3L124.9,92.2z"/>
	</g>
</g>
</svg>
