<?xml version="1.0" encoding="utf-8"?>
<!-- Generator: Adobe Illustrator 16.0.3, SVG Export Plug-In . SVG Version: 6.00 Build 0)  -->
<!DOCTYPE svg PUBLIC "-//W3C//DTD SVG 1.1//EN" "http://www.w3.org/Graphics/SVG/1.1/DTD/svg11.dtd">
<svg version="1.1" id="Layer_1" xmlns="http://www.w3.org/2000/svg" xmlns:xlink="http://www.w3.org/1999/xlink" x="0px" y="0px"
	 width="99.063px" height="99.031px" viewBox="0 0 99.063 99.031" enable-background="new 0 0 99.063 99.031" xml:space="preserve">
<path id="Layer_2" d="M37.647,51.295c3.701,2.488,7.951,3.804,12.341,3.804c4.346,0,8.661-1.33,12.365-3.774
	c2.934,0.982,5.475,2.295,7.734,3.994c3.63,2.727,5.748,5.693,6.676,9.342c0.122,0.485,0.188,1.008,0.188,1.529
	c0.021,6.396,0.017,12.364,0.017,18.759l-0.007,0.187H22.979v-2.289c0-5.431,0-10.854-0.007-16.283
	c-0.006-2.646,1.052-5.104,3.422-7.977C28.991,55.434,32.544,53.114,37.647,51.295 M61.639,45.53c-0.281,0-0.604,0.108-0.8,0.267
	c-3.21,2.59-7.021,3.915-10.851,3.915c-3.437,0-6.886-1.069-9.9-3.253c-0.746-0.538-1.387-0.771-2.065-0.771
	c-0.455,0-0.926,0.103-1.457,0.284c-5.506,1.869-10.474,4.576-14.253,9.157c-2.733,3.309-4.666,6.973-4.659,11.441
	c0.012,7.706,0.006,14.993,0.009,22.7c0,0.392,0,0.786,0,1.246c21.608,0,43.082,0,64.58,0c0.017-0.261,0.036-0.454,0.036-0.65
	c0.004-8.04,0.018-15.659-0.011-23.698c-0.001-0.953-0.119-1.93-0.355-2.852c-1.327-5.22-4.454-9.169-8.651-12.332
	c-3.44-2.583-7.289-4.317-11.403-5.434C61.789,45.537,61.716,45.53,61.639,45.53L61.639,45.53z M49.987,15.115
	c6.578,0.036,11.93,5.391,11.925,11.941c-0.008,6.564-5.364,11.908-11.948,11.912c-6.578,0-11.938-5.342-11.939-11.909
	c-0.002-3.176,1.242-6.171,3.5-8.436c2.26-2.262,5.239-3.509,8.397-3.509 M49.92,9.73c-9.507,0-17.289,7.794-17.281,17.332
	c0.004,9.513,7.799,17.291,17.324,17.291h0.005c9.526-0.002,17.323-7.777,17.327-17.291C67.3,17.525,59.58,9.784,50.02,9.73
	C49.984,9.73,49.952,9.73,49.92,9.73L49.92,9.73z"/>
</svg>
