<?xml version="1.0" encoding="utf-8"?>
<!-- Generator: Adobe Illustrator 16.0.3, SVG Export Plug-In . SVG Version: 6.00 Build 0)  -->
<!DOCTYPE svg PUBLIC "-//W3C//DTD SVG 1.1//EN" "http://www.w3.org/Graphics/SVG/1.1/DTD/svg11.dtd">
<svg version="1.1" id="Layer_1" xmlns="http://www.w3.org/2000/svg" xmlns:xlink="http://www.w3.org/1999/xlink" x="0px" y="0px"
	 width="99.063px" height="99.031px" viewBox="0 0 99.063 99.031" enable-background="new 0 0 99.063 99.031" xml:space="preserve">
<path fill="#1D1D1B" d="M77.721,13.94H22.364c-4.646,0-8.424,3.778-8.424,8.424v55.357c0,4.649,3.778,8.424,8.424,8.424h55.357
	c4.645,0,8.424-3.774,8.424-8.424V22.364C86.145,17.718,82.365,13.94,77.721,13.94 M18.754,77.721V22.364
	c0-1.988,1.62-3.61,3.61-3.61h55.357c1.992,0,3.609,1.622,3.609,3.61v55.357c0,1.991-1.617,3.609-3.609,3.609H22.364
	C20.373,81.33,18.754,79.712,18.754,77.721 M78.482,51.1c-0.018,0.428-0.183,0.795-0.497,1.104l-5.102,5.105
	c-0.354,0.348-0.808,0.526-1.278,0.526c-0.48,0-0.936-0.183-1.273-0.526l-6.083-6.083l0.244-0.403
	c0.073-0.118,0.19-0.283,0.357-0.485c0.151-0.183,0.318-0.365,0.493-0.541c0.438-0.438,0.854-0.65,1.284-0.65
	c0.456,0.014,0.836,0.188,1.146,0.493l1.52,1.518h0.205c-0.011-0.019-0.027-0.032-0.037-0.049h-0.15l-0.124-0.461l-0.026-0.577
	c0-1.774-0.174-3.519-0.513-5.219h-0.041c-2.224-8.178-9.689-14.213-18.564-14.213c-10.619,0-19.254,8.635-19.254,19.254
	c0,8.548,5.597,15.796,13.312,18.307c1.926,0.438,3.907,0.691,5.934,0.691l1.063-0.006v0.02l0.93,0.004l0.202,0.8
	c0.043,0.179,0.08,0.43,0.118,0.744c0.028,0.316,0.042,0.608,0.042,0.903c0,0.857-0.221,1.48-0.681,1.904
	c-0.429,0.399-0.952,0.602-1.568,0.602l-0.874-0.019c-1.752-0.046-3.471-0.257-5.162-0.578v-0.073
	c-10.415-2.649-18.128-12.064-18.128-23.299c0-13.29,10.78-24.068,24.067-24.068c11.56,0,21.21,8.159,23.527,19.027h0.09
	c0.247,1.488,0.423,2.995,0.453,4.528l0.013,1.579l2.275-2.274l0.402,0.241c0.121,0.069,0.282,0.188,0.485,0.355
	c0.188,0.154,0.366,0.32,0.543,0.489C78.285,50.226,78.501,50.663,78.482,51.1z M42.788,62.382l-0.31-0.742
	c-0.077-0.188-0.135-0.377-0.17-0.576c-0.03-0.129-0.055-0.351-0.055-0.961c0-0.673,0.189-1.361,0.565-2.058
	c0.278-0.514,0.585-1.09,0.919-1.732c0.303-0.592,0.585-1.269,0.835-2.016c0.123-0.369,0.211-0.776,0.269-1.214h-2.755l-0.31-0.735
	c-0.092-0.212-0.152-0.453-0.188-0.739c-0.028-0.208-0.046-0.44-0.046-0.673c0-0.729,0.215-1.295,0.638-1.69
	c0.386-0.363,0.889-0.559,1.444-0.559h0.708c-0.07-0.267-0.145-0.544-0.221-0.826c-0.25-0.945-0.376-1.893-0.376-2.823
	c0-0.941,0.152-1.854,0.455-2.709c0.318-0.892,0.806-1.692,1.457-2.378c0.652-0.695,1.48-1.254,2.457-1.653
	c0.964-0.395,2.087-0.595,3.339-0.595c1.271,0,2.494,0.198,3.627,0.588c1.086,0.373,2.03,0.804,2.799,1.273l0.647,0.397l-0.08,0.753
	c-0.062,0.621-0.23,1.162-0.489,1.619c-0.388,0.682-1.053,1.077-1.819,1.077c-0.383,0-0.79-0.103-1.241-0.32
	c-0.263-0.127-0.559-0.251-0.907-0.38c-0.348-0.135-0.761-0.26-1.236-0.383c-0.428-0.107-0.944-0.163-1.537-0.163
	c-0.938,0-1.613,0.238-2.066,0.726c-0.474,0.516-0.705,1.219-0.705,2.149c0,0.47,0.028,0.898,0.087,1.284
	c0.062,0.414,0.131,0.804,0.207,1.165c0.072,0.355,0.154,0.688,0.25,1.006c0.019,0.062,0.035,0.129,0.052,0.192h6.555l0.203,0.958
	c0.028,0.136,0.052,0.301,0.08,0.503c0.032,0.216,0.047,0.446,0.047,0.687c0,0.762-0.202,1.32-0.621,1.709
	c-0.381,0.35-0.874,0.538-1.427,0.538H49.34c-0.097,0.954-0.292,1.881-0.579,2.771c-0.209,0.65-0.466,1.32-0.772,2h10.247
	l0.183,0.981c0.028,0.132,0.055,0.307,0.08,0.518c0.028,0.217,0.045,0.456,0.045,0.715c0,1.405-0.938,2.315-2.384,2.315H42.788
	V62.382z"/>
</svg>
