<?xml version="1.0" encoding="utf-8"?>
<!-- Generator: Adobe Illustrator 16.0.3, SVG Export Plug-In . SVG Version: 6.00 Build 0)  -->
<!DOCTYPE svg PUBLIC "-//W3C//DTD SVG 1.1//EN" "http://www.w3.org/Graphics/SVG/1.1/DTD/svg11.dtd">
<svg version="1.1" id="Layer_1" xmlns="http://www.w3.org/2000/svg" xmlns:xlink="http://www.w3.org/1999/xlink" x="0px" y="0px"
	 width="99.063px" height="99.031px" viewBox="0 0 99.063 99.031" enable-background="new 0 0 99.063 99.031" xml:space="preserve">
<path d="M80.48,10.244H19.521c-5.116,0-9.276,4.161-9.276,9.276v60.959c0,5.12,4.161,9.276,9.276,9.276H80.48
	c5.114,0,9.276-4.156,9.276-9.276V19.521C89.756,14.405,85.594,10.244,80.48,10.244 M15.545,80.479V19.521
	c0-2.19,1.783-3.976,3.976-3.976H80.48c2.195,0,3.976,1.786,3.976,3.976v60.959c0,2.192-1.78,3.976-3.976,3.976H19.521
	C17.328,84.455,15.545,82.672,15.545,80.479 M43.913,33.467c2.255-2.248,5.546-4.909,8.396-2.07v37.295
	c-2.85,2.842-6.141,0.176-8.396-2.07l-6.004-5.974H27.13c-2.197,0-3.976-1.781-3.976-3.976v-3.339V45.43v-3.333
	c0-2.2,1.778-2.65,3.976-2.65h10.779L43.913,33.467 M66.648,58.334c-1.434,2.487-3.504,4.563-5.983,6.008l-1.356,0.771l-0.357-0.37
	c-0.108-0.109-0.248-0.277-0.414-0.516c-0.155-0.217-0.3-0.45-0.435-0.69c-0.347-0.608-0.445-1.134-0.301-1.6
	c0.14-0.436,0.436-0.787,0.844-1.025c1.89-1.098,3.469-2.676,4.561-4.565c1.683-2.912,2.128-6.3,1.258-9.554
	c-0.866-3.257-2.945-5.968-5.854-7.652l-0.579-0.337l0.057-0.092c-0.147-0.181-0.259-0.384-0.326-0.611
	c-0.143-0.466-0.039-0.987,0.315-1.594c0.135-0.239,0.285-0.467,0.44-0.685c0.171-0.233,0.308-0.397,0.414-0.506l0.362-0.374
	l2.371,1.386l-0.036,0.038C68.817,41.251,71.037,50.751,66.648,58.334 M76.012,43.758c1.683,6.327,0.803,12.909-2.484,18.557
	c-1.775,3.064-4.571,5.968-7.729,8.069l0.031,0.029l-2.542,1.509l-0.362-0.386c-0.108-0.108-0.243-0.277-0.403-0.505
	c-0.155-0.223-0.301-0.45-0.44-0.691c-0.347-0.607-0.445-1.128-0.3-1.594c0.137-0.435,0.424-0.795,0.844-1.033l0.507-0.287
	c2.925-1.794,5.265-4.178,6.957-7.1c2.738-4.741,3.469-10.28,2.05-15.585c-1.423-5.306-4.809-9.738-9.553-12.475l-0.489-0.278
	l0.039-0.099c-0.169-0.19-0.295-0.407-0.37-0.647c-0.14-0.46-0.036-0.999,0.315-1.601c0.135-0.233,0.279-0.461,0.435-0.678
	c0.171-0.233,0.306-0.397,0.414-0.506l0.362-0.379l1.279,0.744C70.267,32.11,74.323,37.411,76.012,43.758"/>
</svg>
