<?xml version="1.0" encoding="utf-8"?>
<!-- Generator: Adobe Illustrator 16.0.3, SVG Export Plug-In . SVG Version: 6.00 Build 0)  -->
<!DOCTYPE svg PUBLIC "-//W3C//DTD SVG 1.1//EN" "http://www.w3.org/Graphics/SVG/1.1/DTD/svg11.dtd">
<svg version="1.1" id="Layer_1" xmlns="http://www.w3.org/2000/svg" xmlns:xlink="http://www.w3.org/1999/xlink" x="0px" y="0px"
	 width="99.063px" height="99.031px" viewBox="0 0 99.063 99.031" enable-background="new 0 0 99.063 99.031" xml:space="preserve">
<path id="Layer_2" d="M84.003,24.094l-0.215-0.206l0.011-0.014L71.596,11.678l-0.188-0.15c-0.511-0.49-1.177-0.759-1.863-0.759
	v-0.146l0,0v0.15l-47.502-0.15c-1.9,0-3.536,0.623-4.864,1.853c-1.402,1.302-2.084,3.264-2.084,5.994v64.938
	c0,2.736,0.682,4.697,2.087,5.996c1.326,1.229,2.961,1.85,4.863,1.85l16.643,0.158l39.206-0.004c1.902,0,3.54-0.621,4.862-1.85
	c1.405-1.304,2.089-3.265,2.089-5.998V26.036C84.844,25.303,84.544,24.616,84.003,24.094z M79.434,32.238v51.316
	c0,1.18-0.195,1.809-0.3,1.977l-0.021,0.037l-0.03,0.025C78.766,85.883,78.425,86,77.893,86l-39.206,0.004l-16.645-0.151
	c-0.514,0-0.87-0.115-1.155-0.375c-0.199-0.271-0.387-0.933-0.387-2.076V18.473c0-1.176,0.197-1.806,0.3-1.973l0.021-0.036
	l0.03-0.028c0.317-0.291,0.664-0.409,1.19-0.409l41.226,0.151h0.297v0.292v15.47h15.573h0.296V32.238z M69.721,54.221v-0.006H29.394
	h-2.016c-0.063,0.258-0.118,0.631-0.167,1.129c-0.047,0.497-0.072,1-0.072,1.512c0,1.022,0.218,1.733,0.648,2.135
	c0.433,0.396,0.97,0.6,1.609,0.6h40.306h0.02h1.995c0.063-0.258,0.118-0.633,0.165-1.129c0.05-0.498,0.071-1,0.071-1.506
	c0-1.031-0.219-1.735-0.647-2.141C70.878,54.42,70.348,54.224,69.721,54.221z M69.721,66.313v-0.006H29.394h-2.016
	c-0.063,0.258-0.118,0.631-0.167,1.129c-0.047,0.5-0.072,1-0.072,1.512c0,1.023,0.218,1.734,0.648,2.137
	c0.433,0.392,0.97,0.599,1.609,0.599h40.306h0.02h1.995c0.063-0.259,0.118-0.634,0.165-1.129c0.05-0.498,0.071-1,0.071-1.507
	c0-1.03-0.219-1.737-0.647-2.141C70.878,66.512,70.348,66.316,69.721,66.313z M69.721,42.127L69.721,42.127l-40.327-0.002h-2.016
	c-0.063,0.257-0.118,0.63-0.167,1.125c-0.047,0.501-0.069,1.003-0.069,1.509c0,1.029,0.215,1.737,0.646,2.137
	c0.433,0.401,0.97,0.604,1.609,0.604h40.306h0.02h1.995c0.063-0.257,0.12-0.632,0.165-1.128c0.05-0.498,0.071-1,0.071-1.512
	c0-1.022-0.219-1.736-0.647-2.136C70.878,42.33,70.348,42.132,69.721,42.127z"/>
</svg>
