<?xml version="1.0" encoding="utf-8"?>
<!-- Generator: Adobe Illustrator 16.0.0, SVG Export Plug-In . SVG Version: 6.00 Build 0)  -->
<!DOCTYPE svg PUBLIC "-//W3C//DTD SVG 1.1//EN" "http://www.w3.org/Graphics/SVG/1.1/DTD/svg11.dtd">
<svg version="1.1" id="Layer_1" xmlns="http://www.w3.org/2000/svg" xmlns:xlink="http://www.w3.org/1999/xlink" x="0px" y="0px"
	 width="32px" height="32px" viewBox="0 0 32 32" enable-background="new 0 0 32 32" xml:space="preserve">
<path d="M17.689,12.808l-0.854-0.854l0.001,1.208l0.003,9.621v0.703c-0.052,0.006-0.111,0.012-0.177,0.02
	c-0.262,0.024-0.53,0.037-0.797,0.037c-0.405,0-0.707-0.074-0.824-0.201c-0.137-0.148-0.202-0.325-0.202-0.559V13.16v-1.207
	l-0.853,0.854l-1.588,1.588l-1.471,1.47c-0.043-0.032-0.089-0.071-0.141-0.112c-0.199-0.164-0.397-0.345-0.588-0.535
	c-0.287-0.286-0.447-0.551-0.441-0.727c0.008-0.202,0.088-0.373,0.252-0.537l0.171-0.17l0.804-0.803l4.146-4.146
	c0.188-0.189,0.44-0.293,0.707-0.293s0.519,0.104,0.707,0.293l4.95,4.949l0.666,0.666c-0.033,0.042-0.07,0.089-0.113,0.141
	c-0.164,0.199-0.344,0.397-0.534,0.588c-0.383,0.384-0.612,0.441-0.726,0.441c-0.203-0.008-0.373-0.088-0.537-0.252l-0.17-0.17
	l-0.805-0.804L17.689,12.808z M16,2C8.28,2,2,8.28,2,16s6.28,14,14,14c7.721,0,14-6.28,14-14S23.721,2,16,2 M16,0
	c8.837,0,16,7.163,16,16s-7.163,16-16,16S0,24.837,0,16S7.163,0,16,0"/>
</svg>
