<?xml version="1.0" encoding="utf-8"?>
<!-- Generator: Adobe Illustrator 16.0.0, SVG Export Plug-In . SVG Version: 6.00 Build 0)  -->
<!DOCTYPE svg PUBLIC "-//W3C//DTD SVG 1.1//EN" "http://www.w3.org/Graphics/SVG/1.1/DTD/svg11.dtd">
<svg version="1.1" id="Layer_1" xmlns="http://www.w3.org/2000/svg" xmlns:xlink="http://www.w3.org/1999/xlink" x="0px" y="0px"
	 width="32px" height="32px" viewBox="0 0 32 32" enable-background="new 0 0 32 32" xml:space="preserve">
<path d="M14.354,12.684l0.804-0.804l0.17-0.17c0.164-0.164,0.244-0.334,0.252-0.537c0-0.113-0.058-0.344-0.44-0.727
	c-0.191-0.191-0.39-0.37-0.59-0.534c-0.051-0.043-0.098-0.079-0.14-0.114l-0.666,0.668l-4.95,4.949
	C8.604,15.604,8.5,15.856,8.5,16.123c0,0.268,0.104,0.518,0.293,0.707l4.147,4.146l0.803,0.803l0.17,0.171
	c0.164,0.164,0.335,0.244,0.537,0.252c0.175,0.007,0.44-0.153,0.726-0.44c0.191-0.191,0.371-0.39,0.535-0.59
	c0.042-0.051,0.08-0.097,0.113-0.14l-1.47-1.47l-1.589-1.588l-0.854-0.854h1.207h9.622c0.233,0,0.41-0.064,0.56-0.201
	C23.428,16.8,23.5,16.5,23.5,16.093c0-0.266-0.012-0.533-0.037-0.797c-0.007-0.064-0.013-0.123-0.019-0.176h-0.703l-9.621,0.003
	l-1.208,0.001l0.854-0.854L14.354,12.684z"/>
</svg>
