<?xml version="1.0" encoding="utf-8"?>
<!-- Generator: Adobe Illustrator 16.0.0, SVG Export Plug-In . SVG Version: 6.00 Build 0)  -->
<!DOCTYPE svg PUBLIC "-//W3C//DTD SVG 1.1//EN" "http://www.w3.org/Graphics/SVG/1.1/DTD/svg11.dtd">
<svg version="1.1" id="Layer_1" xmlns="http://www.w3.org/2000/svg" xmlns:xlink="http://www.w3.org/1999/xlink" x="0px" y="0px"
	 width="32px" height="32px" viewBox="0 0 32 32" enable-background="new 0 0 32 32" xml:space="preserve">
<path fill="#1D1D1B" d="M27.5,1h-23C2.57,1,1,2.57,1,4.5v23C1,29.431,2.57,31,4.5,31h23c1.93,0,3.5-1.569,3.5-3.5v-23
	C31,2.57,29.43,1,27.5,1 M3,27.5v-23C3,3.674,3.673,3,4.5,3h23C28.328,3,29,3.674,29,4.5v23c0,0.827-0.672,1.5-1.5,1.5h-23
	C3.673,29,3,28.327,3,27.5 M14,20c0,1.104-0.896,2-2,2s-2-0.896-2-2s0.896-2,2-2S14,18.896,14,20z M9,20c0,1.104-0.896,2-2,2
	s-2-0.896-2-2s0.896-2,2-2S9,18.896,9,20z M19,20c0,1.104-0.896,2-2,2s-2-0.896-2-2s0.896-2,2-2S19,18.896,19,20z M14,25
	c0,1.104-0.896,2-2,2s-2-0.896-2-2s0.896-2,2-2S14,23.896,14,25z M9,25c0,1.104-0.896,2-2,2s-2-0.896-2-2s0.896-2,2-2S9,23.896,9,25
	z M19,25c0,1.104-0.896,2-2,2s-2-0.896-2-2s0.896-2,2-2S19,23.896,19,25z M14,15c0,1.104-0.896,2-2,2s-2-0.896-2-2s0.896-2,2-2
	S14,13.896,14,15z M9,15c0,1.104-0.896,2-2,2s-2-0.896-2-2s0.896-2,2-2S9,13.896,9,15z M19,15c0,1.104-0.896,2-2,2s-2-0.896-2-2
	s0.896-2,2-2S19,13.896,19,15z M26.65,16.312c-0.073,0.071-0.147,0.139-0.225,0.203c-0.084,0.07-0.152,0.119-0.203,0.149
	l-0.167,0.099l-0.945-0.945l-0.005,0.598v9.746v0.055v0.695c-0.095,0.023-0.234,0.045-0.418,0.062
	C24.502,26.992,24.314,27,24.124,27c-0.382,0-0.646-0.08-0.794-0.239c-0.137-0.148-0.203-0.332-0.215-0.544h-0.01v-9.832h0.004
	c0.002-0.102-0.001-0.629-0.001-0.629l-0.639,0.609c-0.128,0.127-0.286,0.199-0.477,0.205c-0.179,0-0.352-0.088-0.533-0.269
	c-0.073-0.073-0.142-0.149-0.205-0.226c-0.069-0.084-0.118-0.151-0.148-0.201l-0.102-0.168l2.526-2.527
	c0.144-0.142,0.331-0.219,0.531-0.219c0.196,0,0.384,0.074,0.531,0.219l2.12,2.121c0.13,0.129,0.199,0.282,0.207,0.459
	C26.928,15.941,26.839,16.123,26.65,16.312z M5.445,10.135c-0.07,0-0.139-0.002-0.207-0.007c-0.067-0.005-0.12-0.012-0.157-0.021
	V5.599c0.052-0.023,0.116-0.041,0.196-0.052c0.079-0.012,0.151-0.018,0.217-0.018c0.186,0,0.32,0.024,0.401,0.073
	c0.082,0.049,0.153,0.121,0.214,0.214l2.038,3.15L8.105,5.837c0-0.084,0.026-0.156,0.08-0.217c0.054-0.061,0.15-0.091,0.291-0.091
	c0.064,0,0.132,0.003,0.199,0.01c0.067,0.007,0.12,0.016,0.157,0.025v4.508c-0.107,0.042-0.233,0.063-0.378,0.063
	c-0.168,0-0.292-0.024-0.371-0.074c-0.079-0.049-0.145-0.113-0.196-0.192L5.781,6.586l0.042,3.241c0,0.089-0.027,0.162-0.081,0.221
	C5.688,10.106,5.59,10.135,5.445,10.135z M11.717,10.184c-0.331,0-0.635-0.062-0.91-0.186c-0.275-0.124-0.511-0.294-0.707-0.511
	C9.904,9.271,9.751,9.019,9.642,8.732C9.532,8.445,9.478,8.136,9.478,7.804c0-0.327,0.055-0.633,0.164-0.92S9.904,6.348,10.1,6.138
	c0.196-0.21,0.432-0.375,0.707-0.497c0.275-0.121,0.579-0.182,0.91-0.182c0.332,0,0.635,0.061,0.91,0.182
	c0.275,0.122,0.511,0.287,0.707,0.497s0.349,0.458,0.459,0.742c0.109,0.285,0.164,0.593,0.164,0.924
	c0,0.332-0.055,0.641-0.164,0.928c-0.11,0.287-0.263,0.539-0.459,0.756s-0.432,0.387-0.707,0.511
	C12.352,10.123,12.049,10.184,11.717,10.184z M11.71,9.484c0.196,0,0.381-0.043,0.553-0.129c0.173-0.086,0.324-0.204,0.455-0.354
	s0.233-0.327,0.309-0.532c0.074-0.205,0.111-0.425,0.111-0.658c0-0.233-0.036-0.451-0.108-0.654s-0.173-0.378-0.301-0.525
	s-0.279-0.263-0.451-0.347c-0.173-0.084-0.359-0.126-0.561-0.126c-0.195,0-0.38,0.041-0.553,0.123s-0.323,0.196-0.451,0.343
	c-0.129,0.147-0.23,0.321-0.305,0.521c-0.075,0.201-0.112,0.42-0.112,0.658c0,0.243,0.036,0.467,0.108,0.672
	c0.072,0.206,0.173,0.383,0.302,0.532c0.128,0.149,0.278,0.266,0.451,0.35S11.514,9.484,11.71,9.484z M14.992,10.135
	c-0.074,0-0.147-0.003-0.22-0.01c-0.073-0.007-0.128-0.016-0.165-0.025V5.907c0-0.107,0.024-0.195,0.073-0.263
	c0.05-0.067,0.16-0.101,0.333-0.101h1.141c0.522,0,0.929,0.125,1.218,0.375c0.29,0.25,0.435,0.594,0.435,1.032
	c0,0.182-0.029,0.351-0.088,0.507c-0.059,0.157-0.141,0.295-0.248,0.417c-0.107,0.122-0.238,0.222-0.393,0.301
	c-0.153,0.08-0.329,0.131-0.524,0.154l1.414,1.68c-0.075,0.042-0.156,0.073-0.245,0.095c-0.089,0.021-0.173,0.031-0.252,0.031
	c-0.149,0-0.268-0.022-0.354-0.066c-0.087-0.044-0.177-0.125-0.27-0.242l-1.14-1.463h-0.316v1.442c0,0.094-0.029,0.171-0.088,0.234
	C15.245,10.104,15.142,10.135,14.992,10.135z M15.392,7.692h0.644c0.354,0,0.608-0.066,0.76-0.2
	c0.151-0.133,0.228-0.313,0.228-0.542c0-0.224-0.069-0.396-0.206-0.515c-0.138-0.119-0.356-0.178-0.655-0.178h-0.77V7.692z
	 M19.907,10.135c-0.074,0-0.148-0.003-0.221-0.01c-0.072-0.007-0.127-0.016-0.164-0.025V6.257h-1.4
	c-0.009-0.038-0.017-0.087-0.021-0.15c-0.005-0.063-0.007-0.13-0.007-0.2c0-0.149,0.03-0.247,0.091-0.294
	c0.061-0.046,0.138-0.07,0.23-0.07h3.276c0.019,0.07,0.028,0.177,0.028,0.322c0,0.261-0.107,0.392-0.322,0.392h-1.092v3.549
	c0,0.094-0.029,0.171-0.088,0.234C20.16,10.104,20.057,10.135,19.907,10.135z M22.595,10.135c-0.074,0-0.147-0.003-0.22-0.01
	c-0.072-0.007-0.128-0.016-0.165-0.025V5.858c0-0.093,0.029-0.172,0.088-0.235s0.162-0.094,0.312-0.094
	c0.074,0,0.147,0.003,0.221,0.01c0.072,0.007,0.127,0.016,0.164,0.025v1.911h2.128V5.858c0-0.093,0.029-0.172,0.088-0.235
	c0.058-0.063,0.162-0.094,0.312-0.094c0.074,0,0.149,0.003,0.224,0.01c0.074,0.007,0.131,0.016,0.168,0.025v4.242
	c0,0.094-0.029,0.171-0.087,0.234c-0.059,0.063-0.163,0.095-0.312,0.095c-0.075,0-0.149-0.003-0.225-0.01
	c-0.074-0.007-0.131-0.016-0.168-0.025V8.154h-2.128v1.652c0,0.094-0.029,0.171-0.088,0.234
	C22.849,10.104,22.744,10.135,22.595,10.135z"/>
</svg>
