<?xml version="1.0" encoding="utf-8"?>
<!-- Generator: Adobe Illustrator 16.0.0, SVG Export Plug-In . SVG Version: 6.00 Build 0)  -->
<!DOCTYPE svg PUBLIC "-//W3C//DTD SVG 1.1//EN" "http://www.w3.org/Graphics/SVG/1.1/DTD/svg11.dtd">
<svg version="1.1" id="Layer_1" xmlns="http://www.w3.org/2000/svg" xmlns:xlink="http://www.w3.org/1999/xlink" x="0px" y="0px"
	 width="32px" height="32px" viewBox="0 0 32 32" enable-background="new 0 0 32 32" xml:space="preserve">
<path fill="#1D1D1B" d="M27.5,1h-23C2.57,1,1,2.57,1,4.5v23C1,29.431,2.57,31,4.5,31h23c1.93,0,3.5-1.569,3.5-3.5v-23
	C31,2.57,29.43,1,27.5,1 M3,27.5v-23C3,3.674,3.673,3,4.5,3h23C28.328,3,29,3.674,29,4.5v23c0,0.827-0.672,1.5-1.5,1.5h-23
	C3.673,29,3,28.327,3,27.5 M14,20c0,1.104-0.896,2-2,2s-2-0.896-2-2s0.896-2,2-2S14,18.896,14,20z M9,20c0,1.104-0.896,2-2,2
	s-2-0.896-2-2s0.896-2,2-2S9,18.896,9,20z M19,20c0,1.104-0.896,2-2,2s-2-0.896-2-2s0.896-2,2-2S19,18.896,19,20z M14,25
	c0,1.104-0.896,2-2,2s-2-0.896-2-2s0.896-2,2-2S14,23.896,14,25z M9,25c0,1.104-0.896,2-2,2s-2-0.896-2-2s0.896-2,2-2S9,23.896,9,25
	z M19,25c0,1.104-0.896,2-2,2s-2-0.896-2-2s0.896-2,2-2S19,23.896,19,25z M14,15c0,1.104-0.896,2-2,2s-2-0.896-2-2s0.896-2,2-2
	S14,13.896,14,15z M9,15c0,1.104-0.896,2-2,2s-2-0.896-2-2s0.896-2,2-2S9,13.896,9,15z M19,15c0,1.104-0.896,2-2,2s-2-0.896-2-2
	s0.896-2,2-2S19,13.896,19,15z M26.921,24.201c-0.008,0.177-0.077,0.33-0.207,0.459l-2.12,2.121C24.446,26.926,24.259,27,24.062,27
	c-0.2,0-0.388-0.077-0.531-0.219l-2.526-2.527l0.102-0.168c0.03-0.05,0.079-0.117,0.148-0.201c0.063-0.076,0.132-0.152,0.205-0.226
	c0.182-0.181,0.354-0.269,0.533-0.269c0.19,0.006,0.349,0.078,0.477,0.205l0.639,0.609c0,0,0.003-0.527,0.001-0.629h-0.004v-9.832
	h0.01c0.012-0.212,0.078-0.396,0.215-0.544c0.148-0.159,0.412-0.239,0.794-0.239c0.19,0,0.378,0.008,0.563,0.025
	c0.184,0.018,0.323,0.039,0.418,0.062v0.695v0.055v9.746l0.005,0.598l0.945-0.945l0.167,0.099c0.051,0.03,0.119,0.079,0.203,0.149
	c0.077,0.064,0.151,0.132,0.225,0.203C26.839,23.838,26.928,24.02,26.921,24.201z M6.576,10.157c-0.229,0-0.478-0.023-0.746-0.07
	C5.562,10.04,5.288,9.97,5.008,9.877c0-0.019-0.001-0.035-0.004-0.049c-0.002-0.014-0.003-0.03-0.003-0.049
	c0-0.154,0.028-0.279,0.084-0.375s0.146-0.144,0.272-0.144c0.061,0,0.134,0.009,0.218,0.028c0.084,0.019,0.178,0.04,0.283,0.063
	c0.104,0.023,0.222,0.044,0.35,0.063c0.129,0.019,0.27,0.028,0.424,0.028c0.322,0,0.552-0.059,0.689-0.175
	c0.138-0.116,0.207-0.263,0.207-0.441c0-0.088-0.017-0.165-0.05-0.228c-0.032-0.063-0.079-0.117-0.14-0.161
	C7.278,8.394,7.205,8.355,7.118,8.323C7.032,8.29,6.933,8.257,6.821,8.225L6.24,8.064C5.782,7.938,5.464,7.763,5.284,7.539
	c-0.18-0.224-0.27-0.48-0.27-0.77c0-0.145,0.025-0.292,0.077-0.444c0.052-0.151,0.14-0.288,0.266-0.41
	c0.126-0.121,0.295-0.221,0.505-0.301c0.21-0.079,0.474-0.119,0.791-0.119c0.214,0,0.444,0.021,0.689,0.063
	c0.244,0.042,0.5,0.11,0.766,0.203v0.098c0,0.159-0.026,0.282-0.08,0.371C7.975,6.318,7.887,6.363,7.766,6.363
	c-0.061,0-0.127-0.008-0.199-0.024C7.494,6.322,7.412,6.306,7.321,6.289C7.23,6.273,7.126,6.257,7.01,6.24
	C6.894,6.224,6.763,6.216,6.618,6.216c-0.164,0-0.299,0.015-0.406,0.045S6.019,6.333,5.953,6.384S5.841,6.492,5.812,6.555
	C5.785,6.618,5.771,6.683,5.771,6.748c0,0.154,0.053,0.271,0.158,0.35c0.104,0.08,0.292,0.157,0.563,0.231l0.615,0.175
	c0.817,0.214,1.226,0.639,1.226,1.274c0,0.206-0.034,0.392-0.102,0.56S8.058,9.65,7.913,9.772c-0.145,0.121-0.327,0.216-0.546,0.283
	C7.147,10.123,6.884,10.157,6.576,10.157z M10.979,10.185c-0.331,0-0.635-0.062-0.91-0.186C9.793,9.875,9.558,9.705,9.361,9.488
	C9.166,9.271,9.013,9.019,8.903,8.732C8.794,8.445,8.739,8.136,8.739,7.805c0-0.327,0.055-0.633,0.164-0.92s0.263-0.536,0.458-0.746
	c0.196-0.21,0.432-0.375,0.707-0.497c0.275-0.121,0.579-0.182,0.91-0.182c0.332,0,0.635,0.061,0.91,0.182
	c0.275,0.122,0.511,0.287,0.707,0.497s0.349,0.458,0.459,0.742c0.109,0.285,0.164,0.593,0.164,0.924
	c0,0.332-0.055,0.641-0.164,0.928c-0.11,0.287-0.263,0.539-0.459,0.756s-0.432,0.387-0.707,0.511
	C11.613,10.123,11.311,10.185,10.979,10.185z M10.972,9.485c0.196,0,0.381-0.043,0.553-0.129c0.173-0.086,0.324-0.204,0.455-0.354
	s0.233-0.327,0.309-0.532c0.074-0.205,0.111-0.425,0.111-0.658c0-0.233-0.036-0.451-0.108-0.654s-0.173-0.378-0.301-0.525
	s-0.279-0.263-0.451-0.347C11.366,6.202,11.18,6.16,10.979,6.16c-0.195,0-0.38,0.041-0.553,0.123s-0.323,0.196-0.451,0.343
	C9.846,6.772,9.744,6.946,9.67,7.147c-0.075,0.201-0.112,0.42-0.112,0.658c0,0.243,0.036,0.467,0.108,0.672
	c0.072,0.206,0.173,0.383,0.302,0.532c0.128,0.149,0.278,0.266,0.451,0.35S10.775,9.485,10.972,9.485z M15.654,10.185
	c-0.304,0-0.57-0.051-0.802-0.154c-0.23-0.103-0.426-0.244-0.584-0.423c-0.159-0.18-0.279-0.389-0.36-0.626
	c-0.082-0.238-0.123-0.495-0.123-0.77V5.859c0-0.093,0.029-0.172,0.088-0.235c0.058-0.063,0.162-0.094,0.312-0.094
	c0.074,0,0.147,0.003,0.22,0.01c0.072,0.007,0.128,0.016,0.165,0.025v2.667c0,0.378,0.095,0.68,0.283,0.906
	c0.189,0.227,0.459,0.339,0.809,0.339c0.336,0,0.604-0.113,0.802-0.339c0.198-0.226,0.297-0.528,0.297-0.906V5.859
	c0-0.093,0.029-0.172,0.088-0.235S17.01,5.53,17.159,5.53c0.074,0,0.147,0.003,0.217,0.01c0.07,0.007,0.124,0.016,0.161,0.025v2.646
	c0,0.275-0.042,0.532-0.126,0.77c-0.084,0.238-0.205,0.447-0.364,0.626c-0.158,0.18-0.355,0.321-0.591,0.423
	C16.22,10.133,15.953,10.185,15.654,10.185z M19.771,10.136c-0.074,0-0.148-0.003-0.221-0.01c-0.072-0.007-0.127-0.016-0.164-0.025
	V6.258h-1.4c-0.009-0.038-0.017-0.087-0.021-0.15c-0.005-0.063-0.007-0.13-0.007-0.2c0-0.149,0.03-0.247,0.091-0.294
	c0.061-0.046,0.138-0.07,0.23-0.07h3.276c0.019,0.07,0.028,0.177,0.028,0.322c0,0.261-0.107,0.392-0.322,0.392H20.17v3.549
	c0,0.094-0.029,0.171-0.088,0.234C20.023,10.104,19.92,10.136,19.771,10.136z M22.458,10.136c-0.074,0-0.147-0.003-0.22-0.01
	c-0.072-0.007-0.128-0.016-0.165-0.025V5.859c0-0.093,0.029-0.172,0.088-0.235s0.162-0.094,0.312-0.094
	c0.074,0,0.147,0.003,0.221,0.01c0.072,0.007,0.127,0.016,0.164,0.025v1.911h2.128V5.859c0-0.093,0.029-0.172,0.088-0.235
	c0.058-0.063,0.162-0.094,0.312-0.094c0.074,0,0.149,0.003,0.224,0.01c0.074,0.007,0.131,0.016,0.168,0.025v4.242
	c0,0.094-0.029,0.171-0.087,0.234c-0.059,0.063-0.163,0.095-0.312,0.095c-0.075,0-0.149-0.003-0.225-0.01
	c-0.074-0.007-0.131-0.016-0.168-0.025V8.155h-2.128v1.652c0,0.094-0.029,0.171-0.088,0.234
	C22.712,10.104,22.607,10.136,22.458,10.136z"/>
</svg>
