<?xml version="1.0" encoding="utf-8"?>
<!-- Generator: Adobe Illustrator 16.0.0, SVG Export Plug-In . SVG Version: 6.00 Build 0)  -->
<!DOCTYPE svg PUBLIC "-//W3C//DTD SVG 1.1//EN" "http://www.w3.org/Graphics/SVG/1.1/DTD/svg11.dtd">
<svg version="1.1" id="Layer_1" xmlns="http://www.w3.org/2000/svg" xmlns:xlink="http://www.w3.org/1999/xlink" x="0px" y="0px"
	 width="32px" height="32px" viewBox="0 0 32 32" enable-background="new 0 0 32 32" xml:space="preserve">
<path fill="#1D1D1B" d="M27.5,1h-23C2.57,1,1,2.57,1,4.5v23C1,29.431,2.57,31,4.5,31h23c1.93,0,3.5-1.569,3.5-3.5v-23
	C31,2.57,29.43,1,27.5,1z M29,27.5c0,0.827-0.672,1.5-1.5,1.5H5.017l4.325-4.325c1.852,1.419,4.157,2.271,6.67,2.271
	C22.08,26.945,27,22.026,27,15.957S22.08,4.969,16.012,4.969S5.024,9.888,5.024,15.957c0,2.498,0.842,4.791,2.244,6.637L3,26.863
	V4.5C3,3.674,3.673,3,4.5,3h23C28.328,3,29,3.674,29,4.5V27.5z M23.422,21.086c-0.404-0.73-0.964-1.35-1.656-1.87
	c-0.851-0.64-1.803-1.069-2.823-1.347c-0.017-0.004-0.034-0.006-0.054-0.006c-0.068,0-0.149,0.026-0.198,0.065
	c-0.794,0.642-1.739,0.97-2.685,0.97c-0.853,0-1.705-0.266-2.451-0.806c-0.186-0.134-0.344-0.19-0.512-0.19
	c-0.113,0-0.229,0.025-0.361,0.07c-1.363,0.463-2.592,1.132-3.528,2.268c-0.216,0.262-0.401,0.539-0.567,0.823
	c-1.005-1.454-1.604-3.21-1.604-5.106c0-4.979,4.051-9.029,9.029-9.029c4.979,0,9.028,4.05,9.028,9.029
	C25.04,17.864,24.436,19.627,23.422,21.086z M23.352,21.191c-0.172,0.238-0.351,0.471-0.543,0.691
	C23,21.662,23.18,21.43,23.352,21.191z M9.197,21.863c-0.191-0.221-0.369-0.453-0.539-0.691C8.828,21.41,9.006,21.643,9.197,21.863z
	 M20.289,13.291c-0.002,2.354-1.932,4.28-4.289,4.28h-0.001c-2.356,0-4.287-1.926-4.289-4.28C11.708,10.93,13.635,9,15.988,9v0.716
	c0.003,0,0.006,0,0.008,0L15.988,9c0.008,0,0.016,0,0.023,0C18.379,9.014,20.291,10.93,20.289,13.291z"/>
</svg>
