<?xml version="1.0" encoding="utf-8"?>
<!-- Generator: Adobe Illustrator 16.0.3, SVG Export Plug-In . SVG Version: 6.00 Build 0)  -->
<!DOCTYPE svg PUBLIC "-//W3C//DTD SVG 1.1//EN" "http://www.w3.org/Graphics/SVG/1.1/DTD/svg11.dtd">
<svg version="1.1" id="Layer_1" xmlns="http://www.w3.org/2000/svg" xmlns:xlink="http://www.w3.org/1999/xlink" x="0px" y="0px"
	 width="99.063px" height="99.031px" viewBox="0 0 99.063 99.031" enable-background="new 0 0 99.063 99.031" xml:space="preserve">
<path id="Layer_2" d="M49.872,76.928c-2.035,0.157-4.712-1.933-4.637-4.785c0.071-2.732,2.264-4.681,4.73-4.67
	c2.692,0.016,4.735,2.153,4.728,4.813C54.687,74.811,52.453,77.033,49.872,76.928z M73.735,52.141l-0.656-0.687l-1.582-1.619
	c-5.352-5.144-12.981-8.37-21.458-8.406v-0.009c-0.021,0-0.051,0.002-0.074,0.002s-0.053-0.002-0.073-0.002v0.009
	c-8.477,0.036-16.105,3.263-21.458,8.406l-1.582,1.619l-0.657,0.687c-0.483,0.522-0.716,1.146-0.67,1.795
	c0.05,0.707,0.471,1.348,1.292,1.949c0.273,0.198,0.55,0.387,0.852,0.563c0.318,0.189,0.581,0.322,0.781,0.406l1.049,0.449
	l0.643-0.703l0.01,0.012l0.938-1.029l0.862-0.84c4.255-4.826,10.611-7.792,18.011-7.819c7.397,0.021,13.755,2.993,18.011,7.819
	l0.86,0.84l0.938,1.029l0.012-0.012l0.645,0.703l1.048-0.449c0.197-0.084,0.462-0.217,0.781-0.406
	c0.304-0.178,0.578-0.365,0.853-0.563c0.821-0.603,1.24-1.242,1.291-1.949C74.45,53.287,74.218,52.66,73.735,52.141z M65.132,61.053
	l-1.367-1.41c-3.54-3.398-8.558-5.357-13.769-5.388h-0.211c-5.153,0.056-10.121,2.027-13.645,5.421l-1.354,1.393
	c-0.504,0.545-0.753,1.221-0.705,1.906c0.054,0.766,0.475,1.44,1.259,2.012c0.198,0.146,0.4,0.279,0.614,0.404
	c0.263,0.153,0.48,0.266,0.629,0.325l1.57,0.669l0.158-0.169l0.012,0.005l1.977-2.103c2.378-2.688,5.807-4.18,9.662-4.19
	c3.861,0.012,7.312,1.518,9.728,4.256l1.665,1.748l0.423,0.453l1.556-0.662c0.166-0.066,0.388-0.179,0.633-0.33
	c0.223-0.127,0.423-0.265,0.629-0.406c0.781-0.576,1.198-1.252,1.251-2.012C65.897,62.293,65.649,61.613,65.132,61.053z
	 M49.613,16.253l31.959,35.521l0.012,34.225l-63.236-0.024c0-11.222,0-31.185,0-34.888L49.613,16.253 M49.61,10.622
	c-1.276,0-2.558,0.492-3.536,1.478L14.244,47.564c-0.82,0.839-1.259,1.8-1.301,2.893c-0.002,0.127,0,35.91,0,35.91v3.965
	c0,0,0.311,1.051,0.933,1.051c0.157,0,21.354,0,21.495,0c0.023,0,46.624,0.027,46.624,0.027c0.621,0,1.198-0.127,1.748-0.336
	c0.273-0.076,0.462-0.211,0.681-0.324c0.159-0.084,0.312-0.17,0.46-0.278c0.11-0.082,0.279-0.127,0.375-0.229
	c0.047-0.047,0.058-0.115,0.104-0.168c0.995-0.922,1.632-2.229,1.632-3.701l-0.012-35.291c-0.005-0.635-0.121-1.047-0.338-1.418
	c-0.216-0.496-0.526-0.958-0.95-1.39L53.147,12.099C52.171,11.114,50.891,10.622,49.61,10.622L49.61,10.622z"/>
</svg>
