<?xml version="1.0" encoding="utf-8"?>
<!-- Generator: Adobe Illustrator 16.0.3, SVG Export Plug-In . SVG Version: 6.00 Build 0)  -->
<!DOCTYPE svg PUBLIC "-//W3C//DTD SVG 1.1//EN" "http://www.w3.org/Graphics/SVG/1.1/DTD/svg11.dtd">
<svg version="1.1" id="Layer_1" xmlns="http://www.w3.org/2000/svg" xmlns:xlink="http://www.w3.org/1999/xlink" x="0px" y="0px"
	 width="99.063px" height="99.031px" viewBox="0 0 99.063 99.031" enable-background="new 0 0 99.063 99.031" xml:space="preserve">
<g>
	<path fill="#1D1D1B" d="M80.3,10.764H18.966c-5.146,0-9.333,4.188-9.333,9.333v61.334c0,5.15,4.188,9.333,9.333,9.333H80.3
		c5.146,0,9.333-4.183,9.333-9.333V20.097C89.633,14.952,85.446,10.764,80.3,10.764 M14.966,81.431V20.097c0-2.203,1.795-4,4-4H80.3
		c2.208,0,4,1.797,4,4v61.334c0,2.205-1.792,4-4,4H18.966C16.761,85.431,14.966,83.636,14.966,81.431 M49.544,68.275
		c-2.008,0.156-4.65-1.906-4.572-4.725c0.072-2.695,2.231-4.614,4.666-4.609c2.656,0.016,4.672,2.125,4.664,4.75
		C54.294,66.186,52.091,68.379,49.544,68.275z M73.086,43.822l-0.648-0.678l-1.56-1.599c-5.276-5.078-12.808-8.261-21.167-8.297l0,0
		c-0.026,0-0.055,0-0.075,0c-0.021,0-0.05,0-0.076,0v0.005c-8.359,0.037-15.885,3.219-21.166,8.295l-1.561,1.596l-0.648,0.678
		c-0.479,0.516-0.708,1.13-0.661,1.771c0.047,0.698,0.464,1.328,1.276,1.922c0.271,0.198,0.541,0.386,0.838,0.56
		c0.315,0.186,0.573,0.315,0.771,0.398l1.036,0.443l0.633-0.693l0.011,0.011l0.924-1.016l0.852-0.828
		c4.198-4.761,10.467-7.688,17.769-7.716c7.297,0.023,13.57,2.95,17.769,7.716l0.846,0.828l0.93,1.016l0.011-0.011l0.633,0.693
		l1.036-0.443c0.195-0.083,0.456-0.213,0.771-0.398c0.297-0.174,0.57-0.361,0.838-0.56c0.813-0.594,1.225-1.224,1.276-1.922
		C73.794,44.952,73.566,44.335,73.086,43.822z M64.597,52.613l-1.35-1.391c-3.492-3.354-8.442-5.286-13.583-5.313h-0.203
		c-5.083,0.055-9.989,2-13.464,5.344l-1.338,1.378c-0.498,0.534-0.74,1.2-0.695,1.878c0.055,0.755,0.469,1.422,1.242,1.984
		c0.195,0.148,0.391,0.278,0.609,0.398c0.258,0.153,0.474,0.263,0.617,0.322l1.549,0.659l0.162-0.167l0.005,0.006l1.95-2.07
		c2.347-2.654,5.729-4.128,9.531-4.139c3.811,0.011,7.214,1.5,9.597,4.198l1.644,1.724l0.416,0.448l1.534-0.653
		c0.164-0.065,0.383-0.175,0.625-0.326c0.219-0.125,0.414-0.26,0.617-0.4c0.771-0.568,1.18-1.234,1.234-1.984
		C65.357,53.838,65.113,53.166,64.597,52.613z"/>
</g>
</svg>
