<?xml version="1.0" encoding="utf-8"?>
<!-- Generator: Adobe Illustrator 16.0.3, SVG Export Plug-In . SVG Version: 6.00 Build 0)  -->
<!DOCTYPE svg PUBLIC "-//W3C//DTD SVG 1.1//EN" "http://www.w3.org/Graphics/SVG/1.1/DTD/svg11.dtd">
<svg version="1.1" id="Layer_1" xmlns="http://www.w3.org/2000/svg" xmlns:xlink="http://www.w3.org/1999/xlink" x="0px" y="0px"
	 width="99.063px" height="99.031px" viewBox="0 0 99.063 99.031" enable-background="new 0 0 99.063 99.031" xml:space="preserve">
<path fill="#1D1D1B" d="M77.449,13.94H22.328c-4.626,0-8.388,3.762-8.388,8.388v55.121c0,4.631,3.762,8.389,8.388,8.389h55.121
	c4.625,0,8.389-3.758,8.389-8.389V22.328C85.838,17.702,82.074,13.94,77.449,13.94 M18.733,77.449V22.328
	c0-1.98,1.613-3.595,3.595-3.595h55.121c1.984,0,3.595,1.615,3.595,3.595v55.121c0,1.983-1.61,3.595-3.595,3.595H22.328
	C20.346,81.044,18.733,79.433,18.733,77.449"/>
<g>
	<g>
		<path fill="#1D1D1B" d="M45.971,48.766c4.138-2.513,3.34-9.92-4.093-9.92H25.806c-1.242,0-2.279,1.025-2.279,2.271v17.54
			c0,1.245,1.038,2.275,2.279,2.275h13.999C50.938,60.932,52.327,51.031,45.971,48.766z M31.912,42.299h8.64
			c4.925,0,4.684,5.342-0.657,5.342h-7.983V42.299z M38.885,57.233h-6.973V51.12h8.93C45.896,51.125,45.944,57.233,38.885,57.233z"
			/>
		<path fill="#1D1D1B" d="M74.193,38.848H50.882c-1.017,0-2.069,0.83-2.069,1.848c0,1.018,1.053,1.846,2.069,1.846h7.741v16.117
			c0,1.24,1.035,2.277,2.28,2.277h3.622c1.255,0,2.279-1.039,2.279-2.277V42.542h7.382c1.017,0,2.063-0.828,2.063-1.846
			C76.252,39.678,75.203,38.848,74.193,38.848z"/>
	</g>
</g>
</svg>
