<?xml version="1.0" encoding="utf-8"?>
<!-- Generator: Adobe Illustrator 16.0.3, SVG Export Plug-In . SVG Version: 6.00 Build 0)  -->
<!DOCTYPE svg PUBLIC "-//W3C//DTD SVG 1.1//EN" "http://www.w3.org/Graphics/SVG/1.1/DTD/svg11.dtd">
<svg version="1.1" id="Layer_1" xmlns="http://www.w3.org/2000/svg" xmlns:xlink="http://www.w3.org/1999/xlink" x="0px" y="0px"
	 width="99.063px" height="99.031px" viewBox="0 0 99.063 99.031" enable-background="new 0 0 99.063 99.031" xml:space="preserve">
<path fill="#1D1D1B" d="M77.272,13.94H22.305c-4.613,0-8.365,3.751-8.365,8.365v54.967c0,4.616,3.751,8.364,8.365,8.364h54.967
	c4.611,0,8.364-3.748,8.364-8.364V22.305C85.636,17.691,81.883,13.94,77.272,13.94 M18.719,77.271V22.305
	c0-1.975,1.608-3.585,3.585-3.585h54.967c1.979,0,3.584,1.611,3.584,3.585v54.967c0,1.977-1.605,3.584-3.584,3.584H22.305
	C20.328,80.855,18.719,79.248,18.719,77.271 M72.53,28.121H27.044c-1.991,0-3.605,1.62-3.605,3.611V61.73
	c0,1.993,1.614,3.608,3.605,3.608h20.359v5.958H37.41v0.019c-0.516,0.023-0.958,0.185-1.316,0.514
	c-0.385,0.356-0.577,0.989-0.577,1.898c0,0.456,0.024,0.907,0.065,1.346c0.04,0.438,0.093,0.774,0.148,1.004h1.677h0.115h24.532
	h0.07h1.722c0.059-0.229,0.107-0.562,0.149-1.004c0.045-0.444,0.062-0.89,0.062-1.346c0-0.909-0.192-1.542-0.575-1.898
	c-0.366-0.339-0.826-0.505-1.357-0.521v-0.011h-9.944v-5.961H72.53c1.992,0,3.607-1.615,3.607-3.608V31.729
	C76.137,29.739,74.522,28.121,72.53,28.121z M71.358,60.557H28.219V32.901h43.138V60.557L71.358,60.557z M57.798,36.027
	c0.432-0.015,1.073,0.377,1.778,1.082c0.462,0.462,0.905,0.944,1.307,1.439c0.103,0.131,0.191,0.239,0.275,0.342l-7.048,7.048
	L53.246,46.8l0.864,0.862l5.835,5.833c0.4,0.403,0.597,0.819,0.615,1.338c0,0.254-0.137,0.813-1.082,1.748
	c-0.451,0.462-0.941,0.903-1.438,1.313c-0.126,0.103-0.237,0.191-0.341,0.273l-7.048-7.046l-0.864-0.868l-0.862,0.868l-5.837,5.835
	c-0.399,0.4-0.816,0.592-1.313,0.61c-0.425,0.02-1.068-0.373-1.772-1.073c-0.456-0.46-0.901-0.945-1.312-1.442
	c-0.1-0.126-0.191-0.232-0.271-0.341l7.049-7.049l0.866-0.862l-0.866-0.862l-5.833-5.829c-0.401-0.407-0.597-0.823-0.617-1.341
	c0-0.25,0.144-0.818,1.08-1.754c0.462-0.457,0.946-0.901,1.443-1.308c0.123-0.102,0.232-0.196,0.337-0.274l7.051,7.047l0.857,0.868
	l0.864-0.868l5.835-5.829C56.887,36.247,57.303,36.051,57.798,36.027"/>
</svg>
