<?xml version="1.0" encoding="utf-8"?>
<!-- Generator: Adobe Illustrator 16.0.3, SVG Export Plug-In . SVG Version: 6.00 Build 0)  -->
<!DOCTYPE svg PUBLIC "-//W3C//DTD SVG 1.1//EN" "http://www.w3.org/Graphics/SVG/1.1/DTD/svg11.dtd">
<svg version="1.1" id="Layer_1" xmlns="http://www.w3.org/2000/svg" xmlns:xlink="http://www.w3.org/1999/xlink" x="0px" y="0px"
	 width="99.063px" height="99.031px" viewBox="0 0 99.063 99.031" enable-background="new 0 0 99.063 99.031" xml:space="preserve">
<g>
	<path d="M79.511,10.26H18.552c-5.116,0-9.276,4.161-9.276,9.276v60.959c0,5.12,4.161,9.276,9.276,9.276h60.959
		c5.114,0,9.276-4.156,9.276-9.276V19.536C88.787,14.42,84.625,10.26,79.511,10.26 M14.576,80.495V19.536
		c0-2.19,1.783-3.976,3.976-3.976h60.959c2.195,0,3.976,1.786,3.976,3.976v60.959c0,2.192-1.78,3.976-3.976,3.976H18.552
		C16.36,84.471,14.576,82.688,14.576,80.495 M57.997,52.857c1.796-5.628-2.029-11.527-7.898-12.184
		c-5.069-0.569-9.646,2.929-10.367,7.994c-0.432,3.025,0.448,5.679,2.565,7.897c1.232,1.288,0.787,3.266-0.877,3.709
		c-0.814,0.217-1.542,0.015-2.139-0.593c-2.595-2.641-3.986-6.052-3.983-9.749c0.003-6.398,4.54-11.989,10.827-13.34
		c7.634-1.638,15.109,3.342,16.418,11.024c0.792,4.637-0.522,8.683-3.781,12.086c-0.826,0.864-2.211,0.869-3.057,0.041
		c-0.886-0.859-0.88-2.208,0.021-3.132C56.779,55.539,57.539,54.291,57.997,52.857z M60.764,64.684
		c-0.463-0.852-0.308-1.879,0.396-2.591c1.838-1.854,3.199-4.007,4.048-6.477c3.386-9.854-2.65-20.355-12.877-22.396
		c-9.223-1.841-18.343,4.238-20.074,13.462c-1.108,5.906,0.49,11.054,4.643,15.405c0.87,0.906,0.885,2.266,0.02,3.111
		c-0.862,0.842-2.219,0.826-3.083-0.054c-3.279-3.318-5.296-7.284-5.993-11.894c-0.165-1.077-0.218-2.169-0.324-3.253
		c0.067-10.101,7.146-18.932,17.027-20.938c7.241-1.477,13.684,0.314,19.14,5.322c3.701,3.395,5.906,7.656,6.566,12.632
		c0.893,6.763-1.015,12.688-5.635,17.73c-0.409,0.45-0.828,0.88-1.46,1.015C62.185,65.965,61.233,65.535,60.764,64.684z
		 M78.005,46.74c0.059,0.551,0.124,1.105,0.181,1.656c0,1.058,0,2.116,0,3.175c-0.063,0.577-0.119,1.151-0.187,1.721
		c-0.513,4.535-2.009,8.723-4.478,12.559c-1.105,1.711-2.379,3.284-3.817,4.724c-0.896,0.898-2.239,0.919-3.104,0.06
		c-0.872-0.867-0.859-2.205,0.025-3.105c3.665-3.707,6.028-8.117,6.859-13.263c1.294-8.03-0.782-15.127-6.274-21.149
		c-3.566-3.915-8.005-6.414-13.197-7.424c-7.328-1.428-14.062,0.062-20.021,4.586c-5.142,3.9-8.328,9.095-9.402,15.462
		c-1.229,7.292,0.478,13.893,5.034,19.734c0.562,0.722,1.208,1.379,1.832,2.047c0.663,0.723,0.845,1.642,0.463,2.485
		c-0.362,0.797-1.187,1.294-2.094,1.247c-0.575-0.028-1.063-0.27-1.462-0.678c-4.125-4.188-6.788-9.152-7.928-14.924
		c-0.243-1.243-0.332-2.517-0.496-3.779c-0.018-0.099-0.045-0.202-0.063-0.303c0-1.059,0-2.117,0-3.175
		c0.018-0.09,0.056-0.178,0.058-0.273c0.101-1.673,0.332-3.33,0.75-4.949c2.292-8.892,7.564-15.391,15.786-19.473
		c2.922-1.45,6.035-2.297,9.276-2.658c0.577-0.061,1.152-0.122,1.73-0.183c1.036,0,2.072,0,3.108,0
		c0.08,0.018,0.162,0.05,0.244,0.056c3.926,0.238,7.658,1.216,11.173,2.981c5.643,2.831,9.944,7.048,12.884,12.638
		C76.575,39.732,77.606,43.143,78.005,46.74z M52.552,55.966c-0.155-0.339-0.306-0.681-0.453-1.017
		c3.17-2.102,3.458-6.1,1.434-8.591c-2.045-2.516-5.796-2.873-8.264-0.746c-1.305,1.12-1.993,2.564-2.021,4.284
		c-0.031,2.174,0.941,3.841,2.717,5.053c-0.049,0.119-0.084,0.212-0.125,0.3c-3.864,8.511-7.729,17.01-11.59,25.521
		c-0.562,1.232-1.121,2.467-1.68,3.701h4.755c0.511-1.129,1.023-2.252,1.54-3.386c0.49,0.295,0.956,0.575,1.423,0.852
		c1.399,0.847,2.803,1.69,4.203,2.534h9.08c1.801-1.084,3.607-2.169,5.409-3.256c0.063-0.044,0.13-0.072,0.226-0.124
		c0.512,1.128,1.022,2.257,1.534,3.377h4.766C61.186,74.969,56.866,65.468,52.552,55.966z M46.834,80.829
		c-2.072-1.25-4.11-2.482-6.17-3.714c2.043-4.504,4.079-8.981,6.109-13.454c0.021,0,0.04,0.01,0.061,0.016
		C46.834,69.371,46.834,75.067,46.834,80.829z M51.201,80.847c0-5.787,0-11.52,0-17.253c0.018-0.005,0.032-0.013,0.051-0.019
		c2.045,4.496,4.084,9,6.147,13.534C55.347,78.347,53.292,79.584,51.201,80.847z"/>
</g>
</svg>
