<?xml version="1.0" encoding="utf-8"?>
<!-- Generator: Adobe Illustrator 16.0.3, SVG Export Plug-In . SVG Version: 6.00 Build 0)  -->
<!DOCTYPE svg PUBLIC "-//W3C//DTD SVG 1.1//EN" "http://www.w3.org/Graphics/SVG/1.1/DTD/svg11.dtd">
<svg version="1.1" id="Layer_1" xmlns="http://www.w3.org/2000/svg" xmlns:xlink="http://www.w3.org/1999/xlink" x="0px" y="0px"
	 width="99.063px" height="99.031px" viewBox="0 0 99.063 99.031" enable-background="new 0 0 99.063 99.031" xml:space="preserve">
<g>
	<path fill="#1D1D1B" d="M79.511,10.26H18.552c-5.116,0-9.276,4.161-9.276,9.276v60.959c0,5.12,4.161,9.276,9.276,9.276h60.959
		c5.114,0,9.276-4.156,9.276-9.276V19.536C88.787,14.42,84.625,10.26,79.511,10.26 M14.576,80.495V19.536
		c0-2.19,1.783-3.976,3.976-3.976h60.959c2.195,0,3.976,1.786,3.976,3.976v60.959c0,2.192-1.78,3.976-3.976,3.976H18.552
		C16.36,84.471,14.576,82.688,14.576,80.495 M55.44,62.993c1.225,1.396,1.129,3.003-0.232,4.281
		c-0.764,0.714-1.693,1.128-2.677,1.438c-1.164,0.363-2.368,0.5-3.544,0.508c-1.9-0.083-3.687-0.422-5.288-1.432
		c-0.519-0.326-0.969-0.728-1.301-1.25c-0.655-1.035-0.642-2.065,0.016-3.09c0.506-0.792,1.254-1.308,2.071-1.725
		c1.06-0.533,2.193-0.828,3.371-0.937c1.634-0.15,3.26-0.063,4.818,0.494c0.652,0.233,1.276,0.572,1.874,0.924
		C54.886,62.403,55.176,62.695,55.44,62.993z M68.723,58.889c0.026-2.429-1.951-4.38-4.462-4.405
		c-2.285-0.021-4.165,1.785-4.201,4.037c-0.038,2.371,1.944,4.38,4.349,4.4C66.816,62.941,68.698,61.187,68.723,58.889z
		 M58.452,69.972c-1.371,0.132-2.684,0.458-3.866,1.195c-0.474,0.295-0.88,0.657-1.181,1.134c-0.559,0.891-0.538,1.905,0.07,2.767
		c0.401,0.567,0.924,1.01,1.54,1.313c3.121,1.521,6.269,1.548,9.411,0.093c0.435-0.201,0.83-0.538,1.172-0.885
		c0.991-0.994,1.022-2.285,0.127-3.37c-0.538-0.657-1.225-1.121-1.998-1.46c-1.338-0.585-2.743-0.833-4.201-0.833
		C59.17,69.94,58.805,69.94,58.452,69.972z M80.601,84.3c-0.034-0.637-0.044-1.269-0.078-1.907c-0.108-2.042-0.23-4.087-0.479-6.116
		c-0.461-3.72-0.968-7.438-1.548-11.14c-0.817-5.244-2.024-10.41-3.453-15.519c-0.295-1.071-0.683-2.126-1.092-3.163
		c-0.347-0.885-1.062-1.462-1.879-1.905c-0.531-0.283-1.807-0.748-2.314-0.842c-0.336-0.066-0.673-0.136-1.004-0.215
		c-3.773-0.905-7.614-1.249-11.481-1.394c-4.209-0.162-8.363,0.321-12.469,1.173c-6.424,1.338-12.486,3.657-18.141,7.012
		c-0.655,0.388-1.697,1.216-1.882,1.346c-1.183,0.574-2.073,1.33-2.544,2.542c-0.316,0.813-0.652,1.614-0.84,2.469
		c-0.184,0.833-0.406,1.656-0.581,2.49c-0.521,2.521-1.103,5.031-1.527,7.567c-0.466,2.816-0.805,5.658-1.171,8.495
		c-0.389,3.013-0.63,6.041-0.736,9.08c0.372,0.119,0.761,0.196,1.171,0.196h4.127c0.101-2.883,0.332-5.771,0.696-8.596l0.184-1.434
		c0.292-2.296,0.583-4.595,0.959-6.875c0.296-1.777,0.678-3.554,1.058-5.324l0.43-2.039c0.085-0.409,0.185-0.815,0.283-1.222
		l0.281-1.206c0.071-0.331,0.265-0.82,0.47-1.341l0.201-0.099l0.563-0.359l0.463-0.342c0.275-0.21,0.744-0.582,1.087-0.789
		c5.083-3.013,10.641-5.161,16.53-6.388c3.541-0.734,6.735-1.092,9.771-1.092c0.472,0,0.945,0.01,1.419,0.03
		c4.288,0.163,7.514,0.549,10.448,1.253c0.386,0.093,0.787,0.174,1.193,0.257c0.086,0.026,0.35,0.119,0.583,0.209
		c0.237,0.633,0.46,1.274,0.642,1.926c1.509,5.409,2.596,10.285,3.318,14.913c0.53,3.396,1.03,6.988,1.524,10.979
		c0.228,1.869,0.344,3.784,0.445,5.746c0.033,0.559,0.06,1.186,0.088,1.796h4.195C79.894,84.471,80.251,84.403,80.601,84.3z
		 M36.744,70.038c-1.25,0.202-2.421,0.601-3.458,1.352c-0.47,0.337-0.859,0.745-1.132,1.258c-0.474,0.888-0.4,1.744,0.178,2.565
		c0.37,0.518,0.858,0.903,1.415,1.2c1.418,0.77,2.945,1.054,4.752,1.049c0.859,0.028,1.909-0.119,2.934-0.394
		c0.928-0.243,1.797-0.605,2.544-1.214c0.25-0.202,0.488-0.43,0.679-0.681c0.787-1.041,0.736-2.247-0.114-3.23
		c-0.586-0.673-1.333-1.118-2.152-1.429C40.559,69.816,38.668,69.728,36.744,70.038z M36.92,57.434
		c-1.553-0.994-3.209-1.032-4.914-0.507c-0.793,0.245-1.471,0.693-2.028,1.314c-1.105,1.232-1.423,3.238,0.175,4.731
		c0.981,0.916,2.179,1.263,3.062,1.278c2.099,0.023,3.562-0.59,4.537-1.713c0.994-1.145,1.128-2.71,0.334-3.955
		C37.785,58.111,37.385,57.736,36.92,57.434z M60.751,20.141c0.518,0.038,1.035,0.071,1.553,0.106
		c2.045,0.129,4.082,0.339,6.093,0.764c1.284,0.273,2.542,0.641,3.759,1.136c0.605,0.25,1.148,0.597,1.548,1.13
		c0.926,1.237,0.554,2.949-0.831,3.829c-0.712,0.456-1.449,0.551-2.255,0.217c-1.76-0.731-3.61-1.145-5.492-1.408
		c-2.379-0.325-4.777-0.41-7.18-0.368c-3.888,0.071-7.74,0.483-11.552,1.264c-3.784,0.769-7.479,1.824-11.024,3.364
		c-2.493,1.078-4.837,2.414-6.992,4.074c-0.721,0.554-1.543,0.843-2.449,0.641c-1.127-0.25-1.757-1.012-2.02-2.115
		c-0.01-0.056-0.035-0.116-0.056-0.172c0-0.285,0-0.576,0-0.862c0.016-0.043,0.045-0.079,0.053-0.125
		c0.108-0.548,0.389-0.986,0.834-1.335c1.972-1.562,4.087-2.895,6.327-4.04c3.347-1.712,6.864-2.96,10.5-3.893
		c2.701-0.692,5.433-1.211,8.2-1.545c1.927-0.228,3.86-0.379,5.791-0.557c0.56-0.053,1.129-0.071,1.688-0.109
		C58.411,20.141,59.576,20.141,60.751,20.141z M57.692,30.876c2.951,0.027,5.865,0.329,8.712,1.138
		c1.204,0.342,1.905,1.264,1.905,2.497c0,1.312-0.761,2.412-1.899,2.741c-0.497,0.147-0.989,0.099-1.486-0.042
		c-1.94-0.546-3.934-0.812-5.95-0.903c-3.476-0.159-6.902,0.238-10.313,0.888c-3.455,0.655-6.838,1.576-10.116,2.851
		c-0.66,0.257-1.298,0.568-1.95,0.838c-1.095,0.453-2.157,0.474-3.112-0.334c-1.402-1.185-1.088-3.687,0.579-4.442
		c4.009-1.813,8.168-3.149,12.48-3.999c2.523-0.499,5.063-0.854,7.626-1.052C55.336,30.965,56.514,30.941,57.692,30.876z"/>
</g>
</svg>
