<?xml version="1.0" encoding="utf-8"?>
<!-- Generator: Adobe Illustrator 16.0.3, SVG Export Plug-In . SVG Version: 6.00 Build 0)  -->
<!DOCTYPE svg PUBLIC "-//W3C//DTD SVG 1.1//EN" "http://www.w3.org/Graphics/SVG/1.1/DTD/svg11.dtd">
<svg version="1.1" id="Layer_1" xmlns="http://www.w3.org/2000/svg" xmlns:xlink="http://www.w3.org/1999/xlink" x="0px" y="0px"
	 width="32px" height="32px" viewBox="0 0 32 32" enable-background="new 0 0 32 32" xml:space="preserve">
<path d="M27.5,1h-23C2.57,1,1,2.57,1,4.5v23C1,29.432,2.57,31,4.5,31h23c1.93,0,3.5-1.568,3.5-3.5v-23C31,2.57,29.43,1,27.5,1
	 M3,27.5v-23C3,3.674,3.674,3,4.5,3h23C28.328,3,29,3.674,29,4.5v23c0,0.827-0.672,1.5-1.5,1.5h-23C3.674,29,3,28.327,3,27.5"/>
</svg>
