<?xml version="1.0" encoding="utf-8"?>
<!-- Generator: Adobe Illustrator 16.0.3, SVG Export Plug-In . SVG Version: 6.00 Build 0)  -->
<!DOCTYPE svg PUBLIC "-//W3C//DTD SVG 1.1//EN" "http://www.w3.org/Graphics/SVG/1.1/DTD/svg11.dtd">
<svg version="1.1" id="Layer_1" xmlns="http://www.w3.org/2000/svg" xmlns:xlink="http://www.w3.org/1999/xlink" x="0px" y="0px"
	 width="32px" height="32px" viewBox="0 0 32 32" enable-background="new 0 0 32 32" xml:space="preserve">
<path d="M27.5,1h-23C2.57,1,1,2.57,1,4.5v23C1,29.432,2.57,31,4.5,31h23c1.93,0,3.5-1.568,3.5-3.5v-23C31,2.57,29.43,1,27.5,1
	 M3,27.5v-23C3,3.674,3.674,3,4.5,3h23C28.328,3,29,3.674,29,4.5v23c0,0.827-0.672,1.5-1.5,1.5h-23C3.674,29,3,28.327,3,27.5"/>
<path fill="#12110B" d="M6.078,16.466c0.008,0.168,0.074,0.314,0.213,0.454l0.164,0.167l5.749,5.747
	c0.164,0.163,0.382,0.254,0.611,0.254c0.233,0,0.45-0.091,0.612-0.254l12.168-12.165l0.11-0.112
	c0.138-0.141,0.206-0.287,0.214-0.458c0.006-0.15-0.135-0.379-0.383-0.628c-0.163-0.162-0.333-0.318-0.511-0.464
	c-0.043-0.035-0.083-0.067-0.119-0.095L24.479,9.34L13.124,20.699l-0.306,0.308l-0.306-0.308L7.51,15.698L7.091,15.28
	c-0.036,0.028-0.077,0.06-0.12,0.096c-0.176,0.145-0.346,0.303-0.508,0.464C6.214,16.088,6.073,16.316,6.078,16.466z"/>
</svg>
