<?xml version="1.0" encoding="utf-8"?>
<!-- Generator: Adobe Illustrator 16.0.3, SVG Export Plug-In . SVG Version: 6.00 Build 0)  -->
<!DOCTYPE svg PUBLIC "-//W3C//DTD SVG 1.1//EN" "http://www.w3.org/Graphics/SVG/1.1/DTD/svg11.dtd">
<svg version="1.1" id="Layer_1" xmlns="http://www.w3.org/2000/svg" xmlns:xlink="http://www.w3.org/1999/xlink" x="0px" y="0px"
	 width="34px" height="34px" viewBox="0 0 34 34" enable-background="new 0 0 34 34" xml:space="preserve">
<path d="M12.171,16.291l7.921-7.921l0.128-0.124c0.163-0.161,0.331-0.24,0.529-0.248l0,0c0.112,0,0.341,0.059,0.726,0.441
	c0.188,0.188,0.367,0.387,0.537,0.59c0.042,0.052,0.077,0.098,0.11,0.139l-0.496,0.496l-6.981,6.98l-0.354,0.354l0.354,0.354
	l6.749,6.749l0.483,0.483c-0.032,0.042-0.069,0.088-0.111,0.141c-0.167,0.201-0.349,0.399-0.536,0.588
	c-0.384,0.385-0.613,0.441-0.716,0.441v0.247c-0.001,0-0.004,0-0.006,0.001l-0.005-0.248c-0.194-0.008-0.362-0.086-0.525-0.246
	l-0.188-0.184l-7.618-7.618c-0.188-0.188-0.293-0.44-0.293-0.708C11.878,16.731,11.982,16.48,12.171,16.291z"/>
</svg>
