<?xml version="1.0" encoding="utf-8"?>
<!-- Generator: Adobe Illustrator 16.0.3, SVG Export Plug-In . SVG Version: 6.00 Build 0)  -->
<!DOCTYPE svg PUBLIC "-//W3C//DTD SVG 1.1//EN" "http://www.w3.org/Graphics/SVG/1.1/DTD/svg11.dtd">
<svg version="1.1" id="Layer_1" xmlns="http://www.w3.org/2000/svg" xmlns:xlink="http://www.w3.org/1999/xlink" x="0px" y="0px"
	 width="34px" height="34px" viewBox="0 0 34 34" enable-background="new 0 0 34 34" xml:space="preserve">
<path d="M21.829,17.709l-7.921,7.921l-0.127,0.124c-0.164,0.161-0.332,0.24-0.53,0.248l0,0c-0.112,0-0.341-0.059-0.725-0.441
	c-0.188-0.188-0.368-0.387-0.537-0.59c-0.042-0.052-0.078-0.098-0.111-0.139l0.496-0.496l6.981-6.98l0.354-0.354l-0.354-0.354
	L12.607,9.9l-0.484-0.484c0.033-0.042,0.07-0.088,0.112-0.14c0.167-0.202,0.348-0.4,0.536-0.588
	c0.384-0.385,0.613-0.442,0.716-0.442V7.999c0.001,0,0.003,0,0.005-0.001l0.005,0.248c0.195,0.008,0.363,0.086,0.526,0.246
	l0.188,0.184l7.618,7.618c0.188,0.189,0.293,0.44,0.293,0.708C22.122,17.269,22.018,17.52,21.829,17.709z"/>
</svg>
