<?xml version="1.0" encoding="utf-8"?>
<!-- Generator: Adobe Illustrator 16.0.0, SVG Export Plug-In . SVG Version: 6.00 Build 0)  -->
<!DOCTYPE svg PUBLIC "-//W3C//DTD SVG 1.1//EN" "http://www.w3.org/Graphics/SVG/1.1/DTD/svg11.dtd">
<svg version="1.1" id="Layer_1" xmlns="http://www.w3.org/2000/svg" xmlns:xlink="http://www.w3.org/1999/xlink" x="0px" y="0px"
	 width="32px" height="32px" viewBox="0 0 32 32" enable-background="new 0 0 32 32" xml:space="preserve">
<g>
	<path d="M20.938,22.363c0.037-0.027,0.066-0.074,0.111-0.111c0.18-0.146,0.465-0.512,0.633-0.68
		c0.256-0.256,0.398-0.49,0.393-0.646c-0.006-0.18-0.078-0.332-0.223-0.477L17.402,16l4.938-4.938
		c-0.029-0.037-0.062-0.078-0.1-0.123c-0.146-0.181-0.465-0.466-0.635-0.635c-0.254-0.255-0.49-0.396-0.645-0.392
		c-0.18,0.007-0.355,0.055-0.502,0.201l-4.471,4.472l-4.95-4.949C11,9.665,10.971,9.71,10.926,9.748
		c-0.18,0.148-0.467,0.514-0.633,0.681c-0.256,0.256-0.398,0.491-0.393,0.646c0.006,0.18,0.078,0.332,0.224,0.478L14.573,16
		L9.66,20.914c0.028,0.037,0.062,0.078,0.099,0.125c0.149,0.178,0.443,0.488,0.609,0.654c0.256,0.256,0.491,0.398,0.646,0.395
		c0.178-0.008,0.355-0.055,0.5-0.201l4.473-4.473L20.938,22.363z"/>
</g>
</svg>
