<?xml version="1.0" encoding="utf-8"?>
<!-- Generator: Adobe Illustrator 16.0.3, SVG Export Plug-In . SVG Version: 6.00 Build 0)  -->
<!DOCTYPE svg PUBLIC "-//W3C//DTD SVG 1.1//EN" "http://www.w3.org/Graphics/SVG/1.1/DTD/svg11.dtd">
<svg version="1.1" id="Layer_1" xmlns="http://www.w3.org/2000/svg" xmlns:xlink="http://www.w3.org/1999/xlink" x="0px" y="0px"
	 width="34px" height="34px" viewBox="0 0 34 34" enable-background="new 0 0 34 34" xml:space="preserve">
<g id="GUIDES" display="none">
</g>
<path d="M25.141,14.123c-0.36,0-0.623-0.219-0.8-0.664l-0.076-0.141c-0.117-0.223-0.089-0.379-0.014-0.514l0.127-0.222
	c0.175-0.302,0.352-0.611,0.481-0.931c0.331-0.845,0.182-1.44-0.516-2.058c-0.204-0.181-0.416-0.353-0.626-0.525l-0.192-0.152
	c-0.284-0.234-0.618-0.347-1.021-0.347H22.41c-0.577,0.022-1.025,0.371-1.458,0.707c-0.06,0.048-0.119,0.103-0.177,0.157
	c-0.161,0.149-0.333,0.313-0.608,0.349h-0.002c-0.219,0-0.422-0.102-0.616-0.199c-0.069-0.032-0.118-0.055-0.169-0.079
	c-0.119-0.054-0.234-0.191-0.266-0.325c-0.042-0.172-0.072-0.34-0.104-0.512c-0.041-0.223-0.084-0.454-0.146-0.676
	c-0.252-0.874-0.851-1.354-1.683-1.354c-0.021,0-0.294,0.005-0.398,0.005l-0.226-0.001c-0.003,0-0.438,0-0.542,0.003
	c-0.59,0.02-1.036,0.282-1.291,0.755c-0.16,0.293-0.263,0.638-0.36,0.97l-0.055,0.192c-0.027,0.086-0.039,0.188-0.049,0.289
	c-0.021,0.205-0.044,0.403-0.17,0.549c-0.134,0.151-0.353,0.214-0.544,0.265c-0.093,0.028-0.184,0.051-0.261,0.086
	c-0.067,0.026-0.128,0.043-0.188,0.043c-0.132,0-0.227-0.068-0.306-0.134l-0.07-0.059c-0.299-0.255-0.603-0.509-0.917-0.724
	c-0.309-0.208-0.664-0.317-1.021-0.317c-0.35,0-0.671,0.102-0.931,0.304C9.526,9.116,9.184,9.401,8.805,9.742
	c-0.322,0.293-0.492,0.676-0.503,1.146c-0.011,0.532,0.221,0.998,0.439,1.393c0.038,0.063,0.08,0.125,0.122,0.188
	c0.128,0.191,0.263,0.395,0.259,0.61c-0.004,0.239-0.16,0.446-0.31,0.649l-0.108,0.149c-0.078,0.113-0.239,0.206-0.383,0.218
	c-0.224,0.016-0.446,0.02-0.669,0.027H7.596c-0.184,0.009-0.369,0.012-0.552,0.024c-0.763,0.046-1.377,0.578-1.534,1.326
	c-0.098,0.461-0.165,0.841-0.209,1.19c-0.092,0.711,0.147,1.24,0.73,1.615c0.27,0.173,0.55,0.354,0.836,0.419
	c0.699,0.164,1.024,0.555,1.021,1.232c-0.002,0.198-0.035,0.348-0.203,0.499l-0.209,0.193c-0.325,0.292-0.662,0.593-0.925,0.939
	c-0.395,0.512-0.423,1.097-0.086,1.696c0.152,0.27,0.309,0.537,0.463,0.803l0.15,0.255c0.203,0.348,0.514,0.58,0.927,0.69
	c0.161,0.048,0.324,0.068,0.497,0.068c0.399,0,0.794-0.121,1.096-0.229c0.066-0.022,0.137-0.053,0.207-0.084
	c0.175-0.08,0.356-0.158,0.536-0.158c0.037,0,0.074,0.004,0.107,0.013c0.237,0.044,0.417,0.234,0.591,0.421l0.124,0.131
	c0.097,0.094,0.161,0.274,0.143,0.421c-0.021,0.184-0.057,0.372-0.09,0.553c-0.029,0.165-0.057,0.319-0.079,0.474
	c-0.095,0.724,0.155,1.69,1.176,2.03c0.163,0.055,0.321,0.109,0.481,0.172c0.172,0.063,0.348,0.124,0.522,0.185
	c0.178,0.059,0.36,0.085,0.541,0.085c0.486,0,0.93-0.216,1.251-0.604l0.115-0.137c0.154-0.181,0.313-0.363,0.38-0.558
	c0.188-0.533,0.544-0.792,1.093-0.792c0.093,0,0.193,0.008,0.308,0.021c0.17,0.023,0.299,0.074,0.407,0.255l0.099,0.159
	c0.214,0.354,0.435,0.717,0.687,1.041c0.311,0.398,0.752,0.618,1.246,0.618c0.179,0,0.36-0.03,0.537-0.089
	c0.377-0.122,0.753-0.263,1.116-0.4c0.496-0.188,0.822-0.534,0.997-1.06c0.146-0.431,0.147-0.888,0.013-1.322
	c-0.211-0.668-0.039-1.149,0.543-1.507c0.114-0.065,0.217-0.113,0.333-0.113c0.07,0,0.139,0.017,0.219,0.048
	c0.49,0.198,1.002,0.406,1.542,0.423l0.082,0.004c0.587,0,1.039-0.229,1.343-0.674c0.258-0.376,0.477-0.775,0.715-1.219
	c0.271-0.511,0.258-1.015-0.029-1.465c-0.212-0.327-0.472-0.693-0.788-0.908c-0.586-0.395-0.759-0.875-0.534-1.51
	c0.064-0.194,0.121-0.317,0.323-0.384c0.304-0.101,0.625-0.211,0.935-0.352c0.931-0.416,1.342-1.061,1.219-1.913
	c-0.069-0.473-0.133-0.833-0.206-1.166c-0.147-0.665-0.535-1.083-1.151-1.24c-0.269-0.074-0.55-0.106-0.819-0.137l-0.682,0.015
	 M26.31,17.362c-0.257,0.102-0.521,0.199-0.783,0.294l-0.459,0.168c-0.149,0.058-0.3,0.116-0.449,0.181
	c-0.173,0.07-0.248,0.178-0.277,0.402c-0.084,0.599-0.197,1.248-0.351,1.978c-0.043,0.217-0.005,0.348,0.133,0.463l0.317,0.268
	c0.327,0.274,0.653,0.546,0.976,0.828c0.395,0.344,0.417,0.475,0.163,0.927c-0.001,0-0.313,0.537-0.377,0.652
	c-0.117,0.212-0.275,0.256-0.388,0.256c-0.046,0-0.097-0.008-0.146-0.023l-1.229-0.396c-0.28-0.089-0.56-0.178-0.867-0.243
	c-0.023,0.005-0.11,0.044-0.169,0.092c-0.304,0.249-0.604,0.5-0.902,0.751c-0.26,0.214-0.518,0.429-0.775,0.645
	c-0.125,0.102-0.169,0.211-0.144,0.367l0.117,0.682c0.058,0.354,0.12,0.708,0.172,1.064c0.073,0.474,0.005,0.583-0.443,0.754
	c-0.213,0.078-0.427,0.159-0.637,0.23c-0.12,0.044-0.216,0.065-0.301,0.065c-0.21,0-0.363-0.112-0.513-0.365
	c-0.277-0.48-0.56-0.959-0.834-1.443c-0.105-0.188-0.232-0.264-0.445-0.264l-0.04,0.005c-0.317,0.013-0.642,0.016-0.963,0.016
	c-0.358,0-0.716-0.003-1.103-0.021c-0.192,0-0.313,0.075-0.415,0.245l-0.833,1.439c-0.11,0.186-0.246,0.383-0.513,0.383
	c-0.089,0-0.194-0.021-0.336-0.072c-0.206-0.068-0.411-0.143-0.615-0.219c-0.446-0.171-0.512-0.28-0.441-0.759
	c0.046-0.316,0.104-0.634,0.161-0.953l0.085-0.481l0.023-0.097c0.013-0.067,0.03-0.139,0.02-0.177
	c-0.023-0.113-0.073-0.312-0.161-0.396c-0.528-0.516-1.123-0.962-1.664-1.399c-0.046-0.039-0.131-0.079-0.229-0.079
	c-0.239,0.059-0.485,0.142-0.702,0.216c-0.121,0.039-0.542,0.177-0.542,0.177c-0.27,0.085-0.548,0.17-0.872,0.242
	c-0.002,0-0.004,0-0.007,0c-0.161,0-0.33-0.087-0.402-0.192c-0.132-0.199-0.251-0.407-0.362-0.606l-0.161-0.277
	c-0.126-0.22-0.073-0.432,0.154-0.634c0.218-0.195,0.441-0.38,0.665-0.567l0.295-0.251c0.044-0.039,0.084-0.074,0.131-0.102
	c0.421-0.277,0.53-0.587,0.379-1.067c-0.141-0.442-0.196-0.912-0.248-1.369l-0.041-0.346c-0.022-0.175-0.095-0.272-0.246-0.332
	c-0.201-0.079-0.405-0.151-0.608-0.227L7.999,17.75c-0.149-0.054-0.299-0.11-0.449-0.168c-0.188-0.07-0.436-0.168-0.678-0.286
	c-0.241-0.112-0.336-0.309-0.274-0.563c0.059-0.255,0.107-0.536,0.141-0.83c0.038-0.317,0.226-0.48,0.565-0.48h0.909l1.008-0.048
	c0.139-0.007,0.214-0.062,0.295-0.21c0.363-0.686,0.687-1.244,1.012-1.764c0.138-0.216,0.145-0.373,0.028-0.572
	c-0.325-0.556-0.585-1.014-0.826-1.451c-0.227-0.411-0.195-0.571,0.172-0.884c0.161-0.137,0.322-0.27,0.483-0.402
	c0.186-0.153,0.318-0.216,0.456-0.216c0.143,0,0.277,0.066,0.469,0.227c0.403,0.333,0.798,0.667,1.196,1.009
	c0.135,0.114,0.245,0.161,0.369,0.161c0.083,0,0.174-0.024,0.278-0.067c0.58-0.255,1.178-0.451,1.847-0.661
	c0.202-0.066,0.289-0.152,0.321-0.324l0.305-1.635c0.016-0.087,0.043-0.172,0.087-0.318c0.069-0.227,0.232-0.344,0.486-0.344
	c0.159,0.008,0.314,0.013,0.472,0.013c0.125,0,0.251-0.005,0.426-0.017H17.1c0.284,0,0.47,0.157,0.526,0.442l0.061,0.294
	c0.075,0.355,0.152,0.724,0.194,1.099c0.059,0.547,0.273,0.801,0.763,0.9c0.492,0.097,0.962,0.293,1.518,0.555
	c0.1,0.043,0.188,0.066,0.269,0.066c0.122,0,0.236-0.05,0.375-0.168c0.389-0.332,0.78-0.661,1.174-0.99
	c0.177-0.147,0.321-0.242,0.487-0.242c0.161,0,0.303,0.09,0.479,0.235c0.068,0.055,0.139,0.114,0.205,0.171
	c0.102,0.086,0.203,0.177,0.309,0.254c0.274,0.204,0.325,0.474,0.153,0.778l-0.238,0.423c-0.194,0.347-0.387,0.688-0.592,1.021
	c-0.147,0.255-0.141,0.438,0.036,0.709c0.375,0.57,0.701,1.166,0.966,1.678c0.086,0.172,0.181,0.23,0.355,0.235l1.289,0.015h0.001
	c0.1,0,0.201,0.004,0.303,0.013c0.708,0.054,0.766,0.106,0.892,0.794c0.014,0.062,0.018,0.121,0.024,0.18
	c0.012,0.098,0.021,0.183,0.048,0.266C26.804,16.979,26.675,17.221,26.31,17.362"/>
<path d="M16.703,22.733c-1.325-0.002-2.563-0.52-3.49-1.454c-0.926-0.927-1.43-2.167-1.423-3.482c0.013-2.696,2.205-4.89,4.886-4.89
	c2.771,0.028,4.97,2.245,4.949,4.952c-0.022,2.688-2.223,4.874-4.908,4.874H16.703z M16.704,14.409
	c-0.916,0-1.778,0.372-2.427,1.044c-0.658,0.684-1.029,1.612-0.998,2.481c0.053,1.381,1.275,3.298,3.432,3.298
	c0.946-0.005,1.822-0.385,2.474-1.077c0.62-0.657,0.978-1.55,0.934-2.331c0.049-0.786-0.298-1.662-0.928-2.332
	c-0.654-0.696-1.537-1.083-2.481-1.083H16.704z"/>
</svg>
