<?xml version="1.0" encoding="utf-8"?>
<!-- Generator: Adobe Illustrator 16.0.0, SVG Export Plug-In . SVG Version: 6.00 Build 0)  -->
<!DOCTYPE svg PUBLIC "-//W3C//DTD SVG 1.1//EN" "http://www.w3.org/Graphics/SVG/1.1/DTD/svg11.dtd">
<svg version="1.1" id="Layer_1" xmlns="http://www.w3.org/2000/svg" xmlns:xlink="http://www.w3.org/1999/xlink" x="0px" y="0px"
	 width="32px" height="32px" viewBox="0 0 32 32" enable-background="new 0 0 32 32" xml:space="preserve">
<path fill="#1D1D1B" d="M27.5,1h-23C2.57,1,1,2.57,1,4.5v23C1,29.431,2.57,31,4.5,31h23c1.93,0,3.5-1.569,3.5-3.5v-23
	C31,2.57,29.43,1,27.5,1 M3,27.5v-23C3,3.674,3.673,3,4.5,3h23C28.328,3,29,3.674,29,4.5v23c0,0.827-0.672,1.5-1.5,1.5h-23
	C3.673,29,3,28.327,3,27.5 M23.963,5.221H7.98C6.334,5.221,5,6.555,5,8.201v8.252c0,1.646,1.334,2.98,2.98,2.98h2.254v4.484
	l0.01,0.004c0.008,0.475,0.393,0.857,0.868,0.857c0.255,0,0.478-0.111,0.638-0.287l0.014,0.006l5.063-5.064h7.136
	c1.646,0,2.98-1.334,2.98-2.98V8.201C26.943,6.555,25.608,5.221,23.963,5.221 M24.943,16.453c0,0.541-0.439,0.98-0.98,0.98h-7.949
	l-3.799,3.801v-3.801H7.98c-0.541,0-0.98-0.439-0.98-0.98V8.201c0-0.541,0.439-0.98,0.98-0.98h15.982c0.541,0,0.98,0.439,0.98,0.98
	V16.453z M14,12.062c0,0.553-0.447,1-1,1s-1-0.447-1-1s0.447-1,1-1S14,11.51,14,12.062z M16,11.062c-0.553,0-1,0.447-1,1
	s0.447,1,1,1s1-0.447,1-1S16.553,11.062,16,11.062z M19,11.062c-0.553,0-1,0.447-1,1s0.447,1,1,1s1-0.447,1-1
	S19.553,11.062,19,11.062z"/>
</svg>
