<?xml version="1.0" encoding="utf-8"?>
<!-- Generator: Adobe Illustrator 16.0.3, SVG Export Plug-In . SVG Version: 6.00 Build 0)  -->
<!DOCTYPE svg PUBLIC "-//W3C//DTD SVG 1.1//EN" "http://www.w3.org/Graphics/SVG/1.1/DTD/svg11.dtd">
<svg version="1.1" id="Layer_1" xmlns="http://www.w3.org/2000/svg" xmlns:xlink="http://www.w3.org/1999/xlink" x="0px" y="0px"
	 width="99.063px" height="99.031px" viewBox="0 0 99.063 99.031" enable-background="new 0 0 99.063 99.031" xml:space="preserve">
<path d="M71.441,69.255c0,0.527-0.205,1.028-0.591,1.426l-5.694,5.705c-0.346,0.346-0.758,0.534-1.232,0.556
	c-0.487,0.016-0.973-0.22-1.479-0.729c-0.193-0.193-0.383-0.394-0.551-0.604c-0.187-0.227-0.319-0.409-0.398-0.546l-0.269-0.445
	l3.002-2.934h-0.546h-0.021H28.888c-0.64,0-1.178-0.205-1.61-0.606c-0.349-0.323-0.518-0.908-0.586-1.646
	c-0.01,0-0.062-0.005-0.062-0.005v-25.07c0.005-0.629,0.202-1.159,0.6-1.584c0.4-0.43,1.112-0.646,2.137-0.646
	c0.508,0,1.013,0.021,1.51,0.068c0.495,0.047,0.869,0.104,1.125,0.168v2.015v7.819l17.68,0.006l-1.286-1.339
	c-0.344-0.341-0.538-0.766-0.557-1.28c0-0.478,0.236-0.943,0.725-1.428c0.194-0.199,0.401-0.386,0.606-0.551
	c0.226-0.189,0.406-0.32,0.537-0.401l0.454-0.274l6.788,6.793c0.384,0.386,0.594,0.885,0.594,1.423c0,0.521-0.205,1.027-0.594,1.425
	l-5.699,5.704c-0.347,0.347-0.762,0.535-1.233,0.557c-0.49,0.017-0.973-0.221-1.481-0.728c-0.191-0.191-0.375-0.392-0.549-0.605
	c-0.188-0.226-0.319-0.407-0.398-0.546L47.319,60.5l2.999-2.929H32.004v8.732h31.578l-1.288-1.333
	c-0.344-0.342-0.533-0.765-0.554-1.28c0-0.479,0.24-0.944,0.724-1.428c0.2-0.199,0.404-0.387,0.605-0.552
	c0.227-0.187,0.407-0.319,0.541-0.397l0.451-0.278l6.788,6.796C71.233,68.213,71.441,68.717,71.441,69.255z M84.333,26.038v57.521
	c0,2.733-0.684,4.69-2.084,5.998c-1.327,1.226-2.962,1.848-4.864,1.848L38.179,91.41l-16.644-0.152c-1.902,0-3.538-0.621-4.863-1.85
	c-1.405-1.299-2.087-3.262-2.087-6.001V18.472c0-2.733,0.682-4.694,2.084-5.999c1.328-1.23,2.964-1.852,4.864-1.852l47.502,0.151
	v-0.151l0,0v0.151c0.688,0,1.354,0.269,1.861,0.758l0.189,0.147l12.201,12.195l-0.012,0.01l0.217,0.211
	C84.033,24.616,84.333,25.307,84.333,26.038z M78.922,31.943h-0.294H63.055V16.475V16.18h-0.297l-41.225-0.148
	c-0.529,0-0.873,0.118-1.19,0.408l-0.03,0.026l-0.021,0.037c-0.103,0.168-0.3,0.8-0.3,1.975v64.924c0,1.147,0.188,1.811,0.387,2.078
	c0.285,0.257,0.642,0.369,1.155,0.369l16.644,0.154l39.205-0.005c0.532,0,0.874-0.116,1.188-0.4l0.031-0.029l0.021-0.037
	c0.104-0.165,0.299-0.8,0.299-1.979V32.238V31.943L78.922,31.943z"/>
</svg>
