<?xml version="1.0" encoding="utf-8"?>
<!-- Generator: Adobe Illustrator 16.0.0, SVG Export Plug-In . SVG Version: 6.00 Build 0)  -->
<!DOCTYPE svg PUBLIC "-//W3C//DTD SVG 1.1//EN" "http://www.w3.org/Graphics/SVG/1.1/DTD/svg11.dtd">
<svg version="1.1" id="Layer_1" xmlns="http://www.w3.org/2000/svg" xmlns:xlink="http://www.w3.org/1999/xlink" x="0px" y="0px"
	 width="32px" height="32px" viewBox="0 0 32 32" enable-background="new 0 0 32 32" xml:space="preserve">
<path fill="#1D1D1B" d="M27.5,1h-23C2.57,1,1,2.57,1,4.5v23C1,29.431,2.57,31,4.5,31h23c1.93,0,3.5-1.569,3.5-3.5v-23
	C31,2.57,29.43,1,27.5,1 M3,27.5v-23C3,3.674,3.673,3,4.5,3h23C28.328,3,29,3.674,29,4.5v23c0,0.827-0.672,1.5-1.5,1.5h-23
	C3.673,29,3,28.327,3,27.5 M13.132,21.352c-0.186,0.358-0.354,0.734-0.488,1.143c-2.465-2.229-6.228-0.82-6.696,2.391
	C4.805,25.029,3.805,25.513,3,26.191V23.78c0.428-0.23,0.869-0.437,1.342-0.584c0.893-2.26,3.052-3.787,5.563-3.787
	c0.245,0,0.487,0.028,0.729,0.06c0.702,0.558,1.492,1.015,2.355,1.335L13.132,21.352z M29,23.57v2.411
	c-0.986-0.851-2.241-1.274-3.711-1.309c0.133-2.395-1.084-4.656-3.145-5.884c0.477-0.478,0.886-1.01,1.238-1.584
	c1.998,1.281,3.39,3.35,3.794,5.689C27.833,23.044,28.438,23.275,29,23.57z M16,5c-4.237,0-7.674,3.436-7.674,7.674
	c0,3.479,2.319,6.414,5.494,7.354l1.735,6.665h0.013C15.63,26.871,15.796,27,15.994,27c0.2,0,0.364-0.129,0.428-0.308h0.012
	l1.81-6.682c3.144-0.96,5.431-3.881,5.431-7.337C23.674,8.436,20.238,5,16,5z M17.682,18.261l-0.715,0.219l-0.197,0.726L16.013,22
	l-0.72-2.768L15.1,18.491l-0.736-0.219c-2.425-0.718-4.12-2.986-4.12-5.516C10.243,9.583,12.827,7,16,7s5.757,2.583,5.757,5.757
	C21.757,15.305,20.12,17.517,17.682,18.261z"/>
</svg>
