<?xml version="1.0" encoding="utf-8"?>
<!-- Generator: Adobe Illustrator 16.0.3, SVG Export Plug-In . SVG Version: 6.00 Build 0)  -->
<!DOCTYPE svg PUBLIC "-//W3C//DTD SVG 1.1//EN" "http://www.w3.org/Graphics/SVG/1.1/DTD/svg11.dtd">
<svg version="1.1" id="Layer_1" xmlns="http://www.w3.org/2000/svg" xmlns:xlink="http://www.w3.org/1999/xlink" x="0px" y="0px"
	 width="99.063px" height="99.031px" viewBox="0 0 99.063 99.031" enable-background="new 0 0 99.063 99.031" xml:space="preserve">
<path d="M82.354,18.481H17.585c-4.446,0-8.051,3.604-8.051,8.051v33.091c0,4.444,3.604,8.054,8.051,8.054h8.79v12.105l0.023,0.011
	c0.017,1.284,1.057,2.32,2.348,2.32c0.686,0,1.291-0.306,1.72-0.775l0.038,0.017l13.673-13.678h38.176
	c4.447,0,8.05-3.604,8.05-8.049V26.532C90.409,22.086,86.801,18.481,82.354,18.481z M85.006,59.623c0,1.461-1.187,2.65-2.646,2.65
	H41.983L31.72,72.537V62.273H17.585c-1.464,0-2.65-1.189-2.65-2.65V26.532c0-1.461,1.187-2.649,2.65-2.649h64.768
	c1.462,0,2.648,1.188,2.648,2.649v33.091H85.006z"/>
</svg>
