<?xml version="1.0" encoding="utf-8"?>
<!-- Generator: Adobe Illustrator 16.0.3, SVG Export Plug-In . SVG Version: 6.00 Build 0)  -->
<!DOCTYPE svg PUBLIC "-//W3C//DTD SVG 1.1//EN" "http://www.w3.org/Graphics/SVG/1.1/DTD/svg11.dtd">
<svg version="1.1" id="Layer_1" xmlns="http://www.w3.org/2000/svg" xmlns:xlink="http://www.w3.org/1999/xlink" x="0px" y="0px"
	 width="99.063px" height="99.031px" viewBox="0 0 99.063 99.031" enable-background="new 0 0 99.063 99.031" xml:space="preserve">
<g id="Layer_2">
	<g>
		<path d="M36.724,63.875l13.442-13.432c-0.04-0.182-0.098-0.358-0.101-0.557h-0.002v-20.29v-0.16V27.41
			c0.278-0.069,0.685-0.131,1.223-0.184c0.545-0.054,1.088-0.079,1.644-0.079c1.111,0,1.883,0.233,2.314,0.7
			c0.4,0.434,0.592,0.969,0.625,1.588h0.025v20.423v0.024v2.164h-0.003c-0.024,0.583-0.265,1.095-0.677,1.553l0.021,0.018
			L40.867,67.985l-0.019,0.019l-1.527,1.529c-0.245-0.149-0.578-0.394-0.997-0.735c-0.416-0.347-0.821-0.718-1.215-1.11
			c-0.789-0.789-1.167-1.499-1.145-2.131c0.029-0.634,0.279-1.192,0.758-1.677L36.724,63.875L36.724,63.875z"/>
	</g>
	<path d="M9.966,53.109c-0.374-0.376-0.577-0.822-0.6-1.338c-0.021-0.537,0.238-1.062,0.787-1.613
		c0.21-0.211,0.433-0.41,0.656-0.594c0.245-0.205,0.448-0.348,0.596-0.436l0.487-0.288l2.758,2.757l0.015-1.912
		c0.201-9.824,4.143-19.063,11.095-26.009c7.16-7.164,16.685-11.114,26.817-11.114c10.13,0,19.653,3.95,26.816,11.106
		C86.557,30.834,90.5,40.356,90.5,50.491c0,10.13-3.943,19.657-11.106,26.815c-6.907,6.905-16.096,10.838-25.877,11.076
		l-1.057,0.025c-0.743,0-1.387-0.245-1.902-0.729c-0.555-0.512-0.824-1.27-0.824-2.31c0-0.355,0.018-0.713,0.052-1.097
		c0.043-0.379,0.092-0.679,0.143-0.901l0.245-0.974H51.3v-0.023l1.288,0.006c8.534,0,16.546-3.313,22.561-9.327
		c6.015-6.013,9.328-14.031,9.328-22.562c0-8.527-3.313-16.554-9.328-22.57c-6.019-6.019-14.041-9.334-22.568-9.334
		c-8.533,0-16.557,3.315-22.574,9.334c-6.02,6.021-9.333,14.04-9.333,22.605l-0.032,0.697l-0.15,0.556h-0.182
		c-0.013,0.023-0.033,0.043-0.044,0.063l0.251,0.006l1.841-1.842c0.374-0.372,0.835-0.58,1.39-0.601c0.52,0,1.026,0.259,1.556,0.783
		c0.215,0.216,0.417,0.435,0.598,0.662c0.204,0.244,0.348,0.438,0.436,0.585l0.298,0.492l-7.385,7.37
		c-0.415,0.419-0.961,0.638-1.543,0.638c-0.573,0-1.118-0.214-1.551-0.638L9.966,53.109z"/>
</g>
</svg>
