<?xml version="1.0" encoding="utf-8"?>
<!-- Generator: Adobe Illustrator 16.0.3, SVG Export Plug-In . SVG Version: 6.00 Build 0)  -->
<!DOCTYPE svg PUBLIC "-//W3C//DTD SVG 1.1//EN" "http://www.w3.org/Graphics/SVG/1.1/DTD/svg11.dtd">
<svg version="1.1" id="Layer_1" xmlns="http://www.w3.org/2000/svg" xmlns:xlink="http://www.w3.org/1999/xlink" x="0px" y="0px"
	 width="99.063px" height="99.031px" viewBox="0 0 99.063 99.031" enable-background="new 0 0 99.063 99.031" xml:space="preserve">
<path id="Layer_2" d="M49.613,16.253l31.959,35.521l0.013,34.225l-63.236-0.023c0-11.223,0-31.186,0-34.889L49.613,16.253
	 M49.61,10.622c-1.275,0-2.558,0.492-3.535,1.479l-31.83,35.464c-0.82,0.839-1.26,1.8-1.302,2.893c-0.002,0.127,0,35.91,0,35.91
	v3.965c0,0,0.312,1.051,0.934,1.051c0.157,0,21.354,0,21.495,0c0.022,0,46.624,0.027,46.624,0.027c0.621,0,1.197-0.127,1.748-0.336
	c0.272-0.076,0.462-0.211,0.681-0.324c0.159-0.084,0.312-0.17,0.46-0.277c0.11-0.082,0.279-0.127,0.375-0.229
	c0.047-0.047,0.058-0.115,0.104-0.168c0.995-0.922,1.633-2.229,1.633-3.701l-0.013-35.291c-0.005-0.635-0.121-1.047-0.338-1.418
	c-0.216-0.496-0.525-0.958-0.95-1.39L53.147,12.099C52.171,11.114,50.891,10.622,49.61,10.622L49.61,10.622z"/>
</svg>
