<?xml version="1.0" encoding="utf-8"?>
<!-- Generator: Adobe Illustrator 16.0.3, SVG Export Plug-In . SVG Version: 6.00 Build 0)  -->
<!DOCTYPE svg PUBLIC "-//W3C//DTD SVG 1.1//EN" "http://www.w3.org/Graphics/SVG/1.1/DTD/svg11.dtd">
<svg version="1.1" id="Layer_1" xmlns="http://www.w3.org/2000/svg" xmlns:xlink="http://www.w3.org/1999/xlink" x="0px" y="0px"
	 width="99.063px" height="99.031px" viewBox="0 0 99.063 99.031" enable-background="new 0 0 99.063 99.031" xml:space="preserve">
<g>
	<path fill="#1D1D1B" d="M79.679,10.956H20.032c-5.005,0-9.077,4.071-9.077,9.077v59.646c0,5.01,4.071,9.077,9.077,9.077h59.646
		c5.005,0,9.077-4.067,9.077-9.077V20.032C88.756,15.027,84.684,10.956,79.679,10.956z M49.918,16.143
		c6.314,0.062,11.44,5.207,11.436,11.499c-0.005,6.326-5.161,11.467-11.508,11.473c-6.333,0-11.494-5.146-11.499-11.473
		c0-3.061,1.195-5.941,3.371-8.125c2.161-2.166,5.013-3.358,8.04-3.373H49.918z M18.739,83.331c0.408,0.145,0.838,0.238,1.294,0.238
		C19.576,83.569,19.146,83.476,18.739,83.331z M79.679,83.569c0.457,0,0.884-0.094,1.289-0.235
		C80.563,83.476,80.133,83.569,79.679,83.569z M83.57,79.679c0,1.687-1.083,3.113-2.591,3.652
		c0.002-6.018,0.008-11.894-0.013-18.017c-0.005-0.922-0.116-1.859-0.344-2.75c-0.612-2.406-1.633-4.528-2.964-6.423l-3.738,3.741
		c0.771,1.243,1.378,2.539,1.742,3.973c0.116,0.464,0.183,0.973,0.183,1.469c0.02,6.16,0.016,11.908,0.01,18.067v0.178H23.863
		v-2.198c0-5.229,0-10.455-0.01-15.682c-0.005-2.548,1.013-4.919,3.294-7.684c2.504-3.035,5.93-5.263,10.844-7.021
		c3.563,2.396,7.658,3.657,11.888,3.657c4.184,0,8.339-1.277,11.906-3.633c1.588,0.532,3.039,1.191,4.407,1.94l3.798-3.803
		c-2.694-1.652-5.606-2.855-8.682-3.689c-0.065-0.022-0.136-0.027-0.21-0.027c-0.271,0-0.585,0.101-0.774,0.254
		c-3.087,2.498-6.76,3.769-10.445,3.769c-3.311,0-6.635-1.027-9.538-3.13c-0.718-0.521-1.338-0.739-1.992-0.739
		c-0.435,0-0.888,0.096-1.403,0.272c-5.298,1.802-10.085,4.407-13.727,8.821c-2.632,3.183-4.497,6.714-4.486,11.017
		c0.005,5.999,0.002,11.74,0.005,17.637c-1.507-0.537-2.596-1.966-2.596-3.652V20.032c0-2.143,1.745-3.89,3.89-3.89h17.755
		c-2.858,3-4.627,7.048-4.625,11.503C33.17,36.803,40.676,44.3,49.848,44.3h0.005c9.178-0.005,16.682-7.492,16.687-16.659
		c0.005-4.461-1.76-8.504-4.614-11.499h17.753c2.147,0,3.891,1.747,3.891,3.89V79.679z"/>
	<path fill="#1D1D1B" d="M77.703,45.746c-0.131-0.106-0.247-0.203-0.358-0.288l-1.288,1.283L51.17,71.63l-0.914,0.918l-0.919-0.918
		l-9.496-9.502l-1.256-1.25c-0.107,0.086-0.23,0.177-0.363,0.288c-0.524,0.436-1.041,0.904-1.525,1.388
		c-0.744,0.745-1.161,1.434-1.148,1.884c0.021,0.507,0.225,0.943,0.64,1.363l0.493,0.504l11.742,11.741
		c0.489,0.494,1.138,0.76,1.833,0.76c0.694,0,1.342-0.266,1.833-0.76l27.316-27.319l0.329-0.334
		c0.416-0.425,0.623-0.861,0.645-1.375c0.015-0.449-0.406-1.135-1.146-1.879C78.752,46.656,78.231,46.184,77.703,45.746z"/>
</g>
</svg>
