<?xml version="1.0" encoding="utf-8"?>
<!-- Generator: Adobe Illustrator 16.0.3, SVG Export Plug-In . SVG Version: 6.00 Build 0)  -->
<!DOCTYPE svg PUBLIC "-//W3C//DTD SVG 1.1//EN" "http://www.w3.org/Graphics/SVG/1.1/DTD/svg11.dtd">
<svg version="1.1" id="Layer_1" xmlns="http://www.w3.org/2000/svg" xmlns:xlink="http://www.w3.org/1999/xlink" x="0px" y="0px"
	 width="99.063px" height="99.031px" viewBox="0 0 99.063 99.031" enable-background="new 0 0 99.063 99.031" xml:space="preserve">
<path fill="#1D1D1B" d="M81.564,10.306H17.497c-4.407,0-7.966,3.559-7.966,7.967v50.756c0,4.433,3.559,7.966,7.966,7.966h8.681
	v11.093l0.034,0.004c0.033,1.307,1.053,2.323,2.31,2.323c0.696,0,1.285-0.306,1.714-0.775l0.038,0.006l13.52-12.65h37.771
	c4.384,0,7.967-3.533,7.967-7.966V18.273C89.531,13.865,85.947,10.306,81.564,10.306 M84.207,69.029c0,1.47-1.173,2.642-2.643,2.642
	H41.635l-10.154,9.237v-9.237H17.497c-1.445,0-2.617-1.172-2.617-2.642V18.273c0-1.445,1.172-2.618,2.617-2.618h64.066
	c1.47,0,2.642,1.173,2.642,2.618v50.756H84.207z M25,60.029c-0.735,0-1.367-0.287-1.917-0.777c-0.551-0.526-0.849-1.264-0.849-2.257
	c0-0.712,0.146-1.562,0.39-2.5c0.267-0.94,0.469-1.611,0.655-1.999c0.979-2.347,2.152-4.026,3.518-5.077
	c1.369-1.053,2.848-1.565,4.417-1.565h0.461l-3.664,11.603C27.459,59.172,26.449,60.029,25,60.029z M35.658,60.029
	c-0.736,0-1.368-0.287-1.942-0.777c-0.551-0.526-0.825-1.264-0.825-2.257c0-0.712,0.12-1.562,0.389-2.5
	c0.267-0.94,0.469-1.611,0.629-1.999c0.98-2.347,2.177-4.026,3.544-5.077c1.367-1.053,2.823-1.565,4.417-1.565h0.437l-3.64,11.603
	C38.118,59.172,37.108,60.029,35.658,60.029z M60.392,48.547c0.533-1.716,1.497-2.574,3.035-2.574c0.711,0,1.344,0.268,1.893,0.778
	c0.552,0.509,0.85,1.254,0.85,2.233c0,0.736-0.146,1.554-0.389,2.494c-0.243,0.938-0.47,1.609-0.632,1.996
	c-1.002,2.348-2.175,4.06-3.518,5.094c-1.394,1.063-2.872,1.562-4.441,1.562h-0.462L60.392,48.547z M71.025,48.547
	c0.534-1.716,1.547-2.574,3.035-2.574c0.712,0,1.345,0.268,1.942,0.778c0.549,0.509,0.801,1.254,0.801,2.233
	c0,0.736-0.098,1.554-0.391,2.494c-0.242,0.938-0.469,1.609-0.63,1.996c-1.003,2.348-2.179,4.06-3.521,5.094
	c-1.392,1.063-2.823,1.562-4.441,1.562h-0.412L71.025,48.547z"/>
</svg>
