<?xml version="1.0" encoding="utf-8"?>
<!-- Generator: Adobe Illustrator 16.0.3, SVG Export Plug-In . SVG Version: 6.00 Build 0)  -->
<!DOCTYPE svg PUBLIC "-//W3C//DTD SVG 1.1//EN" "http://www.w3.org/Graphics/SVG/1.1/DTD/svg11.dtd">
<svg version="1.1" id="Layer_1" xmlns="http://www.w3.org/2000/svg" xmlns:xlink="http://www.w3.org/1999/xlink" x="0px" y="0px"
	 width="99.063px" height="99.031px" viewBox="0 0 99.063 99.031" enable-background="new 0 0 99.063 99.031" xml:space="preserve">
<path fill="#1D1D1B" d="M82.296,10.819H17.867c-4.423,0-8.007,3.584-8.007,8.006v51.063c0,4.423,3.584,8.007,8.007,8.007h8.744
	v11.156l0.024,0.01c0.018,1.275,1.053,2.303,2.333,2.303c0.685,0,1.284-0.3,1.714-0.771l0.037,0.016L44.321,77.9h37.978
	c4.423,0,8.007-3.585,8.007-8.01V18.825C90.306,14.403,86.716,10.819,82.296,10.819 M84.933,69.888c0,1.455-1.182,2.634-2.634,2.634
	H42.135L31.929,81.84v-9.318H17.867c-1.454,0-2.633-1.179-2.633-2.634V18.825c0-1.453,1.179-2.632,2.633-2.632h64.429
	c1.454,0,2.631,1.179,2.631,2.632v51.063H84.933z M28.686,40.979c0.429,0.398,0.645,1.112,0.645,2.135
	c0,0.508-0.024,1.013-0.07,1.51c-0.05,0.495-0.104,0.867-0.166,1.125h-1.997h-0.021h-4.32c-0.637,0-1.173-0.198-1.606-0.602
	c-0.433-0.398-0.647-1.107-0.647-2.133c0-0.508,0.026-1.012,0.07-1.509c0.051-0.498,0.105-0.87,0.168-1.129h2.012h4.341v0.003
	C27.728,40.385,28.253,40.584,28.686,40.979z M28.686,51.726c0.429,0.398,0.645,1.113,0.645,2.136c0,0.509-0.024,1.013-0.07,1.511
	c-0.05,0.493-0.104,0.866-0.166,1.123h-1.997h-0.021h-4.32c-0.637,0-1.173-0.197-1.606-0.602c-0.433-0.396-0.647-1.106-0.647-2.132
	c0-0.509,0.026-1.014,0.07-1.511c0.051-0.497,0.105-0.869,0.168-1.129h2.012h4.341v0.005C27.728,51.132,28.253,51.332,28.686,51.726
	z M28.686,62.472c0.429,0.399,0.645,1.111,0.645,2.136c0,0.509-0.024,1.012-0.07,1.511c-0.05,0.493-0.104,0.866-0.166,1.124h-1.997
	h-0.021h-4.32c-0.637,0-1.173-0.196-1.606-0.601c-0.433-0.397-0.647-1.108-0.647-2.134c0-0.509,0.026-1.012,0.07-1.512
	c0.051-0.495,0.105-0.867,0.168-1.127h2.012h4.341v0.005C27.728,61.879,28.253,62.078,28.686,62.472z M78.987,51.668
	c0.433,0.396,0.646,1.107,0.646,2.135c0,0.508-0.024,1.015-0.067,1.509c-0.054,0.496-0.106,0.869-0.169,1.126h-1.994H77.38H37.081
	c-0.64,0-1.177-0.199-1.609-0.599c-0.431-0.399-0.648-1.113-0.648-2.136c0-0.51,0.025-1.018,0.073-1.511
	c0.049-0.498,0.105-0.871,0.167-1.127h2.015h40.323v0.005C78.028,51.073,78.562,51.269,78.987,51.668z M78.987,62.416
	c0.433,0.395,0.646,1.106,0.646,2.134c0,0.508-0.024,1.013-0.067,1.509c-0.054,0.494-0.106,0.867-0.169,1.125h-1.994H77.38H37.081
	c-0.64,0-1.177-0.199-1.609-0.598c-0.431-0.401-0.648-1.112-0.648-2.136c0-0.512,0.025-1.019,0.073-1.512
	c0.049-0.498,0.105-0.871,0.167-1.129h2.015h40.323v0.006C78.028,61.818,78.562,62.015,78.987,62.416z M78.987,40.895
	c0.433,0.401,0.646,1.113,0.646,2.135c0,0.512-0.026,1.018-0.067,1.511c-0.054,0.497-0.11,0.871-0.172,1.129h-1.991h-0.025H37.079
	c-0.64,0-1.177-0.199-1.61-0.602c-0.43-0.398-0.645-1.11-0.645-2.136c0-0.508,0.025-1.012,0.071-1.51
	c0.049-0.495,0.106-0.868,0.167-1.125h2.015h40.319V40.3C78.028,40.305,78.556,40.5,78.987,40.895z M61.358,32.618
	c-0.368,0-0.667-0.062-0.902-0.185c-0.237-0.124-0.462-0.342-0.678-0.654l-2.07-2.966h-0.395v2.628c0,0.312-0.101,0.578-0.292,0.798
	c-0.19,0.221-0.559,0.331-1.094,0.331c-0.226,0-0.451-0.011-0.672-0.033c-0.221-0.021-0.404-0.048-0.557-0.08v-9.142
	c0-0.181,0.021-0.354,0.058-0.516c0.035-0.161,0.105-0.297,0.211-0.409c0.1-0.114,0.246-0.203,0.435-0.267
	c0.188-0.065,0.43-0.098,0.732-0.098h2.484c0.641,0,1.226,0.072,1.745,0.218c0.517,0.146,0.968,0.358,1.338,0.636
	c0.372,0.281,0.657,0.632,0.864,1.057c0.198,0.425,0.304,0.917,0.304,1.476c0,0.838-0.216,1.523-0.636,2.054
	c-0.425,0.533-1.045,0.89-1.846,1.073l2.785,3.675c-0.236,0.118-0.508,0.215-0.814,0.29C62.059,32.581,61.722,32.618,61.358,32.618z
	 M57.313,26.879h1.222c0.646,0,1.097-0.134,1.353-0.403c0.262-0.268,0.391-0.597,0.391-0.983c0-0.408-0.138-0.733-0.41-0.975
	c-0.276-0.242-0.677-0.364-1.201-0.364h-1.354V26.879L57.313,26.879z M69.159,32.73c-0.81,0-1.536-0.145-2.189-0.435
	c-0.656-0.289-1.219-0.683-1.686-1.177c-0.471-0.495-0.832-1.075-1.08-1.741s-0.377-1.381-0.377-2.144
	c0-0.752,0.126-1.459,0.377-2.12c0.255-0.66,0.615-1.236,1.08-1.725c0.464-0.489,1.029-0.872,1.686-1.152
	c0.653-0.28,1.386-0.418,2.189-0.418c0.808,0,1.537,0.138,2.192,0.418c0.654,0.28,1.215,0.663,1.686,1.152
	c0.467,0.489,0.827,1.064,1.073,1.725c0.255,0.661,0.386,1.368,0.386,2.12c0,0.763-0.129,1.478-0.386,2.144
	c-0.25,0.666-0.607,1.247-1.073,1.741c-0.471,0.494-1.031,0.888-1.686,1.177C70.697,32.586,69.963,32.73,69.159,32.73z
	 M69.143,30.41c0.368,0,0.708-0.081,1.034-0.242c0.319-0.161,0.603-0.383,0.845-0.667c0.242-0.286,0.428-0.619,0.561-1
	c0.138-0.381,0.203-0.792,0.203-1.233s-0.065-0.851-0.191-1.234c-0.13-0.382-0.311-0.711-0.54-0.991
	c-0.231-0.278-0.508-0.5-0.829-0.661c-0.325-0.161-0.681-0.242-1.065-0.242c-0.378,0-0.724,0.078-1.039,0.234
	c-0.32,0.156-0.595,0.375-0.832,0.654s-0.421,0.609-0.559,0.99c-0.131,0.382-0.198,0.794-0.198,1.233
	c0,0.452,0.067,0.871,0.198,1.258c0.138,0.387,0.321,0.722,0.553,1.008c0.229,0.284,0.502,0.504,0.822,0.661
	C68.418,30.332,68.766,30.41,69.143,30.41z M77.073,32.57c-0.226,0-0.445-0.011-0.667-0.033c-0.221-0.021-0.403-0.048-0.557-0.08
	v-9.333c0-0.313,0.095-0.579,0.289-0.798c0.194-0.22,0.559-0.33,1.098-0.33c0.224,0,0.445,0.01,0.666,0.031
	c0.221,0.022,0.405,0.049,0.555,0.082v9.333c0,0.312-0.092,0.578-0.286,0.798C77.975,32.46,77.61,32.57,77.073,32.57z"/>
</svg>
