<?xml version="1.0" encoding="utf-8"?>
<!-- Generator: Adobe Illustrator 16.0.3, SVG Export Plug-In . SVG Version: 6.00 Build 0)  -->
<!DOCTYPE svg PUBLIC "-//W3C//DTD SVG 1.1//EN" "http://www.w3.org/Graphics/SVG/1.1/DTD/svg11.dtd">
<svg version="1.1" id="Layer_1" xmlns="http://www.w3.org/2000/svg" xmlns:xlink="http://www.w3.org/1999/xlink" x="0px" y="0px"
	 width="99.063px" height="99.031px" viewBox="0 0 99.063 99.031" enable-background="new 0 0 99.063 99.031" xml:space="preserve">
<path d="M82.296,10.82h-64.43c-4.422,0-8.006,3.583-8.006,8.006v51.063c0,4.421,3.584,8.004,8.006,8.004h8.746v11.156l0.024,0.01
	c0.018,1.275,1.053,2.304,2.332,2.304c0.685,0,1.285-0.299,1.713-0.771l0.038,0.016l13.602-12.708h37.978
	c4.423,0,8.007-3.584,8.007-8.008V18.826C90.306,14.403,86.717,10.82,82.296,10.82 M84.933,69.889c0,1.453-1.181,2.631-2.634,2.631
	H42.135l-10.206,9.319V72.52H17.866c-1.453,0-2.633-1.178-2.633-2.631V18.826c0-1.454,1.18-2.633,2.633-2.633h64.43
	c1.453,0,2.631,1.179,2.631,2.633v51.063H84.933z M28.686,40.979c0.429,0.397,0.644,1.112,0.644,2.136
	c0,0.508-0.023,1.013-0.069,1.51c-0.051,0.495-0.105,0.867-0.167,1.125h-1.997h-0.021h-4.319c-0.638,0-1.174-0.198-1.607-0.602
	c-0.433-0.397-0.647-1.107-0.647-2.133c0-0.508,0.026-1.013,0.07-1.51c0.051-0.498,0.104-0.87,0.169-1.128h2.012h4.341v0.002
	C27.727,40.385,28.253,40.584,28.686,40.979z M28.686,51.726c0.429,0.398,0.644,1.112,0.644,2.136c0,0.509-0.023,1.013-0.069,1.511
	c-0.051,0.493-0.105,0.866-0.167,1.123h-1.997h-0.021h-4.319c-0.638,0-1.174-0.197-1.607-0.601
	c-0.433-0.396-0.647-1.107-0.647-2.134c0-0.509,0.026-1.013,0.07-1.511c0.051-0.496,0.104-0.868,0.169-1.128h2.012h4.341v0.005
	C27.727,51.133,28.253,51.332,28.686,51.726z M28.686,62.472c0.429,0.398,0.644,1.112,0.644,2.136c0,0.509-0.023,1.013-0.069,1.511
	c-0.051,0.493-0.105,0.866-0.167,1.123h-1.997h-0.021h-4.319c-0.638,0-1.174-0.197-1.607-0.601
	c-0.433-0.396-0.647-1.107-0.647-2.133c0-0.51,0.026-1.013,0.07-1.512c0.051-0.496,0.104-0.868,0.169-1.128h2.012h4.341v0.005
	C27.727,61.879,28.253,62.078,28.686,62.472z M78.988,51.668c0.431,0.396,0.646,1.106,0.646,2.135c0,0.507-0.023,1.013-0.068,1.509
	c-0.053,0.496-0.104,0.868-0.168,1.126h-1.994h-0.023H37.082c-0.64,0-1.177-0.199-1.61-0.599c-0.43-0.401-0.648-1.112-0.648-2.136
	c0-0.511,0.025-1.018,0.074-1.511c0.048-0.499,0.105-0.871,0.167-1.128h2.015h40.324v0.005
	C78.028,51.072,78.563,51.269,78.988,51.668z M78.988,62.414c0.431,0.396,0.646,1.106,0.646,2.136c0,0.506-0.023,1.013-0.068,1.508
	c-0.053,0.496-0.104,0.869-0.168,1.126h-1.994h-0.023H37.082c-0.64,0-1.177-0.199-1.61-0.599c-0.43-0.401-0.648-1.112-0.648-2.136
	c0-0.511,0.025-1.018,0.074-1.511c0.048-0.498,0.105-0.871,0.167-1.128h2.015h40.324v0.005
	C78.028,61.818,78.563,62.015,78.988,62.414z M78.988,40.895c0.431,0.401,0.646,1.113,0.646,2.136c0,0.512-0.026,1.017-0.068,1.51
	c-0.053,0.497-0.11,0.871-0.17,1.129h-1.992h-0.025H37.079c-0.64,0-1.176-0.199-1.609-0.602c-0.43-0.397-0.646-1.11-0.646-2.135
	c0-0.508,0.025-1.013,0.071-1.51c0.049-0.495,0.105-0.868,0.167-1.125h2.015h40.318V40.3C78.028,40.305,78.558,40.5,78.988,40.895z
	 M64.144,32.748c-0.709,0-1.344-0.121-1.899-0.363c-0.562-0.241-1.034-0.572-1.42-0.99c-0.386-0.42-0.682-0.907-0.887-1.46
	c-0.202-0.553-0.307-1.147-0.307-1.78v-5.029c0-0.313,0.1-0.579,0.291-0.798c0.191-0.22,0.559-0.331,1.094-0.331
	c0.226,0,0.451,0.011,0.672,0.032c0.221,0.022,0.404,0.048,0.557,0.081v6.061c0,0.698,0.168,1.244,0.511,1.636
	c0.35,0.392,0.816,0.589,1.404,0.589c0.579,0,1.047-0.197,1.4-0.589c0.352-0.392,0.53-0.938,0.53-1.636v-5.045
	c0-0.313,0.097-0.579,0.289-0.798c0.193-0.22,0.561-0.331,1.097-0.331c0.226,0,0.445,0.011,0.661,0.032
	c0.212,0.022,0.396,0.048,0.548,0.081v6.045c0,0.633-0.11,1.228-0.328,1.78c-0.22,0.553-0.524,1.04-0.915,1.46
	c-0.386,0.418-0.858,0.749-1.414,0.99C65.471,32.627,64.844,32.748,64.144,32.748z M77.83,32.618c-0.364,0-0.685-0.062-0.957-0.185
	c-0.275-0.123-0.525-0.335-0.751-0.636l-3.108-4.094v3.738c0,0.313-0.098,0.579-0.291,0.799c-0.189,0.221-0.557,0.331-1.092,0.331
	c-0.226,0-0.451-0.012-0.672-0.033c-0.22-0.021-0.403-0.048-0.556-0.08v-9.333c0-0.313,0.1-0.579,0.288-0.798
	c0.194-0.22,0.559-0.331,1.097-0.331c0.226,0,0.449,0.011,0.669,0.032c0.221,0.022,0.401,0.048,0.557,0.081v4.594l2.993-3.886
	c0.236-0.311,0.491-0.529,0.751-0.652c0.262-0.125,0.566-0.187,0.912-0.187c0.378,0,0.698,0.03,0.974,0.089s0.53,0.148,0.767,0.266
	l-3.775,4.755l3.903,5.109c-0.235,0.128-0.482,0.231-0.739,0.306C78.539,32.581,78.216,32.618,77.83,32.618z"/>
</svg>
