<?xml version="1.0" encoding="utf-8"?>
<!-- Generator: Adobe Illustrator 16.0.3, SVG Export Plug-In . SVG Version: 6.00 Build 0)  -->
<!DOCTYPE svg PUBLIC "-//W3C//DTD SVG 1.1//EN" "http://www.w3.org/Graphics/SVG/1.1/DTD/svg11.dtd">
<svg version="1.1" id="Layer_1" xmlns="http://www.w3.org/2000/svg" xmlns:xlink="http://www.w3.org/1999/xlink" x="0px" y="0px"
	 width="99.063px" height="99.031px" viewBox="0 0 99.063 99.031" enable-background="new 0 0 99.063 99.031" xml:space="preserve">
<path fill="#110303" d="M40.848,32.502c1.345-1.294,2.012-2.886,2.012-4.764c0-1.872-0.667-3.472-2.012-4.797
	c-1.297-1.324-2.918-1.987-4.775-1.987c-1.892,0-3.473,0.663-4.812,1.987c-1.306,1.325-1.98,2.925-1.98,4.797
	c0,1.878,0.674,3.47,1.98,4.764c1.338,1.294,2.919,1.944,4.812,1.944C37.93,34.447,39.552,33.797,40.848,32.502z M56.085,52.493
	l19.366-24.421c-1.194-0.605-2.514-1.062-3.925-1.366c-1.393-0.297-3.071-0.456-5.005-0.456c-1.769,0-3.337,0.315-4.68,0.952
	c-1.344,0.636-2.6,1.754-3.822,3.353L42.654,50.499V40.074c0-0.109-1.413-0.238-2.52-0.377c-1.104-0.136-2.204-0.198-3.234-0.198
	c-2.921,0-5.087,0.358-6.122,1.069c-0.996,0.718-1.688,1.797-1.688,3.234v36.33c1.505,0.111,1.555,0.233,2.665,0.372
	c1.101,0.139,2.259,0.206,3.324,0.206c2.921,0,4.957-0.361,5.965-1.075c1.021-0.716,1.61-1.793,1.61-3.229V55.627l15.953,21.029
	c1.152,1.543,2.421,2.636,3.841,3.269c1.39,0.631,3.036,0.952,4.909,0.952c1.981,0,3.631-0.192,4.973-0.581
	c1.306-0.388,2.572-0.912,3.792-1.578L56.085,52.493z"/>
</svg>
