<?xml version="1.0" encoding="utf-8"?>
<!-- Generator: Adobe Illustrator 16.0.3, SVG Export Plug-In . SVG Version: 6.00 Build 0)  -->
<!DOCTYPE svg PUBLIC "-//W3C//DTD SVG 1.1//EN" "http://www.w3.org/Graphics/SVG/1.1/DTD/svg11.dtd">
<svg version="1.1" id="Layer_1" xmlns="http://www.w3.org/2000/svg" xmlns:xlink="http://www.w3.org/1999/xlink" x="0px" y="0px"
	 width="34px" height="34px" viewBox="0 0 34 34" enable-background="new 0 0 34 34" xml:space="preserve">
<g id="GUIDES" display="none">
</g>
<path d="M19,16H9.05c-0.005,0.047-0.011,0.1-0.017,0.158C9.011,16.391,9,16.817,9,17.053c0,0.361,0.065,0.628,0.179,0.734
	C9.311,17.908,9.468,18,9.674,18H19"/>
<path d="M18,18h6.982c0.006-0.047,0.012-0.1,0.018-0.156c0.023-0.232,0-0.659,0-0.897c0-0.361-0.064-0.628-0.18-0.734
	C24.688,16.09,24.531,16,24.325,16H18"/>
</svg>
