<?xml version="1.0" encoding="utf-8"?>
<!-- Generator: Adobe Illustrator 16.0.3, SVG Export Plug-In . SVG Version: 6.00 Build 0)  -->
<!DOCTYPE svg PUBLIC "-//W3C//DTD SVG 1.1//EN" "http://www.w3.org/Graphics/SVG/1.1/DTD/svg11.dtd">
<svg version="1.1" id="Layer_1" xmlns="http://www.w3.org/2000/svg" xmlns:xlink="http://www.w3.org/1999/xlink" x="0px" y="0px"
	 width="99.063px" height="99.031px" viewBox="0 0 99.063 99.031" enable-background="new 0 0 99.063 99.031" xml:space="preserve">
<g>
	<path fill-rule="evenodd" clip-rule="evenodd" d="M74.235,88.716c-11.861,0-23.722,0-35.583,0
		c-2.995-1.244-4.066-3.563-3.831-6.683c0.097-1.284,0.016-2.58,0.016-4.003c-1.939,0-3.702,0.017-5.464-0.003
		c-7.799-0.082-14.191-4.733-16.408-11.992c-0.419-1.373-0.625-2.81-0.93-4.215c0-1.682,0-3.363,0-5.045
		c0.193-1.143,0.357-2.291,0.583-3.427c0.972-4.886,2.994-9.139,7.489-11.75c4.511-2.622,9.067-5.17,13.64-7.682
		c0.882-0.485,1.118-1.055,1.107-1.989c-0.043-3.591,0.093-7.188-0.051-10.775c-0.125-3.122,0.854-5.439,3.848-6.684
		c11.861,0,23.722,0,35.583,0c2.993,1.236,3.934,3.547,3.854,6.669c-0.14,5.307-0.04,10.619-0.04,15.929c0,0.496,0,0.992,0,1.619
		c2.685-0.255,4.68,0.495,5.711,2.96c0,0.841,0,1.681,0,2.522c-1.072,2.265-2.881,3.044-5.331,2.886
		c-2.186-0.142-4.389-0.015-6.581-0.035c-2.728-0.022-4.345-1.505-4.401-3.99c-0.058-2.61,1.489-4.218,4.224-4.346
		c0.914-0.042,1.833-0.006,2.787-0.006c0-5.506,0-10.807,0-16.186c-12.045,0-24.016,0-36.02,0c0,2.911,0,5.729,0,8.696
		c0.609-0.312,1.1-0.554,1.583-0.809c2.474-1.304,4.901-2.705,7.432-3.883c1.978-0.921,3.82-0.473,4.835,0.854
		c1.035,1.351,1.021,3.663-0.229,5.214c-0.931,1.151-1.996,2.24-3.166,3.141c-3.104,2.391-6.271,4.701-9.471,6.962
		c-0.774,0.547-1.088,1.075-1.085,2.025c0.034,11.113,0.021,22.226,0.025,33.339c0,0.446,0.046,0.893,0.071,1.353
		c12.072,0,24.006,0,36.019,0c0-0.878,0-1.689,0-2.651c-0.898,0-1.729,0.026-2.557-0.01c-0.603-0.025-1.229-0.041-1.791-0.223
		c-1.884-0.608-2.836-2.32-2.619-4.566c0.173-1.812,1.451-3.308,3.304-3.431c2.558-0.17,5.134-0.024,7.694-0.154
		c2.449-0.122,4.271,0.671,5.277,2.997c0,0.84,0,1.682,0,2.521c-1.101,2.383-3.086,3.15-5.711,2.854
		c0,1.894-0.097,3.614,0.021,5.319C78.285,85.164,77.233,87.479,74.235,88.716z M58.892,83.684
		c-0.011-1.371-1.166-2.512-2.505-2.474c-1.286,0.037-2.37,1.149-2.393,2.453c-0.024,1.389,1.066,2.517,2.438,2.523
		C57.801,86.193,58.904,85.071,58.892,83.684z M56.376,19.278c1.583,0,3.169,0.034,4.752-0.025c0.373-0.015,0.736-0.343,1.103-0.527
		c-0.344-0.209-0.687-0.595-1.034-0.6c-3.167-0.047-6.337-0.047-9.506,0c-0.347,0.005-0.688,0.392-1.033,0.602
		c0.369,0.183,0.731,0.509,1.106,0.524C53.3,19.313,54.839,19.278,56.376,19.278z"/>
	<path fill-rule="evenodd" clip-rule="evenodd" d="M83.759,63.78c-0.895,2.302-2.593,3.208-5.028,3.101
		c-2.326-0.103-4.659-0.005-6.989-0.028c-2.623-0.025-4.271-1.619-4.3-4.108c-0.029-2.572,1.619-4.233,4.289-4.267
		c2.33-0.028,4.663,0.076,6.988-0.029c2.437-0.11,4.134,0.8,5.04,3.092C83.759,62.286,83.759,63.032,83.759,63.78z"/>
	<path fill-rule="evenodd" clip-rule="evenodd" d="M83.759,53.975c-0.992,2.328-2.81,3.13-5.253,3.021
		c-2.28-0.104-4.573,0.03-6.855-0.04c-2.987-0.093-4.669-2.254-4.134-5.193c0.323-1.774,1.84-3.096,3.773-3.132
		c2.845-0.052,5.689-0.013,8.537-0.016c1.994-0.001,3.056,1.289,3.932,2.839C83.759,52.293,83.759,53.133,83.759,53.975z"/>
</g>
</svg>
