<?xml version="1.0" encoding="utf-8"?>
<!-- Generator: Adobe Illustrator 16.0.3, SVG Export Plug-In . SVG Version: 6.00 Build 0)  -->
<!DOCTYPE svg PUBLIC "-//W3C//DTD SVG 1.1//EN" "http://www.w3.org/Graphics/SVG/1.1/DTD/svg11.dtd">
<svg version="1.1" id="Layer_1" xmlns="http://www.w3.org/2000/svg" xmlns:xlink="http://www.w3.org/1999/xlink" x="0px" y="0px"
	 width="99.063px" height="99.031px" viewBox="0 0 99.063 99.031" enable-background="new 0 0 99.063 99.031" xml:space="preserve">
<g>
	<path fill="#1D1D1B" d="M80.198,10.764H18.865c-5.146,0-9.333,4.188-9.333,9.333v61.334c0,5.15,4.188,9.333,9.333,9.333h61.334
		c5.146,0,9.333-4.183,9.333-9.333V20.097C89.531,14.952,85.344,10.764,80.198,10.764z M84.198,81.431c0,2.205-1.792,4-4,4H20.245
		l11.531-11.534c4.938,3.784,11.086,6.055,17.786,6.055c16.183,0,29.302-13.12,29.302-29.302c0-16.183-13.119-29.303-29.302-29.303
		S20.261,34.468,20.261,50.65c0,6.661,2.247,12.775,5.984,17.697L14.865,79.728V20.097c0-2.203,1.795-4,4-4h61.334
		c2.208,0,4,1.797,4,4V81.431z M72.208,58.746c-0.109,0.006-0.197,0.039-0.313,0.039c-1.119,0-2.016-0.255-2.688-0.766
		c-0.672-0.51-1.008-1.172-1.008-1.994c0-0.771,0.289-1.459,0.878-2.055c0.583-0.602,1.521-0.898,2.817-0.898
		c0.615,0,1.136,0.078,1.589,0.213c0.099-0.864,0.156-1.744,0.156-2.635c0-0.771-0.047-1.529-0.117-2.281
		c-0.472,0.203-0.995,0.338-1.622,0.338c-0.945,0-1.719-0.234-2.313-0.711c-0.602-0.474-0.896-1.08-0.896-1.83
		c0-0.725,0.271-1.305,0.82-1.753c0.547-0.448,1.344-0.672,2.389-0.672c0.281,0,0.502,0.055,0.744,0.091
		c0.641,2.164,0.998,4.448,0.998,6.818C73.638,53.494,73.12,56.213,72.208,58.746z M72.203,58.76
		c-0.302,0.849-0.653,1.674-1.052,2.474C71.547,60.433,71.896,59.608,72.203,58.76z M70.427,38.691
		c-0.979,0.089-1.893,0.24-2.656,0.514c-1.133,0.408-2.057,0.939-2.781,1.586c-0.724,0.648-1.25,1.375-1.586,2.185
		c-0.336,0.808-0.502,1.612-0.502,2.403c0,1.323,0.359,2.422,1.08,3.308c0.722,0.88,1.531,1.534,2.428,1.958
		c-1.344,0.5-2.394,1.256-3.154,2.276c-0.76,1.021-1.143,2.239-1.143,3.661c0,1.021,0.205,1.964,0.617,2.836
		c0.406,0.867,1.025,1.628,1.844,2.279c0.825,0.646,1.844,1.158,3.063,1.528c0.656,0.2,1.38,0.339,2.15,0.43
		c0.484-0.75,0.928-1.536,1.326-2.347c-3.94,7.94-12.109,13.42-21.555,13.42c-8.609,0-16.156-4.563-20.412-11.375
		c0.443-0.12,0.891-0.219,1.308-0.391c1.271-0.523,2.364-1.308,3.284-2.354c0.919-1.047,1.643-2.354,2.164-3.922
		c0.525-1.567,0.786-3.396,0.786-5.487c0-2.094-0.261-3.919-0.786-5.492c-0.521-1.567-1.245-2.869-2.164-3.919
		c-0.92-1.044-2.019-1.831-3.284-2.352c-0.604-0.247-1.234-0.427-1.886-0.558c-0.849,1.506-1.541,3.112-2.052,4.803
		c1.308,0.057,2.325,0.646,3.021,1.802c0.734,1.224,1.104,3.125,1.104,5.716c0,2.589-0.37,4.492-1.104,5.711
		c-0.625,1.047-1.521,1.615-2.648,1.766c-0.896-2.516-1.408-5.213-1.408-8.033c0-13.279,10.805-24.078,24.078-24.078
		c10.911,0,20.13,7.294,23.078,17.258C72.105,42.014,71.355,40.299,70.427,38.691z M29.125,63.311
		c-0.442-0.708-0.849-1.442-1.214-2.2C28.277,61.866,28.683,62.597,29.125,63.311z M27.888,61.061
		c-0.367-0.758-0.695-1.539-0.981-2.344C27.193,59.519,27.521,60.303,27.888,61.061z M57.036,41.801
		c-0.922-1.047-2.016-1.83-3.283-2.354c-1.269-0.521-2.648-0.784-4.144-0.784c-1.497,0-2.875,0.263-4.146,0.784
		c-1.271,0.523-2.367,1.307-3.284,2.354c-0.919,1.047-1.644,2.35-2.164,3.917c-0.526,1.573-0.786,3.398-0.786,5.492
		s0.26,3.919,0.786,5.487c0.519,1.567,1.245,2.875,2.164,3.922s2.016,1.83,3.284,2.354c1.271,0.521,2.648,0.784,4.146,0.784
		c1.495,0,2.875-0.263,4.144-0.784c1.268-0.523,2.367-1.307,3.283-2.354c0.922-1.047,1.646-2.354,2.164-3.922
		c0.523-1.568,0.784-3.394,0.784-5.487s-0.261-3.919-0.784-5.492C58.683,44.15,57.958,42.843,57.036,41.801z M52.839,56.921
		c-0.734,1.219-1.813,1.831-3.229,1.831c-1.442,0-2.526-0.612-3.25-1.831c-0.722-1.219-1.083-3.125-1.083-5.714
		c0-2.588,0.364-4.494,1.083-5.713c0.722-1.219,1.808-1.831,3.25-1.831c1.417,0,2.495,0.612,3.229,1.831s1.099,3.125,1.099,5.713
		C53.938,53.796,53.573,55.702,52.839,56.921z"/>
</g>
</svg>
