<?xml version="1.0" encoding="utf-8"?>
<!-- Generator: Adobe Illustrator 16.0.0, SVG Export Plug-In . SVG Version: 6.00 Build 0)  -->
<!DOCTYPE svg PUBLIC "-//W3C//DTD SVG 1.1//EN" "http://www.w3.org/Graphics/SVG/1.1/DTD/svg11.dtd">
<svg version="1.1" id="Layer_1" xmlns="http://www.w3.org/2000/svg" xmlns:xlink="http://www.w3.org/1999/xlink" x="0px" y="0px"
	 width="32px" height="32px" viewBox="0 0 32 32" enable-background="new 0 0 32 32" xml:space="preserve">
<path d="M20.012,18.053l-1.763-2.763l-1.069,1.137l1.513,2.28c-0.128,0.062-0.396,0.135-0.724,0.135
	c-0.496,0-0.799-0.184-1.035-0.544L15.68,16.32l1.563-1.708c0.327-0.356,0.645-0.566,1.209-0.566c0.187,0,0.442,0.047,0.542,0.078
	l1.609,2.616l0.82-1.935c0.279-0.665,0.713-0.73,1.041-0.727c0.188,0.006,0.418,0.07,0.521,0.124l-2.527,5.645
	c-0.191,0.42-0.447,0.601-0.921,0.592c-0.273-0.009-0.492-0.073-0.601-0.128L20.012,18.053z M15.619,12.469
	c-0.098-0.022-0.2-0.029-0.307-0.029c-0.818,0-0.961,0.436-0.961,0.855v5.518c0.09,0.013,0.184,0.021,0.292,0.021
	c0.813,0,0.976-0.241,0.976-0.656V12.469z M13.943,17.346c0-0.672-0.412-1.216-1.369-1.395l-0.935-0.172
	c-0.299-0.052-0.487-0.125-0.487-0.292c0-0.161,0.2-0.294,0.676-0.294c0.468,0,0.877,0.051,1.143,0.051
	c0.342,0,0.699-0.146,0.699-0.822c0-0.089-0.012-0.174-0.029-0.263c-0.509-0.061-1.438-0.154-2.203-0.069
	c-1.011,0.111-1.521,0.716-1.521,1.441c0,0.599,0.434,1.162,1.246,1.315l0.975,0.188c0.358,0.068,0.544,0.148,0.544,0.347
	c0,0.148-0.138,0.303-0.601,0.303c-0.416,0-0.979-0.061-1.338-0.061c-0.341,0-0.707,0.153-0.707,0.832
	c0,0.08,0.014,0.188,0.035,0.27c0.509,0.058,1.591,0.154,2.337,0.072C13.435,18.686,13.943,18.121,13.943,17.346 M27.5,1h-23
	C2.57,1,1,2.57,1,4.5v23C1,29.431,2.57,31,4.5,31h23c1.93,0,3.5-1.569,3.5-3.5v-23C31,2.57,29.43,1,27.5,1z M5.418,25.164l1.19,0.27
	c0.679,0.15,1.105,0.469,1.105,1.124c0,0.703-0.475,1.215-1.671,1.215c-0.793,0-1.568-0.043-1.929-0.079
	c-0.012-0.06-0.019-0.126-0.019-0.186c0-0.487,0.253-0.602,0.499-0.602c0.535,0,0.806,0.042,1.395,0.042
	c0.499,0,0.709-0.09,0.709-0.324c0-0.174-0.15-0.295-0.427-0.36l-1.189-0.276C4.391,25.825,4,25.482,4,24.863
	c0-0.661,0.457-1.178,1.653-1.178c0.793,0,1.436,0.036,1.797,0.065c0.012,0.061,0.018,0.127,0.018,0.187
	c0,0.486-0.252,0.602-0.499,0.602c-0.535,0-0.673-0.03-1.262-0.03c-0.499,0-0.686,0.09-0.686,0.324
	C5.021,25.05,5.202,25.115,5.418,25.164z M8.146,27.712v-3.396c0-0.427,0.15-0.613,0.631-0.613h1.438
	c1.045,0,1.598,0.463,1.598,1.334c0,0.902-0.553,1.383-1.664,1.383H9.127v0.823c0,0.312-0.139,0.486-0.739,0.486
	C8.304,27.729,8.219,27.724,8.146,27.712z M12.119,25.656c0.006-0.757,0.181-1.286,0.535-1.599c0.354-0.307,0.836-0.463,1.442-0.463
	c0.607,0,1.088,0.156,1.442,0.463c0.354,0.312,0.529,0.842,0.535,1.599c0,0.77-0.175,1.311-0.517,1.611
	c-0.343,0.307-0.83,0.456-1.461,0.456s-1.118-0.149-1.461-0.456C12.294,26.967,12.119,26.426,12.119,25.656z M20.366,27.67
	c-0.15,0.072-0.336,0.108-0.613,0.108c-0.408,0-0.583-0.114-0.763-0.337l-0.963-1.147h-0.499l0.006,0.949
	c0,0.312-0.138,0.486-0.738,0.486c-0.084,0-0.169-0.006-0.241-0.018v-3.401c0-0.434,0.157-0.596,0.632-0.613l1.46,0.006
	c1.021,0,1.526,0.408,1.526,1.238c0,0.673-0.354,1.13-1.058,1.28L20.366,27.67z M20.485,24.526
	c-0.012-0.061-0.018-0.132-0.018-0.192c0-0.511,0.264-0.631,0.522-0.631h3.059c0.013,0.061,0.019,0.132,0.019,0.192
	c0,0.511-0.265,0.631-0.522,0.631h-0.788v2.717c0,0.312-0.139,0.486-0.738,0.486c-0.085,0-0.169-0.006-0.241-0.018v-3.186H20.485z
	 M25.704,25.164l1.19,0.27C27.573,25.584,28,25.902,28,26.558c0,0.703-0.475,1.215-1.671,1.215c-0.793,0-1.568-0.043-1.929-0.079
	c-0.013-0.06-0.019-0.126-0.019-0.186c0-0.487,0.253-0.602,0.499-0.602c0.535,0,0.806,0.042,1.395,0.042
	c0.499,0,0.709-0.09,0.709-0.324c0-0.174-0.15-0.295-0.427-0.36l-1.19-0.276c-0.69-0.162-1.081-0.505-1.081-1.124
	c0-0.661,0.456-1.178,1.652-1.178c0.793,0,1.437,0.036,1.797,0.065c0.013,0.061,0.019,0.127,0.019,0.187
	c0,0.486-0.253,0.602-0.499,0.602c-0.535,0-0.673-0.03-1.263-0.03c-0.498,0-0.685,0.09-0.685,0.324
	C25.308,25.05,25.487,25.115,25.704,25.164z M3,21.5V10.75h26V21.5H3z M16.402,4.382c0.178-0.073,0.391-0.108,0.638-0.108
	c0.119,0,0.235,0.017,0.351,0.051s0.215,0.121,0.3,0.262l0.763,1.326l0.781-1.339c0.08-0.132,0.182-0.215,0.303-0.249
	s0.239-0.051,0.354-0.051c0.085,0,0.186,0.009,0.3,0.025s0.21,0.041,0.287,0.07l-1.512,2.404v1.237c0,0.123-0.038,0.229-0.114,0.315
	c-0.077,0.088-0.222,0.131-0.434,0.131c-0.09,0-0.178-0.005-0.262-0.013c-0.086-0.009-0.158-0.019-0.217-0.032V6.785L16.402,4.382z
	 M16.357,8.361c-0.061,0.021-0.131,0.043-0.214,0.064c-0.083,0.021-0.173,0.031-0.271,0.031c-0.137,0-0.252-0.023-0.346-0.07
	c-0.093-0.046-0.144-0.134-0.152-0.261l-0.096-1.379c-0.021-0.241-0.039-0.495-0.055-0.762C15.21,5.72,15.2,5.469,15.196,5.23
	h-0.013c-0.056,0.221-0.111,0.46-0.169,0.717c-0.058,0.258-0.116,0.494-0.175,0.712l-0.262,1.083
	c-0.064,0.256-0.267,0.384-0.606,0.384c-0.085,0-0.172-0.009-0.261-0.026c-0.09-0.017-0.166-0.035-0.23-0.058L13.155,6.69
	c-0.063-0.251-0.124-0.497-0.179-0.74c-0.055-0.242-0.106-0.484-0.153-0.728h-0.019c-0.014,0.341-0.029,0.652-0.051,0.936
	c-0.021,0.282-0.041,0.525-0.058,0.73l-0.103,1.243c-0.008,0.123-0.055,0.209-0.141,0.255c-0.084,0.047-0.195,0.07-0.331,0.07
	c-0.098,0-0.184-0.01-0.258-0.028c-0.075-0.02-0.14-0.042-0.194-0.067l0.39-3.974c0.08-0.033,0.187-0.062,0.318-0.083
	c0.132-0.021,0.244-0.031,0.338-0.031c0.132,0,0.245,0.009,0.341,0.025s0.178,0.045,0.246,0.086c0.068,0.04,0.122,0.097,0.162,0.169
	s0.071,0.162,0.093,0.268l0.165,0.772c0.047,0.213,0.098,0.447,0.15,0.704c0.053,0.258,0.101,0.522,0.144,0.795h0.025
	c0.047-0.272,0.096-0.536,0.146-0.791c0.051-0.256,0.104-0.489,0.159-0.702l0.203-0.811c0.051-0.199,0.133-0.335,0.246-0.407
	c0.112-0.073,0.287-0.108,0.525-0.108c0.118,0,0.238,0.009,0.359,0.028c0.121,0.019,0.222,0.039,0.303,0.061L16.357,8.361z
	 M10.105,25.608H9.127v-1.105h0.979c0.487,0,0.729,0.18,0.729,0.534C10.834,25.416,10.593,25.608,10.105,25.608z M14.097,26.925
	c-0.343-0.007-0.589-0.103-0.745-0.289c-0.156-0.186-0.234-0.511-0.234-0.979c0-0.463,0.084-0.787,0.24-0.974
	c0.156-0.192,0.403-0.282,0.739-0.282s0.577,0.09,0.733,0.282c0.156,0.187,0.234,0.511,0.234,0.974s-0.078,0.787-0.234,0.979
	C14.68,26.834,14.433,26.925,14.097,26.925z M19.199,24.978c0,0.354-0.24,0.522-0.721,0.522h-0.944v-1.003h0.944
	C18.881,24.497,19.199,24.557,19.199,24.978z"/>
</svg>
