<?xml version="1.0" encoding="utf-8"?>
<!-- Generator: Adobe Illustrator 16.0.3, SVG Export Plug-In . SVG Version: 6.00 Build 0)  -->
<!DOCTYPE svg PUBLIC "-//W3C//DTD SVG 1.1//EN" "http://www.w3.org/Graphics/SVG/1.1/DTD/svg11.dtd">
<svg version="1.1" id="Layer_1" xmlns="http://www.w3.org/2000/svg" xmlns:xlink="http://www.w3.org/1999/xlink" x="0px" y="0px"
	 width="99.063px" height="99.031px" viewBox="0 0 99.063 99.031" enable-background="new 0 0 99.063 99.031" xml:space="preserve">
<g>
	<path d="M49.776,31.18c0,0.922-0.754,1.677-1.676,1.677s-1.76-0.838-1.677-1.76c0-0.923,0.923-1.762,1.844-1.678
		C49.106,29.503,49.776,30.258,49.776,31.18z"/>
	<path d="M61.43,35.455c0,1.006-0.671,1.677-1.594,1.677c-0.921,0-1.76-0.754-1.76-1.677s0.839-1.677,1.76-1.677
		C60.843,33.778,61.43,34.449,61.43,35.455z"/>
	<path d="M59.166,31.18c0,0.922-0.838,1.76-1.761,1.677s-1.594-0.838-1.594-1.677c0-0.923,0.839-1.761,1.762-1.678
		C58.411,29.503,59.166,30.258,59.166,31.18z"/>
	<path d="M46.004,37.048c-0.922,0-1.677-0.67-1.76-1.593c-0.084-1.006,0.67-1.761,1.592-1.844c0.922,0,1.677,0.587,1.677,1.593
		C47.681,36.293,47.01,37.048,46.004,37.048z"/>
	<path d="M60.424,40.317c0,1.006-0.671,1.677-1.677,1.677c-0.922,0-1.678-0.671-1.678-1.593s0.671-1.677,1.594-1.677
		C59.669,38.725,60.424,39.396,60.424,40.317z"/>
	<path d="M54.387,29.503c0,0.922-0.838,1.762-1.76,1.678c-1.006-0.083-1.593-0.587-1.593-1.678c0-1.006,0.67-1.677,1.677-1.677
		C53.633,27.91,54.387,28.581,54.387,29.503z"/>
	<path d="M48.771,40.485c0,1.006-0.754,1.593-1.76,1.593c-0.922,0-1.593-0.754-1.593-1.676s0.838-1.677,1.844-1.593
		C48.184,38.809,48.855,39.479,48.771,40.485z"/>
</g>
<path d="M49.861,61.275c0-0.587,0-1.09,0-1.677c0-7.629,0-15.175,0-22.803c0-1.509,0.251-2.934,1.845-3.688
	c2.264-1.006,4.526,0.503,4.526,3.27c0.084,3.688,0,7.461,0,11.149c0,0.587,0,1.174,0,2.096c1.09-1.845,2.265-2.85,4.192-2.264
	c2.515,0.755,2.179,2.934,2.264,4.863c0.419-3.604,1.006-4.695,3.019-5.03c1.593-0.252,2.851,0.586,3.771,2.85
	c0.084-0.168,0.251-0.252,0.251-0.335c0.671-1.761,1.762-2.683,3.354-2.432c1.677,0.168,2.851,1.258,2.851,3.186
	c0.083,7.294,0.335,14.671-0.084,21.964c-0.419,7.042-4.526,10.814-11.568,11.401c-3.604,0.252-7.294-0.167-10.396-2.348
	c-1.174-0.838-2.264-1.929-3.019-3.103c-3.354-5.699-6.539-11.567-9.809-17.353c-0.167-0.336-0.335-0.755-0.503-1.174
	c-0.586-1.678-0.335-3.019,0.838-3.856c1.174-0.755,2.935-0.671,4.024,0.503c1.09,1.09,2.012,2.265,3.018,3.438
	c0.419,0.504,0.754,0.923,1.173,1.426C49.609,61.359,49.693,61.359,49.861,61.275z"/>
<path d="M84.008,18.026c-22.648,0.084-45.296,0.084-67.861,0c-3.103,0-5.452,0.839-6.794,3.773c0,16.273,0,32.465,0,48.736
	c1.426,3.021,3.859,3.775,6.963,3.689c8.389-0.082,16.86,0,25.249,0c0.587,0,1.174,0,2.014,0c-1.343-2.433-2.518-4.444-3.523-6.542
	c-0.503-1.007-1.175-1.259-2.265-1.259c-5.956,0.083-11.996,0-17.951,0c-0.922,0-2.685,0-3.775,0c0-13.589,0-27.01,0-40.515
	c22.062,0,43.2,0,65.178,0c0,13.505,0,27.01,0,40.598c-1.176,0-0.503,0-1.595,0c0,2.602,0,5.118,0,7.718
	c1.427,0,2.685-0.082,4.027,0c3.104,0.253,5.619-0.669,6.962-3.689c0-16.271,0-32.463,0-48.736
	C89.461,18.865,87.111,17.943,84.008,18.026z M13.127,51.244c0,0.336-0.251,0.671-0.67,0.671c-0.42,0-0.671-0.251-0.671-0.671
	V41.094c0-0.337,0.251-0.672,0.671-0.672c0.419,0,0.67,0.252,0.67,0.672V51.244z M86.189,49.817c-1.343,0-2.516-1.09-2.516-2.433
	s1.173-2.517,2.599-2.517c1.344,0,2.518,1.091,2.518,2.434C88.789,48.728,87.615,49.817,86.189,49.817z"/>
</svg>
