<?xml version="1.0" encoding="utf-8"?>
<!-- Generator: Adobe Illustrator 16.0.3, SVG Export Plug-In . SVG Version: 6.00 Build 0)  -->
<!DOCTYPE svg PUBLIC "-//W3C//DTD SVG 1.1//EN" "http://www.w3.org/Graphics/SVG/1.1/DTD/svg11.dtd">
<svg version="1.1" id="Layer_1" xmlns="http://www.w3.org/2000/svg" xmlns:xlink="http://www.w3.org/1999/xlink" x="0px" y="0px"
	 width="99.063px" height="99.031px" viewBox="0 0 99.063 99.031" enable-background="new 0 0 99.063 99.031" xml:space="preserve">
<g>
	<path fill="#1D1D1B" d="M84.971,37.43c1.836,0,3.334-1.493,3.334-3.332v-6.667c0-1.834-1.498-3.333-3.334-3.333h-4.666v-4
		c0-5.146-4.186-9.334-9.334-9.334H59.388H47.089h-0.271h-12.26H22.972c-5.147,0-9.333,4.188-9.333,9.334v41.515
		c0,0.037-0.006,0.067-0.006,0.1c0.003,1.911,0.003,3.791,0.006,5.661V81.43c0,5.15,4.186,9.334,9.333,9.334h47.999
		c5.148,0,9.334-4.184,9.334-9.334v-6.666h4.666c1.836,0,3.334-1.495,3.334-3.333v-6.667c0-1.833-1.498-3.333-3.334-3.333h-4.666
		v-5.334h4.666c1.836,0,3.334-1.494,3.334-3.333v-6.667c0-1.833-1.498-3.332-3.334-3.332h-4.666V37.43H84.971z M56.836,16.097
		c1.237,1.864,1.961,4.089,1.961,6.483c-0.006,6.5-5.313,11.792-11.833,11.797c-6.516,0-11.822-5.291-11.822-11.797
		c0-2.333,0.683-4.566,1.949-6.483H56.836z M74.971,81.43c0,2.206-1.791,4.001-4,4.001H22.972c-2.206,0-4-1.795-4-4.001V60.991
		c0.174-2.352,1.187-4.606,3.315-7.185c2.574-3.12,7.427-5.417,12.48-7.22c3.667,2.463,7.874,3.761,12.226,3.761
		c4.301,0,8.573-1.313,12.24-3.734c2.906,0.97,6.759,2.273,9,3.959c3.588,2.697,5.692,5.638,6.608,9.249
		c0.084,0.334,0.104,0.698,0.131,1.056V81.43H74.971z M74.971,49.525c-1.08-1.167-2.277-2.25-3.602-3.24
		c-3.403-2.557-8.546-4.278-12.624-5.385c-0.063-0.02-0.142-0.026-0.217-0.026c-0.272,0-0.602,0.106-0.793,0.267
		c-3.179,2.567-6.954,3.875-10.742,3.875c-3.404,0-6.821-1.059-9.81-3.22c-0.735-0.535-1.372-0.766-2.043-0.766
		c-0.454,0-0.917,0.104-1.442,0.278c-5.131,1.743-10.938,4.236-14.728,8.3v-29.51c0-2.203,1.794-4.001,4-4.001h8.164
		c-0.852,2.077-1.329,4.35-1.329,6.683c0.006,9.417,7.73,17.317,17.159,17.317h0.006c9.436,0,17.153-7.9,17.158-17.322
		c0.006-2.333-0.471-4.604-1.317-6.678h8.158c2.209,0,4,1.798,4,4.001L74.971,49.525L74.971,49.525z"/>
</g>
</svg>
