<?xml version="1.0" encoding="utf-8"?>
<!-- Generator: Adobe Illustrator 16.0.3, SVG Export Plug-In . SVG Version: 6.00 Build 0)  -->
<!DOCTYPE svg PUBLIC "-//W3C//DTD SVG 1.1//EN" "http://www.w3.org/Graphics/SVG/1.1/DTD/svg11.dtd">
<svg version="1.1" id="Layer_1" xmlns="http://www.w3.org/2000/svg" xmlns:xlink="http://www.w3.org/1999/xlink" x="0px" y="0px"
	 width="99.063px" height="99.031px" viewBox="0 0 99.063 99.031" enable-background="new 0 0 99.063 99.031" xml:space="preserve">
<path d="M89.139,20.936H11.126c-2.408,0-4.357,1.951-4.357,4.356v49.095c0,2.4,1.949,4.357,4.357,4.357h78.013
	c2.403,0,4.357-1.957,4.357-4.357V25.292C93.496,22.887,91.542,20.936,89.139,20.936z M84.69,72.971H15.429V26.708H84.69V72.971z
	 M89.145,52.004c-1.197,0-2.167-0.97-2.167-2.163c0-1.196,0.97-2.166,2.167-2.166c1.193,0,2.163,0.97,2.163,2.166
	C91.308,51.034,90.338,52.004,89.145,52.004z"/>
</svg>
