<?xml version="1.0" encoding="utf-8"?>
<!-- Generator: Adobe Illustrator 16.0.3, SVG Export Plug-In . SVG Version: 6.00 Build 0)  -->
<!DOCTYPE svg PUBLIC "-//W3C//DTD SVG 1.1//EN" "http://www.w3.org/Graphics/SVG/1.1/DTD/svg11.dtd">
<svg version="1.1" id="Layer_1" xmlns="http://www.w3.org/2000/svg" xmlns:xlink="http://www.w3.org/1999/xlink" x="0px" y="0px"
	 width="99.063px" height="99.031px" viewBox="0 0 99.063 99.031" enable-background="new 0 0 99.063 99.031" xml:space="preserve">
<g>
	<path d="M80.303,10.764h-61.34c-5.14,0-9.33,4.19-9.33,9.33v61.34c0,5.145,4.19,9.33,9.33,9.33h61.34c5.14,0,9.33-4.186,9.33-9.33
		v-61.34C89.633,14.955,85.443,10.764,80.303,10.764 M14.964,81.434v-61.34c0-2.202,1.795-3.999,3.999-3.999h61.34
		c2.207,0,3.999,1.797,3.999,3.999v61.34c0,2.204-1.792,3.999-3.999,3.999h-61.34C16.759,85.433,14.964,83.638,14.964,81.434
		 M78.963,41.463c0-2.228-1.804-4.034-4.027-4.034H61.664c-2.23,0-4.034,1.807-4.034,4.034v26.612c0,2.216,1.804,4.022,4.034,4.022
		h13.271c2.224,0,4.027-1.807,4.027-4.034V41.463z M68.3,69.431c-0.731,0-1.333-0.602-1.333-1.333c0-0.738,0.602-1.333,1.333-1.333
		s1.333,0.595,1.333,1.333C69.633,68.83,69.031,69.431,68.3,69.431z M73.632,64.1H62.969V42.767h10.663V64.1z M57.63,58.761H28.3
		V34.763h37.335v2.665h5.331v-3.975c0-2.221-1.802-4.022-4.022-4.022H24.325c-2.221,0-4.022,1.802-4.022,4.022v26.617
		c0,2.228,1.802,4.029,4.022,4.029H57.63V58.761z M24.302,48.098c-0.739,0-1.333-0.601-1.333-1.333c0-0.738,0.594-1.332,1.333-1.332
		c0.731,0,1.333,0.594,1.333,1.332C25.635,47.498,25.033,48.098,24.302,48.098z"/>
</g>
</svg>
