<?xml version="1.0" encoding="utf-8"?>
<!-- Generator: Adobe Illustrator 16.0.3, SVG Export Plug-In . SVG Version: 6.00 Build 0)  -->
<!DOCTYPE svg PUBLIC "-//W3C//DTD SVG 1.1//EN" "http://www.w3.org/Graphics/SVG/1.1/DTD/svg11.dtd">
<svg version="1.1" id="Layer_1" xmlns="http://www.w3.org/2000/svg" xmlns:xlink="http://www.w3.org/1999/xlink" x="0px" y="0px"
	 width="99.063px" height="99.031px" viewBox="0 0 99.063 99.031" enable-background="new 0 0 99.063 99.031" xml:space="preserve">
<path fill="#13110C" d="M86.323,52.12v-5.619c0-2.249-1.827-4.074-4.077-4.074h-0.102V22.312c0-2.249-1.826-4.076-4.077-4.076
	H21.303c-2.251,0-4.076,1.828-4.076,4.076v43.213c0,0.521,0.108,1.015,0.283,1.475h-5.821h-0.082H9.665
	c-0.063,0.258-0.121,0.632-0.168,1.127c-0.048,0.505-0.069,1.009-0.069,1.52c0,1.026,0.214,1.744,0.647,2.146
	c0.415,0.386,0.934,0.572,1.534,0.587v0.015h25.993v1.128c0,2.246,1.824,4.074,4.075,4.074h29.463v2.947
	c0,2.25,1.83,4.079,4.082,4.079h10.822c2.25,0,4.079-1.829,4.079-4.079V56.169C90.112,54.019,88.439,52.271,86.323,52.12z
	 M22.625,64.205V23.634h54.122v18.793H41.675c-2.251,0-4.075,1.826-4.075,4.074v17.704H22.625z M71.138,56.169v16.028h-28.14V47.824
	h37.788v4.268h-5.57C72.966,52.092,71.138,53.921,71.138,56.169z M84.716,79.257h-8.179V57.49h8.179V79.257z"/>
</svg>
