<?xml version="1.0" encoding="utf-8"?>
<!-- Generator: Adobe Illustrator 16.0.3, SVG Export Plug-In . SVG Version: 6.00 Build 0)  -->
<!DOCTYPE svg PUBLIC "-//W3C//DTD SVG 1.1//EN" "http://www.w3.org/Graphics/SVG/1.1/DTD/svg11.dtd">
<svg version="1.1" id="Layer_1" xmlns="http://www.w3.org/2000/svg" xmlns:xlink="http://www.w3.org/1999/xlink" x="0px" y="0px"
	 width="99.063px" height="99.031px" viewBox="0 0 99.063 99.031" enable-background="new 0 0 99.063 99.031" xml:space="preserve">
<g>
	<path id="PP_Clac_2_1_" fill="#1D1D1B" d="M33.386,43.019c-0.359,0-0.709-0.016-1.037-0.047c-0.333-0.036-0.614-0.067-0.849-0.111
		v-6.242h-5.792c-0.047-0.211-0.086-0.464-0.13-0.75c-0.044-0.287-0.063-0.625-0.063-1.008c0-0.815,0.172-1.378,0.511-1.701
		c0.344-0.317,0.76-0.474,1.25-0.474H31.5v-4.448c0-0.492,0.148-0.903,0.448-1.234c0.297-0.33,0.854-0.494,1.661-0.494
		c0.364,0,0.711,0.016,1.042,0.047c0.33,0.031,0.614,0.067,0.849,0.111v6.019h5.854c0.044,0.211,0.083,0.464,0.13,0.75
		c0.042,0.286,0.06,0.625,0.06,1.008c0,0.81-0.169,1.378-0.508,1.695c-0.344,0.323-0.76,0.484-1.25,0.484H35.5v4.672
		c0,0.489-0.151,0.901-0.448,1.231C34.753,42.858,34.198,43.019,33.386,43.019z M28.667,68.972
		c-0.042-0.234-0.089-0.541-0.144-0.911c-0.055-0.375-0.081-0.766-0.081-1.169c0-0.901,0.183-1.508,0.545-1.842
		c0.361-0.328,0.825-0.497,1.377-0.497h8.034c0.042,0.234,0.091,0.542,0.144,0.914c0.057,0.375,0.08,0.763,0.08,1.167
		c0,0.896-0.182,1.51-0.544,1.844c-0.364,0.328-0.823,0.494-1.375,0.494H28.667z M58,72.306c-0.042-0.234-0.089-0.542-0.144-0.912
		c-0.055-0.375-0.08-0.766-0.08-1.169c0-0.901,0.182-1.508,0.544-1.841c0.362-0.328,0.825-0.498,1.378-0.498h13.367
		c0.041,0.234,0.091,0.542,0.143,0.914c0.058,0.375,0.081,0.764,0.081,1.167c0,0.896-0.183,1.511-0.544,1.844
		c-0.365,0.328-0.823,0.495-1.375,0.495H58z M58,65.639c-0.042-0.234-0.089-0.542-0.144-0.911c-0.055-0.375-0.08-0.766-0.08-1.17
		c0-0.9,0.182-1.508,0.544-1.841c0.362-0.328,0.825-0.497,1.378-0.497h13.367c0.041,0.234,0.091,0.541,0.143,0.914
		c0.058,0.375,0.081,0.763,0.081,1.166c0,0.896-0.183,1.511-0.544,1.844c-0.365,0.328-0.823,0.495-1.375,0.495H58z M80.198,10.764
		H18.865c-5.146,0-9.333,4.188-9.333,9.333v61.334c0,5.15,4.188,9.333,9.333,9.333h61.334c5.146,0,9.333-4.183,9.333-9.333V20.097
		C89.531,14.952,85.344,10.764,80.198,10.764 M14.865,81.431V20.097c0-2.203,1.795-4,4-4h61.334c2.208,0,4,1.797,4,4v61.334
		c0,2.205-1.792,4-4,4H18.865C16.659,85.431,14.865,83.636,14.865,81.431"/>
</g>
</svg>
