<?xml version="1.0" encoding="utf-8"?>
<!-- Generator: Adobe Illustrator 16.0.3, SVG Export Plug-In . SVG Version: 6.00 Build 0)  -->
<!DOCTYPE svg PUBLIC "-//W3C//DTD SVG 1.1//EN" "http://www.w3.org/Graphics/SVG/1.1/DTD/svg11.dtd">
<svg version="1.1" id="Layer_1" xmlns="http://www.w3.org/2000/svg" xmlns:xlink="http://www.w3.org/1999/xlink" x="0px" y="0px"
	 width="99.063px" height="99.031px" viewBox="0 0 99.063 99.031" enable-background="new 0 0 99.063 99.031" xml:space="preserve">
<path d="M55.035,52.969c0.924,0.728,2.097,1.509,3.526,2.351c1.647-0.193,3.29-0.291,4.906-0.291c4.114,0,6.597,0.686,7.439,2.061
	c0.445,0.616,0.479,1.344,0.08,2.184c0,0.029-0.016,0.058-0.047,0.079l-0.084,0.084v0.042c-0.165,1.064-1.16,1.601-2.974,1.601
	c-1.343,0-2.957-0.278-4.828-0.84c-1.876-0.557-3.694-1.299-5.457-2.22c-6.186,0.672-11.672,1.831-16.458,3.483
	c-4.285,7.326-7.671,10.995-10.162,10.995c-0.42,0-0.812-0.098-1.177-0.294L28.796,71.7c-0.03-0.028-0.113-0.1-0.256-0.209
	c-0.28-0.281-0.362-0.782-0.252-1.509c0.252-1.124,1.036-2.406,2.351-3.851c1.313-1.436,3.162-2.79,5.543-4.052
	c0.392-0.255,0.716-0.165,0.963,0.255c0.056,0.053,0.084,0.115,0.084,0.162c1.454-2.377,2.95-5.13,4.492-8.266
	c1.9-3.808,3.359-7.474,4.367-11.001c-0.672-2.294-1.104-4.527-1.283-6.695c-0.181-2.171-0.092-3.956,0.275-5.353
	c0.305-1.121,0.893-1.68,1.761-1.68h0.927c0.641,0,1.133,0.21,1.469,0.628c0.505,0.59,0.627,1.538,0.382,2.854
	c-0.057,0.167-0.113,0.279-0.172,0.336c0.031,0.084,0.046,0.197,0.046,0.336v1.261c-0.057,3.441-0.249,6.128-0.592,8.062
	c1.543,4.589,3.585,7.92,6.13,9.993L55.035,52.969z M30.852,70.224c1.454-0.672,3.372-2.883,5.753-6.635
	c-1.427,1.118-2.649,2.293-3.671,3.524C31.908,68.353,31.216,69.389,30.852,70.224L30.852,70.224z M47.558,31.6
	c-0.418,1.178-0.446,3.022-0.082,5.541c0.029-0.193,0.129-0.812,0.292-1.85c0-0.083,0.101-0.688,0.293-1.805
	c0.032-0.113,0.084-0.226,0.168-0.336c-0.03-0.029-0.044-0.057-0.044-0.083c0-0.028-0.008-0.049-0.021-0.063
	c-0.017-0.014-0.023-0.034-0.023-0.06c-0.025-0.614-0.21-1.121-0.543-1.509c0,0.028-0.016,0.055-0.045,0.083L47.558,31.6
	L47.558,31.6z M42.354,59.35c3.776-1.513,7.753-2.646,11.926-3.406c-0.059-0.029-0.235-0.162-0.546-0.395
	c-0.308-0.234-0.529-0.423-0.672-0.565c-2.131-1.874-3.903-4.337-5.329-7.391c-0.754,2.406-1.919,5.159-3.484,8.271
	C43.406,57.434,42.773,58.597,42.354,59.35L42.354,59.35z M69.478,58.678c-0.671-0.673-2.629-1.009-5.877-1.009
	c2.128,0.787,3.862,1.177,5.206,1.177c0.395,0,0.64-0.014,0.753-0.048C69.557,58.777,69.528,58.735,69.478,58.678L69.478,58.678z"/>
<path d="M83.826,24.079l-0.217-0.21l0.012-0.01L71.425,11.663l-0.196-0.149c-0.512-0.489-1.173-0.759-1.859-0.759v-0.147l0,0v0.15
	l-47.5-0.15c-1.899,0-3.536,0.621-4.866,1.851c-1.402,1.305-2.084,3.267-2.084,5.999v64.936c0,2.741,0.682,4.702,2.084,6.001
	c1.325,1.228,2.961,1.85,4.866,1.85l16.642,0.152l39.205-0.005c1.902,0,3.54-0.619,4.862-1.849c1.405-1.307,2.089-3.264,2.089-5.998
	V26.022C84.666,25.292,84.372,24.6,83.826,24.079z M79.255,32.224v51.313c0,1.176-0.194,1.812-0.299,1.979l-0.021,0.037
	l-0.031,0.025c-0.313,0.288-0.66,0.404-1.188,0.404L38.51,85.988l-16.642-0.157c-0.514,0-0.87-0.112-1.157-0.37
	c-0.199-0.271-0.387-0.932-0.387-2.074V18.461c0-1.174,0.194-1.806,0.298-1.974l0.022-0.037l0.03-0.027
	c0.317-0.29,0.661-0.407,1.19-0.407l41.225,0.147h0.294v0.295v15.47h15.573h0.297L79.255,32.224L79.255,32.224z"/>
</svg>
