<?xml version="1.0" encoding="utf-8"?>
<!-- Generator: Adobe Illustrator 16.0.3, SVG Export Plug-In . SVG Version: 6.00 Build 0)  -->
<!DOCTYPE svg PUBLIC "-//W3C//DTD SVG 1.1//EN" "http://www.w3.org/Graphics/SVG/1.1/DTD/svg11.dtd">
<svg version="1.1" id="Layer_1" xmlns="http://www.w3.org/2000/svg" xmlns:xlink="http://www.w3.org/1999/xlink" x="0px" y="0px"
	 width="34px" height="34px" viewBox="0 0 34 34" enable-background="new 0 0 34 34" xml:space="preserve">
<g id="GUIDES" display="none">
</g>
<path d="M16,25c0.047,0.006,0.099-0.006,0.157,0c0.231,0.021,0.691-0.033,0.93-0.033c0.361,0,0.628-0.064,0.733-0.18
	c0.123-0.133,0.18-0.289,0.18-0.495V18h6.982c0.006-0.047,0.012-0.1,0.018-0.156c0.023-0.232,0-0.659,0-0.897
	c0-0.361-0.064-0.628-0.18-0.734C24.688,16.09,24.531,16,24.325,16H18V9c-0.047-0.006-0.1,0.006-0.159,0
	c-0.231-0.021-0.693,0.034-0.928,0.034c-0.361,0-0.629,0.065-0.734,0.179C16.057,9.345,16,9.503,16,9.709V16H9.05
	c-0.005,0.047-0.011,0.1-0.017,0.158C9.011,16.391,9,16.817,9,17.053c0,0.361,0.065,0.628,0.179,0.734
	C9.311,17.908,9.468,18,9.674,18H16V25z"/>
</svg>
