<?xml version="1.0" encoding="utf-8"?>
<!-- Generator: Adobe Illustrator 16.0.3, SVG Export Plug-In . SVG Version: 6.00 Build 0)  -->
<!DOCTYPE svg PUBLIC "-//W3C//DTD SVG 1.1//EN" "http://www.w3.org/Graphics/SVG/1.1/DTD/svg11.dtd">
<svg version="1.1" id="Layer_1" xmlns="http://www.w3.org/2000/svg" xmlns:xlink="http://www.w3.org/1999/xlink" x="0px" y="0px"
	 width="99.063px" height="99.031px" viewBox="0 0 99.063 99.031" enable-background="new 0 0 99.063 99.031" xml:space="preserve">
<g>
	<path d="M28.352,46.585c-0.177,0-0.357-0.012-0.539-0.035c-0.182-0.023-0.32-0.044-0.413-0.063v-6.79
		c0.103-0.019,0.254-0.04,0.455-0.063s0.399-0.035,0.595-0.035c0.345,0,0.609,0.084,0.791,0.252c0.182,0.168,0.273,0.401,0.273,0.7
		v0.154h0.014c0.243-0.392,0.485-0.665,0.728-0.819c0.243-0.154,0.537-0.231,0.882-0.231c0.168,0,0.35,0.021,0.546,0.063
		c0.196,0.042,0.359,0.1,0.49,0.175c0.019,0.084,0.028,0.164,0.028,0.238s0,0.149,0,0.224c0,0.523-0.138,0.88-0.413,1.071
		s-0.623,0.282-1.043,0.273c-0.187-0.009-0.374-0.033-0.56-0.07c-0.187-0.037-0.378-0.084-0.574-0.14v4.368
		c0,0.243-0.086,0.425-0.259,0.546C29.18,46.524,28.846,46.585,28.352,46.585z"/>
	<path d="M35.926,46.669c-0.588,0-1.115-0.088-1.582-0.266s-0.863-0.425-1.19-0.742s-0.576-0.695-0.749-1.134
		c-0.173-0.439-0.259-0.919-0.259-1.442c0-0.504,0.084-0.973,0.252-1.407s0.403-0.81,0.707-1.127
		c0.303-0.317,0.667-0.565,1.092-0.742s0.894-0.266,1.407-0.266c0.541,0,1.017,0.094,1.428,0.28s0.756,0.437,1.036,0.749
		s0.49,0.67,0.63,1.071c0.14,0.401,0.21,0.817,0.21,1.246c0,0.14-0.007,0.28-0.021,0.42c-0.014,0.14-0.035,0.271-0.063,0.392h-4.578
		c0.065,0.392,0.25,0.698,0.553,0.917s0.693,0.329,1.169,0.329c0.224,0,0.417-0.014,0.581-0.042c0.163-0.028,0.31-0.056,0.441-0.084
		c0.131-0.028,0.254-0.056,0.371-0.084c0.117-0.028,0.231-0.042,0.343-0.042c0.242,0,0.441,0.086,0.595,0.259
		c0.154,0.173,0.231,0.432,0.231,0.777c0,0.131-0.014,0.271-0.042,0.42c-0.299,0.13-0.667,0.25-1.106,0.357
		C36.943,46.615,36.458,46.669,35.926,46.669z M34.204,42.441h2.744c-0.019-0.177-0.061-0.347-0.126-0.511
		c-0.065-0.163-0.156-0.306-0.273-0.427c-0.117-0.121-0.254-0.219-0.413-0.294c-0.159-0.074-0.336-0.112-0.532-0.112
		c-0.401,0-0.724,0.128-0.966,0.385C34.395,41.739,34.25,42.058,34.204,42.441z"/>
	<path d="M42.856,49.287c-0.606,0-1.125-0.059-1.554-0.176c-0.43-0.116-0.779-0.272-1.05-0.469
		c-0.271-0.196-0.469-0.418-0.595-0.665s-0.189-0.506-0.189-0.777s0.084-0.544,0.252-0.819c0.168-0.275,0.438-0.511,0.812-0.707
		c-0.093-0.103-0.166-0.21-0.217-0.322c-0.051-0.112-0.077-0.247-0.077-0.406c0-0.196,0.053-0.39,0.161-0.581
		s0.282-0.338,0.525-0.441c-0.374-0.196-0.682-0.45-0.924-0.763c-0.243-0.313-0.364-0.707-0.364-1.183
		c0-0.354,0.067-0.681,0.203-0.98c0.135-0.298,0.333-0.555,0.595-0.77c0.261-0.214,0.585-0.382,0.973-0.504
		c0.387-0.121,0.833-0.182,1.337-0.182c0.327,0,0.593,0.019,0.798,0.056c0.206,0.038,0.429,0.098,0.672,0.182
		c0.112-0.093,0.24-0.189,0.385-0.287c0.145-0.098,0.296-0.191,0.455-0.28c0.159-0.089,0.313-0.17,0.462-0.245
		s0.289-0.14,0.42-0.196c0.131,0.075,0.25,0.189,0.357,0.343c0.107,0.154,0.17,0.329,0.189,0.525
		c0.009,0.177-0.021,0.32-0.091,0.427s-0.168,0.193-0.294,0.259s-0.275,0.107-0.448,0.126c-0.172,0.019-0.352,0.023-0.539,0.014
		l-0.014,0.028c0.187,0.159,0.366,0.369,0.539,0.63c0.172,0.262,0.259,0.569,0.259,0.924c0,0.7-0.268,1.255-0.805,1.666
		c-0.537,0.411-1.319,0.616-2.345,0.616c-0.131,0-0.252-0.012-0.364-0.035c-0.112-0.023-0.206-0.025-0.28-0.007
		c-0.159,0.028-0.238,0.107-0.238,0.238c0,0.103,0.063,0.175,0.189,0.217s0.273,0.072,0.441,0.091l1.876,0.21
		c0.392,0.047,0.721,0.126,0.987,0.238c0.266,0.112,0.481,0.252,0.644,0.42s0.28,0.357,0.35,0.567s0.105,0.432,0.105,0.665
		c0,0.345-0.082,0.66-0.245,0.945c-0.163,0.284-0.399,0.532-0.707,0.742c-0.308,0.21-0.686,0.373-1.134,0.489
		C43.92,49.229,43.416,49.287,42.856,49.287z M42.996,47.789c0.485,0,0.84-0.077,1.064-0.231c0.224-0.154,0.336-0.324,0.336-0.511
		c0-0.14-0.061-0.245-0.182-0.315c-0.122-0.07-0.308-0.119-0.56-0.147l-1.428-0.154c-0.252-0.028-0.439-0.061-0.56-0.098
		c-0.121-0.037-0.233-0.079-0.336-0.126c-0.075,0.131-0.117,0.269-0.126,0.413s0.019,0.282,0.084,0.413
		c0.103,0.205,0.294,0.382,0.574,0.532C42.142,47.714,42.52,47.789,42.996,47.789z M42.758,42.973c0.28,0,0.534-0.079,0.763-0.238
		s0.343-0.406,0.343-0.742c0-0.327-0.11-0.574-0.329-0.742s-0.479-0.252-0.777-0.252c-0.29,0-0.542,0.084-0.756,0.252
		s-0.322,0.416-0.322,0.742c0,0.336,0.112,0.583,0.336,0.742S42.487,42.973,42.758,42.973z"/>
	<path d="M48.288,38.759c-0.317,0-0.588-0.11-0.812-0.329c-0.224-0.219-0.336-0.488-0.336-0.805c0-0.317,0.112-0.588,0.336-0.812
		c0.224-0.224,0.495-0.336,0.812-0.336c0.317,0,0.588,0.112,0.812,0.336c0.224,0.224,0.336,0.495,0.336,0.812
		c0,0.317-0.112,0.586-0.336,0.805C48.876,38.649,48.605,38.759,48.288,38.759z M48.134,46.585c-0.177,0-0.359-0.012-0.546-0.035
		c-0.187-0.023-0.327-0.044-0.42-0.063v-6.146c0-0.243,0.086-0.425,0.259-0.546c0.173-0.121,0.506-0.182,1.001-0.182
		c0.177,0,0.359,0.012,0.546,0.035c0.187,0.023,0.326,0.044,0.42,0.063v6.146c0,0.243-0.086,0.425-0.259,0.546
		C48.962,46.524,48.628,46.585,48.134,46.585z"/>
	<path d="M53.971,46.669c-0.541,0-1.033-0.093-1.477-0.28s-0.824-0.441-1.141-0.763c-0.318-0.322-0.563-0.7-0.735-1.134
		s-0.259-0.894-0.259-1.379s0.086-0.945,0.259-1.379c0.173-0.434,0.417-0.812,0.735-1.134c0.316-0.322,0.697-0.576,1.141-0.763
		c0.443-0.187,0.936-0.28,1.477-0.28s1.033,0.093,1.479,0.28c0.441,0.187,0.82,0.441,1.133,0.763c0.313,0.322,0.555,0.7,0.729,1.134
		c0.172,0.434,0.258,0.894,0.258,1.379s-0.084,0.943-0.252,1.372s-0.41,0.805-0.727,1.127c-0.318,0.322-0.699,0.579-1.141,0.77
		C55.004,46.573,54.512,46.669,53.971,46.669z M53.971,44.877c0.178,0,0.355-0.037,0.533-0.112c0.176-0.075,0.34-0.187,0.49-0.336
		c0.148-0.149,0.27-0.333,0.363-0.553c0.094-0.219,0.141-0.474,0.141-0.763c0-0.271-0.043-0.518-0.127-0.742
		s-0.195-0.413-0.336-0.567c-0.141-0.154-0.303-0.273-0.49-0.357c-0.186-0.084-0.377-0.126-0.574-0.126
		c-0.195,0-0.385,0.042-0.566,0.126s-0.346,0.203-0.49,0.357c-0.145,0.154-0.26,0.343-0.344,0.567s-0.125,0.472-0.125,0.742
		c0,0.289,0.047,0.543,0.141,0.763c0.092,0.22,0.211,0.404,0.355,0.553s0.309,0.261,0.49,0.336
		C53.615,44.84,53.793,44.877,53.971,44.877z"/>
	<path d="M59.459,46.585c-0.178,0-0.357-0.012-0.539-0.035c-0.182-0.023-0.319-0.044-0.413-0.063v-6.776
		c0.103-0.019,0.25-0.04,0.441-0.063c0.19-0.023,0.385-0.035,0.581-0.035c0.42,0,0.709,0.075,0.867,0.224
		c0.159,0.149,0.238,0.369,0.238,0.658v0.168h0.028c0.215-0.327,0.509-0.595,0.882-0.805c0.373-0.21,0.784-0.315,1.232-0.315
		c0.345,0,0.662,0.059,0.951,0.175c0.29,0.117,0.542,0.296,0.757,0.539c0.214,0.243,0.382,0.546,0.504,0.91
		c0.121,0.364,0.182,0.789,0.182,1.274v3.416c0,0.243-0.086,0.425-0.259,0.546c-0.173,0.121-0.507,0.182-1.001,0.182
		c-0.178,0-0.357-0.012-0.539-0.035c-0.182-0.023-0.32-0.044-0.413-0.063v-3.78c0-0.457-0.096-0.793-0.287-1.008
		s-0.464-0.322-0.819-0.322c-0.224,0-0.44,0.054-0.65,0.161c-0.21,0.107-0.371,0.25-0.483,0.427v3.892
		c0,0.243-0.086,0.425-0.259,0.546C60.287,46.524,59.953,46.585,59.459,46.585z"/>
	<path d="M68.266,46.613c-0.336,0-0.64-0.054-0.91-0.161c-0.271-0.107-0.502-0.257-0.693-0.448c-0.191-0.191-0.336-0.41-0.434-0.658
		c-0.098-0.247-0.147-0.511-0.147-0.791c0-0.709,0.243-1.262,0.729-1.659c0.485-0.396,1.236-0.595,2.254-0.595
		c0.205,0,0.418,0.007,0.637,0.021c0.22,0.014,0.45,0.04,0.693,0.077v-0.266c0-0.327-0.077-0.56-0.231-0.7
		c-0.153-0.14-0.432-0.21-0.833-0.21c-0.392,0-0.746,0.049-1.063,0.147s-0.611,0.147-0.882,0.147c-0.168,0-0.304-0.046-0.406-0.14
		c-0.103-0.093-0.182-0.212-0.238-0.357c-0.056-0.145-0.091-0.313-0.104-0.504c-0.015-0.191-0.012-0.385,0.007-0.581
		c0.401-0.103,0.833-0.193,1.295-0.273c0.462-0.079,0.959-0.119,1.491-0.119c0.569,0,1.05,0.061,1.441,0.182
		c0.393,0.122,0.705,0.303,0.938,0.546c0.233,0.243,0.401,0.544,0.504,0.903s0.154,0.777,0.154,1.253v1.47
		c0,0.252,0.002,0.483,0.007,0.693c0.004,0.21,0.014,0.413,0.027,0.609c0.015,0.196,0.033,0.395,0.057,0.595
		c0.023,0.201,0.054,0.418,0.091,0.651c-0.112,0.037-0.264,0.07-0.455,0.098c-0.191,0.028-0.408,0.042-0.651,0.042
		c-0.354,0-0.597-0.072-0.728-0.217c-0.131-0.145-0.22-0.32-0.266-0.525c-0.02-0.121-0.031-0.21-0.035-0.266
		c-0.005-0.056-0.012-0.117-0.021-0.182h-0.027c-0.188,0.336-0.465,0.623-0.833,0.861C69.262,46.494,68.807,46.613,68.266,46.613z
		 M69.064,45.031c0.299,0,0.569-0.084,0.812-0.252c0.243-0.168,0.425-0.42,0.547-0.756v-0.476c-0.243-0.028-0.467-0.042-0.673-0.042
		c-0.467,0-0.835,0.07-1.105,0.21c-0.271,0.14-0.406,0.354-0.406,0.644c0,0.205,0.075,0.369,0.225,0.49
		C68.611,44.97,68.812,45.031,69.064,45.031z"/>
	<path d="M74.65,46.585c-0.178,0-0.357-0.012-0.539-0.035c-0.182-0.023-0.319-0.044-0.413-0.063v-8.792
		c0-0.243,0.086-0.425,0.259-0.546c0.173-0.121,0.507-0.182,1.001-0.182c0.178,0,0.357,0.012,0.539,0.035
		c0.183,0.023,0.32,0.044,0.413,0.063v8.792c0,0.243-0.086,0.425-0.259,0.546C75.478,46.524,75.144,46.585,74.65,46.585z"/>
	<path d="M23.844,63.412c-0.187,0-0.374-0.012-0.56-0.033c-0.187-0.023-0.364-0.064-0.532-0.119l-2.478-6.623
		c0.149-0.064,0.332-0.119,0.546-0.16c0.214-0.043,0.424-0.064,0.63-0.064c0.298,0,0.55,0.043,0.756,0.127
		c0.205,0.084,0.359,0.275,0.462,0.574l0.658,1.959c0.13,0.393,0.243,0.766,0.336,1.121c0.093,0.354,0.182,0.729,0.266,1.119h0.042
		c0.084-0.391,0.177-0.766,0.28-1.119c0.103-0.355,0.219-0.729,0.35-1.121l0.686-2.002c0.149-0.438,0.527-0.658,1.134-0.658
		c0.458,0,0.845,0.066,1.162,0.197l-2.324,5.979c-0.122,0.316-0.29,0.533-0.504,0.65S24.236,63.412,23.844,63.412z"/>
	<path d="M29.948,63.412c-0.336,0-0.64-0.053-0.91-0.16c-0.271-0.107-0.502-0.256-0.693-0.447c-0.191-0.191-0.336-0.412-0.434-0.658
		c-0.098-0.248-0.147-0.512-0.147-0.791c0-0.709,0.243-1.264,0.728-1.66c0.485-0.396,1.236-0.594,2.254-0.594
		c0.205,0,0.417,0.006,0.637,0.02c0.219,0.016,0.45,0.041,0.693,0.078v-0.266c0-0.328-0.077-0.561-0.231-0.701
		c-0.154-0.139-0.432-0.209-0.833-0.209c-0.392,0-0.747,0.049-1.064,0.146c-0.317,0.098-0.612,0.146-0.882,0.146
		c-0.168,0-0.303-0.047-0.406-0.139c-0.103-0.094-0.182-0.213-0.238-0.357c-0.056-0.145-0.091-0.313-0.105-0.504
		c-0.014-0.191-0.012-0.385,0.007-0.582c0.401-0.102,0.833-0.193,1.295-0.271c0.462-0.08,0.959-0.119,1.491-0.119
		c0.569,0,1.05,0.061,1.442,0.182c0.392,0.121,0.705,0.303,0.938,0.545c0.233,0.244,0.401,0.545,0.504,0.904
		c0.103,0.359,0.154,0.775,0.154,1.252v1.471c0,0.252,0.002,0.482,0.007,0.693c0.004,0.209,0.014,0.412,0.028,0.607
		c0.014,0.197,0.033,0.395,0.056,0.596c0.023,0.201,0.053,0.418,0.091,0.65c-0.112,0.039-0.264,0.07-0.455,0.1
		c-0.191,0.027-0.408,0.041-0.651,0.041c-0.355,0-0.598-0.072-0.728-0.217c-0.131-0.145-0.219-0.32-0.266-0.525
		c-0.019-0.121-0.03-0.209-0.035-0.266c-0.004-0.057-0.012-0.117-0.021-0.182h-0.028c-0.187,0.336-0.464,0.623-0.833,0.861
		C30.944,63.293,30.489,63.412,29.948,63.412z M30.746,61.83c0.298,0,0.569-0.084,0.812-0.252s0.424-0.42,0.546-0.756v-0.475
		c-0.243-0.029-0.467-0.043-0.672-0.043c-0.467,0-0.835,0.07-1.106,0.211c-0.271,0.139-0.406,0.354-0.406,0.643
		c0,0.207,0.075,0.369,0.224,0.49S30.494,61.83,30.746,61.83z"/>
	<path d="M36.374,63.385c-0.177,0-0.357-0.012-0.539-0.035s-0.32-0.043-0.413-0.063v-6.791c0.103-0.018,0.254-0.039,0.455-0.063
		s0.399-0.035,0.595-0.035c0.345,0,0.609,0.084,0.791,0.252c0.182,0.168,0.273,0.402,0.273,0.701v0.154h0.014
		c0.243-0.393,0.485-0.666,0.728-0.82s0.537-0.23,0.882-0.23c0.168,0,0.35,0.021,0.546,0.063c0.196,0.043,0.359,0.102,0.49,0.176
		c0.019,0.084,0.028,0.162,0.028,0.238c0,0.074,0,0.148,0,0.223c0,0.523-0.138,0.881-0.413,1.072s-0.623,0.281-1.043,0.271
		c-0.187-0.008-0.374-0.031-0.56-0.068c-0.187-0.037-0.378-0.084-0.574-0.141v4.367c0,0.244-0.086,0.426-0.259,0.547
		C37.202,63.324,36.868,63.385,36.374,63.385z"/>
	<path d="M41.932,55.558c-0.317,0-0.588-0.109-0.812-0.328c-0.224-0.219-0.336-0.488-0.336-0.805c0-0.318,0.112-0.588,0.336-0.813
		c0.224-0.225,0.495-0.336,0.812-0.336c0.317,0,0.588,0.111,0.812,0.336c0.224,0.225,0.336,0.494,0.336,0.813
		c0,0.316-0.112,0.586-0.336,0.805C42.52,55.449,42.249,55.558,41.932,55.558z M41.778,63.385c-0.177,0-0.359-0.012-0.546-0.035
		c-0.187-0.023-0.327-0.043-0.42-0.063V57.14c0-0.242,0.086-0.424,0.259-0.545s0.506-0.184,1.001-0.184
		c0.177,0,0.359,0.012,0.546,0.035c0.187,0.023,0.326,0.045,0.42,0.064v6.145c0,0.244-0.086,0.426-0.259,0.547
		S42.272,63.385,41.778,63.385z"/>
	<path d="M46.188,63.412c-0.336,0-0.64-0.053-0.91-0.16c-0.271-0.107-0.502-0.256-0.693-0.447c-0.191-0.191-0.336-0.412-0.434-0.658
		c-0.098-0.248-0.147-0.512-0.147-0.791c0-0.709,0.243-1.264,0.728-1.66c0.485-0.396,1.236-0.594,2.254-0.594
		c0.205,0,0.417,0.006,0.637,0.02c0.219,0.016,0.45,0.041,0.693,0.078v-0.266c0-0.328-0.077-0.561-0.231-0.701
		c-0.154-0.139-0.432-0.209-0.833-0.209c-0.392,0-0.747,0.049-1.064,0.146c-0.317,0.098-0.612,0.146-0.882,0.146
		c-0.168,0-0.303-0.047-0.406-0.139c-0.103-0.094-0.182-0.213-0.238-0.357c-0.056-0.145-0.091-0.313-0.105-0.504
		c-0.014-0.191-0.012-0.385,0.007-0.582c0.401-0.102,0.833-0.193,1.295-0.271c0.462-0.08,0.959-0.119,1.491-0.119
		c0.569,0,1.05,0.061,1.442,0.182c0.392,0.121,0.705,0.303,0.938,0.545c0.233,0.244,0.401,0.545,0.504,0.904
		s0.153,0.775,0.153,1.252v1.471c0,0.252,0.003,0.482,0.008,0.693c0.004,0.209,0.014,0.412,0.027,0.607
		c0.015,0.197,0.033,0.395,0.057,0.596s0.053,0.418,0.091,0.65c-0.112,0.039-0.264,0.07-0.455,0.1
		c-0.191,0.027-0.408,0.041-0.651,0.041c-0.355,0-0.598-0.072-0.728-0.217c-0.131-0.145-0.219-0.32-0.266-0.525
		c-0.019-0.121-0.03-0.209-0.035-0.266c-0.004-0.057-0.012-0.117-0.021-0.182h-0.028c-0.187,0.336-0.464,0.623-0.833,0.861
		C47.184,63.293,46.729,63.412,46.188,63.412z M46.986,61.83c0.298,0,0.569-0.084,0.812-0.252s0.424-0.42,0.546-0.756v-0.475
		c-0.243-0.029-0.467-0.043-0.672-0.043c-0.467,0-0.835,0.07-1.106,0.211c-0.271,0.139-0.406,0.354-0.406,0.643
		c0,0.207,0.075,0.369,0.224,0.49S46.734,61.83,46.986,61.83z"/>
	<path d="M54.644,63.412c-0.401,0-0.759-0.064-1.071-0.195s-0.579-0.311-0.798-0.539c-0.22-0.229-0.388-0.502-0.505-0.818
		c-0.116-0.318-0.174-0.662-0.174-1.037v-2.561h-1.051c-0.019-0.084-0.035-0.195-0.049-0.33s-0.021-0.268-0.021-0.398
		c0-0.326,0.066-0.549,0.197-0.666c0.13-0.115,0.293-0.174,0.489-0.174h0.435v-0.826c0-0.158,0.016-0.313,0.049-0.463
		c0.032-0.148,0.096-0.279,0.189-0.391c0.092-0.113,0.223-0.203,0.391-0.273s0.393-0.105,0.673-0.105
		c0.131,0,0.28,0.012,0.448,0.035s0.303,0.049,0.405,0.076v1.947h2.086c0.019,0.084,0.035,0.193,0.05,0.328
		c0.014,0.137,0.021,0.27,0.021,0.4c0,0.326-0.065,0.547-0.196,0.664s-0.294,0.176-0.489,0.176h-1.471v2.506
		c0,0.27,0.059,0.471,0.175,0.602c0.117,0.131,0.282,0.195,0.497,0.195s0.393-0.031,0.532-0.098
		c0.141-0.064,0.285-0.098,0.435-0.098c0.252,0,0.452,0.088,0.602,0.266s0.224,0.453,0.224,0.826c0,0.064-0.002,0.131-0.007,0.195
		c-0.005,0.066-0.012,0.137-0.021,0.211c-0.299,0.178-0.609,0.313-0.932,0.406C55.435,63.365,55.064,63.412,54.644,63.412z"/>
	<path d="M58.745,55.558c-0.317,0-0.588-0.109-0.812-0.328c-0.225-0.219-0.336-0.488-0.336-0.805c0-0.318,0.111-0.588,0.336-0.813
		c0.224-0.225,0.494-0.336,0.812-0.336s0.588,0.111,0.813,0.336c0.224,0.225,0.336,0.494,0.336,0.813
		c0,0.316-0.112,0.586-0.336,0.805C59.333,55.449,59.063,55.558,58.745,55.558z M58.592,63.385c-0.178,0-0.359-0.012-0.546-0.035
		c-0.188-0.023-0.327-0.043-0.421-0.063V57.14c0-0.242,0.087-0.424,0.26-0.545c0.172-0.121,0.506-0.184,1.001-0.184
		c0.177,0,0.359,0.012,0.546,0.035s0.326,0.045,0.42,0.064v6.145c0,0.244-0.087,0.426-0.259,0.547
		C59.42,63.324,59.086,63.385,58.592,63.385z"/>
	<path d="M64.429,63.469c-0.541,0-1.034-0.094-1.477-0.279c-0.443-0.188-0.824-0.441-1.142-0.764s-0.563-0.699-0.734-1.135
		c-0.173-0.434-0.26-0.893-0.26-1.379c0-0.484,0.087-0.943,0.26-1.379c0.172-0.434,0.417-0.811,0.734-1.133s0.698-0.576,1.142-0.764
		c0.442-0.186,0.936-0.279,1.477-0.279s1.033,0.094,1.478,0.279c0.442,0.188,0.82,0.441,1.134,0.764
		c0.313,0.322,0.555,0.699,0.728,1.133c0.173,0.436,0.259,0.895,0.259,1.379c0,0.486-0.084,0.943-0.252,1.373
		s-0.41,0.805-0.728,1.127s-0.698,0.578-1.141,0.77C65.462,63.373,64.97,63.469,64.429,63.469z M64.429,61.677
		c0.178,0,0.354-0.037,0.532-0.113c0.177-0.074,0.341-0.186,0.49-0.336c0.148-0.148,0.271-0.334,0.363-0.553
		c0.094-0.219,0.141-0.473,0.141-0.764c0-0.27-0.042-0.518-0.126-0.74c-0.084-0.225-0.196-0.414-0.336-0.568
		c-0.141-0.154-0.304-0.273-0.49-0.357s-0.378-0.125-0.574-0.125s-0.385,0.041-0.567,0.125c-0.182,0.084-0.345,0.203-0.489,0.357
		c-0.146,0.154-0.26,0.344-0.344,0.568c-0.084,0.223-0.126,0.471-0.126,0.74c0,0.291,0.047,0.545,0.141,0.764
		c0.093,0.219,0.212,0.404,0.356,0.553c0.145,0.15,0.309,0.262,0.49,0.336C64.073,61.64,64.251,61.677,64.429,61.677z"/>
	<path d="M69.917,63.385c-0.178,0-0.357-0.012-0.539-0.035s-0.319-0.043-0.413-0.063v-6.775c0.103-0.02,0.25-0.041,0.441-0.064
		c0.19-0.023,0.385-0.035,0.581-0.035c0.42,0,0.709,0.076,0.867,0.225c0.159,0.15,0.238,0.369,0.238,0.658v0.168h0.028
		c0.215-0.326,0.509-0.596,0.882-0.805c0.373-0.211,0.784-0.314,1.232-0.314c0.345,0,0.662,0.057,0.951,0.174
		c0.29,0.117,0.542,0.297,0.757,0.539c0.214,0.242,0.382,0.547,0.504,0.91c0.121,0.363,0.182,0.789,0.182,1.273v3.416
		c0,0.244-0.086,0.426-0.259,0.547s-0.507,0.182-1.001,0.182c-0.178,0-0.357-0.012-0.539-0.035s-0.32-0.043-0.413-0.063v-3.779
		c0-0.459-0.096-0.795-0.287-1.01c-0.191-0.213-0.464-0.32-0.819-0.32c-0.224,0-0.44,0.053-0.65,0.16s-0.371,0.25-0.483,0.428v3.891
		c0,0.244-0.086,0.426-0.259,0.547S70.411,63.385,69.917,63.385z"/>
	<path d="M79.522,63.412c-0.43,0-0.91-0.039-1.442-0.119c-0.531-0.078-1.031-0.197-1.498-0.355
		c-0.056-0.449-0.016-0.813,0.119-1.092c0.136-0.281,0.357-0.42,0.665-0.42c0.131,0,0.275,0.018,0.435,0.055
		c0.158,0.037,0.329,0.078,0.511,0.119c0.182,0.043,0.376,0.08,0.581,0.113c0.205,0.031,0.415,0.049,0.63,0.049
		c0.336,0,0.576-0.045,0.721-0.133c0.145-0.09,0.217-0.199,0.217-0.33s-0.061-0.232-0.182-0.309
		c-0.121-0.074-0.331-0.148-0.63-0.223l-0.854-0.197c-0.42-0.102-0.771-0.223-1.057-0.363s-0.514-0.299-0.686-0.477
		c-0.173-0.176-0.294-0.365-0.364-0.566s-0.105-0.414-0.105-0.637c0-0.309,0.059-0.596,0.176-0.861
		c0.116-0.266,0.294-0.498,0.531-0.693c0.238-0.195,0.542-0.35,0.91-0.461c0.369-0.113,0.806-0.168,1.31-0.168
		c0.42,0,0.865,0.035,1.337,0.104c0.471,0.07,0.936,0.186,1.393,0.344c0.047,0.43,0.005,0.781-0.126,1.057s-0.35,0.414-0.658,0.414
		c-0.131,0-0.264-0.018-0.398-0.049c-0.136-0.033-0.282-0.066-0.441-0.1c-0.158-0.031-0.326-0.064-0.504-0.098
		s-0.373-0.049-0.588-0.049c-0.289,0-0.497,0.043-0.623,0.127s-0.189,0.186-0.189,0.307c0,0.094,0.035,0.178,0.105,0.252
		c0.07,0.076,0.269,0.154,0.595,0.238l1.036,0.252c0.784,0.188,1.337,0.449,1.659,0.785s0.483,0.756,0.483,1.26
		c0,0.299-0.055,0.582-0.161,0.854c-0.107,0.271-0.28,0.508-0.519,0.715c-0.237,0.205-0.553,0.365-0.944,0.482
		C80.572,63.355,80.091,63.412,79.522,63.412z"/>
</g>
</svg>
