<?xml version="1.0" encoding="utf-8"?>
<!-- Generator: Adobe Illustrator 16.0.3, SVG Export Plug-In . SVG Version: 6.00 Build 0)  -->
<!DOCTYPE svg PUBLIC "-//W3C//DTD SVG 1.1//EN" "http://www.w3.org/Graphics/SVG/1.1/DTD/svg11.dtd">
<svg version="1.1" id="Layer_1" xmlns="http://www.w3.org/2000/svg" xmlns:xlink="http://www.w3.org/1999/xlink" x="0px" y="0px"
	 width="34px" height="34px" viewBox="0 0 34 34" enable-background="new 0 0 34 34" xml:space="preserve">
<g id="GUIDES" display="none">
</g>
<g id="Layer_2">
	<g>
		<path d="M17,3.94c4.678,0,8.482,3.806,8.482,8.483c0,3.757-2.412,7.017-6.002,8.113l-1.06,0.323l-0.289,1.065l-1.116,4.119
			l-1.061-4.078l-0.285-1.094l-1.083-0.319c-3.576-1.06-6.073-4.403-6.073-8.132C8.517,7.746,12.322,3.94,17,3.94 M17,1.94
			c-5.79,0-10.483,4.693-10.483,10.483c0,4.755,3.167,8.765,7.505,10.05l2.371,9.106h0.017C16.494,31.822,16.72,32,16.993,32
			c0.272,0,0.498-0.178,0.583-0.42h0.017l2.472-9.13c4.295-1.312,7.42-5.303,7.42-10.026C27.482,6.634,22.79,1.94,17,1.94L17,1.94z"
			/>
	</g>
</g>
</svg>
