<?xml version="1.0" encoding="utf-8"?>
<!-- Generator: Adobe Illustrator 16.0.3, SVG Export Plug-In . SVG Version: 6.00 Build 0)  -->
<!DOCTYPE svg PUBLIC "-//W3C//DTD SVG 1.1//EN" "http://www.w3.org/Graphics/SVG/1.1/DTD/svg11.dtd">
<svg version="1.1" id="Layer_1" xmlns="http://www.w3.org/2000/svg" xmlns:xlink="http://www.w3.org/1999/xlink" x="0px" y="0px"
	 width="99.063px" height="99.031px" viewBox="0 0 99.063 99.031" enable-background="new 0 0 99.063 99.031" xml:space="preserve">
<g>
	<path d="M79.511,10.26H18.552c-5.116,0-9.276,4.161-9.276,9.276v60.959c0,5.12,4.161,9.276,9.276,9.276h60.959
		c5.114,0,9.276-4.156,9.276-9.276V19.536C88.787,14.42,84.625,10.26,79.511,10.26 M14.576,80.495V19.536
		c0-2.19,1.783-3.976,3.976-3.976h60.959c2.195,0,3.976,1.786,3.976,3.976v60.959c0,2.192-1.78,3.976-3.976,3.976H18.552
		C16.36,84.471,14.576,82.688,14.576,80.495 M64.659,37.477c1.033,2.051,0.163,4.474-1.982,5.566
		c-2.146,1.085-4.827,0.215-5.881-1.912c-1.007-2.019-0.165-4.487,1.874-5.516C60.906,34.482,63.562,35.307,64.659,37.477z
		 M68.12,50.693c-0.784-0.336-1.603-0.435-2.451-0.383c-1.455,0.099-2.816,0.523-4.11,1.19c-0.311,0.177-0.637,0.342-0.938,0.539
		c-1.154,0.742-2.169,1.636-2.883,2.839c-0.285,0.479-0.481,0.983-0.528,1.545c-0.088,1.051,0.394,1.941,1.336,2.426
		c0.616,0.318,1.283,0.474,1.97,0.458c3.471-0.078,6.279-1.507,8.401-4.245c0.292-0.378,0.494-0.856,0.637-1.319
		C69.976,52.407,69.411,51.242,68.12,50.693z M80.096,59.077c0.45-0.593,0.823-1.229,0.935-1.982
		c0.145-0.986-0.158-1.789-0.986-2.368c-0.673-0.472-1.429-0.709-2.241-0.717c-3.313-0.039-6.002,1.314-8.194,3.737
		c-0.487,0.535-0.831,1.167-0.989,1.89c-0.29,1.291,0.254,2.378,1.455,2.932c0.745,0.342,1.532,0.414,2.329,0.381
		c1.563-0.08,3.01-0.536,3.885-0.983C78.062,61.042,79.216,60.229,80.096,59.077z M35.636,81.634
		c-1.283-2.694-2.446-5.461-3.453-8.228l-0.499-1.359c-0.798-2.177-1.596-4.351-2.304-6.548c-0.554-1.719-1.031-3.466-1.505-5.213
		l-0.557-2.009c-0.111-0.403-0.209-0.813-0.308-1.217l-0.304-1.2c-0.085-0.329-0.144-0.85-0.197-1.406l0.133-0.178l0.334-0.58
		l0.253-0.518c0.149-0.309,0.392-0.856,0.604-1.198c3.13-5.013,7.079-9.474,11.75-13.271c2.804-2.279,5.476-4.065,8.171-5.46
		c0.418-0.218,0.843-0.426,1.272-0.628c3.885-1.823,6.923-2.963,9.856-3.689c0.386-0.096,0.784-0.207,1.181-0.321
		c0.085-0.018,0.362-0.055,0.607-0.079c0.503,0.453,0.994,0.92,1.455,1.411c3.831,4.115,7.035,7.945,9.805,11.725
		c2.034,2.77,4.125,5.73,6.397,9.048c1.062,1.558,2.043,3.204,3.036,4.896c0.65,1.108,1.38,2.368,2.123,3.684V48.94
		c-0.262-0.407-0.51-0.822-0.787-1.221c-2.12-3.093-4.278-6.161-6.494-9.183c-3.137-4.282-6.574-8.32-10.195-12.2
		c-0.756-0.817-1.586-1.571-2.423-2.306c-0.717-0.625-1.617-0.81-2.547-0.827c-0.603-0.01-1.946,0.165-2.445,0.316
		c-0.326,0.093-0.657,0.185-0.983,0.271c-3.769,0.933-7.343,2.39-10.841,4.034c-3.814,1.795-7.283,4.129-10.538,6.775
		c-5.091,4.14-9.408,8.986-12.888,14.564c-0.403,0.644-0.946,1.857-1.052,2.056c-0.787,1.054-1.231,2.141-1.092,3.43
		c0.093,0.864,0.165,1.729,0.387,2.578c0.218,0.828,0.397,1.662,0.63,2.479c0.692,2.479,1.332,4.979,2.121,7.429
		c0.877,2.718,1.882,5.396,2.863,8.086c1.073,2.953,2.294,5.854,3.647,8.691c0.089,0.186,0.19,0.372,0.281,0.559h5.923
		C36.588,83.523,36.093,82.587,35.636,81.634z M68.122,66.431c-0.859,0.476-1.529,1.512-1.573,2.911
		c-0.036,1.157,0.489,2.053,1.504,2.602c1.338,0.723,2.707,0.688,3.993-0.108c1.072-0.663,1.603-1.656,1.45-2.928
		C73.232,66.689,70.732,65.085,68.122,66.431z M36.94,80.314c0.706,0.193,1.418,0.212,2.142,0.124
		c1.194-0.153,2.314-0.549,3.625-1.201c1.1-0.58,2.306-1.449,3.271-2.622c0.498-0.608,0.906-1.261,1.11-2.026
		c0.371-1.367-0.21-2.558-1.514-3.101c-0.206-0.088-0.426-0.147-0.646-0.197c-0.907-0.217-1.811-0.14-2.706,0.058
		c-2.163,0.471-4.013,1.537-5.584,3.082c-0.716,0.701-1.226,1.543-1.53,2.492C34.595,78.522,35.329,79.855,36.94,80.314z
		 M37.304,51.284c-0.485-0.28-1.011-0.43-1.564-0.487c-1.836-0.165-3.329,0.56-4.601,1.807c-0.592,0.585-0.986,1.295-1.196,2.103
		c-0.413,1.602,0.225,3.53,2.333,4.125c1.291,0.362,2.512,0.117,3.307-0.274c1.876-0.941,2.893-2.155,3.245-3.607
		C39.183,53.479,38.584,52.021,37.304,51.284z M50.837,75.313c-1.548,1.03-2.066,2.86-1.27,4.482
		c0.702,1.414,2.162,2.125,3.584,1.688c1.522-0.471,2.459-1.526,2.801-3.072c0.191-0.866,0-1.7-0.58-2.404
		C54.291,74.708,52.22,74.397,50.837,75.313z M54.741,47.224c-0.368-0.145-0.761-0.269-1.149-0.286
		c-0.693-0.04-1.403-0.053-2.09,0.043c-1.639,0.22-3.123,0.893-4.506,1.773c-0.997,0.637-1.866,1.422-2.565,2.383
		c-0.536,0.745-0.96,1.545-1.05,2.481c-0.111,1.217,0.352,2.141,1.41,2.754c0.53,0.311,1.115,0.461,1.728,0.51
		c1.888,0.163,3.626-0.359,5.355-1.156c1.043-0.549,2.045-1.222,2.914-2.081c0.733-0.73,1.367-1.524,1.714-2.511
		C57.127,49.376,56.476,47.904,54.741,47.224z M38.928,64.862c-0.263,0.512-0.422,1.059-0.427,1.636
		c-0.013,1.009,0.445,1.736,1.335,2.194c0.571,0.29,1.18,0.406,1.813,0.417c1.613,0.031,3.101-0.417,4.699-1.255
		c0.776-0.37,1.638-0.984,2.428-1.701c0.71-0.639,1.314-1.364,1.702-2.249c0.128-0.292,0.235-0.605,0.288-0.916
		c0.22-1.281-0.378-2.33-1.586-2.813c-0.827-0.331-1.699-0.381-2.569-0.282c-1.948,0.228-3.667,1.02-5.235,2.177
		C40.362,62.827,39.5,63.721,38.928,64.862z"/>
</g>
</svg>
