<?xml version="1.0" encoding="utf-8"?>
<!-- Generator: Adobe Illustrator 16.0.3, SVG Export Plug-In . SVG Version: 6.00 Build 0)  -->
<!DOCTYPE svg PUBLIC "-//W3C//DTD SVG 1.1//EN" "http://www.w3.org/Graphics/SVG/1.1/DTD/svg11.dtd">
<svg version="1.1" id="Layer_1" xmlns="http://www.w3.org/2000/svg" xmlns:xlink="http://www.w3.org/1999/xlink" x="0px" y="0px"
	 width="99.063px" height="99.031px" viewBox="0 0 99.063 99.031" enable-background="new 0 0 99.063 99.031" xml:space="preserve">
<path fill="#333333" d="M93.5,68.193c0,4.951-4.014,8.965-8.964,8.965H16.462c-4.946,0-8.962-4.014-8.962-8.965V31.808
	c0-4.951,4.016-8.966,8.962-8.966h68.074c4.95,0,8.964,4.016,8.964,8.966V68.193z M88.974,31.804c0-2.449-1.989-4.436-4.438-4.436
	H16.462c-2.449,0-4.436,1.987-4.436,4.436v36.389c0,2.449,1.987,4.438,4.436,4.438h68.074c2.448,0,4.438-1.989,4.438-4.438V31.804z
	 M23.135,65.374c-0.272,0-0.543-0.019-0.82-0.054c-0.272-0.03-0.475-0.075-0.634-0.133V36.94c0-0.36,0.086-0.659,0.254-0.904
	c0.164-0.241,0.548-0.363,1.149-0.363h7.791c1.572,0,2.946,0.217,4.142,0.657c1.189,0.439,2.186,1.041,2.981,1.81
	c0.807,0.769,1.408,1.671,1.812,2.694c0.402,1.023,0.61,2.14,0.61,3.349c0,2.387-0.795,4.345-2.394,5.885
	c-1.598,1.541-4.055,2.434-7.384,2.672l10.909,12.085c-0.298,0.159-0.634,0.283-1.015,0.39c-0.38,0.102-0.791,0.159-1.249,0.159
	c-0.873,0-1.538-0.301-1.987-0.911L27.005,52.785H24.81v11.364c0,0.362-0.132,0.658-0.391,0.879
	C24.167,65.259,23.74,65.374,23.135,65.374z M24.81,50.07h4.796c2.721,0,4.681-0.519,5.886-1.56c1.213-1.041,1.81-2.466,1.81-4.276
	c0-1.72-0.544-3.114-1.625-4.186c-1.087-1.07-2.721-1.609-4.889-1.609h-5.974V50.07H24.81z M58.076,65.594
	c-2.051,0-3.942-0.398-5.68-1.193c-1.737-0.805-3.223-1.893-4.458-3.263s-2.199-2.987-2.897-4.845C44.345,54.437,44,52.44,44,50.301
	c0-2.115,0.345-4.093,1.037-5.937c0.692-1.836,1.658-3.439,2.897-4.798c1.235-1.357,2.725-2.429,4.458-3.213
	c1.733-0.782,3.634-1.176,5.681-1.176c2.024,0,3.89,0.385,5.613,1.154c1.72,0.769,3.205,1.834,4.451,3.191
	c1.255,1.357,2.228,2.964,2.926,4.82c0.699,1.856,1.035,3.843,1.035,5.95c0,2.144-0.345,4.137-1.035,5.993
	c-0.689,1.856-1.666,3.475-2.926,4.845c-1.246,1.37-2.731,2.458-4.451,3.263C61.966,65.196,60.101,65.594,58.076,65.594z
	 M58.032,62.836c1.477,0,2.873-0.327,4.186-0.972c1.313-0.654,2.462-1.529,3.443-2.648c0.981-1.118,1.76-2.436,2.325-3.96
	c0.579-1.525,0.866-3.179,0.866-4.955c0-1.753-0.287-3.384-0.866-4.896c-0.565-1.507-1.344-2.816-2.325-3.914
	c-0.981-1.105-2.13-1.969-3.443-2.604c-1.313-0.634-2.691-0.951-4.142-0.951c-1.477,0-2.873,0.308-4.186,0.928
	c-1.313,0.621-2.462,1.481-3.443,2.58c-0.981,1.105-1.75,2.413-2.323,3.92c-0.575,1.512-0.869,3.154-0.869,4.936
	c0,1.804,0.29,3.483,0.864,5.017c0.568,1.543,1.337,2.869,2.31,3.991c0.963,1.114,2.104,1.98,3.412,2.595
	C55.159,62.527,56.556,62.836,58.032,62.836z M78.675,65.374c-0.274,0-0.549-0.019-0.818-0.054c-0.27-0.03-0.481-0.075-0.632-0.133
	V36.805c0-0.362,0.124-0.656,0.38-0.882c0.257-0.228,0.689-0.34,1.291-0.34c0.274,0,0.548,0.013,0.817,0.046
	c0.271,0.026,0.482,0.075,0.633,0.135v28.38c0,0.362-0.124,0.663-0.385,0.875C79.704,65.259,79.276,65.374,78.675,65.374z"/>
</svg>
