<?xml version="1.0" encoding="utf-8"?>
<!-- Generator: Adobe Illustrator 16.0.3, SVG Export Plug-In . SVG Version: 6.00 Build 0)  -->
<!DOCTYPE svg PUBLIC "-//W3C//DTD SVG 1.1//EN" "http://www.w3.org/Graphics/SVG/1.1/DTD/svg11.dtd">
<svg version="1.1" id="Layer_1" xmlns="http://www.w3.org/2000/svg" xmlns:xlink="http://www.w3.org/1999/xlink" x="0px" y="0px"
	 width="99.063px" height="99.031px" viewBox="0 0 99.063 99.031" enable-background="new 0 0 99.063 99.031" xml:space="preserve">
<path fill="#1D1D1B" d="M77.941,15.828H24.032c-4.524,0-8.204,3.679-8.204,8.204V77.94c0,4.528,3.679,8.204,8.204,8.204h53.909
	c4.524,0,8.204-3.676,8.204-8.204V24.032C86.145,19.507,82.465,15.828,77.941,15.828z M81.456,77.94
	c0,1.939-1.575,3.516-3.516,3.516H24.032c-1.939,0-3.516-1.576-3.516-3.516V24.032c0-1.937,1.577-3.516,3.516-3.516h53.909
	c1.94,0,3.516,1.579,3.516,3.516V77.94z M45.5,70.438c-3.896,0-7.505-1.869-9.789-4.878c-5.897-0.616-10.508-5.647-10.508-11.738
	c0-2.909,1.078-5.686,2.946-7.816c-0.065-0.528-0.099-1.062-0.099-1.604c0-7.095,5.779-12.867,12.883-12.867
	c2.491,0,4.866,0.7,6.895,1.986c1.542-0.695,3.225-1.063,4.97-1.063c3.069,0,5.986,1.181,8.199,3.217
	c0.652-0.092,1.318-0.144,1.989-0.144c7.598,0,13.784,6.22,13.784,13.865c0,7.534-6.004,13.685-13.457,13.858
	c-2.286,2.234-5.517,3.425-8.758,3.2C52.268,68.951,49.011,70.438,45.5,70.438z M47.45,39.443c-1.499-1.959-3.86-3.22-6.516-3.22
	c-4.526,0-8.194,3.661-8.194,8.179c0,1.158,0.241,2.26,0.672,3.256c-2.104,1.231-3.52,3.531-3.52,6.165
	c0,3.931,3.152,7.113,7.041,7.113c0.497,0,0.979-0.052,1.449-0.148c1.067,2.898,3.854,4.963,7.119,4.963
	c3.136,0,5.83-1.904,6.984-4.621c0.879,0.431,1.862,0.67,2.907,0.67c2.489,0,4.664-1.373,5.805-3.405
	c0.576,0.116,1.177,0.178,1.792,0.178c5.023,0,9.096-4.106,9.096-9.175c0-5.066-4.072-9.177-9.096-9.177
	c-1.312,0-2.558,0.28-3.679,0.783c-1.292-2.303-3.724-3.86-6.51-3.86C50.702,37.146,48.809,38.027,47.45,39.443"/>
</svg>
