<?xml version="1.0" encoding="utf-8"?>
<!-- Generator: Adobe Illustrator 16.0.3, SVG Export Plug-In . SVG Version: 6.00 Build 0)  -->
<!DOCTYPE svg PUBLIC "-//W3C//DTD SVG 1.1//EN" "http://www.w3.org/Graphics/SVG/1.1/DTD/svg11.dtd">
<svg version="1.1" id="Layer_1" xmlns="http://www.w3.org/2000/svg" xmlns:xlink="http://www.w3.org/1999/xlink" x="0px" y="0px"
	 width="99.063px" height="99.031px" viewBox="0 0 99.063 99.031" enable-background="new 0 0 99.063 99.031" xml:space="preserve">
<path fill="#1D1A17" d="M63.762,61.646c3.855-5.072,6.172-11.376,6.172-18.236c0-16.68-13.521-30.197-30.197-30.197
	c-16.68,0-30.198,13.52-30.198,30.197c0,16.681,13.52,30.197,30.198,30.197c6.9,0,13.242-2.34,18.327-6.238L74.72,84.025
	c4.656,4.653,10.984,6.217,15.777,4.356L63.762,61.646z M14.92,43.409c0-13.68,11.133-24.813,24.814-24.813
	c13.681,0,24.813,11.133,24.813,24.813c0,13.687-11.135,24.813-24.813,24.813C26.054,68.223,14.92,57.094,14.92,43.409z"/>
</svg>
