<?xml version="1.0" encoding="utf-8"?>
<!-- Generator: Adobe Illustrator 16.0.3, SVG Export Plug-In . SVG Version: 6.00 Build 0)  -->
<!DOCTYPE svg PUBLIC "-//W3C//DTD SVG 1.1//EN" "http://www.w3.org/Graphics/SVG/1.1/DTD/svg11.dtd">
<svg version="1.1" id="Layer_1" xmlns="http://www.w3.org/2000/svg" xmlns:xlink="http://www.w3.org/1999/xlink" x="0px" y="0px"
	 width="99.063px" height="99.031px" viewBox="0 0 99.063 99.031" enable-background="new 0 0 99.063 99.031" xml:space="preserve">
<path fill="#1D1A17" d="M9.538,88.382c4.793,1.86,11.121,0.297,15.777-4.356l16.656-16.656c5.085,3.898,11.427,6.238,18.327,6.238
	c16.679,0,30.198-13.517,30.198-30.197c0-16.678-13.519-30.197-30.198-30.197c-16.677,0-30.197,13.518-30.197,30.197
	c0,6.86,2.316,13.164,6.172,18.236L9.538,88.382z M60.301,68.222c-13.679,0-24.813-11.127-24.813-24.813
	c0-13.68,11.133-24.813,24.813-24.813c13.682,0,24.814,11.133,24.814,24.813C85.115,57.094,73.982,68.223,60.301,68.222z"/>
</svg>
