<?xml version="1.0" encoding="utf-8"?>
<!-- Generator: Adobe Illustrator 16.0.3, SVG Export Plug-In . SVG Version: 6.00 Build 0)  -->
<!DOCTYPE svg PUBLIC "-//W3C//DTD SVG 1.1//EN" "http://www.w3.org/Graphics/SVG/1.1/DTD/svg11.dtd">
<svg version="1.1" id="Layer_1" xmlns="http://www.w3.org/2000/svg" xmlns:xlink="http://www.w3.org/1999/xlink" x="0px" y="0px"
	 width="99.063px" height="99.031px" viewBox="0 0 99.063 99.031" enable-background="new 0 0 99.063 99.031" xml:space="preserve">
<path d="M67.385,5.954H32.223c-2.929,0-5.305,2.379-5.305,5.309v76.071c0,2.928,2.376,5.304,5.305,5.304h35.162
	c2.93,0,5.311-2.376,5.311-5.304V11.263C72.696,8.334,70.315,5.954,67.385,5.954z M50.198,88.098c-1.463,0-2.635-1.177-2.635-2.635
	s1.172-2.634,2.635-2.634c1.455,0,2.636,1.178,2.636,2.634C52.833,86.919,51.653,88.098,50.198,88.098z M65.67,78.628H33.949V12.982
	H65.67V78.628z"/>
</svg>
