<?xml version="1.0" encoding="utf-8"?>
<!-- Generator: Adobe Illustrator 16.0.3, SVG Export Plug-In . SVG Version: 6.00 Build 0)  -->
<!DOCTYPE svg PUBLIC "-//W3C//DTD SVG 1.1//EN" "http://www.w3.org/Graphics/SVG/1.1/DTD/svg11.dtd">
<svg version="1.1" id="Layer_1" xmlns="http://www.w3.org/2000/svg" xmlns:xlink="http://www.w3.org/1999/xlink" x="0px" y="0px"
	 width="99.063px" height="99.031px" viewBox="0 0 99.063 99.031" enable-background="new 0 0 99.063 99.031" xml:space="preserve">
<g>
	<path d="M79.511,10.26H18.552c-5.116,0-9.276,4.161-9.276,9.276v60.959c0,5.12,4.161,9.276,9.276,9.276h60.959
		c5.114,0,9.276-4.156,9.276-9.276V19.536C88.787,14.42,84.625,10.26,79.511,10.26 M14.576,80.495V19.536
		c0-2.19,1.783-3.976,3.976-3.976h60.959c2.195,0,3.976,1.786,3.976,3.976v60.959c0,2.192-1.78,3.976-3.976,3.976H18.552
		C16.36,84.471,14.576,82.688,14.576,80.495 M20.95,41.837c-0.392,0-0.643-0.077-0.754-0.23c-0.111-0.154-0.167-0.354-0.167-0.599
		v-8.68c0-0.244,0.056-0.442,0.167-0.596c0.111-0.157,0.362-0.233,0.754-0.233h2.625c0.658,0,1.222,0.066,1.694,0.198
		c0.471,0.133,0.858,0.318,1.161,0.557c0.301,0.239,0.521,0.522,0.66,0.852c0.137,0.329,0.206,0.688,0.206,1.078
		c0,0.544-0.153,1.016-0.461,1.418c-0.308,0.403-0.731,0.694-1.272,0.875c0.71,0.167,1.237,0.476,1.583,0.921
		c0.344,0.445,0.516,0.939,0.516,1.479c0,0.966-0.329,1.702-0.986,2.203c-0.657,0.503-1.669,0.756-3.037,0.756H20.95V41.837z
		 M21.759,35.813h1.75c0.382,0,0.701-0.04,0.961-0.114c0.26-0.073,0.467-0.172,0.62-0.3c0.154-0.129,0.265-0.278,0.334-0.456
		c0.07-0.172,0.104-0.362,0.104-0.564c0-0.87-0.663-1.304-1.988-1.304h-1.781V35.813z M21.759,40.262h1.686
		c0.827,0,1.431-0.114,1.812-0.342c0.381-0.228,0.573-0.612,0.573-1.156c0-0.19-0.033-0.374-0.096-0.548
		c-0.063-0.175-0.177-0.326-0.342-0.461c-0.165-0.133-0.395-0.241-0.692-0.326c-0.296-0.082-0.683-0.126-1.161-0.126h-1.781V40.262z
		 M31.716,41.983c-0.38,0-0.742-0.067-1.081-0.191c-0.339-0.129-0.637-0.326-0.891-0.591c-0.255-0.266-0.457-0.602-0.604-1.01
		c-0.148-0.408-0.222-0.893-0.222-1.455v-3.915c0-0.212,0.063-0.387,0.19-0.523c0.127-0.14,0.356-0.206,0.685-0.206
		c0.169,0,0.334,0.007,0.492,0.023c0.159,0.016,0.282,0.035,0.366,0.056v4.421c0,0.668,0.157,1.158,0.47,1.466
		c0.312,0.304,0.713,0.46,1.199,0.46c0.351,0,0.69-0.096,1.019-0.283c0.329-0.191,0.604-0.475,0.827-0.842v-4.567
		c0-0.212,0.063-0.387,0.19-0.522c0.128-0.14,0.355-0.206,0.685-0.206c0.169,0,0.336,0.008,0.5,0.023
		c0.165,0.016,0.289,0.035,0.373,0.056v4.663c0,0.317,0.002,0.604,0.009,0.851c0.005,0.246,0.018,0.485,0.039,0.708
		c0.022,0.223,0.048,0.443,0.08,0.66c0.031,0.217,0.074,0.453,0.127,0.71c-0.255,0.114-0.551,0.172-0.891,0.172
		c-0.275,0-0.478-0.051-0.604-0.144c-0.127-0.098-0.218-0.212-0.271-0.341c-0.053-0.135-0.082-0.278-0.087-0.44
		c-0.006-0.159-0.02-0.299-0.04-0.43H34.26c-0.274,0.414-0.617,0.75-1.025,1.012C32.827,41.85,32.32,41.983,31.716,41.983z
		 M40.717,41.983c-0.413,0-0.824-0.088-1.232-0.257c-0.408-0.167-0.776-0.425-1.105-0.764c-0.329-0.339-0.594-0.756-0.795-1.259
		c-0.202-0.498-0.303-1.078-0.303-1.746c0-0.669,0.106-1.251,0.318-1.742c0.212-0.493,0.485-0.903,0.819-1.232
		s0.708-0.573,1.121-0.729c0.414-0.162,0.822-0.242,1.224-0.242c0.541,0,1.011,0.101,1.408,0.303
		c0.397,0.201,0.739,0.466,1.025,0.795v-3.358c0-0.209,0.061-0.387,0.184-0.521c0.122-0.136,0.35-0.207,0.691-0.207
		c0.159,0,0.321,0.008,0.485,0.027c0.164,0.016,0.289,0.031,0.374,0.055v7.695c0,0.575,0.007,1.092,0.023,1.558
		c0.016,0.47,0.04,0.954,0.071,1.466c-0.084,0.021-0.201,0.042-0.35,0.061c-0.148,0.021-0.313,0.031-0.493,0.031
		c-0.244,0-0.427-0.036-0.549-0.119c-0.122-0.076-0.206-0.18-0.254-0.307c-0.048-0.128-0.072-0.268-0.072-0.414
		c0-0.146,0-0.296,0-0.445h-0.016c-0.296,0.48-0.665,0.822-1.105,1.034C41.748,41.874,41.258,41.983,40.717,41.983z M41.275,40.501
		c0.38,0,0.749-0.09,1.105-0.271c0.354-0.181,0.633-0.456,0.834-0.827v-2.878c-0.202-0.363-0.478-0.629-0.827-0.804
		c-0.351-0.174-0.721-0.265-1.113-0.265c-0.341,0-0.647,0.063-0.923,0.191c-0.276,0.127-0.509,0.299-0.7,0.517
		c-0.19,0.217-0.336,0.478-0.438,0.776c-0.101,0.306-0.151,0.631-0.151,0.979c0,0.374,0.05,0.718,0.151,1.037
		c0.101,0.317,0.247,0.59,0.438,0.819c0.191,0.228,0.422,0.405,0.692,0.532C40.615,40.44,40.924,40.501,41.275,40.501z
		 M49.734,41.983c-0.414,0-0.824-0.088-1.233-0.257c-0.408-0.167-0.776-0.425-1.105-0.764c-0.329-0.339-0.593-0.756-0.794-1.259
		c-0.202-0.498-0.302-1.078-0.302-1.746c0-0.669,0.105-1.251,0.317-1.742c0.212-0.493,0.485-0.903,0.819-1.232
		s0.708-0.573,1.121-0.729c0.414-0.162,0.822-0.242,1.226-0.242c0.538,0,1.009,0.101,1.404,0.303
		c0.397,0.201,0.739,0.466,1.029,0.795v-3.358c0-0.209,0.057-0.387,0.182-0.521c0.118-0.136,0.352-0.207,0.693-0.207
		c0.157,0,0.315,0.008,0.483,0.027c0.163,0.016,0.288,0.031,0.376,0.055v7.695c0,0.575,0.005,1.092,0.021,1.558
		c0.019,0.47,0.044,0.954,0.072,1.466c-0.083,0.021-0.202,0.042-0.35,0.061c-0.147,0.018-0.313,0.031-0.494,0.031
		c-0.243,0-0.425-0.036-0.549-0.119c-0.119-0.076-0.207-0.18-0.253-0.307c-0.05-0.128-0.073-0.268-0.073-0.414
		c0-0.146,0-0.296,0-0.445h-0.016c-0.295,0.48-0.666,0.822-1.104,1.034C50.764,41.874,50.276,41.983,49.734,41.983z M50.29,40.501
		c0.385,0,0.75-0.09,1.105-0.271c0.354-0.181,0.633-0.456,0.835-0.827v-2.878c-0.202-0.363-0.477-0.629-0.827-0.804
		c-0.35-0.174-0.718-0.265-1.113-0.265c-0.339,0-0.646,0.063-0.922,0.191c-0.275,0.127-0.508,0.299-0.7,0.517
		c-0.19,0.217-0.336,0.478-0.436,0.776c-0.101,0.306-0.151,0.631-0.151,0.979c0,0.374,0.05,0.718,0.151,1.037
		c0.1,0.317,0.246,0.59,0.436,0.819c0.192,0.228,0.422,0.405,0.69,0.532C49.631,40.44,49.94,40.501,50.29,40.501z M57.541,44.905
		c-0.201,0-0.377-0.016-0.518-0.047c-0.145-0.035-0.269-0.072-0.372-0.114l1.283-2.94l-2.971-7.506
		c0.116-0.053,0.259-0.101,0.43-0.145c0.168-0.042,0.342-0.061,0.522-0.061c0.277,0,0.489,0.048,0.634,0.134
		c0.153,0.091,0.251,0.22,0.306,0.387l1.874,5.346l1.934-5.359c0.069-0.202,0.184-0.336,0.336-0.404
		c0.155-0.068,0.337-0.102,0.549-0.102c0.14,0,0.29,0.018,0.461,0.056c0.168,0.036,0.306,0.079,0.411,0.134l-3.882,9.939
		C58.37,44.677,58.038,44.905,57.541,44.905z M56.91,84.471h-5.233c0-2.531,0-5.073-0.006-7.672
		c-0.008-4.399,1.897-8.005,4.587-11.259c3.72-4.514,8.608-7.175,14.028-9.018c0.522-0.176,0.988-0.274,1.434-0.274
		c0.668,0,1.297,0.223,2.035,0.756c2.961,2.148,6.352,3.194,9.731,3.199v5.301c-4.317-0.005-8.495-1.289-12.134-3.737
		c-5.021,1.791-8.521,4.074-11.08,7.175c-2.332,2.826-3.373,5.249-3.368,7.853C56.91,79.352,56.91,81.911,56.91,84.471z
		 M83.435,20.851c0.016,0,0.036,0,0.052,0v5.301h-0.052c-3.111,0-6.044,1.227-8.267,3.453c-2.221,2.23-3.448,5.177-3.442,8.305
		c0,6.461,5.272,11.722,11.75,11.722c0.006,0,0.006,0,0.011,0v5.302h-0.005h-0.006c-9.372,0-17.046-7.662-17.051-17.022
		C66.419,28.524,74.075,20.851,83.435,20.851z"/>
</g>
</svg>
