<?xml version="1.0" encoding="utf-8"?>
<!-- Generator: Adobe Illustrator 16.0.3, SVG Export Plug-In . SVG Version: 6.00 Build 0)  -->
<!DOCTYPE svg PUBLIC "-//W3C//DTD SVG 1.1//EN" "http://www.w3.org/Graphics/SVG/1.1/DTD/svg11.dtd">
<svg version="1.1" id="Layer_1" xmlns="http://www.w3.org/2000/svg" xmlns:xlink="http://www.w3.org/1999/xlink" x="0px" y="0px"
	 width="99.063px" height="99.031px" viewBox="0 0 99.063 99.031" enable-background="new 0 0 99.063 99.031" xml:space="preserve">
<path fill="#1D1D1B" d="M88.908,42.74c-2.587-4.916-6.609-8.11-11.785-9.415c-1.438-7.28-6.672-13.475-13.935-15.936
	c-2.237-0.757-4.516-1.144-6.776-1.144c-2.32,0-4.641,0.405-6.888,1.21c-4.397,1.563-7.925,4.27-10.43,7.946
	c-1.346-0.39-2.744-0.59-4.159-0.59c-6.229,0-11.604,3.718-13.944,9.249C14.189,36.332,9.12,42.232,8.16,49.436
	c-0.998,7.561,1.79,14.065,7.854,18.325c3.438,2.413,7.112,3.637,10.926,3.637c2.378,0,4.766-0.477,7.14-1.429
	c3.73,2.947,8.055,4.569,12.907,4.822c0.445,0.026,0.882,0.036,1.319,0.036c3.938,0,7.6-0.938,10.951-2.8l15.833,13.89
	l-1.209-15.917c5.898-0.349,10.234-3.297,13.475-7.225C92.203,56.893,92.498,49.577,88.908,42.74z M82.924,59.43
	c-3.785,5.022-8.957,6.373-15.023,4.714c0.694,3.897,1.389,7.788,2.082,11.678c-0.023,0.017-0.037,0.029-0.065,0.042
	c-3.248-3.756-6.499-7.516-9.764-11.286c-3.677,3.33-7.959,4.93-12.877,4.673c-4.927-0.26-8.983-2.369-12.242-5.979
	c-5.313,3.31-10.664,3.582-15.836-0.054c-4.466-3.134-6.252-7.659-5.54-13.05c0.752-5.676,5.415-10.642,11.753-11.441
	c1.125-7.726,10.181-11.114,16.107-5.75c1.654-5.002,4.881-8.512,9.862-10.287c3.323-1.184,6.69-1.17,10.023-0.04
	c6.757,2.292,10.916,8.73,10.536,15.566c5.345,0.125,9.541,2.34,12.05,7.111C86.54,50.168,86.22,55.07,82.924,59.43z"/>
</svg>
