<?xml version="1.0" encoding="utf-8"?>
<!-- Generator: Adobe Illustrator 16.0.3, SVG Export Plug-In . SVG Version: 6.00 Build 0)  -->
<!DOCTYPE svg PUBLIC "-//W3C//DTD SVG 1.1//EN" "http://www.w3.org/Graphics/SVG/1.1/DTD/svg11.dtd">
<svg version="1.1" id="Layer_1" xmlns="http://www.w3.org/2000/svg" xmlns:xlink="http://www.w3.org/1999/xlink" x="0px" y="0px"
	 width="99.063px" height="99.031px" viewBox="0 0 99.063 99.031" enable-background="new 0 0 99.063 99.031" xml:space="preserve">
<g>
	<path fill="#1D1D1B" d="M54.43,79.713c0.322,0.164,0.979,0.364,1.805,0.385c1.411,0.031,2.18-0.506,2.752-1.781l7.591-16.927
		c-0.312-0.164-1.01-0.349-1.572-0.359c-0.979-0.023-2.291,0.177-3.124,2.172l-2.457,5.797l-4.82-7.844
		c-0.31-0.094-1.069-0.229-1.622-0.229c-1.705,0-2.656,0.623-3.643,1.698l-4.683,5.122l3.766,5.935
		c0.698,1.079,1.614,1.631,3.102,1.631c0.979,0,1.792-0.232,2.164-0.406l-4.536-6.838l3.213-3.412l5.278,8.281L54.43,79.713z
		 M44.475,73.31c0,1.251-0.492,1.97-2.928,1.97c-0.323,0-0.604-0.021-0.875-0.065V58.668c0-1.26,0.427-2.57,2.886-2.57
		c0.313,0,0.625,0.031,0.917,0.094V73.31z M39.453,70.811c0,2.334-1.521,4.031-4.611,4.364c-2.237,0.245-5.477-0.042-7.019-0.219
		c-0.05-0.25-0.089-0.563-0.089-0.813c0-2.031,1.094-2.497,2.123-2.497c1.07,0,2.757,0.185,4.005,0.185c1.389,0,1.8-0.469,1.8-0.917
		c0-0.583-0.553-0.82-1.626-1.027l-2.932-0.563c-2.438-0.472-3.739-2.159-3.739-3.945c0-2.174,1.541-3.994,4.573-4.328
		c2.286-0.249,5.077,0.031,6.606,0.219c0.055,0.261,0.083,0.508,0.083,0.781c0,2.031-1.07,2.464-2.103,2.464
		c-0.788,0-2.021-0.141-3.424-0.141c-1.424,0-2.019,0.391-2.019,0.87c0,0.508,0.561,0.718,1.456,0.875l2.8,0.515
		C38.211,67.171,39.453,68.806,39.453,70.811z M84.971,37.43c1.836,0,3.334-1.493,3.334-3.332v-6.667
		c0-1.834-1.498-3.333-3.334-3.333h-4.666v-4c0-5.146-4.186-9.334-9.334-9.334H59.388H47.089h-0.271h-12.26H22.972
		c-5.148,0-9.333,4.188-9.333,9.334v41.515c0,0.037-0.006,0.067-0.006,0.1c0.003,1.911,0.003,3.791,0.006,5.661V81.43
		c0,5.151,4.185,9.334,9.333,9.334h47.999c5.148,0,9.334-4.183,9.334-9.334v-6.666h4.666c1.836,0,3.334-1.495,3.334-3.333v-6.667
		c0-1.833-1.498-3.333-3.334-3.333h-4.666v-5.334h4.666c1.836,0,3.334-1.494,3.334-3.333v-6.667c0-1.833-1.498-3.332-3.334-3.332
		h-4.666V37.43H84.971z M56.836,16.097c1.237,1.865,1.961,4.089,1.961,6.484c-0.006,6.5-5.313,11.792-11.833,11.797
		c-6.516,0-11.822-5.291-11.822-11.797c0-2.333,0.682-4.567,1.949-6.484H56.836z M74.971,81.43c0,2.206-1.791,4.001-4,4.001H22.972
		c-2.206,0-4-1.795-4-4.001V60.991c0.174-2.352,1.186-4.607,3.315-7.185c2.575-3.12,7.427-5.417,12.481-7.219
		c3.667,2.463,7.874,3.76,12.225,3.76c4.301,0,8.574-1.313,12.241-3.734c2.906,0.97,6.758,2.273,9,3.959
		c3.588,2.697,5.692,5.638,6.608,9.249c0.084,0.334,0.105,0.698,0.131,1.056V81.43H74.971z M74.971,49.525
		c-1.08-1.167-2.277-2.25-3.602-3.24c-3.403-2.557-8.546-4.278-12.624-5.385c-0.063-0.019-0.141-0.026-0.216-0.026
		c-0.273,0-0.602,0.106-0.793,0.266c-3.179,2.568-6.955,3.875-10.743,3.875c-3.404,0-6.821-1.058-9.809-3.219
		c-0.736-0.536-1.372-0.766-2.043-0.766c-0.454,0-0.917,0.104-1.443,0.278c-5.13,1.743-10.938,4.237-14.727,8.3v-29.51
		c0-2.203,1.794-4.001,4-4.001h8.164c-0.852,2.078-1.329,4.35-1.329,6.683c0.006,9.417,7.73,17.317,17.159,17.317h0.006
		c9.435,0,17.153-7.9,17.158-17.322c0.006-2.333-0.471-4.604-1.317-6.678h8.158c2.209,0,4,1.798,4,4.001V49.525z"/>
</g>
</svg>
