<?xml version="1.0" encoding="utf-8"?>
<!-- Generator: Adobe Illustrator 16.0.3, SVG Export Plug-In . SVG Version: 6.00 Build 0)  -->
<!DOCTYPE svg PUBLIC "-//W3C//DTD SVG 1.1//EN" "http://www.w3.org/Graphics/SVG/1.1/DTD/svg11.dtd">
<svg version="1.1" id="Layer_1" xmlns="http://www.w3.org/2000/svg" xmlns:xlink="http://www.w3.org/1999/xlink" x="0px" y="0px"
	 width="99.063px" height="99.031px" viewBox="0 0 99.063 99.031" enable-background="new 0 0 99.063 99.031" xml:space="preserve">
<g>
	<path d="M79.511,10.26H18.552c-5.116,0-9.276,4.161-9.276,9.276v60.959c0,5.12,4.161,9.276,9.276,9.276h60.959
		c5.114,0,9.276-4.156,9.276-9.276V19.536C88.787,14.42,84.625,10.26,79.511,10.26 M14.576,80.495V19.536
		c0-2.19,1.783-3.976,3.976-3.976h60.959c2.195,0,3.976,1.786,3.976,3.976v60.959c0,2.192-1.78,3.976-3.976,3.976H18.552
		C16.36,84.471,14.576,82.688,14.576,80.495 M56.445,52.283c0.32,0.163,0.973,0.362,1.791,0.383
		c1.405,0.031,2.169-0.502,2.738-1.771l7.542-16.822c-0.311-0.165-1.004-0.347-1.563-0.357c-0.973-0.024-2.272,0.175-3.103,2.157
		l-2.441,5.762L56.62,33.84c-0.311-0.096-1.066-0.228-1.615-0.228c-1.698,0-2.638,0.617-3.617,1.685l-4.655,5.092l3.746,5.897
		c0.694,1.073,1.602,1.622,3.08,1.622c0.973,0,1.78-0.23,2.15-0.402l-4.51-6.797l3.195-3.392l5.246,8.232L56.445,52.283z
		 M46.548,45.921c0,1.243-0.488,1.956-2.908,1.956c-0.319,0-0.602-0.021-0.868-0.063V31.367c0-1.253,0.423-2.555,2.868-2.555
		c0.31,0,0.62,0.032,0.909,0.093V45.921z M41.558,43.438c0,2.319-1.512,4.007-4.583,4.335c-2.225,0.245-5.442-0.039-6.974-0.215
		c-0.05-0.249-0.089-0.559-0.089-0.81c0-2.018,1.086-2.481,2.109-2.481c1.065,0,2.741,0.185,3.981,0.185
		c1.378,0,1.789-0.466,1.789-0.911c0-0.581-0.549-0.816-1.614-1.023l-2.916-0.559c-2.421-0.469-3.715-2.145-3.715-3.92
		c0-2.163,1.532-3.973,4.542-4.305c2.275-0.248,5.047,0.033,6.568,0.218c0.053,0.26,0.083,0.506,0.083,0.776
		c0,2.02-1.065,2.448-2.088,2.448c-0.785,0-2.009-0.14-3.404-0.14c-1.415,0-2.006,0.39-2.006,0.867c0,0.503,0.557,0.712,1.447,0.868
		l2.784,0.513C40.324,39.816,41.558,41.442,41.558,43.438z M20.841,68.418c-0.18,0-0.336-0.016-0.468-0.057
		c-0.132-0.036-0.246-0.072-0.342-0.119l1.052-10.065c0.149-0.06,0.339-0.114,0.577-0.153c0.239-0.036,0.443-0.054,0.61-0.054
		c0.475,0,0.834,0.069,1.084,0.215c0.248,0.145,0.417,0.394,0.498,0.756l1.75,6.915l1.765-6.869
		c0.084-0.362,0.254-0.621,0.506-0.781c0.253-0.16,0.604-0.238,1.049-0.238c0.212,0,0.43,0.016,0.652,0.047
		c0.223,0.036,0.408,0.069,0.557,0.113l0.994,10.112c-0.106,0.044-0.23,0.081-0.374,0.119c-0.144,0.039-0.305,0.055-0.485,0.055
		c-0.243,0-0.445-0.041-0.604-0.124s-0.249-0.243-0.271-0.479l-0.676-8.173l-1.94,7.233c-0.085,0.301-0.23,0.5-0.438,0.614
		c-0.207,0.108-0.468,0.162-0.787,0.162c-0.159,0-0.326-0.01-0.501-0.03c-0.175-0.021-0.321-0.055-0.438-0.099l-2.192-7.887
		l-0.739,8.192c-0.022,0.223-0.111,0.378-0.271,0.46C21.256,68.377,21.065,68.418,20.841,68.418z M34.915,68.468
		c-0.413,0-0.782-0.06-1.105-0.185c-0.324-0.118-0.593-0.284-0.81-0.496c-0.217-0.213-0.382-0.461-0.493-0.735
		c-0.111-0.285-0.167-0.585-0.167-0.903c0-0.386,0.066-0.728,0.198-1.049c0.133-0.315,0.336-0.59,0.612-0.82
		c0.276-0.228,0.624-0.4,1.042-0.53c0.419-0.13,0.92-0.191,1.502-0.191c0.551,0,1.178,0.062,1.876,0.191v-0.403
		c0-0.519-0.116-0.886-0.349-1.104c-0.233-0.217-0.652-0.325-1.257-0.325c-0.307,0-0.577,0.018-0.81,0.057
		c-0.234,0.036-0.443,0.075-0.629,0.124c-0.185,0.049-0.35,0.093-0.493,0.13c-0.143,0.036-0.278,0.054-0.405,0.054
		c-0.223,0-0.387-0.096-0.493-0.287c-0.106-0.187-0.159-0.419-0.159-0.699c0-0.052,0-0.104,0-0.149c0-0.047,0.005-0.099,0.017-0.15
		c0.35-0.119,0.784-0.228,1.303-0.326c0.52-0.104,1.098-0.155,1.734-0.155c0.615,0,1.126,0.067,1.534,0.207
		c0.409,0.137,0.738,0.342,0.986,0.611c0.25,0.271,0.424,0.6,0.525,0.983c0.1,0.388,0.15,0.836,0.15,1.346v1.672
		c0,0.315,0.003,0.604,0.009,0.854c0.005,0.259,0.021,0.497,0.046,0.719c0.027,0.223,0.062,0.443,0.104,0.66
		c0.043,0.218,0.101,0.453,0.175,0.712c-0.094,0.042-0.213,0.075-0.357,0.108c-0.144,0.031-0.311,0.05-0.501,0.05
		c-0.212,0-0.384-0.039-0.517-0.122c-0.133-0.077-0.237-0.184-0.311-0.315c-0.074-0.135-0.124-0.29-0.151-0.471
		c-0.026-0.179-0.045-0.368-0.056-0.57h-0.016c-0.126,0.202-0.273,0.392-0.437,0.58c-0.165,0.187-0.359,0.347-0.581,0.484
		c-0.223,0.137-0.474,0.246-0.755,0.326C35.597,68.429,35.276,68.468,34.915,68.468z M35.377,67.067
		c0.508,0,0.951-0.147,1.328-0.445c0.376-0.295,0.67-0.668,0.883-1.113v-0.668c-0.541-0.093-1.024-0.142-1.447-0.142
		c-0.7,0-1.223,0.113-1.567,0.342c-0.344,0.228-0.517,0.554-0.517,0.978c0,0.34,0.122,0.599,0.365,0.779
		C34.667,66.979,34.985,67.067,35.377,67.067z M43.757,68.452c-0.509,0-1.035-0.05-1.582-0.153
		c-0.546-0.098-1.074-0.237-1.583-0.419c-0.01-0.052-0.018-0.108-0.023-0.166c-0.005-0.057-0.008-0.113-0.008-0.165
		c0-0.274,0.058-0.497,0.175-0.668s0.281-0.259,0.493-0.259c0.127,0,0.278,0.021,0.453,0.064c0.175,0.044,0.366,0.094,0.572,0.153
		c0.207,0.057,0.438,0.108,0.692,0.149c0.253,0.044,0.524,0.063,0.81,0.063c0.318,0,0.576-0.023,0.771-0.072
		c0.196-0.047,0.348-0.109,0.454-0.187c0.106-0.08,0.177-0.166,0.215-0.274c0.036-0.099,0.056-0.207,0.056-0.326
		c0-0.233-0.091-0.406-0.271-0.533c-0.181-0.119-0.498-0.243-0.955-0.373l-1.128-0.315c-0.859-0.243-1.458-0.544-1.798-0.9
		c-0.339-0.354-0.508-0.798-0.508-1.325c0-0.29,0.058-0.564,0.175-0.828c0.116-0.26,0.3-0.497,0.548-0.699
		c0.25-0.202,0.571-0.365,0.963-0.486c0.392-0.122,0.869-0.182,1.432-0.182c0.921,0,1.892,0.168,2.909,0.508
		c0,0.052,0.002,0.098,0.008,0.134c0.006,0.037,0.009,0.078,0.009,0.119c0,0.309-0.056,0.549-0.167,0.725
		c-0.111,0.177-0.285,0.265-0.518,0.265s-0.527-0.058-0.883-0.166c-0.354-0.113-0.807-0.168-1.358-0.168
		c-0.51,0-0.867,0.064-1.074,0.191s-0.31,0.298-0.31,0.521c0,0.098,0.013,0.181,0.039,0.259c0.027,0.072,0.08,0.145,0.159,0.207
		c0.08,0.062,0.191,0.124,0.334,0.181c0.144,0.058,0.336,0.119,0.581,0.182l1.192,0.334c0.87,0.246,1.481,0.546,1.837,0.908
		c0.354,0.362,0.532,0.818,0.532,1.369c0,0.282-0.051,0.569-0.152,0.847c-0.1,0.282-0.271,0.533-0.516,0.75
		c-0.243,0.218-0.575,0.394-0.994,0.531C44.921,68.382,44.393,68.452,43.757,68.452z M51.451,68.452
		c-0.411,0-0.781-0.065-1.105-0.199c-0.323-0.132-0.596-0.316-0.819-0.557c-0.223-0.238-0.392-0.521-0.509-0.842
		c-0.116-0.325-0.174-0.683-0.174-1.071V62.01h-1.209c-0.022-0.07-0.038-0.166-0.048-0.282s-0.016-0.233-0.016-0.35
		c0-0.269,0.056-0.45,0.167-0.557c0.111-0.105,0.251-0.163,0.421-0.163h0.685v-1.097c0-0.125,0.013-0.249,0.039-0.365
		c0.027-0.116,0.075-0.223,0.144-0.318c0.069-0.093,0.17-0.166,0.302-0.223c0.133-0.052,0.311-0.077,0.533-0.077
		c0.255,0,0.483,0.038,0.683,0.108v1.972h2.607c0.055,0.163,0.081,0.373,0.081,0.637c0,0.265-0.055,0.451-0.169,0.557
		c-0.108,0.106-0.251,0.158-0.419,0.158h-2.101v3.706c0,0.404,0.096,0.715,0.287,0.938c0.19,0.228,0.472,0.336,0.84,0.336
		c0.161,0,0.301-0.016,0.43-0.046c0.127-0.034,0.241-0.073,0.342-0.114c0.102-0.041,0.197-0.078,0.285-0.108
		c0.088-0.034,0.176-0.05,0.264-0.05c0.202,0,0.36,0.07,0.479,0.205c0.114,0.14,0.174,0.356,0.174,0.652c0,0.054,0,0.108,0,0.165
		s-0.005,0.114-0.016,0.166c-0.308,0.181-0.634,0.32-0.979,0.43C52.308,68.397,51.909,68.452,51.451,68.452z M58.37,68.517
		c-0.647,0-1.228-0.104-1.734-0.303c-0.508-0.202-0.938-0.484-1.289-0.844c-0.347-0.36-0.616-0.787-0.803-1.281
		c-0.186-0.492-0.274-1.025-0.274-1.597c0-0.572,0.094-1.101,0.285-1.582c0.187-0.481,0.45-0.9,0.787-1.258
		c0.331-0.354,0.725-0.632,1.186-0.833c0.455-0.202,0.947-0.303,1.475-0.303c0.596,0,1.124,0.108,1.579,0.326
		c0.455,0.217,0.833,0.504,1.137,0.866c0.303,0.36,0.53,0.77,0.683,1.225c0.158,0.456,0.233,0.924,0.233,1.4
		c0,0.264-0.026,0.528-0.08,0.795h-5.519c0.075,0.613,0.315,1.084,0.722,1.405c0.407,0.326,0.945,0.486,1.613,0.486
		c0.284,0,0.538-0.021,0.75-0.063c0.207-0.044,0.398-0.093,0.569-0.152c0.174-0.06,0.326-0.108,0.461-0.152
		c0.143-0.042,0.277-0.063,0.414-0.063c0.191,0,0.347,0.086,0.472,0.254c0.121,0.171,0.181,0.398,0.181,0.684
		c0,0.057,0,0.113-0.011,0.176c-0.005,0.062-0.01,0.129-0.021,0.191c-0.32,0.15-0.72,0.29-1.195,0.419
		C59.514,68.449,58.976,68.517,58.37,68.517z M60.011,63.889c-0.057-0.574-0.248-1.054-0.585-1.439
		c-0.331-0.388-0.808-0.579-1.424-0.579c-0.579,0-1.045,0.181-1.387,0.554c-0.348,0.373-0.544,0.856-0.601,1.465H60.011z
		 M63.966,68.437c-0.161,0-0.321-0.008-0.487-0.023c-0.165-0.016-0.287-0.036-0.372-0.057v-7.633
		c0.119-0.034,0.238-0.06,0.357-0.088c0.124-0.026,0.259-0.039,0.408-0.039c0.326,0,0.564,0.088,0.704,0.261
		c0.146,0.174,0.218,0.412,0.218,0.707v0.56h0.031c0.212-0.519,0.497-0.911,0.859-1.168c0.359-0.261,0.776-0.386,1.255-0.386
		c0.158,0,0.306,0.006,0.438,0.023c0.135,0.016,0.259,0.034,0.373,0.055c0.064,0.223,0.098,0.424,0.098,0.608
		c0,0.593-0.3,0.89-0.89,0.89h-0.29c-0.546,0-0.994,0.143-1.325,0.428c-0.337,0.284-0.5,0.729-0.5,1.338v3.802
		c0,0.21-0.06,0.384-0.179,0.523C64.535,68.366,64.308,68.437,63.966,68.437z M71.379,68.341c-0.021-0.086-0.037-0.187-0.047-0.313
		c-0.011-0.121-0.016-0.254-0.016-0.391c0-0.179,0.036-0.394,0.108-0.642c0.072-0.244,0.202-0.445,0.383-0.596l2.863-2.56
		c0.306-0.265,0.579-0.51,0.813-0.732s0.43-0.44,0.588-0.652c0.163-0.207,0.282-0.42,0.367-0.632
		c0.083-0.212,0.127-0.439,0.127-0.684c0-0.51-0.152-0.916-0.461-1.216c-0.306-0.303-0.779-0.456-1.413-0.456
		c-0.321,0-0.604,0.044-0.849,0.13c-0.254,0.083-0.477,0.176-0.673,0.284c-0.192,0.104-0.373,0.199-0.528,0.285
		c-0.16,0.083-0.311,0.127-0.445,0.127c-0.238,0-0.425-0.109-0.564-0.326c-0.145-0.215-0.228-0.516-0.248-0.898
		c0.372-0.295,0.841-0.566,1.424-0.813c0.574-0.243,1.231-0.362,1.959-0.362c1.146,0,2.031,0.287,2.655,0.875
		c0.627,0.579,0.939,1.351,0.939,2.301c0,0.375-0.057,0.717-0.168,1.038c-0.108,0.315-0.267,0.615-0.466,0.905
		c-0.202,0.285-0.435,0.554-0.701,0.811c-0.27,0.256-0.56,0.505-0.875,0.748l-2.482,2.148h4.786c0.054,0.188,0.08,0.445,0.08,0.761
		c0,0.328-0.064,0.554-0.199,0.678c-0.132,0.119-0.301,0.182-0.5,0.182H71.379z"/>
</g>
</svg>
