<?xml version="1.0" encoding="utf-8"?>
<!-- Generator: Adobe Illustrator 16.0.3, SVG Export Plug-In . SVG Version: 6.00 Build 0)  -->
<!DOCTYPE svg PUBLIC "-//W3C//DTD SVG 1.1//EN" "http://www.w3.org/Graphics/SVG/1.1/DTD/svg11.dtd">
<svg version="1.1" id="Layer_1" xmlns="http://www.w3.org/2000/svg" xmlns:xlink="http://www.w3.org/1999/xlink" x="0px" y="0px"
	 width="99.063px" height="99.031px" viewBox="0 0 99.063 99.031" enable-background="new 0 0 99.063 99.031" xml:space="preserve">
<path d="M49.772,82.889c7.802,0,14.973-2.795,20.547-7.448l0.674,0.698l0.042-0.057c1.301,1.235,9.585,7.123,9.69,7.186
	c0.084,0.057,0.283,0.191,0.566,0.191c0.206,0,0.4-0.07,0.62-0.245c0,0,0.523-0.51,0.662-0.642c0.146-0.165,0.478-0.626-0.017-1.241
	l-7.255-9.435l-0.738-0.701c4.594-5.568,7.351-12.691,7.351-20.447c0-17.732-14.429-32.148-32.145-32.148
	c-17.73,0-32.148,14.416-32.148,32.147C17.623,68.474,32.041,82.889,49.772,82.889 M49.772,21.168
	c16.306,0,29.576,13.269,29.576,29.579c0,7.064-2.499,13.558-6.667,18.652l-0.983-0.946l-1.528-1.17
	c-6.043-4.629-8.209-6.271-8.289-6.335c-0.108-0.071-0.347-0.258-0.65-0.258c-0.152,0-0.372,0.039-0.591,0.252l-0.608,0.581
	c-0.415,0.376-0.442,0.822-0.08,1.346l7.63,9.699l0.967,1.01c-5.117,4.21-11.654,6.741-18.775,6.741
	c-16.308,0-29.58-13.266-29.58-29.572C20.193,34.437,33.464,21.168,49.772,21.168"/>
</svg>
