<?xml version="1.0" encoding="utf-8"?>
<!-- Generator: Adobe Illustrator 16.0.3, SVG Export Plug-In . SVG Version: 6.00 Build 0)  -->
<!DOCTYPE svg PUBLIC "-//W3C//DTD SVG 1.1//EN" "http://www.w3.org/Graphics/SVG/1.1/DTD/svg11.dtd">
<svg version="1.1" id="Layer_1" xmlns="http://www.w3.org/2000/svg" xmlns:xlink="http://www.w3.org/1999/xlink" x="0px" y="0px"
	 width="99.063px" height="99.031px" viewBox="0 0 99.063 99.031" enable-background="new 0 0 99.063 99.031" xml:space="preserve">
<path d="M26.512,10.393c0.395-0.424,1.097-0.636,2.106-0.636c0.504,0,1.002,0.026,1.49,0.068c0.49,0.051,0.858,0.107,1.114,0.169
	v1.964v0.023v11.391c0,0.627-0.197,1.161-0.595,1.584c-0.392,0.424-1.095,0.636-2.107,0.636c-0.501,0-1-0.021-1.489-0.065
	c-0.488-0.05-0.856-0.106-1.111-0.167v-1.987V11.959h0.003C25.928,11.342,26.121,10.817,26.512,10.393z M65.683,11.959
	L65.683,11.959l-0.004,11.415v1.987c0.255,0.061,0.621,0.117,1.111,0.165c0.493,0.046,0.987,0.065,1.487,0.065
	c1.014,0,1.714-0.212,2.107-0.636c0.397-0.423,0.595-0.954,0.595-1.582V11.982v-0.023V9.995c-0.253-0.061-0.621-0.119-1.113-0.167
	c-0.486-0.045-0.986-0.071-1.49-0.071c-1.01,0-1.712,0.212-2.107,0.636C65.881,10.817,65.688,11.342,65.683,11.959z M63.029,20.359
	v-5.302H33.872v5.302H63.029z M89.534,24.335v55.661c0,5.121-4.163,9.278-9.278,9.278H19.293c-5.115,0-9.276-4.157-9.276-9.278
	V24.335c0-5.116,4.161-9.277,9.276-9.277h3.977v5.302h-3.977c-2.192,0-3.976,1.786-3.976,3.976v55.661
	c0,2.193,1.784,3.978,3.976,3.978h60.963c2.195,0,3.978-1.784,3.978-3.978V24.335c0-2.19-1.782-3.976-3.978-3.976H73.63v-5.302
	h6.626C85.371,15.058,89.534,19.219,89.534,24.335z M63.862,48.567l-6.38-9.998l-3.875,4.116l5.483,8.257
	c-0.47,0.224-1.439,0.495-2.62,0.495c-1.802,0-2.899-0.668-3.749-1.975l-4.546-7.159l5.664-6.186
	c1.187-1.293,2.335-2.055,4.381-2.055c0.672,0,1.6,0.17,1.958,0.284l5.829,9.474l2.967-7.006c1.016-2.408,2.583-2.648,3.772-2.63
	c0.681,0.022,1.512,0.252,1.892,0.45l-9.15,20.442c-0.697,1.519-1.626,2.17-3.339,2.143c-0.991-0.031-1.782-0.264-2.176-0.46
	L63.862,48.567z M47.957,28.348c-0.354-0.078-0.724-0.106-1.111-0.106c-2.961,0-3.48,1.576-3.48,3.095v19.985
	c0.324,0.049,0.668,0.068,1.059,0.068c2.947,0,3.533-0.865,3.533-2.373V28.348z M41.887,46.008c0-2.431-1.493-4.402-4.957-5.049
	l-3.384-0.62c-1.081-0.187-1.766-0.451-1.766-1.058c0-0.583,0.723-1.063,2.449-1.063c1.693,0,3.178,0.187,4.137,0.187
	c1.239,0,2.534-0.534,2.534-2.978c0-0.326-0.045-0.629-0.109-0.951c-1.838-0.223-5.205-0.559-7.975-0.255
	c-3.66,0.403-5.514,2.595-5.514,5.226c0,2.162,1.576,4.203,4.517,4.762l3.528,0.679c1.296,0.25,1.969,0.538,1.969,1.254
	c0,0.539-0.5,1.098-2.175,1.098c-1.506,0-3.546-0.218-4.846-0.218c-1.232,0-2.561,0.555-2.561,3.012
	c0,0.289,0.054,0.682,0.127,0.973c1.843,0.213,5.764,0.56,8.463,0.267C40.048,50.861,41.887,48.815,41.887,46.008 M34.259,64.472
	h-2.577v2.923h2.579c1.281,0,1.915-0.518,1.915-1.512C36.173,64.948,35.542,64.472,34.259,64.472z M15.318,58.854v17.233h68.916
	V58.854H15.318z M23.561,73.081c-2.089,0-4.13-0.108-5.079-0.208c-0.037-0.149-0.045-0.331-0.045-0.482
	c0-1.282,0.663-1.587,1.308-1.587c1.405,0,2.128,0.108,3.679,0.108c1.306,0,1.864-0.234,1.864-0.855
	c0-0.454-0.393-0.765-1.125-0.946l-3.138-0.723c-1.822-0.435-2.849-1.324-2.849-2.96c0-1.738,1.212-3.103,4.36-3.103
	c2.089,0,3.782,0.099,4.723,0.168c0.037,0.165,0.055,0.344,0.055,0.496c0,1.276-0.663,1.591-1.322,1.591
	c-1.404,0-1.76-0.082-3.314-0.082c-1.319,0-1.809,0.233-1.809,0.85c0,0.579,0.468,0.743,1.045,0.866l3.128,0.717
	c1.798,0.395,2.916,1.229,2.916,2.961C27.958,71.735,26.715,73.081,23.561,73.081z M34.37,69.521h-2.688v2.172
	c0,0.823-0.371,1.28-1.945,1.28c-0.226,0-0.451-0.02-0.638-0.047v-8.948c0-1.118,0.392-1.613,1.664-1.613h3.777
	c2.753,0,4.219,1.223,4.219,3.513C38.756,68.261,37.291,69.521,34.37,69.521z M48.609,71.756c-0.893,0.807-2.177,1.201-3.848,1.201
	c-1.657,0-2.94-0.395-3.835-1.201c-0.905-0.787-1.363-2.216-1.363-4.24c0.018-1.99,0.478-3.391,1.408-4.214
	c0.932-0.809,2.193-1.212,3.79-1.212c1.608,0,2.872,0.403,3.806,1.212c0.933,0.823,1.385,2.224,1.408,4.214
	C49.973,69.54,49.513,70.969,48.609,71.756z M59.658,73.102c-1.074,0-1.532-0.305-2.008-0.891l-2.532-3.025h-1.32l0.021,2.505
	c0,0.825-0.367,1.276-1.944,1.276c-0.225,0-0.446-0.015-0.639-0.043V63.97c0-1.146,0.414-1.568,1.671-1.614l3.835,0.004
	c2.695,0,4.031,1.077,4.031,3.267c0,1.775-0.937,2.977-2.791,3.369l3.29,3.812C60.875,72.999,60.383,73.102,59.658,73.102z
	 M69.645,64.539h-2.07v7.153c0,0.829-0.373,1.28-1.952,1.28c-0.217,0-0.445-0.02-0.631-0.047v-8.389h-3.405
	c-0.027-0.162-0.049-0.353-0.049-0.5c0-1.349,0.701-1.673,1.383-1.673h8.047c0.039,0.163,0.044,0.353,0.044,0.511
	C71.011,64.223,70.325,64.539,69.645,64.539z M76.975,73.081c-2.086,0-4.136-0.108-5.086-0.208
	c-0.024-0.149-0.045-0.331-0.045-0.482c0-1.282,0.664-1.587,1.315-1.587c1.412,0,2.12,0.108,3.671,0.108
	c1.31,0,1.864-0.234,1.864-0.855c0-0.454-0.395-0.765-1.124-0.946l-3.131-0.723c-1.821-0.435-2.844-1.324-2.844-2.96
	c0-1.738,1.2-3.103,4.346-3.103c2.089,0,3.785,0.099,4.738,0.168c0.02,0.165,0.041,0.344,0.041,0.496
	c0,1.276-0.663,1.591-1.309,1.591c-1.407,0-1.775-0.082-3.329-0.082c-1.31,0-1.8,0.233-1.8,0.85c0,0.579,0.477,0.743,1.039,0.866
	l3.144,0.717c1.781,0.395,2.906,1.229,2.906,2.961C81.37,71.735,80.12,73.081,76.975,73.081z M46.7,64.948
	c0.412,0.497,0.615,1.346,0.615,2.567s-0.203,2.065-0.615,2.583c-0.392,0.519-1.052,0.751-1.939,0.751
	c-0.894-0.01-1.546-0.269-1.951-0.751c-0.409-0.496-0.615-1.346-0.615-2.583c0-1.222,0.215-2.07,0.623-2.567
	c0.411-0.5,1.067-0.746,1.943-0.746C45.646,64.202,46.287,64.448,46.7,64.948z M58.203,65.725c0,0.938-0.637,1.376-1.901,1.376
	h-2.483v-2.644h2.483C57.354,64.457,58.203,64.617,58.203,65.725z"/>
</svg>
