<?xml version="1.0" encoding="utf-8"?>
<!-- Generator: Adobe Illustrator 16.0.3, SVG Export Plug-In . SVG Version: 6.00 Build 0)  -->
<!DOCTYPE svg PUBLIC "-//W3C//DTD SVG 1.1//EN" "http://www.w3.org/Graphics/SVG/1.1/DTD/svg11.dtd">
<svg version="1.1" id="Layer_1" xmlns="http://www.w3.org/2000/svg" xmlns:xlink="http://www.w3.org/1999/xlink" x="0px" y="0px"
	 width="34px" height="34px" viewBox="0 0 34 34" enable-background="new 0 0 34 34" xml:space="preserve">
<g id="GUIDES" display="none">
</g>
<path id="star_x5F_empty_4_" fill="#1D1A17" d="M17,4.659l2.999,7.538l0.457,1.15l1.233,0.104l7.981,0.672l-6.147,5.506
	l-0.877,0.786l0.263,1.147l1.85,8.108L18.076,25.4L17,24.717l-1.077,0.688L9.242,29.67l1.849-8.105l0.262-1.146l-0.878-0.786
	l-6.149-5.508l7.984-0.669l1.233-0.104l0.458-1.15L17,4.659 M17,2.104c-0.712,0-1.319,0.459-1.625,1.229l-3.232,8.126l-8.39,0.703
	c-0.794,0.066-1.399,0.528-1.619,1.236c-0.22,0.708,0.01,1.454,0.615,1.996l6.392,5.725L7.188,29.68
	c-0.193,0.848,0.107,1.41,0.304,1.67c0.312,0.414,0.783,0.649,1.295,0.649c0.349,0,0.696-0.108,1.031-0.321L17,27.09l7.184,4.588
	c0.334,0.215,0.68,0.322,1.03,0.322c0.511,0,0.983-0.236,1.295-0.648c0.196-0.261,0.497-0.822,0.304-1.672l-1.953-8.561l6.394-5.726
	c0.604-0.542,0.835-1.288,0.615-1.995c-0.222-0.708-0.825-1.17-1.619-1.236l-8.392-0.704l-3.23-8.126
	C18.318,2.563,17.711,2.104,17,2.104L17,2.104z"/>
</svg>
