<?xml version="1.0" encoding="utf-8"?>
<!-- Generator: Adobe Illustrator 16.0.3, SVG Export Plug-In . SVG Version: 6.00 Build 0)  -->
<!DOCTYPE svg PUBLIC "-//W3C//DTD SVG 1.1//EN" "http://www.w3.org/Graphics/SVG/1.1/DTD/svg11.dtd">
<svg version="1.1" id="Layer_1" xmlns="http://www.w3.org/2000/svg" xmlns:xlink="http://www.w3.org/1999/xlink" x="0px" y="0px"
	 width="99.063px" height="99.031px" viewBox="0 0 99.063 99.031" enable-background="new 0 0 99.063 99.031" xml:space="preserve">
<path d="M90.066,84.023c-0.85,1.474-2.619,2.291-4.977,2.291H15.005c-2.356,0-4.125-0.817-4.979-2.291
	c-0.848-1.475-0.67-3.405,0.51-5.438l35.336-62.378c1.177-2.028,2.767-3.15,4.471-3.15c1.706,0,3.292,1.122,4.467,3.15l34.75,62.378
	C90.737,80.618,90.916,82.545,90.066,84.023z M84.666,80.908L50.338,19.289L15.429,80.908H84.666z M47.852,57.414l-1.482-19.745
	c0-0.77,0.291-1.421,0.864-1.941c0.576-0.521,1.475-0.771,2.74-0.771c0.639,0,1.278,0.036,1.895,0.105
	c0.626,0.071,1.098,0.146,1.423,0.216l0.201,0.046l-1.328,20.66c-0.044,0.483-0.213,0.9-0.528,1.275
	c-0.333,0.396-0.874,0.588-1.661,0.588c-0.586,0-1.251-0.132-1.969-0.377L47.852,57.414z M50.011,63.886
	c-1.207,0-2.25,0.435-3.116,1.306c-0.87,0.863-1.303,1.933-1.303,3.184c0,1.209,0.433,2.249,1.303,3.12
	c0.866,0.868,1.909,1.307,3.116,1.307c1.256,0,2.317-0.438,3.189-1.307c0.868-0.871,1.303-1.911,1.303-3.12
	c0-1.251-0.435-2.313-1.303-3.184C52.334,64.32,51.268,63.886,50.011,63.886z"/>
</svg>
