<?xml version="1.0" encoding="utf-8"?>
<!-- Generator: Adobe Illustrator 16.0.3, SVG Export Plug-In . SVG Version: 6.00 Build 0)  -->
<!DOCTYPE svg PUBLIC "-//W3C//DTD SVG 1.1//EN" "http://www.w3.org/Graphics/SVG/1.1/DTD/svg11.dtd">
<svg version="1.1" id="Layer_1" xmlns="http://www.w3.org/2000/svg" xmlns:xlink="http://www.w3.org/1999/xlink" x="0px" y="0px"
	 width="99.063px" height="99.031px" viewBox="0 0 99.063 99.031" enable-background="new 0 0 99.063 99.031" xml:space="preserve">
<path d="M49.969,16.133c19.491,0,35.346,15.854,35.346,35.345c0,19.491-15.854,35.346-35.346,35.346
	c-19.49,0-35.344-15.854-35.344-35.346C14.625,31.987,30.479,16.133,49.969,16.133 M49.969,11.084
	c-22.31,0-40.394,18.087-40.394,40.395s18.084,40.394,40.394,40.394c22.311,0,40.394-18.086,40.394-40.394
	C90.362,29.171,72.279,11.084,49.969,11.084L49.969,11.084z"/>
<path d="M51.808,55.309c0.456-0.729,1.061-1.412,1.805-2.033c0.72-0.6,1.582-1.195,2.566-1.773c0.959-0.559,2.063-1.189,3.32-1.889
	c0.766-0.398,1.519-0.897,2.262-1.479c0.709-0.561,1.35-1.233,1.897-2c0.55-0.76,0.999-1.64,1.352-2.604
	c0.343-0.947,0.518-2.048,0.518-3.27c0-1.575-0.309-3.048-0.917-4.38c-0.608-1.326-1.52-2.495-2.686-3.473
	c-1.188-0.989-2.685-1.769-4.464-2.325c-1.793-0.557-3.864-0.841-6.157-0.841c-2.618,0-5.229,0.402-7.761,1.192
	c-2.388,0.744-4.389,1.628-5.961,2.625c0.078,1.375,0.386,2.471,0.921,3.254c0.533,0.777,1.161,1.156,1.923,1.156
	c0.562,0,1.129-0.114,1.682-0.339l2.162-0.873c0.847-0.336,1.842-0.639,2.951-0.898c1.134-0.265,2.505-0.402,4.083-0.402
	c2.367,0,4.253,0.55,5.596,1.64c1.385,1.124,2.081,2.615,2.081,4.433c0,1.169-0.354,2.187-1.055,3.021
	c-0.637,0.759-1.452,1.479-2.431,2.14c-0.942,0.631-1.949,1.279-3.028,1.936c-1.023,0.626-2,1.371-2.896,2.222
	c-0.875,0.831-1.604,1.829-2.169,2.964c-0.557,1.108-0.843,2.492-0.843,4.11c0,0.313,0.016,0.633,0.037,0.968
	c0.015,0.212,0.032,0.43,0.052,0.65c0.721,0.221,1.392,0.33,2.001,0.33c0.761,0,1.309-0.151,1.625-0.459
	c0.344-0.324,0.553-0.655,0.62-0.991C51.034,56.943,51.345,56.054,51.808,55.309z"/>
<g>
	<path d="M48.699,76.486c-1.196,0-2.227-0.428-3.09-1.291c-0.862-0.862-1.292-1.893-1.292-3.093c0-1.241,0.43-2.297,1.292-3.156
		c0.863-0.863,1.894-1.3,3.09-1.3c1.244,0,2.301,0.434,3.16,1.3c0.863,0.864,1.294,1.915,1.294,3.156c0,1.2-0.432,2.229-1.294,3.093
		C51,76.059,49.944,76.486,48.699,76.486z"/>
</g>
</svg>
