<?xml version="1.0" encoding="utf-8"?>
<!-- Generator: Adobe Illustrator 16.0.3, SVG Export Plug-In . SVG Version: 6.00 Build 0)  -->
<!DOCTYPE svg PUBLIC "-//W3C//DTD SVG 1.1//EN" "http://www.w3.org/Graphics/SVG/1.1/DTD/svg11.dtd">
<svg version="1.1" id="Layer_1" xmlns="http://www.w3.org/2000/svg" xmlns:xlink="http://www.w3.org/1999/xlink" x="0px" y="0px"
	 width="99.063px" height="99.031px" viewBox="0 0 99.063 99.031" enable-background="new 0 0 99.063 99.031" xml:space="preserve">
<g>
	<path d="M84.738,68.171c-1.674-2.481-3.729-4.798-6.286-7.087c-3.173-2.842-7.043-6.054-11.72-8.363
		c-1.324-0.651-2.351-0.943-3.32-0.943c-1.472,0-2.837,0.667-4.566,2.229c-0.584,0.534-1.126,1.121-1.593,1.637l-0.032,0.035
		c-0.38,0.414-0.773,0.838-1.182,1.231c-0.716,0.698-1.188,0.968-1.679,0.968c-0.412,0-0.882-0.187-1.621-0.639
		c-3.554-2.213-6.739-5.061-9.733-8.701c-0.835-1.016-1.58-2.155-2.304-3.258l-0.057-0.088c-0.238-0.366-0.479-0.732-0.722-1.096
		c-0.52-0.773-0.462-1.43,0.188-2.137c0.236-0.254,0.488-0.507,0.731-0.746l0.021-0.021c0.328-0.325,0.665-0.661,0.974-1.016
		l0.657-0.751c0.88-0.997,1.791-2.026,2.573-3.143c0.83-1.175,0.921-2.669,0.257-4.101l-0.377-0.824
		c-0.543-1.197-1.108-2.434-1.837-3.574c-2.889-4.513-6.335-8.623-10.243-12.222c-1.442-1.326-3.182-2.431-4.59-3.33
		c-1.206-0.769-2.709-0.815-3.862-0.124c-6.001,3.601-9.094,8.782-9.191,15.409c0.054,0.428,0.099,0.847,0.146,1.276l0.018,0.147
		c0.108,1.029,0.219,2.095,0.435,3.15c0.983,4.762,3.023,9.372,6.423,14.514c7.578,11.459,17.319,21.158,28.953,28.825
		c4.626,3.049,9.038,5.034,13.488,6.054c1.904,0.436,3.749,0.656,5.48,0.656c6.086,0,10.99-2.713,14.575-8.068
		C86.207,71.887,86.204,70.344,84.738,68.171z M38.775,36.66c-0.269,0.298-0.542,0.585-0.82,0.878
		c-0.729,0.769-1.48,1.563-2.124,2.44c-1.227,1.677-1.373,3.649-0.406,5.416c1.034,1.893,2.186,3.882,3.572,5.623
		c3.384,4.25,6.932,7.497,10.846,9.919c1.86,1.146,3.298,1.662,4.665,1.662c1.806,0,3.422-0.872,5.416-2.915
		c0.281-0.29,0.553-0.589,0.822-0.879l0.193-0.212c0.37-0.41,0.757-0.834,1.167-1.221c0.698-0.668,1.068-0.894,1.485-0.894
		c0.371,0,0.804,0.193,1.384,0.516c4.502,2.464,8.782,5.854,13.461,10.671c0.654,0.667,1.211,1.438,1.81,2.284
		c0.244,0.345,0.488,0.69,0.739,1.031c0.063,0.083,0.108,0.138-0.088,0.428c-2.069,3.026-4.347,4.799-7.17,5.572
		c-2.447,0.666-5.137,0.652-7.958-0.043c-7.082-1.741-12.919-5.772-17.214-9.089c-9.988-7.713-17.651-16.061-23.427-25.517
		c-2.554-4.175-4.135-8.087-4.839-11.96c-0.115-0.64-0.176-1.308-0.238-1.95l-0.009-0.113c-0.027-0.322-0.061-0.649-0.09-0.893
		c0.038-4.67,2.076-8.223,6.221-10.854c0.011-0.005,0.078-0.025,0.175-0.025c0.049,0,0.086,0.005,0.108,0.009
		c0.669,0.373,1.375,0.79,1.984,1.319c4.105,3.537,7.718,7.769,11.049,12.936c0.324,0.497,0.583,1.045,0.863,1.639
		c0.143,0.299,0.282,0.599,0.435,0.891c0.264,0.518,0.2,0.951-0.208,1.416c-0.334,0.378-0.691,0.748-1.002,1.068
		C39.305,36.096,39.036,36.375,38.775,36.66z"/>
</g>
</svg>
