<?xml version="1.0" encoding="utf-8"?>
<!-- Generator: Adobe Illustrator 16.0.3, SVG Export Plug-In . SVG Version: 6.00 Build 0)  -->
<!DOCTYPE svg PUBLIC "-//W3C//DTD SVG 1.1//EN" "http://www.w3.org/Graphics/SVG/1.1/DTD/svg11.dtd">
<svg version="1.1" id="Layer_1" xmlns="http://www.w3.org/2000/svg" xmlns:xlink="http://www.w3.org/1999/xlink" x="0px" y="0px"
	 width="99.063px" height="99.031px" viewBox="0 0 99.063 99.031" enable-background="new 0 0 99.063 99.031" xml:space="preserve">
<path d="M83.479,20.247H16.157c-2.074,0-3.757,1.688-3.757,3.759v42.365c0,2.075,1.683,3.761,3.757,3.761h31.175v6.21H31.941v0.021
	c-0.535,0.023-0.998,0.191-1.371,0.534c-0.4,0.373-0.599,1.031-0.599,1.979c0,0.475,0.023,0.94,0.066,1.402
	c0.044,0.462,0.096,0.807,0.156,1.046h1.748h0.121h35.525h0.072h1.795c0.06-0.239,0.113-0.584,0.158-1.044
	c0.041-0.459,0.063-0.93,0.063-1.398c0-0.948-0.201-1.61-0.599-1.979c-0.385-0.357-0.862-0.53-1.418-0.547v-0.014H52.314v-6.21
	h31.165c2.072,0,3.76-1.686,3.76-3.761V24.007C87.239,21.935,85.557,20.247,83.479,20.247z M82.258,65.151H17.381V25.228h64.877
	V65.151z"/>
</svg>
