<?xml version="1.0" encoding="utf-8"?>
<!-- Generator: Adobe Illustrator 16.0.3, SVG Export Plug-In . SVG Version: 6.00 Build 0)  -->
<!DOCTYPE svg PUBLIC "-//W3C//DTD SVG 1.1//EN" "http://www.w3.org/Graphics/SVG/1.1/DTD/svg11.dtd">
<svg version="1.1" id="Layer_1" xmlns="http://www.w3.org/2000/svg" xmlns:xlink="http://www.w3.org/1999/xlink" x="0px" y="0px"
	 width="34px" height="34px" viewBox="0 0 34 34" enable-background="new 0 0 34 34" xml:space="preserve">
<g id="GUIDES" display="none">
</g>
<path fill="#12110B" d="M5.528,17.535c0.008,0.195,0.086,0.363,0.246,0.525l0.19,0.193l6.648,6.646
	c0.189,0.189,0.44,0.293,0.707,0.293c0.268,0,0.519-0.104,0.707-0.293l14.07-14.067l0.127-0.13c0.16-0.163,0.239-0.332,0.248-0.529
	c0.006-0.174-0.156-0.438-0.443-0.726c-0.188-0.187-0.385-0.368-0.59-0.537c-0.051-0.041-0.096-0.078-0.138-0.11l-0.495,0.495
	L13.674,22.43l-0.354,0.354l-0.354-0.354l-5.784-5.784l-0.484-0.484c-0.042,0.033-0.088,0.07-0.14,0.112
	c-0.202,0.168-0.4,0.349-0.588,0.536C5.684,17.097,5.522,17.361,5.528,17.535z"/>
</svg>
