<?xml version="1.0" encoding="utf-8"?>
<!-- Generator: Adobe Illustrator 16.0.3, SVG Export Plug-In . SVG Version: 6.00 Build 0)  -->
<!DOCTYPE svg PUBLIC "-//W3C//DTD SVG 1.1//EN" "http://www.w3.org/Graphics/SVG/1.1/DTD/svg11.dtd">
<svg version="1.1" id="Layer_1" xmlns="http://www.w3.org/2000/svg" xmlns:xlink="http://www.w3.org/1999/xlink" x="0px" y="0px"
	 width="99.063px" height="99.031px" viewBox="0 0 99.063 99.031" enable-background="new 0 0 99.063 99.031" xml:space="preserve">
<path d="M46.639,16.392c-5.578-5.572-15.788-5.878-22.765-2.904l-0.647,0.308c-0.5,0.183-0.665,0.58-0.35,0.89
	c0.308,0.311,0.556,0.562,0.556,0.562l0.007-0.007l12.42,12.438l-7.14,7.15L16.897,22.987l-0.596-0.594h0.004
	c0,0-0.252-0.253-0.561-0.565c-0.273-0.268-0.599-0.167-0.801,0.191h-0.012c-0.005,0.014-0.008,0.03-0.015,0.041
	c-0.021,0.042-0.266,0.429-0.266,0.429c-3.125,6.666-2.81,17.641,2.775,23.22c5.813,5.807,14.211,7.409,21.474,4.856l28.546,28.517
	l0.005-0.005c0.024,0.026,0.048,0.057,0.07,0.086c3.499,3.492,9.169,3.488,12.656-0.016c3.487-3.494,3.485-9.171-0.013-12.667
	c-0.036-0.026-0.055-0.05-0.086-0.077h0.002L51.537,37.879C54.072,30.606,52.453,22.197,46.639,16.392 M73.844,77.017
	c-1.058,0-2.055-0.392-2.831-1.103L40.142,45.078l-2.826,0.99c-1.709,0.603-3.498,0.909-5.313,0.909
	c-4.238,0-8.222-1.648-11.215-4.641c-2.663-2.66-3.628-7.504-3.221-11.941l11.154,11.172l13.871-13.889l-11.066-11.08
	c0.676-0.064,1.356-0.096,2.037-0.096c4.099,0,7.643,1.187,9.712,3.255c4.361,4.357,5.806,10.701,3.766,16.554l-0.981,2.821
	l30.549,30.528l0.274,0.27c1.552,1.644,1.522,4.24-0.079,5.853C76.015,76.58,74.96,77.017,73.844,77.017L73.844,77.017z"/>
</svg>
