<?xml version="1.0" encoding="utf-8"?>
<!-- Generator: Adobe Illustrator 16.0.0, SVG Export Plug-In . SVG Version: 6.00 Build 0)  -->
<!DOCTYPE svg PUBLIC "-//W3C//DTD SVG 1.1//EN" "http://www.w3.org/Graphics/SVG/1.1/DTD/svg11.dtd">
<svg version="1.1" id="Layer_1" xmlns="http://www.w3.org/2000/svg" xmlns:xlink="http://www.w3.org/1999/xlink" x="0px" y="0px"
	 width="32px" height="32px" viewBox="0 0 32 32" enable-background="new 0 0 32 32" xml:space="preserve">
<path fill="#1D1D1B" d="M27.5,1h-23C2.57,1,1,2.57,1,4.5v23C1,29.431,2.57,31,4.5,31h23c1.93,0,3.5-1.569,3.5-3.5v-23
	C31,2.57,29.43,1,27.5,1 M3,27.5v-23C3,3.674,3.673,3,4.5,3h23C28.328,3,29,3.674,29,4.5v23c0,0.827-0.672,1.5-1.5,1.5h-23
	C3.673,29,3,28.327,3,27.5 M26.877,16.39c0.267-0.276,0.268-0.498,0.003-0.779c-0.163-0.173-0.349-0.325-0.516-0.494
	c-0.255-0.262-0.275-0.433-0.09-0.752c0.09-0.153,0.194-0.299,0.292-0.449c0.317-0.491,0.27-0.699-0.235-0.983
	c-0.163-0.092-0.331-0.175-0.488-0.275c-0.289-0.186-0.353-0.335-0.265-0.667c0.06-0.222,0.151-0.433,0.218-0.652
	c0.131-0.432,0.035-0.62-0.39-0.755c-0.234-0.075-0.475-0.131-0.71-0.206c-0.251-0.079-0.372-0.261-0.358-0.523
	c0.014-0.28,0.051-0.56,0.057-0.84c0.006-0.323-0.101-0.454-0.421-0.499c-0.234-0.032-0.476-0.027-0.713-0.034
	c-0.431-0.016-0.582-0.141-0.659-0.557c-0.041-0.228-0.062-0.455-0.108-0.682c-0.071-0.342-0.208-0.451-0.557-0.414
	c-0.252,0.024-0.5,0.093-0.751,0.14c-0.36,0.067-0.523-0.007-0.68-0.335c-0.109-0.231-0.189-0.475-0.303-0.703
	c-0.157-0.317-0.342-0.387-0.67-0.254c-0.212,0.085-0.412,0.201-0.62,0.296c-0.402,0.181-0.558,0.138-0.837-0.211
	C17.87,5.504,17.658,5.254,17.447,5c-0.102,0-0.204,0-0.307,0c-0.229,0.184-0.459,0.368-0.689,0.551
	c-0.361,0.29-0.531,0.291-0.895,0.007C15.318,5.37,15.079,5.186,14.841,5c-0.086,0-0.17,0-0.255,0
	c-0.168,0.177-0.339,0.352-0.5,0.535c-0.113,0.127-0.205,0.273-0.321,0.396c-0.134,0.144-0.304,0.19-0.489,0.108
	c-0.227-0.096-0.447-0.202-0.671-0.308C12.14,5.513,11.931,5.59,11.728,6.07c-0.081,0.188-0.146,0.381-0.232,0.565
	c-0.146,0.307-0.327,0.396-0.661,0.337c-0.268-0.048-0.531-0.117-0.801-0.149c-0.286-0.036-0.438,0.07-0.505,0.35
	C9.472,7.411,9.451,7.66,9.406,7.902c-0.08,0.432-0.235,0.562-0.672,0.576C8.547,8.484,8.358,8.478,8.173,8.489
	c-0.469,0.034-0.618,0.216-0.571,0.68c0.021,0.177,0.042,0.355,0.058,0.533c0.036,0.424-0.076,0.595-0.48,0.719
	c-0.226,0.07-0.46,0.119-0.683,0.201c-0.321,0.116-0.409,0.29-0.32,0.616c0.07,0.255,0.172,0.5,0.244,0.752
	c0.092,0.322,0.038,0.468-0.244,0.65c-0.2,0.128-0.418,0.23-0.617,0.357c-0.372,0.233-0.418,0.433-0.194,0.806
	c0.104,0.177,0.225,0.341,0.332,0.515c0.224,0.361,0.202,0.535-0.095,0.836c-0.224,0.229-0.452,0.455-0.68,0.684
	c0,0.102,0,0.203,0,0.306c0.225,0.232,0.445,0.465,0.671,0.695c0.309,0.314,0.331,0.473,0.097,0.854
	c-0.09,0.146-0.191,0.281-0.281,0.426c-0.289,0.464-0.234,0.669,0.251,0.942c0.134,0.075,0.271,0.144,0.402,0.22
	c0.401,0.233,0.469,0.406,0.329,0.841c-0.072,0.219-0.161,0.431-0.219,0.652c-0.081,0.312,0.013,0.489,0.316,0.6
	c0.246,0.09,0.507,0.144,0.756,0.228c0.333,0.11,0.436,0.262,0.418,0.61c-0.012,0.221-0.047,0.44-0.065,0.66
	c-0.034,0.421,0.124,0.604,0.544,0.63c0.229,0.014,0.461,0.002,0.688,0.026c0.38,0.041,0.484,0.14,0.56,0.513
	c0.041,0.19,0.062,0.387,0.089,0.579c0.076,0.499,0.255,0.628,0.749,0.533c0.225-0.042,0.449-0.094,0.675-0.134
	c0.259-0.045,0.453,0.051,0.563,0.291c0.109,0.239,0.2,0.486,0.314,0.724c0.171,0.357,0.361,0.427,0.725,0.274
	c0.22-0.093,0.427-0.213,0.646-0.305c0.341-0.146,0.496-0.104,0.73,0.188c0.144,0.18,0.268,0.375,0.413,0.552
	c0.253,0.311,0.465,0.336,0.788,0.092c0.204-0.153,0.396-0.321,0.597-0.48c0.217-0.172,0.439-0.165,0.653,0.004
	c0.207,0.164,0.402,0.342,0.615,0.498c0.293,0.215,0.493,0.192,0.731-0.084c0.144-0.166,0.263-0.355,0.397-0.53
	c0.273-0.355,0.446-0.397,0.855-0.209c0.155,0.071,0.304,0.153,0.457,0.229c0.474,0.224,0.675,0.149,0.88-0.329
	c0.084-0.195,0.153-0.396,0.246-0.587c0.146-0.297,0.291-0.37,0.618-0.319c0.234,0.036,0.466,0.098,0.699,0.142
	c0.407,0.074,0.595-0.05,0.671-0.457c0.042-0.217,0.063-0.438,0.104-0.655c0.072-0.384,0.18-0.486,0.573-0.528
	c0.228-0.023,0.46-0.012,0.688-0.025c0.393-0.023,0.537-0.173,0.527-0.563c-0.006-0.229-0.043-0.456-0.055-0.687
	c-0.022-0.403,0.081-0.552,0.47-0.673c0.211-0.066,0.43-0.107,0.64-0.179c0.369-0.124,0.468-0.309,0.364-0.687
	c-0.055-0.195-0.134-0.383-0.198-0.579c-0.146-0.453-0.084-0.615,0.331-0.858c0.178-0.103,0.362-0.19,0.533-0.302
	c0.319-0.208,0.366-0.402,0.181-0.733c-0.116-0.208-0.262-0.398-0.382-0.604c-0.192-0.329-0.169-0.498,0.1-0.772
	C26.539,16.701,26.717,16.555,26.877,16.39z M12.305,16.202c-0.275-0.109-0.515-0.277-0.719-0.501
	c-0.205-0.227-0.369-0.505-0.486-0.84c-0.121-0.335-0.182-0.727-0.182-1.178c0-0.448,0.061-0.841,0.182-1.176
	c0.117-0.335,0.281-0.615,0.486-0.839c0.204-0.227,0.443-0.393,0.719-0.503C12.579,11.056,12.867,11,13.167,11
	c0.301,0,0.587,0.056,0.861,0.166c0.275,0.11,0.518,0.276,0.728,0.503c0.209,0.224,0.376,0.504,0.494,0.839
	c0.12,0.335,0.181,0.728,0.181,1.176c0,0.451-0.061,0.843-0.181,1.178c-0.118,0.335-0.285,0.613-0.494,0.84
	c-0.21,0.224-0.452,0.392-0.728,0.501c-0.274,0.11-0.561,0.165-0.861,0.165C12.867,16.367,12.579,16.312,12.305,16.202z
	 M13.916,20.639c-0.069,0.12-0.159,0.208-0.27,0.264c-0.109,0.054-0.229,0.081-0.359,0.081c-0.11,0-0.215-0.021-0.314-0.066
	c-0.101-0.046-0.19-0.093-0.27-0.144l5.395-9.323c0.051-0.089,0.128-0.169,0.229-0.24c0.101-0.068,0.228-0.104,0.381-0.104
	c0.15,0,0.277,0.028,0.379,0.083c0.101,0.056,0.177,0.098,0.228,0.127L13.916,20.639z M20.902,19.492
	c-0.12,0.335-0.284,0.615-0.494,0.839c-0.21,0.227-0.452,0.395-0.728,0.503C19.406,20.944,19.118,21,18.818,21
	c-0.299,0-0.588-0.056-0.861-0.166c-0.275-0.108-0.516-0.276-0.719-0.503c-0.205-0.224-0.368-0.504-0.488-0.839
	c-0.12-0.333-0.182-0.728-0.182-1.176c0-0.451,0.062-0.843,0.182-1.178c0.12-0.334,0.283-0.613,0.488-0.84
	c0.203-0.224,0.443-0.392,0.719-0.501c0.273-0.11,0.562-0.165,0.861-0.165c0.3,0,0.588,0.055,0.862,0.165
	c0.275,0.109,0.518,0.277,0.728,0.501c0.21,0.227,0.374,0.506,0.494,0.84c0.12,0.335,0.179,0.727,0.179,1.178
	C21.081,18.765,21.022,19.159,20.902,19.492z M19.434,17.139c0.159,0.235,0.239,0.623,0.239,1.163c0,0.538-0.08,0.934-0.239,1.184
	c-0.161,0.249-0.367,0.374-0.615,0.374c-0.26,0-0.465-0.125-0.614-0.374c-0.149-0.25-0.225-0.646-0.225-1.184
	c0-0.54,0.075-0.928,0.225-1.163c0.149-0.234,0.354-0.352,0.614-0.352C19.066,16.787,19.272,16.904,19.434,17.139z M13.167,15.228
	c-0.259,0-0.464-0.124-0.613-0.374c-0.151-0.251-0.227-0.645-0.227-1.185s0.075-0.927,0.227-1.161
	c0.149-0.236,0.354-0.353,0.613-0.353c0.25,0,0.455,0.116,0.614,0.353c0.159,0.234,0.241,0.621,0.241,1.161
	s-0.082,0.934-0.241,1.185C13.622,15.104,13.417,15.228,13.167,15.228z"/>
</svg>
