<?xml version="1.0" encoding="utf-8"?>
<!-- Generator: Adobe Illustrator 16.0.3, SVG Export Plug-In . SVG Version: 6.00 Build 0)  -->
<!DOCTYPE svg PUBLIC "-//W3C//DTD SVG 1.1//EN" "http://www.w3.org/Graphics/SVG/1.1/DTD/svg11.dtd">
<svg version="1.1" id="Layer_1" xmlns="http://www.w3.org/2000/svg" xmlns:xlink="http://www.w3.org/1999/xlink" x="0px" y="0px"
	 width="99.063px" height="99.031px" viewBox="0 0 99.063 99.031" enable-background="new 0 0 99.063 99.031" xml:space="preserve">
<g>
	<path fill="#1D1D1B" d="M80.198,10.515H18.865c-5.146,0-9.333,4.188-9.333,9.333v61.334c0,5.15,4.188,9.333,9.333,9.333h61.334
		c5.146,0,9.333-4.183,9.333-9.333V19.848C89.531,14.703,85.344,10.515,80.198,10.515 M14.865,81.182V19.848c0-2.203,1.795-4,4-4
		h61.334c2.208,0,4,1.797,4,4v61.334c0,2.205-1.792,4-4,4H18.865C16.659,85.182,14.865,83.387,14.865,81.182 M74.906,26.339H24.152
		c-2.219,0-4.021,1.807-4.021,4.031v33.471c0,2.225,1.803,4.026,4.021,4.026H46.87v6.648H35.719v0.021
		c-0.573,0.026-1.067,0.206-1.469,0.573c-0.427,0.398-0.641,1.104-0.641,2.12c0,0.508,0.026,1.01,0.073,1.5
		c0.044,0.489,0.104,0.864,0.164,1.119h1.872h0.128h27.372h0.078h1.922c0.065-0.255,0.12-0.625,0.167-1.119
		c0.049-0.495,0.067-0.992,0.067-1.5c0-1.016-0.214-1.722-0.641-2.12c-0.409-0.378-0.922-0.563-1.516-0.581v-0.013H52.2v-6.651
		h22.706c2.224,0,4.026-1.802,4.026-4.025V30.364C78.933,28.145,77.13,26.339,74.906,26.339z M73.599,62.531H25.464V31.672h48.135
		V62.531L73.599,62.531z"/>
</g>
</svg>
