<?xml version="1.0" encoding="utf-8"?>
<!-- Generator: Adobe Illustrator 16.0.3, SVG Export Plug-In . SVG Version: 6.00 Build 0)  -->
<!DOCTYPE svg PUBLIC "-//W3C//DTD SVG 1.1//EN" "http://www.w3.org/Graphics/SVG/1.1/DTD/svg11.dtd">
<svg version="1.1" id="Layer_1" xmlns="http://www.w3.org/2000/svg" xmlns:xlink="http://www.w3.org/1999/xlink" x="0px" y="0px"
	 width="99.063px" height="99.031px" viewBox="0 0 99.063 99.031" enable-background="new 0 0 99.063 99.031" xml:space="preserve">
<path fill="#333333" d="M83.482,22.842H17.517c-5.528,0-10.017,4.016-10.017,8.967v36.376c0,4.96,4.488,8.974,10.017,8.974h65.965
	c5.533,0,10.019-4.014,10.019-8.965V31.808C93.5,26.857,89.015,22.842,83.482,22.842z M88.442,68.193
	c0,2.449-2.224,4.438-4.96,4.438H17.517c-2.737,0-4.958-1.989-4.958-4.438V31.804c0-2.449,2.221-4.436,4.958-4.436h65.965
	c2.736,0,4.96,1.987,4.96,4.436V68.193z M47.941,35.634c0.306,0.026,0.534,0.077,0.707,0.135V52.97c0,1.75-0.277,3.395-0.833,4.933
	c-0.558,1.539-1.383,2.883-2.48,4.031c-1.097,1.141-2.463,2.051-4.098,2.714c-1.632,0.659-3.515,0.995-5.639,0.995
	c-2.161,0-4.048-0.332-5.667-0.995c-1.62-0.663-2.969-1.573-4.048-2.723c-1.077-1.146-1.885-2.488-2.428-4.027
	c-0.536-1.542-0.808-3.199-0.808-4.98V36.805c0-0.363,0.141-0.657,0.43-0.882c0.289-0.228,0.763-0.34,1.44-0.34
	c0.304,0,0.608,0.014,0.912,0.047c0.304,0.026,0.536,0.075,0.709,0.135v17.383c0,1.419,0.203,2.723,0.607,3.916
	c0.403,1.193,1,2.205,1.796,3.06c0.788,0.844,1.781,1.503,2.959,1.967c1.178,0.473,2.544,0.702,4.098,0.702
	c1.482,0,2.821-0.238,4.021-0.702c1.193-0.464,2.211-1.119,3.036-1.95c0.823-0.83,1.455-1.839,1.897-3.031
	c0.435-1.193,0.657-2.512,0.657-3.961V36.805c0-0.363,0.131-0.657,0.405-0.882c0.267-0.228,0.738-0.34,1.415-0.34
	C47.334,35.587,47.637,35.601,47.941,35.634z M63.369,50.163l15.379,14.662c-0.74,0.337-1.64,0.495-2.712,0.495
	c-0.538,0-0.953-0.075-1.255-0.225c-0.301-0.146-0.568-0.346-0.805-0.589L59.531,50.792v13.353c0,0.362-0.144,0.663-0.431,0.876
	c-0.291,0.233-0.771,0.344-1.442,0.344c-0.311,0-0.607-0.018-0.914-0.048c-0.306-0.031-0.538-0.075-0.711-0.138V36.801
	c0-0.363,0.144-0.657,0.435-0.882c0.286-0.228,0.761-0.34,1.438-0.34c0.302,0,0.607,0.014,0.914,0.044
	c0.307,0.029,0.533,0.077,0.712,0.137v13.985l14.114-13.397c0.192-0.208,0.454-0.389,0.756-0.544
	c0.306-0.148,0.701-0.226,1.21-0.226c0.943,0,1.803,0.155,2.584,0.453L63.369,50.163z"/>
</svg>
