<?xml version="1.0" encoding="utf-8"?>
<!-- Generator: Adobe Illustrator 16.0.0, SVG Export Plug-In . SVG Version: 6.00 Build 0)  -->
<!DOCTYPE svg PUBLIC "-//W3C//DTD SVG 1.1//EN" "http://www.w3.org/Graphics/SVG/1.1/DTD/svg11.dtd">
<svg version="1.1" id="Layer_1" xmlns="http://www.w3.org/2000/svg" xmlns:xlink="http://www.w3.org/1999/xlink" x="0px" y="0px"
	 width="32px" height="32px" viewBox="0 0 32 32" enable-background="new 0 0 32 32" xml:space="preserve">
<path fill="#121111" d="M9.34,7.643c0.005-0.006,0.01-0.014,0.015-0.021c0.01-0.004,0.021-0.007,0.032-0.011
	C9.43,7.642,9.43,7.675,9.454,7.711l0,0l0,0l0,0c1.104,0.693,1.722,0.322,2.155-0.646c0.059-0.139,0.116-0.289,0.173-0.451
	c0.673-1.979,2.55-1.377,3.95-1.6c0.819-0.128,0.559,0.635,0.203,1.002c-0.412,0.434-1.078,0.625-1.317,1.582
	c1.058,0,1.972,0.021,2.885-0.006c1.176-0.035,1.375,0.393,0.727,1.342c-0.318,0.471-0.5,1.041-0.85,1.481
	c-0.679,0.849-0.664,1.43,0.448,1.825c0.281,0.1,0.642,0.349,0.713,0.602c0.712,2.524,3.518,3.727,3.983,6.368
	c0.072,0.413-0.005,0.63,0.565,0.581c0.822-0.078,1.794-0.088,2.024,0.961c0.22,1-0.494,1.637-1.257,2.164
	c-0.149,0.103-0.249,0.273-0.396,0.451c0.14,0.612,1.064,0.032,1.069,0.641c0.005,0.504-0.536,0.74-0.91,0.857
	c-1.912,0.594-3.926,0.795-5.886,0.754c-1.806-0.039-3.224,0.986-4.897,1.228c-0.475,0.072-0.911,0.307-1.685-0.005
	c1.792-0.651,2.069-2.971,4.662-2.859c-0.803-0.335-1.138-0.486-1.486-0.613c-1.046-0.379-1.185-1.111-0.404-1.961
	c0.438-0.477,0.743-0.99-0.254-1.196c-0.942-0.193,0.126-0.747-0.186-1.172c-0.166-0.229,0.382-0.295,0.697-0.255
	c0.937,0.121,2.26,0.283,1.897-1.086c-0.234-0.875-0.371-2.632-2.103-2.404c-1.638,0.216-2.153-0.189-1.128-1.678
	c-0.604-0.27-1.879,1.147-1.59-0.746c0.011-0.078-0.144-0.266-0.175-0.257c-0.377,0.119-0.781,1.044-1.104,0.201
	c-0.318-0.829,1.094-0.428,1.126-1.433c-0.065-0.215-1.27,0.131-0.842-0.461c0.985-1.357,0.054-1.848-0.79-2.508
	c-0.151-0.119,0.001-0.326,0.02-0.518c0-0.003-0.003-0.01-0.003-0.014c0.003-0.059-0.002-0.117-0.039-0.172
	C9.412,7.684,9.379,7.67,9.338,7.643H9.34z M6.847,16.055c-0.028,0.381,0.258,0.644,0.511,0.684c1.094,0.18,2.204,0.37,3.304,0.355
	c0.535-0.002,1.031-0.467,1.073-1.288c-0.483-0.606-0.541-1.746-1.763-1.813C9.026,13.936,6.9,15.357,6.847,16.055z M10.366,5.394
	C9.19,5.707,8.511,6.332,8.595,7.597C7.684,7.687,8.131,8.102,8.34,8.426c0.099-0.227,0.319-0.432,0.478-0.668
	c0.178-0.045,0.357-0.094,0.536-0.139C9.676,6.908,10.703,6.531,10.366,5.394z M8.297,8.777C8.486,8.711,8.436,8.58,8.338,8.426
	C8.289,8.533,8.261,8.645,8.297,8.777z M27.5,1C29.43,1,31,2.57,31,4.5v23c0,1.931-1.57,3.5-3.5,3.5h-23C2.57,31,1,29.431,1,27.5
	v-23C1,2.57,2.57,1,4.5,1H27.5 M3,27.5C3,28.327,3.673,29,4.5,29h23c0.828,0,1.5-0.673,1.5-1.5v-23C29,3.674,28.328,3,27.5,3h-23
	C3.673,3,3,3.674,3,4.5V27.5"/>
</svg>
