<?xml version="1.0" encoding="utf-8"?>
<!-- Generator: Adobe Illustrator 19.1.0, SVG Export Plug-In . SVG Version: 6.00 Build 0)  -->
<svg version="1.1" id="Layer_1" xmlns="http://www.w3.org/2000/svg" xmlns:xlink="http://www.w3.org/1999/xlink" x="0px" y="0px"
	 viewBox="0 0 74 74" style="enable-background:new 0 0 74 74;" xml:space="preserve">
<style type="text/css">
	.st0{fill:#29C1AD;}
	.st1{fill:#FFFFFF;}
	.st2{fill:#27B7A4;}
	.st3{fill:#F2F2F2;}
	.st4{fill:#23A493;}
</style>
<g>
	<circle class="st0" cx="37" cy="37" r="37"/>
	<g>
		<polygon class="st1" points="44.7,35.7 44.7,20.3 37,25.9 37,53.6 54.9,35.7 		"/>
		<path class="st2" d="M29.3,35.7V20.3l7.7,5.5V0C16.6,0,0,16.6,0,37c0,20.4,16.6,37,37,37V53.6L19.1,35.7H29.3z"/>
		<polygon class="st3" points="29.3,20.3 29.3,35.7 19.1,35.7 37,53.6 37,25.9 		"/>
	</g>
	<path class="st4" d="M1.8,38.8c0-20.4,16.6-37,37-37c9.7,0,18.6,3.8,25.2,10C57.3,4.6,47.7,0,37,0C16.6,0,0,16.6,0,37
		c0,10.7,4.6,20.3,11.8,27C5.6,57.4,1.8,48.6,1.8,38.8z"/>
</g>
</svg>
