<?xml version="1.0" encoding="utf-8"?>
<!-- Generator: Adobe Illustrator 19.1.0, SVG Export Plug-In . SVG Version: 6.00 Build 0)  -->
<svg version="1.1" id="Layer_1" xmlns="http://www.w3.org/2000/svg" xmlns:xlink="http://www.w3.org/1999/xlink" x="0px" y="0px"
	 viewBox="0 0 74 74" style="enable-background:new 0 0 74 74;" xml:space="preserve">
<style type="text/css">
	.st0{fill:#CCCCCC;}
	.st1{opacity:0.1;}
	.st2{fill:#FFFFFF;}
	.st3{opacity:5.000000e-02;}
</style>
<g>
	<circle class="st0" cx="37" cy="37" r="37"/>
	<path class="st1" d="M20,6.2c18.4-8.9,40.5-1.3,49.5,17.1c4.3,8.8,4.7,18.4,2.1,27c3.6-9.2,3.5-19.9-1.2-29.5
		C61.4,2.5,39.2-5.2,20.8,3.7c-9.6,4.7-16.3,13-19.2,22.4C4.9,17.7,11.2,10.5,20,6.2z"/>
	<g>
		<g>
			<path class="st2" d="M54.9,35.6H44.7V20.2L37,25.7l-7.7-5.5v15.4H19.1L37,53.5L54.9,35.6z"/>
		</g>
	</g>
	<path class="st3" d="M37,0v74c20.4,0,37-16.6,37-37C74,16.6,57.4,0,37,0z"/>
</g>
</svg>
