<?xml version="1.0" encoding="utf-8"?>
<!-- Generator: Adobe Illustrator 19.1.0, SVG Export Plug-In . SVG Version: 6.00 Build 0)  -->
<svg version="1.1" id="Layer_1" xmlns="http://www.w3.org/2000/svg" xmlns:xlink="http://www.w3.org/1999/xlink" x="0px" y="0px"
	 viewBox="0 0 74 74" style="enable-background:new 0 0 74 74;" xml:space="preserve">
<style type="text/css">
	.st0{fill:#CCCCCC;}
	.st1{fill:none;}
	.st2{fill:#FFFFFF;}
	.st3{fill:#C2C2C2;}
	.st4{fill:#F2F2F2;}
	.st5{fill:#AEAEAE;}
</style>
<g>
	<circle class="st0" cx="37" cy="37" r="37"/>
	<g id="icomoon-ignore_45_">
	</g>
	<g>
		<rect x="27" y="27" class="st1" width="10" height="3.3"/>
		<rect x="27" y="32" class="st1" width="10" height="3.3"/>
		<rect x="27" y="37" class="st1" width="10" height="3.3"/>
		<path class="st2" d="M27,40.3V37h10v-1.7H27V32h10v-1.7H27V27h10v-6.7H23.7c-1.8,0-3.3,1.5-3.3,3.3v20c0,1.8,1.5,3.3,3.3,3.3H37
			v-6.7H27z"/>
		<path class="st3" d="M37,0v20.3h13.3c1.8,0,3.3,1.5,3.3,3.3l0,30L47,47H37v27c20.4,0,37-16.6,37-37S57.4,0,37,0z"/>
		<rect x="37" y="32" class="st3" width="10" height="3.3"/>
		<rect x="37" y="37" class="st3" width="10" height="3.3"/>
		<rect x="37" y="27" class="st3" width="10" height="3.3"/>
		<path class="st4" d="M53.6,53.7l0-30c0-1.8-1.5-3.3-3.3-3.3H37V27h10v3.3H37V32h10v3.3H37V37h10v3.3H37V47h10L53.6,53.7z"/>
	</g>
	<path class="st5" d="M20,6.2c18.4-8.9,40.5-1.3,49.5,17.1c4.3,8.8,4.7,18.4,2.1,27c3.6-9.2,3.5-19.9-1.2-29.5
		C61.4,2.5,39.2-5.2,20.8,3.7c-9.6,4.7-16.3,13-19.2,22.4C4.9,17.7,11.2,10.5,20,6.2z"/>
</g>
</svg>
