<?xml version="1.0" encoding="utf-8"?>
<!-- Generator: Adobe Illustrator 19.1.0, SVG Export Plug-In . SVG Version: 6.00 Build 0)  -->
<svg version="1.1" id="Layer_1" xmlns="http://www.w3.org/2000/svg" xmlns:xlink="http://www.w3.org/1999/xlink" x="0px" y="0px"
	 viewBox="0 0 74 74" style="enable-background:new 0 0 74 74;" xml:space="preserve">
<style type="text/css">
	.st0{fill:#29C1AD;}
	.st1{fill:#FFFFFF;}
	.st2{fill:#27B7A4;}
	.st3{fill:#F2F2F2;}
	.st4{fill:#23A493;}
</style>
<g>
	<circle class="st0" cx="37" cy="37" r="37"/>
	<g id="icomoon-ignore_65_">
	</g>
	<g>
		<polygon class="st1" points="40.8,26.2 37,30.1 37,43.9 47.8,33.2 		"/>
		<path class="st1" d="M53.1,25.2l-4.3-4.3c-0.7-0.7-1.9-0.7-2.6,0l-3.4,3.4l6.9,6.9l3.4-3.4C53.8,27.1,53.8,25.9,53.1,25.2z"/>
		<path class="st2" d="M20.4,53.6v-6.9L37,30.1V0C16.6,0,0,16.6,0,37c0,20.4,16.6,37,37,37V43.9l-9.7,9.7H20.4z"/>
		<polygon class="st3" points="20.4,46.7 20.4,53.6 27.3,53.6 37,43.9 37,30.1 		"/>
	</g>
	<path class="st4" d="M1.8,38.8c0-20.4,16.6-37,37-37c9.7,0,18.6,3.8,25.2,10C57.3,4.6,47.7,0,37,0C16.6,0,0,16.6,0,37
		c0,10.7,4.6,20.3,11.8,27C5.6,57.4,1.8,48.6,1.8,38.8z"/>
</g>
</svg>
