<?xml version="1.0" encoding="utf-8"?>
<!-- Generator: Adobe Illustrator 19.1.0, SVG Export Plug-In . SVG Version: 6.00 Build 0)  -->
<svg version="1.1" id="Layer_1" xmlns="http://www.w3.org/2000/svg" xmlns:xlink="http://www.w3.org/1999/xlink" x="0px" y="0px"
	 viewBox="0 0 74 74" style="enable-background:new 0 0 74 74;" xml:space="preserve">
<style type="text/css">
	.st0{fill:#CCCCCC;}
	.st1{fill:#FFFFFF;}
	.st2{fill:#C2C2C2;}
	.st3{fill:#F2F2F2;}
	.st4{fill:#AEAEAE;}
</style>
<g>
	<circle class="st0" cx="37" cy="37" r="37"/>
	<g id="icomoon-ignore_52_">
	</g>
	<g>
		<polygon class="st1" points="19.8,46.9 19.8,53.8 26.7,53.8 37,43.6 37,29.7 		"/>
		<path class="st2" d="M37,0v29.7l3.3-3.3l6.9,6.9L37,43.6V74c20.4,0,37-16.6,37-37C74,16.6,57.4,0,37,0z M52.6,28l-3.4,3.4
			l-6.9-6.9l3.4-3.4c0.7-0.7,1.9-0.7,2.6,0l4.3,4.3C53.3,26.1,53.3,27.3,52.6,28z"/>
		<polygon class="st3" points="40.3,26.4 37,29.7 37,43.6 47.2,33.3 		"/>
		<path class="st3" d="M48.2,21.1c-0.7-0.7-1.9-0.7-2.6,0l-3.4,3.4l6.9,6.9l3.4-3.4c0.7-0.7,0.7-1.9,0-2.6L48.2,21.1z"/>
	</g>
	<path class="st4" d="M20,6.2c18.4-8.9,40.5-1.3,49.5,17.1c4.3,8.8,4.7,18.4,2.1,27c3.6-9.2,3.5-19.9-1.2-29.5
		C61.4,2.5,39.2-5.2,20.8,3.7c-9.6,4.7-16.3,13-19.2,22.4C4.9,17.7,11.2,10.5,20,6.2z"/>
</g>
</svg>
