<?xml version="1.0" encoding="utf-8"?>
<!-- Generator: Adobe Illustrator 19.1.0, SVG Export Plug-In . SVG Version: 6.00 Build 0)  -->
<svg version="1.1" id="Layer_1" xmlns="http://www.w3.org/2000/svg" xmlns:xlink="http://www.w3.org/1999/xlink" x="0px" y="0px"
	 viewBox="0 0 48 48" style="enable-background:new 0 0 48 48;" xml:space="preserve">
<style type="text/css">
	.st0{fill:#EFEFEF;}
	.st1{fill:url(#SVGID_1_);}
	.st2{fill:#FFFFFF;}
	.st3{fill:url(#SVGID_2_);}
	.st4{fill:#333333;}
	.st5{fill:#666666;}
	.st6{fill:#DADADA;}
	.st7{fill:#29C1AD;}
	.st8{fill:none;stroke:#DADADA;stroke-miterlimit:10;}
	.st9{fill:url(#SVGID_3_);}
	.st10{fill:#CCCCCC;}
	.st11{opacity:0.1;}
	.st12{opacity:5.000000e-02;}
	.st13{fill:url(#SVGID_4_);}
	.st14{fill:url(#SVGID_5_);}
	.st15{fill:url(#SVGID_6_);}
	.st16{fill:url(#SVGID_7_);}
	.st17{fill:url(#SVGID_8_);}
	.st18{fill:url(#SVGID_9_);}
	.st19{fill:url(#SVGID_10_);}
	.st20{fill:url(#SVGID_11_);}
	.st21{fill:none;}
	.st22{fill-rule:evenodd;clip-rule:evenodd;fill:#DADADA;}
	.st23{fill:url(#SVGID_12_);}
	.st24{fill:url(#SVGID_13_);}
	.st25{fill:url(#SVGID_14_);}
	.st26{fill:url(#SVGID_15_);}
	.st27{fill:url(#SVGID_16_);}
	.st28{fill:url(#SVGID_17_);}
	.st29{fill:url(#SVGID_18_);}
	.st30{fill:url(#SVGID_19_);}
	.st31{fill:url(#SVGID_20_);}
	.st32{fill:url(#SVGID_21_);}
	.st33{fill:url(#SVGID_22_);}
	.st34{fill:url(#SVGID_23_);}
	.st35{fill:url(#SVGID_24_);}
	.st36{fill:url(#SVGID_25_);}
	.st37{fill:url(#SVGID_26_);}
	.st38{fill:url(#SVGID_27_);}
	.st39{fill:url(#SVGID_28_);}
	.st40{fill:#00AEEF;}
	.st41{fill:url(#SVGID_29_);}
	.st42{fill:url(#SVGID_30_);}
	.st43{fill:url(#SVGID_31_);}
	.st44{fill:url(#SVGID_32_);}
	.st45{fill:url(#SVGID_33_);}
	.st46{fill:url(#SVGID_34_);}
	.st47{fill:url(#SVGID_35_);}
	.st48{fill:url(#SVGID_36_);}
	.st49{fill:url(#SVGID_37_);}
	.st50{fill:url(#SVGID_38_);}
	.st51{fill:url(#SVGID_39_);}
	.st52{fill:url(#SVGID_40_);}
	.st53{fill:url(#SVGID_41_);}
	.st54{fill:url(#SVGID_42_);}
	.st55{fill:url(#SVGID_43_);}
	.st56{fill:url(#SVGID_44_);}
	.st57{fill:url(#SVGID_45_);}
	.st58{fill:url(#SVGID_46_);}
	.st59{fill:url(#SVGID_47_);}
	.st60{fill:url(#SVGID_48_);}
	.st61{fill:url(#SVGID_49_);}
	.st62{fill:url(#SVGID_50_);}
	.st63{fill:url(#SVGID_51_);}
	.st64{fill:url(#SVGID_52_);}
	.st65{fill:url(#SVGID_53_);}
	.st66{fill:url(#SVGID_54_);}
	.st67{fill:url(#SVGID_55_);}
	.st68{fill:url(#SVGID_56_);}
	.st69{fill:url(#SVGID_57_);}
	.st70{fill:url(#SVGID_58_);}
	.st71{fill:url(#SVGID_59_);}
	.st72{fill:url(#SVGID_60_);}
	.st73{fill:url(#SVGID_61_);}
	.st74{fill:url(#SVGID_62_);}
	.st75{fill:url(#SVGID_63_);}
	.st76{fill:url(#SVGID_64_);}
	.st77{fill:none;stroke:#B2B2B2;stroke-width:3;stroke-miterlimit:10;}
	.st78{fill:#E30613;}
	.st79{fill:none;stroke:#B2B2B2;stroke-width:2;stroke-miterlimit:10;}
	.st80{fill:url(#SVGID_65_);}
	.st81{fill:#C2C2C2;}
	.st82{fill:#F2F2F2;}
	.st83{fill:#AEAEAE;}
</style>
<g>
	<circle class="st10" cx="24" cy="24" r="24"/>
	<g>
		<path class="st81" d="M13.2,34.8v-4.5L24,19.5V0C10.7,0,0,10.7,0,24s10.7,24,24,24V28.5l-6.3,6.3H13.2z"/>
		<path class="st2" d="M34.4,16.4l-2.8-2.8c-0.5-0.5-1.2-0.5-1.7,0l-2.2,2.2l4.5,4.5l2.2-2.2C34.9,17.6,34.9,16.8,34.4,16.4z"/>
		<polygon class="st2" points="26.5,17 24,19.5 24,28.5 31,21.5 		"/>
		<polygon class="st82" points="13.2,30.3 13.2,34.8 17.7,34.8 24,28.5 24,19.5 		"/>
	</g>
	<path class="st83" d="M1.2,25.2c0-13.3,10.7-24,24-24c6.3,0,12.1,2.5,16.3,6.5C37.2,3,30.9,0,24,0C10.7,0,0,10.7,0,24
		c0,6.9,3,13.2,7.7,17.5C3.7,37.3,1.2,31.5,1.2,25.2z"/>
</g>
</svg>
