<?xml version="1.0" encoding="utf-8"?>
<!-- Generator: Adobe Illustrator 19.1.0, SVG Export Plug-In . SVG Version: 6.00 Build 0)  -->
<svg version="1.1" id="Layer_1" xmlns="http://www.w3.org/2000/svg" xmlns:xlink="http://www.w3.org/1999/xlink" x="0px" y="0px"
	 viewBox="0 0 40 40" style="enable-background:new 0 0 40 40;" xml:space="preserve">
<style type="text/css">
	.st0{fill:#EFEFEF;}
	.st1{fill:url(#SVGID_1_);}
	.st2{fill:#FFFFFF;}
	.st3{fill:url(#SVGID_2_);}
	.st4{fill:#333333;}
	.st5{fill:#666666;}
	.st6{fill:#DADADA;}
	.st7{fill:#29C1AD;}
	.st8{fill:none;stroke:#DADADA;stroke-miterlimit:10;}
	.st9{fill:url(#SVGID_3_);}
	.st10{fill:#CCCCCC;}
	.st11{opacity:0.1;}
	.st12{opacity:5.000000e-02;}
	.st13{fill:url(#SVGID_4_);}
	.st14{fill:url(#SVGID_5_);}
	.st15{fill:url(#SVGID_6_);}
	.st16{fill:url(#SVGID_7_);}
	.st17{fill:url(#SVGID_8_);}
	.st18{fill:url(#SVGID_9_);}
	.st19{fill:url(#SVGID_10_);}
	.st20{fill:url(#SVGID_11_);}
	.st21{fill:none;}
	.st22{fill-rule:evenodd;clip-rule:evenodd;fill:#DADADA;}
	.st23{fill:url(#SVGID_12_);}
	.st24{fill:url(#SVGID_13_);}
	.st25{fill:url(#SVGID_14_);}
	.st26{fill:url(#SVGID_15_);}
	.st27{fill:url(#SVGID_16_);}
	.st28{fill:url(#SVGID_17_);}
	.st29{fill:url(#SVGID_18_);}
	.st30{fill:url(#SVGID_19_);}
	.st31{fill:url(#SVGID_20_);}
	.st32{fill:url(#SVGID_21_);}
	.st33{fill:url(#SVGID_22_);}
	.st34{fill:url(#SVGID_23_);}
	.st35{fill:url(#SVGID_24_);}
	.st36{fill:url(#SVGID_25_);}
	.st37{fill:url(#SVGID_26_);}
	.st38{fill:url(#SVGID_27_);}
	.st39{fill:url(#SVGID_28_);}
	.st40{fill:#00AEEF;}
	.st41{fill:url(#SVGID_29_);}
	.st42{fill:url(#SVGID_30_);}
	.st43{fill:url(#SVGID_31_);}
	.st44{fill:url(#SVGID_32_);}
	.st45{fill:url(#SVGID_33_);}
	.st46{fill:url(#SVGID_34_);}
	.st47{fill:url(#SVGID_35_);}
	.st48{fill:url(#SVGID_36_);}
	.st49{fill:url(#SVGID_37_);}
	.st50{fill:url(#SVGID_38_);}
	.st51{fill:url(#SVGID_39_);}
	.st52{fill:url(#SVGID_40_);}
	.st53{fill:url(#SVGID_41_);}
	.st54{fill:url(#SVGID_42_);}
	.st55{fill:url(#SVGID_43_);}
	.st56{fill:url(#SVGID_44_);}
	.st57{fill:url(#SVGID_45_);}
	.st58{fill:url(#SVGID_46_);}
	.st59{fill:url(#SVGID_47_);}
	.st60{fill:url(#SVGID_48_);}
	.st61{fill:url(#SVGID_49_);}
	.st62{fill:url(#SVGID_50_);}
	.st63{fill:url(#SVGID_51_);}
	.st64{fill:url(#SVGID_52_);}
	.st65{fill:url(#SVGID_53_);}
	.st66{fill:url(#SVGID_54_);}
	.st67{fill:url(#SVGID_55_);}
	.st68{fill:url(#SVGID_56_);}
	.st69{fill:url(#SVGID_57_);}
	.st70{fill:url(#SVGID_58_);}
	.st71{fill:url(#SVGID_59_);}
	.st72{fill:url(#SVGID_60_);}
	.st73{fill:url(#SVGID_61_);}
	.st74{fill:url(#SVGID_62_);}
	.st75{fill:url(#SVGID_63_);}
	.st76{fill:url(#SVGID_64_);}
	.st77{fill:none;stroke:#B2B2B2;stroke-width:3;stroke-miterlimit:10;}
	.st78{fill:#E30613;}
	.st79{fill:none;stroke:#B2B2B2;stroke-width:2;stroke-miterlimit:10;}
	.st80{fill:url(#SVGID_65_);}
	.st81{fill:#C2C2C2;}
	.st82{fill:#F2F2F2;}
	.st83{fill:#AEAEAE;}
</style>
<g>
	<circle class="st10" cx="20" cy="20" r="20"/>
	<g>
		<path class="st2" d="M32.4,26.8c0-3-6-4.5-9-4.5c-0.9,0-2.1,0.1-3.4,0.4V29h12.4V26.8z"/>
		<path class="st2" d="M23.4,20c2.5,0,4.5-2,4.5-4.5c0-2.5-2-4.5-4.5-4.5c-1.4,0-2.5,0.6-3.4,1.6v5.9C20.8,19.4,22,20,23.4,20z"/>
		<path class="st81" d="M14.4,26.8c0-2.1,2.9-3.4,5.6-4.1v-4.2c-0.7-0.8-1.1-1.8-1.1-2.9c0-1.1,0.4-2.2,1.1-2.9V0C9,0,0,9,0,20
			c0,11,9,20,20,20V29h-5.6V26.8z M13.2,23.4H11V20H7.6v-2.2H11v-3.4h2.2v3.4h3.4V20h-3.4V23.4z"/>
		<path class="st82" d="M20,18.4v-5.9c-0.7,0.8-1.1,1.8-1.1,2.9C18.9,16.6,19.3,17.7,20,18.4z"/>
		<polygon class="st82" points="16.6,17.8 13.2,17.8 13.2,14.4 11,14.4 11,17.8 7.6,17.8 7.6,20 11,20 11,23.4 13.2,23.4 13.2,20 
			16.6,20 		"/>
		<path class="st82" d="M14.4,26.8V29H20v-6.3C17.2,23.3,14.4,24.7,14.4,26.8z"/>
	</g>
	<path class="st83" d="M1,21C1,10,10,1,21,1c5.3,0,10,2.1,13.6,5.4C31,2.5,25.8,0,20,0C9,0,0,9,0,20c0,5.8,2.5,11,6.4,14.6
		C3.1,31,1,26.3,1,21z"/>
</g>
</svg>
