<?xml version="1.0" encoding="utf-8"?>
<!-- Generator: Adobe Illustrator 19.1.0, SVG Export Plug-In . SVG Version: 6.00 Build 0)  -->
<svg version="1.1" id="Layer_1" xmlns="http://www.w3.org/2000/svg" xmlns:xlink="http://www.w3.org/1999/xlink" x="0px" y="0px"
	 viewBox="0 0 74 74" style="enable-background:new 0 0 74 74;" xml:space="preserve">
<style type="text/css">
	.st0{fill:#29C1AD;}
	.st1{fill:#FFFFFF;}
	.st2{fill:#27B7A4;}
	.st3{fill:#F2F2F2;}
	.st4{fill:#23A493;}
</style>
<g>
	<circle class="st0" cx="37" cy="37" r="37"/>
	<g id="icomoon-ignore_30_">
	</g>
	<g>
		<polygon class="st1" points="37,20.3 37,20.4 37,41.9 40.9,41.9 40.9,53.6 50.7,53.6 50.7,38 56.6,38 		"/>
		<path class="st2" d="M33.1,53.6h-9.8V38h-5.9L37,20.4V0C16.6,0,0,16.6,0,37c0,20.4,16.6,37,37,37V41.9h-3.9V53.6z"/>
		<polygon class="st3" points="17.4,38 23.3,38 23.3,53.6 33.1,53.6 33.1,41.9 37,41.9 37,20.4 		"/>
	</g>
	<path class="st4" d="M1.9,38.8c0-20.4,16.6-37,37-37c9.7,0,18.6,3.8,25.2,10C57.3,4.6,47.7,0,37,0C16.6,0,0,16.6,0,37
		c0,10.7,4.6,20.3,11.8,27C5.6,57.4,1.9,48.6,1.9,38.8z"/>
</g>
</svg>
