<?xml version="1.0" encoding="utf-8"?>
<!-- Generator: Adobe Illustrator 19.1.0, SVG Export Plug-In . SVG Version: 6.00 Build 0)  -->
<svg version="1.1" id="Layer_1" xmlns="http://www.w3.org/2000/svg" xmlns:xlink="http://www.w3.org/1999/xlink" x="0px" y="0px"
	 viewBox="0 0 320 216" style="enable-background:new 0 0 320 216;" xml:space="preserve">
<style type="text/css">
	.st0{fill:#878A8E;}
	.st1{fill:#FFFFFF;}
	.st2{fill:#ACB4BE;}
	.st3{fill:#CCCCCC;}
	.st4{opacity:0.1;}
	.st5{opacity:5.000000e-02;}
	.st6{fill:#EFEFEF;}
	.st7{fill:url(#SVGID_1_);}
	.st8{fill:url(#SVGID_2_);}
	.st9{fill:#333333;}
	.st10{fill:#666666;}
	.st11{fill:#DADADA;}
	.st12{fill:#29C1AD;}
	.st13{fill:none;stroke:#DADADA;stroke-miterlimit:10;}
	.st14{fill:url(#SVGID_3_);}
	.st15{fill:url(#SVGID_4_);}
	.st16{fill:url(#SVGID_5_);}
	.st17{fill:url(#SVGID_6_);}
	.st18{fill:url(#SVGID_7_);}
	.st19{fill:url(#SVGID_8_);}
	.st20{fill:url(#SVGID_9_);}
	.st21{fill:url(#SVGID_10_);}
	.st22{fill:url(#SVGID_11_);}
	.st23{fill:none;}
	.st24{fill-rule:evenodd;clip-rule:evenodd;fill:#DADADA;}
	.st25{fill:url(#SVGID_12_);}
	.st26{fill:url(#SVGID_13_);}
	.st27{fill:url(#SVGID_14_);}
	.st28{fill:url(#SVGID_15_);}
	.st29{fill:url(#SVGID_16_);}
	.st30{fill:url(#SVGID_17_);}
	.st31{fill:url(#SVGID_18_);}
	.st32{fill:url(#SVGID_19_);}
	.st33{fill:url(#SVGID_20_);}
	.st34{fill:url(#SVGID_21_);}
	.st35{fill:url(#SVGID_22_);}
	.st36{fill:url(#SVGID_23_);}
	.st37{fill:url(#SVGID_24_);}
	.st38{fill:url(#SVGID_25_);}
	.st39{fill:url(#SVGID_26_);}
	.st40{fill:url(#SVGID_27_);}
	.st41{fill:url(#SVGID_28_);}
	.st42{fill:#00AEEF;}
	.st43{fill:url(#SVGID_29_);}
	.st44{fill:url(#SVGID_30_);}
	.st45{fill:url(#SVGID_31_);}
	.st46{fill:url(#SVGID_32_);}
	.st47{fill:url(#SVGID_33_);}
	.st48{fill:url(#SVGID_34_);}
	.st49{fill:url(#SVGID_35_);}
	.st50{fill:url(#SVGID_36_);}
	.st51{fill:url(#SVGID_37_);}
	.st52{fill:url(#SVGID_38_);}
	.st53{fill:url(#SVGID_39_);}
	.st54{fill:url(#SVGID_40_);}
	.st55{fill:url(#SVGID_41_);}
	.st56{fill:url(#SVGID_42_);}
	.st57{fill:url(#SVGID_43_);}
	.st58{fill:url(#SVGID_44_);}
	.st59{fill:url(#SVGID_45_);}
	.st60{fill:url(#SVGID_46_);}
	.st61{fill:url(#SVGID_47_);}
	.st62{fill:url(#SVGID_48_);}
	.st63{fill:url(#SVGID_49_);}
	.st64{fill:url(#SVGID_50_);}
	.st65{fill:url(#SVGID_51_);}
	.st66{fill:url(#SVGID_52_);}
	.st67{fill:url(#SVGID_53_);}
	.st68{fill:url(#SVGID_54_);}
	.st69{fill:url(#SVGID_55_);}
	.st70{fill:url(#SVGID_56_);}
	.st71{fill:url(#SVGID_57_);}
	.st72{fill:url(#SVGID_58_);}
	.st73{fill:url(#SVGID_59_);}
	.st74{fill:url(#SVGID_60_);}
	.st75{fill:url(#SVGID_61_);}
	.st76{fill:url(#SVGID_62_);}
	.st77{fill:url(#SVGID_63_);}
	.st78{fill:url(#SVGID_64_);}
	.st79{fill:none;stroke:#B2B2B2;stroke-width:3;stroke-miterlimit:10;}
	.st80{fill:#E30613;}
	.st81{fill:none;stroke:#B2B2B2;stroke-width:2;stroke-miterlimit:10;}
	.st82{fill:url(#SVGID_65_);}
	.st83{fill:#C2C2C2;}
	.st84{fill:#F2F2F2;}
	.st85{fill:#AEAEAE;}
	.st86{fill:#1D1D1B;}
	.st87{fill:#D2D6DB;}
	.st88{fill:#000100;}
	.st89{opacity:0.25;}
	.st90{font-family:'HelveticaNeue';}
	.st91{font-size:21.5px;}
	.st92{font-size:16px;}
	.st93{letter-spacing:-1;}
	.st94{opacity:0.25;fill:#000100;}
</style>
<symbol  id="Light_Keyboard_Primary" viewBox="0 -78 52 78">
	<path class="st0" d="M45-76H7c-3.9,0-7,3.1-7,7v-2c0-3.9,3.1-7,7-7h38c3.9,0,7,3.1,7,7v2C52-72.9,48.9-76,45-76z"/>
	<g>
		<path class="st1" d="M45-76H7c-3.9,0-7,3.1-7,7v62c0,3.9,3.1,7,7,7h38c3.9,0,7-3.1,7-7v-62C52-72.9,48.9-76,45-76z"/>
	</g>
</symbol>
<symbol  id="Light_Keyboard_Secondary_Inactive" viewBox="0 -78 52 78">
	<path class="st0" d="M48.9-74.8c-0.2-0.1-0.4-0.2-0.6-0.4c-1-0.5-2.1-0.8-3.3-0.8H7c-1.2,0-2.3,0.3-3.3,0.8
		c-0.2,0.1-0.4,0.2-0.6,0.4c-1.7,1.1-2.8,3-3.1,5.1c0,0.2,0,0.5,0,0.7v-2c0-3.9,3.1-7,7-7h38c3.9,0,7,3.1,7,7v2c0-0.2,0-0.5,0-0.7
		C51.7-71.8,50.6-73.7,48.9-74.8z"/>
	<g>
		<path class="st2" d="M45-76H7c-3.9,0-7,3.1-7,7v62c0,3.9,3.1,7,7,7h38c3.9,0,7-3.1,7-7v-62C52-72.9,48.9-76,45-76z"/>
	</g>
</symbol>
<g>
	<g>
		<rect class="st87" width="320" height="216"/>
		<g>
			
				<use xlink:href="#Light_Keyboard_Primary"  width="52" height="78" id="XMLID_26_" x="0" y="-78" transform="matrix(0.5 0 0 -0.5 2.9999 12.0001)" style="overflow:visible;"/>
			<text transform="matrix(1 0 0 1 7.8306 38.5005)" class="st88 st90 st91">Q</text>
		</g>
		
			<use xlink:href="#Light_Keyboard_Primary"  width="52" height="78" id="XMLID_25_" x="0" y="-78" transform="matrix(0.5 0 0 -0.5 34.9999 12.0001)" style="overflow:visible;"/>
		
			<use xlink:href="#Light_Keyboard_Primary"  width="52" height="78" id="XMLID_24_" x="0" y="-78" transform="matrix(0.5 0 0 -0.5 66.9999 12.0001)" style="overflow:visible;"/>
		
			<use xlink:href="#Light_Keyboard_Primary"  width="52" height="78" id="XMLID_23_" x="0" y="-78" transform="matrix(0.5 0 0 -0.5 98.9999 12.0001)" style="overflow:visible;"/>
		
			<use xlink:href="#Light_Keyboard_Primary"  width="52" height="78" id="XMLID_22_" x="0" y="-78" transform="matrix(0.5 0 0 -0.5 130.9999 12.0001)" style="overflow:visible;"/>
		
			<use xlink:href="#Light_Keyboard_Primary"  width="52" height="78" id="XMLID_21_" x="0" y="-78" transform="matrix(0.5 0 0 -0.5 162.9999 12.0001)" style="overflow:visible;"/>
		
			<use xlink:href="#Light_Keyboard_Primary"  width="52" height="78" id="XMLID_20_" x="0" y="-78" transform="matrix(0.5 0 0 -0.5 194.9999 12.0001)" style="overflow:visible;"/>
		
			<use xlink:href="#Light_Keyboard_Primary"  width="52" height="78" id="XMLID_19_" x="0" y="-78" transform="matrix(0.5 0 0 -0.5 226.9999 12.0001)" style="overflow:visible;"/>
		
			<use xlink:href="#Light_Keyboard_Primary"  width="52" height="78" id="XMLID_18_" x="0" y="-78" transform="matrix(0.5 0 0 -0.5 258.9999 12.0001)" style="overflow:visible;"/>
		
			<use xlink:href="#Light_Keyboard_Primary"  width="52" height="78" id="XMLID_17_" x="0" y="-78" transform="matrix(0.5 0 0 -0.5 290.9999 12.0001)" style="overflow:visible;"/>
		
			<use xlink:href="#Light_Keyboard_Primary"  width="52" height="78" id="XMLID_16_" x="0" y="-78" transform="matrix(0.5 0 0 -0.5 18.9999 66.0001)" style="overflow:visible;"/>
		
			<use xlink:href="#Light_Keyboard_Primary"  width="52" height="78" id="XMLID_15_" x="0" y="-78" transform="matrix(0.5 0 0 -0.5 50.9999 66.0001)" style="overflow:visible;"/>
		
			<use xlink:href="#Light_Keyboard_Primary"  width="52" height="78" id="XMLID_14_" x="0" y="-78" transform="matrix(0.5 0 0 -0.5 82.9999 66.0001)" style="overflow:visible;"/>
		
			<use xlink:href="#Light_Keyboard_Primary"  width="52" height="78" id="XMLID_13_" x="0" y="-78" transform="matrix(0.5 0 0 -0.5 114.9999 66.0001)" style="overflow:visible;"/>
		
			<use xlink:href="#Light_Keyboard_Primary"  width="52" height="78" id="XMLID_12_" x="0" y="-78" transform="matrix(0.5 0 0 -0.5 146.9999 66.0001)" style="overflow:visible;"/>
		
			<use xlink:href="#Light_Keyboard_Primary"  width="52" height="78" id="XMLID_11_" x="0" y="-78" transform="matrix(0.5 0 0 -0.5 178.9999 66.0001)" style="overflow:visible;"/>
		
			<use xlink:href="#Light_Keyboard_Primary"  width="52" height="78" id="XMLID_10_" x="0" y="-78" transform="matrix(0.5 0 0 -0.5 210.9999 66.0001)" style="overflow:visible;"/>
		
			<use xlink:href="#Light_Keyboard_Primary"  width="52" height="78" id="XMLID_9_" x="0" y="-78" transform="matrix(0.5 0 0 -0.5 242.9999 66.0001)" style="overflow:visible;"/>
		
			<use xlink:href="#Light_Keyboard_Primary"  width="52" height="78" id="XMLID_8_" x="0" y="-78" transform="matrix(0.5 0 0 -0.5 274.9999 66.0001)" style="overflow:visible;"/>
		<text transform="matrix(1 0 0 1 38.1147 39.0005)" class="st88 st90 st91">W</text>
		<g>
			<text transform="matrix(1 0 0 1 73.3335 39.0005)" class="st88 st90 st91">E</text>
		</g>
		<g>
			<text transform="matrix(1 0 0 1 104.8716 39.0005)" class="st88 st90 st91">R</text>
		</g>
		<text transform="matrix(1 0 0 1 137.7983 39.0005)" class="st88 st90 st91">T</text>
		<g>
			<text transform="matrix(1 0 0 1 168.9585 39.0005)" class="st88 st90 st91">Y</text>
		</g>
		<text transform="matrix(1 0 0 1 200.5005 38.9263)" class="st88 st90 st91">U</text>
		<g>
			<text transform="matrix(1 0 0 1 263.7778 38.9263)" class="st88 st90 st91">O</text>
		</g>
		<g>
			<text transform="matrix(1 0 0 1 237.2534 38.9263)" class="st88 st90 st91">I</text>
		</g>
		<g>
			<text transform="matrix(1 0 0 1 297.5005 38.9263)" class="st88 st90 st91">P</text>
		</g>
		<text transform="matrix(1 0 0 1 25.1294 93)" class="st88 st90 st91">A</text>
		<g>
			<text transform="matrix(1 0 0 1 57.0005 92.9263)" class="st88 st90 st91">S</text>
		</g>
		<g>
			<text transform="matrix(1 0 0 1 88.5542 93)" class="st88 st90 st91">D</text>
		</g>
		<text transform="matrix(1 0 0 1 122.0005 93)" class="st88 st90 st91">F</text>
		<g>
			<text transform="matrix(1 0 0 1 152.1504 93)" class="st88 st90 st91">G</text>
		</g>
		<text transform="matrix(1 0 0 1 184.3872 92.9263)" class="st88 st90 st91">H</text>
		<g>
			<text transform="matrix(1 0 0 1 248.6636 92.9263)" class="st88 st90 st91">K</text>
		</g>
		<g>
			<text transform="matrix(1 0 0 1 218.3452 92.9263)" class="st88 st90 st91">J</text>
		</g>
		
			<use xlink:href="#Light_Keyboard_Primary"  width="52" height="78" id="XMLID_7_" x="0" y="-78" transform="matrix(0.5 0 0 -0.5 50.9999 120.0001)" style="overflow:visible;"/>
		
			<use xlink:href="#Light_Keyboard_Primary"  width="52" height="78" id="XMLID_6_" x="0" y="-78" transform="matrix(0.5 0 0 -0.5 82.9999 120.0001)" style="overflow:visible;"/>
		
			<use xlink:href="#Light_Keyboard_Primary"  width="52" height="78" id="XMLID_5_" x="0" y="-78" transform="matrix(0.5 0 0 -0.5 114.9999 120.0001)" style="overflow:visible;"/>
		
			<use xlink:href="#Light_Keyboard_Primary"  width="52" height="78" id="XMLID_4_" x="0" y="-78" transform="matrix(0.5 0 0 -0.5 146.9999 120.0001)" style="overflow:visible;"/>
		
			<use xlink:href="#Light_Keyboard_Primary"  width="52" height="78" id="XMLID_3_" x="0" y="-78" transform="matrix(0.5 0 0 -0.5 178.9999 120.0001)" style="overflow:visible;"/>
		
			<use xlink:href="#Light_Keyboard_Primary"  width="52" height="78" id="XMLID_2_" x="0" y="-78" transform="matrix(0.5 0 0 -0.5 210.9999 120.0001)" style="overflow:visible;"/>
		
			<use xlink:href="#Light_Keyboard_Primary"  width="52" height="78" id="XMLID_1_" x="0" y="-78" transform="matrix(0.5 0 0 -0.5 242.9999 120.0001)" style="overflow:visible;"/>
		<text transform="matrix(1 0 0 1 57.5278 147)" class="st88 st90 st91">Z</text>
		<g>
			<text transform="matrix(1 0 0 1 89.3984 146.9263)" class="st88 st90 st91">X</text>
		</g>
		<g>
			<text transform="matrix(1 0 0 1 120.0005 146.9263)" class="st88 st90 st91">C</text>
		</g>
		<text transform="matrix(1 0 0 1 153.501 146.9263)" class="st88 st90 st91">V</text>
		<g>
			<text transform="matrix(1 0 0 1 185.0024 146.9263)" class="st88 st90 st91">B</text>
		</g>
		<text transform="matrix(1 0 0 1 216.5005 146.9268)" class="st88 st90 st91">N</text>
		<g>
			<text transform="matrix(1 0 0 1 246.5015 146.9268)" class="st88 st90 st91">M</text>
		</g>
		<g>
			<text transform="matrix(1 0 0 1 281.8774 92.9263)" class="st88 st90 st91">L</text>
		</g>
		
			<use xlink:href="#Light_Keyboard_Primary"  width="52" height="78" x="0" y="-78" transform="matrix(0.6923 0 0 -0.5 3 120)" style="overflow:visible;"/>
		<path class="st88" d="M20.6,131.4l-8.5,8.5c-0.1,0.1-0.1,0.2-0.1,0.4v0.3c0,0.3,0.2,0.5,0.5,0.5h4v4c0,1.1,0.9,2,2,2h5
			c1.1,0,2-0.9,2-2v-4h4c0.3,0,0.5-0.2,0.5-0.5v-0.3c0-0.1-0.1-0.3-0.1-0.4l-8.5-8.5C21.2,131.2,20.8,131.2,20.6,131.4z"/>
		<g>
			
				<use xlink:href="#Light_Keyboard_Primary"  width="52" height="78" x="0" y="-78" transform="matrix(0.5 0 0 -0.5 82.9999 174)" style="overflow:visible;"/>
			<g>
				<path d="M95.5,197.5L95.5,197.5c2,0,3.5-1.6,3.5-3.5V187c0-1.9-1.6-3.5-3.5-3.5h-0.1c-1.9,0-3.5,1.6-3.5,3.5v7.1
					C92,195.9,93.6,197.5,95.5,197.5z M93,187c0-1.4,1.1-2.5,2.5-2.5h0.1c1.4,0,2.5,1.1,2.5,2.5v7.1c0,1.4-1.1,2.5-2.5,2.5h-0.1
					c-1.4,0-2.5-1.1-2.5-2.5V187z"/>
				<path d="M100,190.5v3.6c0,2.5-2,4.4-4.4,4.4h-0.1c-2.5,0-4.4-2-4.4-4.4v-3.6h-1v3.6c0,2.9,2.2,5.2,5,5.4v3h-3v1h7v-1h-3v-3
					c2.8-0.2,5-2.6,5-5.4v-3.6H100z"/>
			</g>
		</g>
		<g>
			
				<use xlink:href="#Light_Keyboard_Primary"  width="52" height="78" x="0" y="-78" transform="matrix(2.3462 0 0 -0.5 114.9999 174)" style="overflow:visible;"/>
			<text transform="matrix(1 0 0 1 153.9331 197.3223)" class="st88 st90 st92">space</text>
		</g>
		<g>
			
				<use xlink:href="#Light_Keyboard_Secondary_Inactive"  width="52" height="78" x="0" y="-78" transform="matrix(0.6923 0 0 -0.5 280.9999 120)" style="overflow:visible;"/>
			<path class="st1" d="M306.5,131h-9.6c-0.9,0-1.8,0.4-2.5,1l-6.3,6.3c-0.4,0.4-0.4,1,0,1.4l6.3,6.3c0.7,0.7,1.5,1,2.5,1h9.6
				c1.9,0,3.5-1.6,3.5-3.5v-9C310,132.6,308.4,131,306.5,131z M305.6,142l-1.1,1.1l-3-3l-3,3l-1.1-1.1l3-3l-3-3l1.1-1.1l3,3l3-3
				l1.1,1.1l-3,3L305.6,142z"/>
		</g>
		<g>
			
				<use xlink:href="#Light_Keyboard_Secondary_Inactive"  width="52" height="78" x="0" y="-78" transform="matrix(0.6538 0 0 -0.5 43 174)" style="overflow:visible;"/>
			<g>
				<path d="M60,184c5,0,9,4,9,9s-4,9-9,9s-9-4-9-9S55,184,60,184 M60,183c-5.5,0-10,4.5-10,10s4.5,10,10,10s10-4.5,10-10
					S65.5,183,60,183L60,183z"/>
				<circle cx="57" cy="190" r="1.1"/>
				<circle cx="63" cy="190" r="1.1"/>
				<g>
					<path d="M67,194c-0.1-0.5-0.6-0.4-0.9-0.3c-0.4,0.1-0.8,0.2-1.2,0.2c-1.1,0.2-2.2,0.3-3.3,0.3c-0.5,0-1.1,0-1.6,0
						c-1.2,0-2.4-0.1-3.7-0.2c-0.6-0.1-1.2-0.1-1.7-0.2c-0.2,0-0.4-0.1-0.6-0.1c-0.2,0-0.4-0.1-0.6-0.1c-0.3,0-0.3,0.3-0.3,0.6
						c0.1,0.6,0.1,1,0.3,1.5c0.4,1,1,1.9,1.8,2.6c0.9,0.7,2,1.2,3.1,1.5c0.5,0.1,1.1,0.2,1.7,0.2c2.8,0,5.2-1.4,6.3-3.7
						C66.5,195.9,67.1,194.4,67,194z M60,195c2.1,0,4.5-0.4,5.9-0.6c0.1,0,0.2,0.4,0.2,0.5c-0.5,0.6-3,1.9-6,1.9c-3,0-5.6-1-6.1-1.6
						c-0.1-0.1-0.1-0.5,0.1-0.5C55.5,194.8,58.1,195,60,195z"/>
				</g>
			</g>
		</g>
		<g>
			
				<use xlink:href="#Light_Keyboard_Secondary_Inactive"  width="52" height="78" x="0" y="-78" transform="matrix(0.6538 0 0 -0.5 3 174)" style="overflow:visible;"/>
			<text transform="matrix(1 0 0 1 7.04 199.0083)"><tspan x="0" y="0" class="st90 st92 st93">1</tspan><tspan x="7.1" y="0" class="st90 st92">23</tspan></text>
		</g>
		<g>
			
				<use xlink:href="#Light_Keyboard_Secondary_Inactive"  width="52" height="78" x="0" y="-78" transform="matrix(1.4231 0 0 -0.5 243 174)" style="overflow:visible;"/>
			<text transform="matrix(1 0 0 1 254.6411 197.3223)" class="st94 st90 st92">Search</text>
		</g>
	</g>
</g>
</svg>
