<?xml version="1.0" encoding="utf-8"?>
<!-- Generator: Adobe Illustrator 19.1.0, SVG Export Plug-In . SVG Version: 6.00 Build 0)  -->
<svg version="1.1" id="Layer_1" xmlns="http://www.w3.org/2000/svg" xmlns:xlink="http://www.w3.org/1999/xlink" x="0px" y="0px"
	 viewBox="0 0 74 74" style="enable-background:new 0 0 74 74;" xml:space="preserve">
<style type="text/css">
	.st0{fill:#CCCCCC;}
	.st1{fill:none;}
	.st2{fill:#FFFFFF;}
	.st3{fill:#C2C2C2;}
	.st4{fill:#F2F2F2;}
	.st5{fill:#AEAEAE;}
</style>
<g>
	<circle class="st0" cx="37" cy="37" r="37"/>
	<g>
		<path class="st1" d="M43.7,32.8c0.2-0.6,0.3-1.3,0.3-1.9c0-3.9-3.1-7-7-7l0,0v8.9H43.7z"/>
		<path class="st1" d="M37.1,50.9c0.6,0,1-0.1,1.2-0.4c0.2-0.2,0.3-0.5,0.3-0.9l0-1v-5.8c0.9-0.5,1.5-1.5,1.5-2.6c0-1.7-1.3-3-3-3
			c0,0-0.1,0-0.1,0L37.1,50.9C37,50.9,37,50.9,37.1,50.9z"/>
		<path class="st2" d="M47.5,32.8H47c0.2-0.7,0.2-1.4,0.2-2.2c0-5.6-4.6-10.2-10.2-10.2v3.5l0,0c3.9,0,7,3.1,7,7
			c0,0.7-0.1,1.3-0.3,1.9H37v4.5c0,0,0.1,0,0.1,0c1.7,0,3,1.3,3,3c0,1.1-0.6,2.1-1.5,2.6v5.8l0,1c0,0.4-0.1,0.6-0.3,0.9
			c-0.2,0.2-0.6,0.4-1.2,0.4c0,0,0,0-0.1,0v2.7h10.5c1.5,0,2.8-1.2,2.8-2.8V35.6C50.3,34,49,32.8,47.5,32.8z"/>
		<path class="st3" d="M26.5,53.6H37V74C16.6,74,0,57.4,0,37C0,16.6,16.6,0,37,0v20.3c-5.6,0-10.2,4.6-10.2,10.2
			c0,0.8,0.1,1.5,0.2,2.2h-0.5c-1.5,0-2.8,1.2-2.8,2.8v15.3C23.7,52.4,25,53.6,26.5,53.6z M34.1,40.2c0,1.1,0.6,2.1,1.5,2.6v5.8v1
			v1.1c0.1,0,0.4,0.1,0.6,0.1c0.3,0,0.5,0,0.8,0V37.3C35.4,37.3,34.1,38.6,34.1,40.2z M30,30.8c0,0.7,0.1,1.3,0.3,1.9H37v-8.9
			C33.1,23.8,30,27,30,30.8z"/>
		<path class="st4" d="M36.2,50.9c-0.3,0-0.5-0.1-0.6-0.1v-1.1v-1v-5.8c-0.9-0.5-1.5-1.5-1.5-2.6c0-1.6,1.3-2.9,2.9-3v-4.5h-6.7
			c-0.2-0.6-0.3-1.3-0.3-1.9c0-3.9,3.1-7,7-7v-3.5c-5.6,0-10.2,4.6-10.2,10.2c0,0.8,0.1,1.5,0.2,2.2h-0.5c-1.5,0-2.8,1.2-2.8,2.8
			v15.3c0,1.5,1.2,2.8,2.8,2.8H37v-2.7C36.7,50.9,36.5,50.9,36.2,50.9z"/>
	</g>
	<path class="st5" d="M1.9,38.8c0-20.4,16.6-37,37-37c9.7,0,18.6,3.8,25.2,10C57.3,4.6,47.7,0,37,0C16.6,0,0,16.6,0,37
		c0,10.7,4.6,20.3,11.8,27C5.6,57.4,1.9,48.6,1.9,38.8z"/>
</g>
</svg>
