<?xml version="1.0" encoding="utf-8"?>
<!-- Generator: Adobe Illustrator 19.1.0, SVG Export Plug-In . SVG Version: 6.00 Build 0)  -->
<svg version="1.1" id="Layer_1" xmlns="http://www.w3.org/2000/svg" xmlns:xlink="http://www.w3.org/1999/xlink" x="0px" y="0px"
	 viewBox="0 0 74 74" style="enable-background:new 0 0 74 74;" xml:space="preserve">
<style type="text/css">
	.st0{fill:#CCCCCC;}
	.st1{fill:none;}
	.st2{fill:#FFFFFF;}
	.st3{fill:#C2C2C2;}
	.st4{fill:#F2F2F2;}
	.st5{fill:#AEAEAE;}
</style>
<g>
	<circle class="st0" cx="37" cy="37" r="37"/>
	<g>
		<path class="st1" d="M30,31c0,0.7,0.1,1.3,0.3,1.9H37V24C33.1,24,30,27.2,30,31z"/>
		<path class="st1" d="M34.1,40.4c0,1.1,0.6,2.1,1.5,2.6v5.8v1V51c0.1,0,0.4,0.1,0.6,0.1c0.3,0,0.5,0,0.8,0V37.4
			C35.4,37.5,34.1,38.8,34.1,40.4z"/>
		<path class="st2" d="M36.2,51.1C36,51,35.7,51,35.6,51v-1.1v-1V43c-0.9-0.5-1.5-1.5-1.5-2.6c0-1.6,1.3-2.9,2.9-3v-4.5h-6.7
			C30.1,32.3,30,31.7,30,31c0-3.9,3.1-7,7-7v-3.5c-5.6,0-10.2,4.6-10.2,10.2c0,0.8,0.1,1.5,0.2,2.2h-0.5c-1.5,0-2.8,1.2-2.8,2.8V51
			c0,1.5,1.2,2.8,2.8,2.8H37v-2.7C36.7,51.1,36.5,51.1,36.2,51.1z"/>
		<path class="st3" d="M37,51.1V37.4c0,0,0.1,0,0.1,0c1.7,0,3,1.3,3,3c0,1.1-0.6,2.1-1.5,2.6v5.8l0,1c0,0.4-0.1,0.6-0.3,0.9
			C38,51,37.6,51.1,37,51.1C37,51.1,37,51.1,37,51.1z M43.7,32.9c0.2-0.6,0.3-1.3,0.3-1.9c0-3.9-3.1-7-7-7l0,0v8.9H43.7z M37,0v20.5
			c5.6,0,10.2,4.6,10.2,10.2c0,0.8-0.1,1.5-0.2,2.2h0.5c1.5,0,2.8,1.2,2.8,2.8V51c0,1.5-1.2,2.8-2.8,2.8H37V74c20.4,0,37-16.6,37-37
			C74,16.6,57.4,0,37,0z"/>
		<path class="st4" d="M50.3,51V35.7c0-1.5-1.2-2.8-2.8-2.8H47c0.2-0.7,0.2-1.4,0.2-2.2c0-5.6-4.6-10.2-10.2-10.2V24l0,0
			c3.9,0,7,3.1,7,7c0,0.7-0.1,1.3-0.3,1.9H37v4.5c0,0,0.1,0,0.1,0c1.7,0,3,1.3,3,3c0,1.1-0.6,2.1-1.5,2.6v5.8l0,1
			c0,0.4-0.1,0.6-0.3,0.9c-0.2,0.2-0.6,0.4-1.2,0.4c0,0,0,0-0.1,0v2.7h10.5C49,53.8,50.3,52.6,50.3,51z"/>
	</g>
	<path class="st5" d="M20,6.2c18.4-8.9,40.5-1.3,49.5,17.1c4.3,8.8,4.7,18.4,2.1,27c3.6-9.2,3.5-19.9-1.2-29.5
		C61.4,2.5,39.2-5.2,20.8,3.7c-9.6,4.7-16.3,13-19.2,22.4C4.9,17.7,11.2,10.5,20,6.2z"/>
</g>
</svg>
