<?xml version="1.0" encoding="utf-8"?>
<!-- Generator: Adobe Illustrator 16.0.3, SVG Export Plug-In . SVG Version: 6.00 Build 0)  -->
<!DOCTYPE svg PUBLIC "-//W3C//DTD SVG 1.1//EN" "http://www.w3.org/Graphics/SVG/1.1/DTD/svg11.dtd">
<svg version="1.1" id="Layer_1" xmlns="http://www.w3.org/2000/svg" xmlns:xlink="http://www.w3.org/1999/xlink" x="0px" y="0px"
	 width="78px" height="78px" viewBox="-9 -9 78 78" enable-background="new -9 -9 78 78" xml:space="preserve">
<g>
	<circle fill="#CCCCCC" cx="30" cy="30" r="39"/>
	<g>
		<path fill="#C2C2C2" d="M15.18,39.555c0-4.875,9.945-7.604,14.82-7.604v-4.68c-4.095,0-7.41-3.315-7.41-7.41
			c0-4.096,3.315-7.41,7.41-7.41V-9C8.55-9-9,8.55-9,30S8.55,69,30,69V47.55C23.76,47.55,18.3,44.43,15.18,39.555z"/>
		<path fill="#FFFFFF" d="M30,31.95v15.6c6.24,0,11.7-3.12,14.82-7.995C44.82,34.68,34.875,31.95,30,31.95z"/>
		<path fill="#FFFFFF" d="M37.41,19.86c0-4.096-3.314-7.41-7.41-7.41v14.82C34.096,27.27,37.41,23.955,37.41,19.86z"/>
		<path fill="#F2F2F2" d="M22.59,19.86c0,4.095,3.315,7.41,7.41,7.41V12.45C25.905,12.45,22.59,15.765,22.59,19.86z"/>
		<path fill="#F2F2F2" d="M15.18,39.555C18.3,44.43,23.76,47.55,30,47.55v-15.6C25.125,31.95,15.18,34.68,15.18,39.555z"/>
	</g>
	<path fill="#AEAEAE" d="M-7.05,31.95c0-21.45,17.55-39,39-39c10.335,0,19.5,4.095,26.521,10.53C51.45-4.125,41.311-9,30-9
		C8.55-9-9,8.55-9,30c0,11.311,4.875,21.45,12.48,28.471C-2.955,51.45-7.05,42.285-7.05,31.95z"/>
</g>
<g>
	<path fill="#FFFFFF" d="M63.3,19.107L52.758,8.565v6.024c-1.129,0.125-2.009,0.376-3.012,0.627v8.408
		c1.003-0.125,2.009-0.125,3.012-0.125v6.15L63.3,19.107z"/>
	<path fill="#FFFFFF" d="M36.191,31.155c3.263-4.519,7.655-6.903,13.555-7.53v-8.408C41.337,17.601,37.571,24.379,36.191,31.155z"/>
</g>
</svg>
