<?xml version="1.0" encoding="utf-8"?>
<!-- Generator: Adobe Illustrator 16.0.3, SVG Export Plug-In . SVG Version: 6.00 Build 0)  -->
<!DOCTYPE svg PUBLIC "-//W3C//DTD SVG 1.1//EN" "http://www.w3.org/Graphics/SVG/1.1/DTD/svg11.dtd">
<svg version="1.1" id="Layer_1" xmlns="http://www.w3.org/2000/svg" xmlns:xlink="http://www.w3.org/1999/xlink" x="0px" y="0px"
	 width="80.471px" height="78.962px" viewBox="0 -0.962 80.471 78.962" enable-background="new 0 -0.962 80.471 78.962"
	 xml:space="preserve">
<g>
	<circle fill="#CCCCCC" cx="40" cy="39" r="39"/>
	<g>
		<path fill="#C2C2C2" d="M39.82,56.55V78c21.45,0,39-17.55,39-39s-17.55-39-39-39v21.451c4.096,0,7.41,3.314,7.41,7.41
			c0,4.095-3.314,7.41-7.41,7.41v4.68c4.875,0,14.82,2.729,14.82,7.604C51.521,53.43,46.061,56.55,39.82,56.55z"/>
		<path fill="#FFFFFF" d="M25,48.555c3.12,4.875,8.581,7.995,14.82,7.995v-15.6C34.945,40.95,25,43.681,25,48.555z"/>
		<path fill="#FFFFFF" d="M39.82,36.27V21.45c-4.096,0-7.41,3.314-7.41,7.41C32.41,32.955,35.724,36.27,39.82,36.27z"/>
		<path fill="#F2F2F2" d="M39.82,21.45v14.82c4.096,0,7.41-3.315,7.41-7.41C47.23,24.765,43.916,21.45,39.82,21.45z"/>
		<path fill="#F2F2F2" d="M39.82,40.95v15.6c6.24,0,11.7-3.12,14.82-7.995C54.641,43.681,44.695,40.95,39.82,40.95z"/>
	</g>
	<path fill="#AEAEAE" d="M67.99,66.471c7.605-7.021,12.48-17.16,12.48-28.471c0-21.45-17.55-39-39-39C30.16-1,20.021,3.875,13,11.48
		C20.021,5.045,29.186,0.95,39.521,0.95c21.45,0,39,17.55,39,39C78.521,50.285,74.426,59.45,67.99,66.471z"/>
</g>
<g>
	<path fill="#FFFFFF" d="M73.3,28.107L62.758,17.565v6.024c-1.129,0.125-2.009,0.376-3.012,0.627v8.408
		c1.003-0.125,2.009-0.125,3.012-0.125v6.15L73.3,28.107z"/>
	<path fill="#FFFFFF" d="M46.191,40.154c3.263-4.519,7.654-6.902,13.555-7.529v-8.408C51.337,26.601,47.571,33.379,46.191,40.154z"
		/>
</g>
</svg>
