<?xml version="1.0" encoding="utf-8"?>
<!-- Generator: Adobe Illustrator 19.1.0, SVG Export Plug-In . SVG Version: 6.00 Build 0)  -->
<svg version="1.1" id="Layer_1" xmlns="http://www.w3.org/2000/svg" xmlns:xlink="http://www.w3.org/1999/xlink" x="0px" y="0px"
	 viewBox="0 0 74 74" style="enable-background:new 0 0 74 74;" xml:space="preserve">
<style type="text/css">
	.st0{fill:#CCCCCC;}
	.st1{fill:#FFFFFF;}
	.st2{fill:#C2C2C2;}
	.st3{fill:#F2F2F2;}
	.st4{fill:#AEAEAE;}
</style>
<g>
	<circle class="st0" cx="37" cy="37" r="37"/>
	<g id="icomoon-ignore_40_">
	</g>
	<g>
		<path class="st1" d="M28.8,20.4c-5.6,0-10,4.4-10,10c0,6.9,6.2,12.4,15.5,20.9l2.6,2.4V24.1C35,21.8,32,20.4,28.8,20.4z"/>
		<path class="st2" d="M37,0v24.1l0,0c2-2.3,5-3.8,8.2-3.8c5.6,0,10,4.4,10,10c0,6.9-6.2,12.4-15.5,20.9L37,53.7l0,0V74
			c20.4,0,37-16.6,37-37C74,16.6,57.4,0,37,0z"/>
		<path class="st3" d="M39.6,51.3c9.3-8.5,15.5-14.1,15.5-20.9c0-5.6-4.4-10-10-10c-3.2,0-6.2,1.5-8.2,3.8l0,0v29.5l0,0L39.6,51.3z"
			/>
	</g>
	<path class="st4" d="M20,6.2c18.4-8.9,40.5-1.3,49.5,17.1c4.3,8.8,4.7,18.4,2.1,27c3.6-9.2,3.5-19.9-1.2-29.5
		C61.4,2.5,39.2-5.2,20.8,3.7c-9.6,4.7-16.3,13-19.2,22.4C4.9,17.7,11.2,10.5,20,6.2z"/>
</g>
</svg>
