<?xml version="1.0" encoding="utf-8"?>
<!-- Generator: Adobe Illustrator 19.1.0, SVG Export Plug-In . SVG Version: 6.00 Build 0)  -->
<svg version="1.1" id="Layer_1" xmlns="http://www.w3.org/2000/svg" xmlns:xlink="http://www.w3.org/1999/xlink" x="0px" y="0px"
	 viewBox="0 0 74 74" style="enable-background:new 0 0 74 74;" xml:space="preserve">
<style type="text/css">
	.st0{fill:#D92231;}
	.st1{fill:#FFFFFF;}
	.st2{fill:#C31F2C;}
	.st3{fill:#E5E5E5;}
	.st4{fill:#A61A26;}
</style>
<g>
	<circle class="st0" cx="37" cy="37" r="37"/>
	<g id="icomoon-ignore_122_">
	</g>
	<g>
		<path class="st1" d="M45.2,20.3c-3.2,0-6.2,1.5-8.2,3.8v0v29.5l0,0l2.6-2.4c9.3-8.5,15.5-14.1,15.5-20.9
			C55.1,24.7,50.8,20.3,45.2,20.3z"/>
		<path class="st2" d="M18.9,30.3c0-5.6,4.4-10,10-10c3.2,0,6.2,1.5,8.2,3.8V0C16.6,0,0,16.6,0,37c0,20.4,16.6,37,37,37V53.6
			l-2.6-2.4C25,42.8,18.9,37.2,18.9,30.3z"/>
		<path class="st3" d="M28.8,20.3c-5.6,0-10,4.4-10,10c0,6.9,6.2,12.4,15.5,20.9l2.6,2.4V24.1C35,21.8,32,20.3,28.8,20.3z"/>
	</g>
	<path class="st4" d="M1.9,38.8c0-20.4,16.6-37,37-37c9.7,0,18.6,3.8,25.2,10C57.3,4.6,47.7,0,37,0C16.6,0,0,16.6,0,37
		c0,10.7,4.6,20.3,11.8,27C5.6,57.4,1.9,48.6,1.9,38.8z"/>
</g>
</svg>
