<?xml version="1.0" encoding="utf-8"?>
<!-- Generator: Adobe Illustrator 19.1.0, SVG Export Plug-In . SVG Version: 6.00 Build 0)  -->
<svg version="1.1" id="Layer_1" xmlns="http://www.w3.org/2000/svg" xmlns:xlink="http://www.w3.org/1999/xlink" x="0px" y="0px"
	 viewBox="0 0 74 74" style="enable-background:new 0 0 74 74;" xml:space="preserve">
<style type="text/css">
	.st0{fill:#CCCCCC;}
	.st1{fill:#FFFFFF;}
	.st2{fill:#C2C2C2;}
	.st3{fill:#F2F2F2;}
	.st4{fill:#AEAEAE;}
</style>
<g>
	<circle class="st0" cx="37" cy="37" r="37"/>
	<g id="icomoon-ignore_26_">
	</g>
	<g>
		<path class="st1" d="M27.5,34.8c3.9,0,7.1-3.2,7.1-7.1s-3.2-7.1-7.1-7.1c-3.9,0-7.1,3.2-7.1,7.1S23.5,34.8,27.5,34.8z"/>
		<path class="st1" d="M27.5,39.5c-5.6,0-16.7,2.8-16.7,8.3v5.9H37V41.3C33.7,40.1,30,39.5,27.5,39.5z"/>
		<path class="st2" d="M37,0v41.3c3.9,1.4,7.1,3.6,7.1,6.6v5.9H37V74c20.4,0,37-16.6,37-37C74,16.6,57.4,0,37,0z M39.4,27.7
			c0-3.9,3.2-7.1,7.1-7.1s7.1,3.2,7.1,7.1s-3.2,7.1-7.1,7.1C42.6,34.8,39.4,31.6,39.4,27.7z M48.9,53.8v-5.9c0-3.5-1.9-6.2-4.7-8.2
			c0.8-0.1,1.6-0.1,2.3-0.1c5.6,0,16.7,2.8,16.7,8.3v5.9H48.9z"/>
		<path class="st3" d="M44.1,47.9c0-3-3.3-5.2-7.1-6.6v12.5h7.1V47.9z"/>
		<path class="st3" d="M53.6,27.7c0-3.9-3.2-7.1-7.1-7.1s-7.1,3.2-7.1,7.1s3.2,7.1,7.1,7.1C50.5,34.8,53.6,31.6,53.6,27.7z"/>
		<path class="st3" d="M46.5,39.5c-0.7,0-1.5,0-2.3,0.1c2.8,2,4.7,4.7,4.7,8.2v5.9h14.3v-5.9C63.2,42.3,52.1,39.5,46.5,39.5z"/>
	</g>
	<path class="st4" d="M20,6.2c18.4-8.9,40.5-1.3,49.5,17.1c4.3,8.8,4.7,18.4,2.1,27c3.6-9.2,3.5-19.9-1.2-29.5
		C61.4,2.5,39.2-5.2,20.8,3.7c-9.6,4.7-16.3,13-19.2,22.4C4.9,17.7,11.2,10.5,20,6.2z"/>
</g>
</svg>
