<?xml version="1.0" encoding="utf-8"?>
<!-- Generator: Adobe Illustrator 19.1.0, SVG Export Plug-In . SVG Version: 6.00 Build 0)  -->
<svg version="1.1" id="Layer_1" xmlns="http://www.w3.org/2000/svg" xmlns:xlink="http://www.w3.org/1999/xlink" x="0px" y="0px"
	 viewBox="0 0 74 74" style="enable-background:new 0 0 74 74;" xml:space="preserve">
<style type="text/css">
	.st0{fill:#CCCCCC;}
	.st1{fill:#FFFFFF;}
	.st2{fill:#C2C2C2;}
	.st3{fill:#F2F2F2;}
	.st4{fill:#AEAEAE;}
</style>
<g>
	<circle class="st0" cx="37" cy="37" r="37"/>
	<g>
		<path class="st1" d="M20.4,49.7v4.2H37V41.3C31.5,41.3,20.4,44.1,20.4,49.7z"/>
		<path class="st1" d="M28.7,28.8c0,4.6,3.7,8.3,8.3,8.3V20.5C32.4,20.5,28.7,24.2,28.7,28.8z"/>
		<path class="st2" d="M37,0v20.5c4.6,0,8.3,3.7,8.3,8.3c0,4.6-3.7,8.3-8.3,8.3v4.2c5.5,0,16.7,2.8,16.7,8.3v4.2H37V74
			c20.4,0,37-16.6,37-37C74,16.6,57.4,0,37,0z"/>
		<path class="st3" d="M53.7,49.7c0-5.5-11.1-8.3-16.7-8.3v12.5h16.7V49.7z"/>
		<path class="st3" d="M45.3,28.8c0-4.6-3.7-8.3-8.3-8.3v16.6C41.6,37.2,45.3,33.4,45.3,28.8z"/>
	</g>
	<path class="st4" d="M20,6.2c18.4-8.9,40.5-1.3,49.5,17.1c4.3,8.8,4.7,18.4,2.1,27c3.6-9.2,3.5-19.9-1.2-29.5
		C61.4,2.5,39.2-5.2,20.8,3.7c-9.6,4.7-16.3,13-19.2,22.4C4.9,17.7,11.2,10.5,20,6.2z"/>
</g>
</svg>
