<?xml version="1.0" encoding="utf-8"?>
<!-- Generator: Adobe Illustrator 19.1.0, SVG Export Plug-In . SVG Version: 6.00 Build 0)  -->
<svg version="1.1" id="Layer_1" xmlns="http://www.w3.org/2000/svg" xmlns:xlink="http://www.w3.org/1999/xlink" x="0px" y="0px"
	 viewBox="0 0 40 40" style="enable-background:new 0 0 40 40;" xml:space="preserve">
<style type="text/css">
	.st0{fill:#CCCCCC;}
	.st1{opacity:0.1;}
	.st2{fill:#FFFFFF;}
	.st3{opacity:5.000000e-02;}
	.st4{fill:#EFEFEF;}
	.st5{fill:url(#SVGID_1_);}
	.st6{fill:url(#SVGID_2_);}
	.st7{fill:#333333;}
	.st8{fill:#666666;}
	.st9{fill:#DADADA;}
	.st10{fill:#29C1AD;}
	.st11{fill:none;stroke:#DADADA;stroke-miterlimit:10;}
	.st12{fill:url(#SVGID_3_);}
	.st13{fill:url(#SVGID_4_);}
	.st14{fill:url(#SVGID_5_);}
	.st15{fill:url(#SVGID_6_);}
	.st16{fill:url(#SVGID_7_);}
	.st17{fill:url(#SVGID_8_);}
	.st18{fill:url(#SVGID_9_);}
	.st19{fill:url(#SVGID_10_);}
	.st20{fill:url(#SVGID_11_);}
	.st21{fill:none;}
	.st22{fill-rule:evenodd;clip-rule:evenodd;fill:#DADADA;}
	.st23{fill:url(#SVGID_12_);}
	.st24{fill:url(#SVGID_13_);}
	.st25{fill:url(#SVGID_14_);}
	.st26{fill:url(#SVGID_15_);}
	.st27{fill:url(#SVGID_16_);}
	.st28{fill:url(#SVGID_17_);}
	.st29{fill:url(#SVGID_18_);}
	.st30{fill:url(#SVGID_19_);}
	.st31{fill:url(#SVGID_20_);}
	.st32{fill:url(#SVGID_21_);}
	.st33{fill:url(#SVGID_22_);}
	.st34{fill:url(#SVGID_23_);}
	.st35{fill:url(#SVGID_24_);}
	.st36{fill:url(#SVGID_25_);}
	.st37{fill:url(#SVGID_26_);}
	.st38{fill:url(#SVGID_27_);}
	.st39{fill:url(#SVGID_28_);}
	.st40{fill:#00AEEF;}
	.st41{fill:url(#SVGID_29_);}
	.st42{fill:url(#SVGID_30_);}
	.st43{fill:url(#SVGID_31_);}
	.st44{fill:url(#SVGID_32_);}
	.st45{fill:url(#SVGID_33_);}
	.st46{fill:url(#SVGID_34_);}
	.st47{fill:url(#SVGID_35_);}
	.st48{fill:url(#SVGID_36_);}
	.st49{fill:url(#SVGID_37_);}
	.st50{fill:url(#SVGID_38_);}
	.st51{fill:url(#SVGID_39_);}
	.st52{fill:url(#SVGID_40_);}
	.st53{fill:url(#SVGID_41_);}
	.st54{fill:url(#SVGID_42_);}
	.st55{fill:url(#SVGID_43_);}
	.st56{fill:url(#SVGID_44_);}
	.st57{fill:url(#SVGID_45_);}
	.st58{fill:url(#SVGID_46_);}
	.st59{fill:url(#SVGID_47_);}
	.st60{fill:url(#SVGID_48_);}
	.st61{fill:url(#SVGID_49_);}
	.st62{fill:url(#SVGID_50_);}
	.st63{fill:url(#SVGID_51_);}
	.st64{fill:url(#SVGID_52_);}
	.st65{fill:url(#SVGID_53_);}
	.st66{fill:url(#SVGID_54_);}
	.st67{fill:url(#SVGID_55_);}
	.st68{fill:url(#SVGID_56_);}
	.st69{fill:url(#SVGID_57_);}
	.st70{fill:url(#SVGID_58_);}
	.st71{fill:url(#SVGID_59_);}
	.st72{fill:url(#SVGID_60_);}
	.st73{fill:url(#SVGID_61_);}
	.st74{fill:url(#SVGID_62_);}
	.st75{fill:url(#SVGID_63_);}
	.st76{fill:url(#SVGID_64_);}
	.st77{fill:none;stroke:#B2B2B2;stroke-width:3;stroke-miterlimit:10;}
	.st78{fill:#E30613;}
	.st79{fill:none;stroke:#B2B2B2;stroke-width:2;stroke-miterlimit:10;}
	.st80{fill:url(#SVGID_65_);}
	.st81{fill:#C2C2C2;}
	.st82{fill:#F2F2F2;}
	.st83{fill:#AEAEAE;}
	.st84{fill:#1D1D1B;}
	.st85{fill:#D2D6DB;}
	.st86{fill:#878A8E;}
	.st87{fill:#000100;}
	.st88{fill:#ACB4BE;}
	.st89{opacity:0.25;}
</style>
<circle class="st0" cx="20" cy="20" r="20"/>
<path class="st2" d="M27.4,20.8c0.2-0.1,0.5-0.2,0.7-0.3c0.7-0.3,1.1-0.9,1-1.5c-0.1-0.4-0.1-0.7-0.2-0.9c-0.1-0.5-0.4-0.9-0.9-1
	C27.8,17,27.6,17,27.4,17l-0.5,0l0,0c-0.3,0-0.5-0.2-0.6-0.5l-0.1-0.1c-0.1-0.2-0.1-0.3,0-0.4l0.1-0.2c0.1-0.2,0.3-0.5,0.4-0.7
	c0.3-0.7,0.1-1.2-0.4-1.6c-0.2-0.1-0.3-0.3-0.5-0.4l-0.2-0.1c-0.2-0.2-0.5-0.3-0.8-0.3l-0.1,0c-0.5,0-0.8,0.3-1.2,0.6
	c0,0-0.1,0.1-0.1,0.1c-0.1,0.1-0.3,0.3-0.5,0.3c0,0,0,0,0,0c-0.2,0-0.3-0.1-0.5-0.2c-0.1,0-0.1,0-0.1-0.1c-0.1,0-0.2-0.2-0.2-0.3
	c0-0.1-0.1-0.3-0.1-0.4c0-0.2-0.1-0.4-0.1-0.5c-0.2-0.7-0.7-1.1-1.3-1.1c0,0-0.2,0-0.3,0L20,11v5c0,0,0,0,0,0c2.2,0,4,1.8,4,4
	c0,2.2-1.8,3.9-3.9,3.9h0c0,0,0,0,0,0v3.4c0,0,0,0,0,0c0.1,0,0.2,0,0.2,0c0.1,0,0.2,0.1,0.3,0.2l0.1,0.1c0.2,0.3,0.3,0.6,0.6,0.8
	c0.2,0.3,0.6,0.5,1,0.5c0.1,0,0.3,0,0.4-0.1c0.3-0.1,0.6-0.2,0.9-0.3c0.4-0.1,0.7-0.4,0.8-0.8c0.1-0.3,0.1-0.7,0-1.1
	c-0.2-0.5,0-0.9,0.4-1.2c0.1-0.1,0.2-0.1,0.3-0.1c0.1,0,0.1,0,0.2,0c0.4,0.2,0.8,0.3,1.2,0.3l0.1,0c0.5,0,0.8-0.2,1.1-0.5
	c0.2-0.3,0.4-0.6,0.6-1c0.2-0.4,0.2-0.8,0-1.2c-0.2-0.3-0.4-0.6-0.6-0.7c-0.5-0.3-0.6-0.7-0.4-1.2C27.2,21,27.2,20.9,27.4,20.8z"/>
<path class="st81" d="M19.2,28c-0.1,0.2-0.2,0.3-0.3,0.4l-0.1,0.1c-0.3,0.3-0.6,0.5-1,0.5c-0.1,0-0.3,0-0.4-0.1
	c-0.1,0-0.3-0.1-0.4-0.1c-0.1,0-0.3-0.1-0.4-0.1c-0.8-0.3-1-1-0.9-1.6c0-0.1,0-0.2,0.1-0.4c0-0.1,0.1-0.3,0.1-0.4
	c0-0.1,0-0.3-0.1-0.3l-0.1-0.1c-0.1-0.1-0.3-0.3-0.5-0.3c0,0-0.1,0-0.1,0c-0.1,0-0.3,0.1-0.4,0.1c-0.1,0-0.1,0-0.2,0.1
	c-0.2,0.1-0.6,0.2-0.9,0.2c-0.1,0-0.3,0-0.4-0.1c-0.3-0.1-0.6-0.3-0.7-0.6L12.2,25c-0.1-0.2-0.2-0.4-0.4-0.6c-0.3-0.5-0.2-1,0.1-1.4
	c0.2-0.3,0.5-0.5,0.7-0.8l0.2-0.2c0.1-0.1,0.2-0.2,0.2-0.4c0-0.5-0.3-0.9-0.8-1c-0.2-0.1-0.5-0.2-0.7-0.3C11,20,10.8,19.6,10.9,19
	c0-0.3,0.1-0.6,0.2-1c0.1-0.6,0.6-1,1.2-1.1c0.1,0,0.3,0,0.4,0l0,0c0.2,0,0.4,0,0.5,0c0.1,0,0.2-0.1,0.3-0.2l0.1-0.1
	c0.1-0.2,0.2-0.3,0.2-0.5c0-0.2-0.1-0.3-0.2-0.5c0-0.1-0.1-0.1-0.1-0.2c-0.2-0.3-0.4-0.7-0.4-1.1c0-0.4,0.1-0.7,0.4-0.9
	c0.3-0.3,0.6-0.5,0.8-0.7c0.2-0.2,0.5-0.2,0.7-0.2c0.3,0,0.6,0.1,0.8,0.3c0.3,0.2,0.5,0.4,0.7,0.6l0.1,0c0.1,0.1,0.1,0.1,0.2,0.1
	c0,0,0.1,0,0.1,0c0.1,0,0.1,0,0.2-0.1c0.2,0,0.3-0.1,0.4-0.2c0.1-0.1,0.1-0.3,0.1-0.4c0-0.1,0-0.2,0-0.2l0-0.2
	c0.1-0.3,0.2-0.5,0.3-0.8c0.2-0.4,0.6-0.6,1-0.6c0.1,0,0.4,0,0.4,0l0.1,0V0C9,0,0,9,0,20s9,20,20,20V27.3
	C19.6,27.3,19.3,27.5,19.2,28z"/>
<path class="st82" d="M17.2,22.7c-0.7-0.7-1.1-1.7-1.1-2.8c0-2.2,1.8-3.9,3.9-3.9v-5l-0.1,0c0,0-0.3,0-0.4,0c-0.5,0-0.8,0.2-1,0.6
	c-0.1,0.2-0.2,0.5-0.3,0.8l0,0.2c0,0.1,0,0.2,0,0.2c0,0.2,0,0.3-0.1,0.4c-0.1,0.1-0.3,0.2-0.4,0.2c-0.1,0-0.1,0-0.2,0.1
	c-0.1,0-0.1,0-0.1,0c-0.1,0-0.2-0.1-0.2-0.1l-0.1,0c-0.2-0.2-0.5-0.4-0.7-0.6c-0.2-0.2-0.5-0.3-0.8-0.3c-0.3,0-0.5,0.1-0.7,0.2
	c-0.3,0.2-0.5,0.4-0.8,0.7c-0.3,0.2-0.4,0.5-0.4,0.9c0,0.4,0.2,0.8,0.4,1.1c0,0.1,0.1,0.1,0.1,0.2c0.1,0.2,0.2,0.3,0.2,0.5
	c0,0.2-0.1,0.4-0.2,0.5l-0.1,0.1c-0.1,0.1-0.2,0.2-0.3,0.2c-0.2,0-0.4,0-0.5,0l0,0c-0.1,0-0.3,0-0.4,0c-0.6,0-1.1,0.5-1.2,1.1
	c-0.1,0.4-0.1,0.7-0.2,1c-0.1,0.6,0.1,1,0.6,1.3c0.2,0.1,0.4,0.3,0.7,0.3c0.6,0.1,0.8,0.4,0.8,1c0,0.2,0,0.3-0.2,0.4l-0.2,0.2
	c-0.3,0.2-0.5,0.5-0.7,0.8c-0.3,0.4-0.3,0.9-0.1,1.4c0.1,0.2,0.2,0.4,0.4,0.6l0.1,0.2c0.2,0.3,0.4,0.5,0.7,0.6
	c0.1,0,0.3,0.1,0.4,0.1c0.3,0,0.6-0.1,0.9-0.2c0.1,0,0.1,0,0.2-0.1c0.1-0.1,0.3-0.1,0.4-0.1c0,0,0.1,0,0.1,0c0.2,0,0.3,0.2,0.5,0.3
	l0.1,0.1c0.1,0.1,0.1,0.2,0.1,0.3c0,0.1,0,0.3-0.1,0.4c0,0.1,0,0.3-0.1,0.4c-0.1,0.6,0.1,1.4,0.9,1.6c0.1,0,0.3,0.1,0.4,0.1
	c0.1,0.1,0.3,0.1,0.4,0.1c0.1,0,0.3,0.1,0.4,0.1c0.4,0,0.7-0.2,1-0.5l0.1-0.1c0.1-0.1,0.2-0.3,0.3-0.4c0.1-0.4,0.4-0.6,0.8-0.6v-3.4
	C19,23.9,18,23.5,17.2,22.7z"/>
<path class="st83" d="M1,21C1,10,10,1,21,1c5.3,0,10,2.1,13.6,5.4C31,2.5,25.8,0,20,0C9,0,0,9,0,20c0,5.8,2.5,11,6.4,14.6
	C3.1,31,1,26.3,1,21z"/>
<path class="st81" d="M16.1,19.9c0,1.1,0.4,2,1.1,2.8c0.7,0.7,1.7,1.1,2.8,1.2V16C17.9,16,16.1,17.8,16.1,19.9z"/>
</svg>
