<?xml version="1.0" encoding="utf-8"?>
<!-- Generator: Adobe Illustrator 19.1.0, SVG Export Plug-In . SVG Version: 6.00 Build 0)  -->
<svg version="1.1" id="Layer_1" xmlns="http://www.w3.org/2000/svg" xmlns:xlink="http://www.w3.org/1999/xlink" x="0px" y="0px"
	 viewBox="0 0 74 74" style="enable-background:new 0 0 74 74;" xml:space="preserve">
<style type="text/css">
	.st0{fill:#CCCCCC;}
	.st1{fill:none;}
	.st2{fill:#FFFFFF;}
	.st3{fill:#C2C2C2;}
	.st4{fill:#F2F2F2;}
	.st5{fill:#AEAEAE;}
</style>
<g>
	<circle class="st0" cx="37" cy="37" r="37"/>
	<g>
		<path class="st1" d="M29.8,36.9c0,2,0.7,3.8,2.1,5.2c1.4,1.4,3.2,2.1,5.1,2.2V29.7C33,29.7,29.8,32.9,29.8,36.9z"/>
		<path class="st2" d="M31.9,42.1c-1.4-1.4-2.1-3.2-2.1-5.2c0-4,3.3-7.2,7.2-7.2v-9.3l-0.1,0c0,0-0.6,0-0.8,0
			c-0.9,0-1.5,0.4-1.9,1.1c-0.2,0.4-0.4,0.9-0.5,1.4l-0.1,0.3c0,0.1-0.1,0.3-0.1,0.4c0,0.3-0.1,0.6-0.3,0.8
			c-0.2,0.2-0.5,0.3-0.8,0.4c-0.1,0-0.3,0.1-0.4,0.1c-0.1,0-0.2,0.1-0.3,0.1c-0.2,0-0.3-0.1-0.5-0.2l-0.1-0.1
			c-0.4-0.4-0.9-0.8-1.4-1.1c-0.5-0.3-1-0.5-1.5-0.5c-0.5,0-1,0.2-1.4,0.5c-0.5,0.4-1,0.8-1.6,1.3c-0.5,0.4-0.7,1-0.7,1.7
			c0,0.8,0.3,1.5,0.7,2.1c0.1,0.1,0.1,0.2,0.2,0.3c0.2,0.3,0.4,0.6,0.4,0.9c0,0.4-0.2,0.7-0.5,1l-0.2,0.2c-0.1,0.2-0.4,0.3-0.6,0.3
			c-0.3,0-0.7,0-1,0l-0.1,0c-0.3,0-0.5,0-0.8,0c-1.1,0.1-2,0.9-2.3,2c-0.1,0.7-0.2,1.3-0.3,1.8c-0.1,1.1,0.2,1.8,1.1,2.4
			c0.4,0.3,0.8,0.5,1.2,0.6c1,0.2,1.5,0.8,1.5,1.8c0,0.3-0.1,0.5-0.3,0.7l-0.3,0.3c-0.5,0.4-1,0.9-1.4,1.4c-0.6,0.8-0.6,1.6-0.1,2.5
			c0.2,0.4,0.5,0.8,0.7,1.2l0.2,0.4c0.3,0.5,0.8,0.9,1.4,1c0.2,0.1,0.5,0.1,0.7,0.1c0.6,0,1.2-0.2,1.6-0.3c0.1,0,0.2-0.1,0.3-0.1
			c0.3-0.1,0.5-0.2,0.8-0.2c0.1,0,0.1,0,0.2,0c0.3,0.1,0.6,0.4,0.9,0.6l0.2,0.2c0.1,0.1,0.2,0.4,0.2,0.6c0,0.3-0.1,0.5-0.1,0.8
			c0,0.2-0.1,0.5-0.1,0.7c-0.1,1.1,0.2,2.5,1.7,3c0.2,0.1,0.5,0.2,0.7,0.3c0.3,0.1,0.5,0.2,0.8,0.3c0.3,0.1,0.5,0.1,0.8,0.1
			c0.7,0,1.4-0.3,1.9-0.9l0.2-0.2c0.2-0.3,0.5-0.5,0.6-0.8c0.3-0.8,0.8-1.1,1.6-1.2v-6.3C35.1,44.2,33.3,43.4,31.9,42.1z"/>
		<path class="st3" d="M37.1,44.2L37.1,44.2c4,0,7.3-3.2,7.3-7.2c0-4-3.2-7.3-7.3-7.3c0,0,0,0,0,0L37.1,44.2
			C37,44.2,37,44.2,37.1,44.2z"/>
		<path class="st3" d="M37,0v20.4l0.2,0c0.2,0,0.6,0,0.6,0c1.2,0,2.1,0.7,2.5,2c0.1,0.3,0.2,0.7,0.2,1c0,0.3,0.1,0.5,0.2,0.8
			c0,0.2,0.2,0.4,0.4,0.5c0.1,0,0.1,0.1,0.2,0.1c0.3,0.1,0.6,0.3,0.9,0.3c0,0,0,0,0,0c0.4-0.1,0.7-0.3,0.9-0.5
			c0.1-0.1,0.2-0.2,0.3-0.2c0.6-0.5,1.3-1,2.2-1l0.1,0c0.6,0,1.1,0.2,1.5,0.5l0.3,0.2c0.3,0.3,0.6,0.5,0.9,0.8c1,0.9,1.3,1.8,0.8,3
			c-0.2,0.5-0.5,0.9-0.7,1.4l-0.2,0.3c-0.1,0.2-0.2,0.4,0,0.8l0.1,0.2c0.3,0.7,0.7,1,1.2,1l0,0l1,0c0.4,0,0.8,0.1,1.2,0.2
			c0.9,0.2,1.5,0.9,1.7,1.8c0.1,0.5,0.2,1,0.3,1.7c0.2,1.3-0.4,2.2-1.8,2.8c-0.5,0.2-0.9,0.4-1.4,0.5c-0.3,0.1-0.4,0.3-0.5,0.6
			c-0.3,0.9-0.1,1.7,0.8,2.2c0.5,0.3,0.9,0.9,1.2,1.3c0.4,0.7,0.4,1.4,0,2.2c-0.4,0.7-0.7,1.3-1.1,1.8c-0.5,0.7-1.1,1-2,1l-0.1,0
			c-0.8,0-1.6-0.3-2.3-0.6c-0.1,0-0.2-0.1-0.3-0.1c-0.2,0-0.3,0.1-0.5,0.2c-0.9,0.5-1.1,1.2-0.8,2.2c0.2,0.6,0.2,1.3,0,2
			c-0.3,0.8-0.7,1.3-1.5,1.6c-0.5,0.2-1.1,0.4-1.7,0.6c-0.3,0.1-0.5,0.1-0.8,0.1c-0.7,0-1.4-0.3-1.8-0.9c-0.4-0.5-0.7-1-1-1.5
			L38.1,51c-0.2-0.3-0.4-0.3-0.6-0.4c-0.2,0-0.3,0-0.5,0c0,0,0,0-0.1,0V74c20.4,0,37-16.6,37-37S57.4,0,37,0z"/>
		<path class="st4" d="M37.5,50.6c0.3,0,0.4,0.1,0.6,0.4l0.1,0.2c0.3,0.5,0.6,1.1,1,1.5c0.5,0.6,1.1,0.9,1.8,0.9
			c0.3,0,0.5,0,0.8-0.1c0.6-0.2,1.1-0.4,1.7-0.6c0.7-0.3,1.2-0.8,1.5-1.6c0.2-0.6,0.2-1.3,0-2c-0.3-1-0.1-1.7,0.8-2.2
			c0.2-0.1,0.3-0.2,0.5-0.2c0.1,0,0.2,0,0.3,0.1c0.7,0.3,1.5,0.6,2.3,0.6l0.1,0c0.9,0,1.5-0.3,2-1c0.4-0.6,0.7-1.1,1.1-1.8
			c0.4-0.8,0.4-1.5,0-2.2c-0.3-0.5-0.7-1-1.2-1.3c-0.9-0.6-1.1-1.3-0.8-2.2c0.1-0.3,0.2-0.5,0.5-0.6c0.5-0.1,0.9-0.3,1.4-0.5
			c1.4-0.6,2-1.6,1.8-2.8c-0.1-0.7-0.2-1.2-0.3-1.7c-0.2-1-0.8-1.6-1.7-1.8c-0.4-0.1-0.8-0.2-1.2-0.2l-1,0l0,0c-0.5,0-0.9-0.3-1.2-1
			l-0.1-0.2c-0.2-0.3-0.1-0.6,0-0.8l0.2-0.3c0.3-0.4,0.5-0.9,0.7-1.4c0.5-1.3,0.3-2.1-0.8-3c-0.3-0.3-0.6-0.5-0.9-0.8l-0.3-0.2
			c-0.4-0.3-0.9-0.5-1.5-0.5l-0.1,0c-0.9,0-1.5,0.6-2.2,1c-0.1,0.1-0.2,0.2-0.3,0.2c-0.2,0.2-0.5,0.5-0.9,0.5c0,0,0,0,0,0
			c-0.3,0-0.6-0.1-0.9-0.3c-0.1,0-0.2-0.1-0.2-0.1c-0.2-0.1-0.3-0.3-0.4-0.5c-0.1-0.3-0.1-0.5-0.2-0.8c-0.1-0.3-0.1-0.7-0.2-1
			c-0.4-1.3-1.3-2-2.5-2c0,0-0.4,0-0.6,0l-0.2,0v9.3c0,0,0,0,0,0c4.1,0,7.4,3.3,7.3,7.3c0,4-3.3,7.2-7.3,7.2h0c0,0,0,0-0.1,0v6.3
			c0,0,0,0,0.1,0C37.2,50.5,37.3,50.6,37.5,50.6z"/>
	</g>
	<path class="st5" d="M20,6.2c18.4-8.9,40.5-1.3,49.5,17.1c4.3,8.8,4.7,18.4,2.1,27c3.6-9.2,3.5-19.9-1.2-29.5
		C61.4,2.5,39.2-5.2,20.8,3.7c-9.6,4.7-16.3,13-19.2,22.4C4.9,17.7,11.2,10.5,20,6.2z"/>
</g>
</svg>
