<?xml version="1.0" encoding="utf-8"?>
<!-- Generator: Adobe Illustrator 19.1.0, SVG Export Plug-In . SVG Version: 6.00 Build 0)  -->
<svg version="1.1" id="Layer_1" xmlns="http://www.w3.org/2000/svg" xmlns:xlink="http://www.w3.org/1999/xlink" x="0px" y="0px"
	 viewBox="0 0 74 74" style="enable-background:new 0 0 74 74;" xml:space="preserve">
<style type="text/css">
	.st0{fill:#CCCCCC;}
	.st1{fill:#FFFFFF;}
	.st2{fill:#C2C2C2;}
	.st3{fill:#F2F2F2;}
	.st4{fill:#AEAEAE;}
</style>
<g>
	<circle class="st0" cx="37" cy="37" r="37"/>
	<g>
		<path class="st1" d="M45.3,28.7c0-4.6-3.7-8.3-8.3-8.3V37C41.6,37,45.3,33.3,45.3,28.7z"/>
		<path class="st1" d="M53.7,49.5c0-5.5-11.1-8.3-16.7-8.3v12.5h16.7V49.5z"/>
		<path class="st2" d="M20.4,49.5c0-5.5,11.1-8.3,16.6-8.3V37c-4.6,0-8.3-3.7-8.3-8.3c0-4.6,3.7-8.3,8.3-8.3V0C16.6,0,0,16.6,0,37
			c0,20.4,16.6,37,37,37V53.6H20.4V49.5z"/>
		<path class="st3" d="M20.4,49.5v4.2H37V41.2C31.5,41.2,20.4,43.9,20.4,49.5z"/>
		<path class="st3" d="M28.7,28.7c0,4.6,3.7,8.3,8.3,8.3V20.3C32.4,20.3,28.7,24.1,28.7,28.7z"/>
	</g>
	<path class="st4" d="M1.9,38.8c0-20.4,16.6-37,37-37c9.7,0,18.6,3.8,25.2,10C57.3,4.6,47.7,0,37,0C16.6,0,0,16.6,0,37
		c0,10.7,4.6,20.3,11.8,27C5.6,57.4,1.9,48.6,1.9,38.8z"/>
</g>
</svg>
