<?xml version="1.0" encoding="utf-8"?>
<!-- Generator: Adobe Illustrator 19.1.0, SVG Export Plug-In . SVG Version: 6.00 Build 0)  -->
<svg version="1.1" id="Layer_1" xmlns="http://www.w3.org/2000/svg" xmlns:xlink="http://www.w3.org/1999/xlink" x="0px" y="0px"
	 viewBox="0 0 40 40" style="enable-background:new 0 0 40 40;" xml:space="preserve">
<style type="text/css">
	.st0{fill:#EFEFEF;}
	.st1{fill:url(#SVGID_1_);}
	.st2{fill:#FFFFFF;}
	.st3{fill:url(#SVGID_2_);}
	.st4{fill:#333333;}
	.st5{fill:#666666;}
	.st6{fill:#DADADA;}
	.st7{fill:#29C1AD;}
	.st8{fill:none;stroke:#DADADA;stroke-miterlimit:10;}
	.st9{fill:url(#SVGID_3_);}
	.st10{fill:#CCCCCC;}
	.st11{opacity:0.1;}
	.st12{opacity:5.000000e-02;}
	.st13{fill:url(#SVGID_4_);}
	.st14{fill:url(#SVGID_5_);}
	.st15{fill:url(#SVGID_6_);}
	.st16{fill:url(#SVGID_7_);}
	.st17{fill:url(#SVGID_8_);}
	.st18{fill:url(#SVGID_9_);}
	.st19{fill:url(#SVGID_10_);}
	.st20{fill:url(#SVGID_11_);}
	.st21{fill:none;}
	.st22{fill-rule:evenodd;clip-rule:evenodd;fill:#DADADA;}
	.st23{fill:url(#SVGID_12_);}
	.st24{fill:url(#SVGID_13_);}
	.st25{fill:url(#SVGID_14_);}
	.st26{fill:url(#SVGID_15_);}
	.st27{fill:url(#SVGID_16_);}
	.st28{fill:url(#SVGID_17_);}
	.st29{fill:url(#SVGID_18_);}
	.st30{fill:url(#SVGID_19_);}
	.st31{fill:url(#SVGID_20_);}
	.st32{fill:url(#SVGID_21_);}
	.st33{fill:url(#SVGID_22_);}
	.st34{fill:url(#SVGID_23_);}
	.st35{fill:url(#SVGID_24_);}
	.st36{fill:url(#SVGID_25_);}
	.st37{fill:url(#SVGID_26_);}
	.st38{fill:url(#SVGID_27_);}
	.st39{fill:url(#SVGID_28_);}
	.st40{fill:#00AEEF;}
	.st41{fill:url(#SVGID_29_);}
	.st42{fill:url(#SVGID_30_);}
	.st43{fill:url(#SVGID_31_);}
	.st44{fill:url(#SVGID_32_);}
	.st45{fill:url(#SVGID_33_);}
	.st46{fill:url(#SVGID_34_);}
	.st47{fill:url(#SVGID_35_);}
	.st48{fill:url(#SVGID_36_);}
	.st49{fill:url(#SVGID_37_);}
	.st50{fill:url(#SVGID_38_);}
	.st51{fill:url(#SVGID_39_);}
	.st52{fill:url(#SVGID_40_);}
	.st53{fill:url(#SVGID_41_);}
	.st54{fill:url(#SVGID_42_);}
	.st55{fill:url(#SVGID_43_);}
	.st56{fill:url(#SVGID_44_);}
	.st57{fill:url(#SVGID_45_);}
	.st58{fill:url(#SVGID_46_);}
	.st59{fill:url(#SVGID_47_);}
	.st60{fill:url(#SVGID_48_);}
	.st61{fill:url(#SVGID_49_);}
	.st62{fill:url(#SVGID_50_);}
	.st63{fill:url(#SVGID_51_);}
	.st64{fill:url(#SVGID_52_);}
	.st65{fill:url(#SVGID_53_);}
	.st66{fill:url(#SVGID_54_);}
	.st67{fill:url(#SVGID_55_);}
	.st68{fill:url(#SVGID_56_);}
	.st69{fill:url(#SVGID_57_);}
	.st70{fill:url(#SVGID_58_);}
	.st71{fill:url(#SVGID_59_);}
	.st72{fill:url(#SVGID_60_);}
	.st73{fill:url(#SVGID_61_);}
	.st74{fill:url(#SVGID_62_);}
	.st75{fill:url(#SVGID_63_);}
	.st76{fill:url(#SVGID_64_);}
	.st77{fill:none;stroke:#B2B2B2;stroke-width:3;stroke-miterlimit:10;}
	.st78{fill:#E30613;}
	.st79{fill:none;stroke:#B2B2B2;stroke-width:2;stroke-miterlimit:10;}
	.st80{fill:url(#SVGID_65_);}
	.st81{fill:#C2C2C2;}
	.st82{fill:#F2F2F2;}
	.st83{fill:#AEAEAE;}
</style>
<g>
	<circle class="st10" cx="20" cy="20" r="20"/>
	<g>
		<path class="st21" d="M22.3,17.7c0-1.7-0.9-3.2-2.3-4v8C21.4,20.9,22.3,19.4,22.3,17.7z"/>
		<path class="st2" d="M23.9,22.3H23L22.8,22c1-1.2,1.6-2.7,1.6-4.3c0-2.9-1.8-5.3-4.4-6.3v2.3c1.4,0.8,2.3,2.3,2.3,4
			c0,1.7-0.9,3.2-2.3,4V24c0.8-0.3,1.4-0.7,2-1.2l0.3,0.3v0.8l5.1,5.1l1.5-1.5L23.9,22.3z"/>
		<path class="st81" d="M13.1,17.7c0,2.6,2.1,4.6,4.6,4.6c0.8,0,1.6-0.2,2.3-0.6v-8c-0.7-0.4-1.5-0.6-2.3-0.6
			C15.1,13.1,13.1,15.1,13.1,17.7z"/>
		<path class="st81" d="M11,17.7c0-3.7,3-6.7,6.7-6.7c0.8,0,1.6,0.2,2.3,0.4V0C9,0,0,9,0,20s9,20,20,20V24c-0.7,0.3-1.5,0.4-2.3,0.4
			C14,24.4,11,21.4,11,17.7z"/>
		<path class="st82" d="M17.7,22.3c-2.6,0-4.6-2.1-4.6-4.6s2.1-4.6,4.6-4.6c0.8,0,1.6,0.2,2.3,0.6v-2.3c-0.7-0.3-1.5-0.4-2.3-0.4
			C14,11,11,14,11,17.7s3,6.7,6.7,6.7c0.8,0,1.6-0.1,2.3-0.4v-2.3C19.3,22.1,18.5,22.3,17.7,22.3z"/>
	</g>
	<path class="st83" d="M1,21C1,10,10,1,21,1c5.3,0,10,2.1,13.6,5.4C31,2.5,25.8,0,20,0C9,0,0,9,0,20c0,5.8,2.5,11,6.4,14.6
		C3.1,31,1,26.3,1,21z"/>
</g>
</svg>
