<?xml version="1.0" encoding="utf-8"?>
<!-- Generator: Adobe Illustrator 19.1.0, SVG Export Plug-In . SVG Version: 6.00 Build 0)  -->
<svg version="1.1" id="Layer_1" xmlns="http://www.w3.org/2000/svg" xmlns:xlink="http://www.w3.org/1999/xlink" x="0px" y="0px"
	 viewBox="0 0 74 74" style="enable-background:new 0 0 74 74;" xml:space="preserve">
<style type="text/css">
	.st0{fill:#D92231;}
	.st1{fill:#FFFFFF;}
	.st2{fill:#C31F2C;}
	.st3{fill:#E5E5E5;}
	.st4{fill:#A61A26;}
</style>
<g>
	<circle class="st0" cx="37" cy="37" r="37"/>
	<g id="icomoon-ignore_41_">
	</g>
	<g>
		<path class="st1" d="M26.6,49.5v4.2H37V42C31.9,43.1,26.6,45.7,26.6,49.5z"/>
		<path class="st1" d="M34.9,28.7c0,2.1,0.8,4,2.1,5.5v-11C35.7,24.6,34.9,26.6,34.9,28.7z"/>
		<rect x="14.1" y="32.8" class="st1" width="16.7" height="4.2"/>
		<path class="st2" d="M37,0v23.2c1.5-1.7,3.8-2.8,6.2-2.8c4.6,0,8.3,3.7,8.3,8.3c0,4.6-3.7,8.3-8.3,8.3c-2.5,0-4.7-1.1-6.2-2.8V42
			c2.3-0.5,4.5-0.8,6.2-0.8c5.5,0,16.7,2.8,16.7,8.3v4.2H37V74c20.4,0,37-16.6,37-37S57.4,0,37,0z"/>
		<path class="st3" d="M59.9,49.5c0-5.5-11.1-8.3-16.7-8.3c-1.7,0-4,0.3-6.2,0.8v11.7h22.9V49.5z"/>
		<path class="st3" d="M43.2,37c4.6,0,8.3-3.7,8.3-8.3c0-4.6-3.7-8.3-8.3-8.3c-2.5,0-4.7,1.1-6.2,2.8v11C38.5,35.9,40.8,37,43.2,37z
			"/>
	</g>
	<path class="st4" d="M20,6.2c18.4-8.9,40.5-1.3,49.5,17.1c4.3,8.8,4.7,18.4,2.1,27c3.6-9.2,3.5-19.9-1.2-29.5
		C61.4,2.5,39.2-5.2,20.8,3.7c-9.6,4.7-16.3,13-19.2,22.4C4.9,17.7,11.2,10.5,20,6.2z"/>
</g>
</svg>
