<?xml version="1.0" encoding="utf-8"?>
<!-- Generator: Adobe Illustrator 19.1.0, SVG Export Plug-In . SVG Version: 6.00 Build 0)  -->
<svg version="1.1" id="Layer_1" xmlns="http://www.w3.org/2000/svg" xmlns:xlink="http://www.w3.org/1999/xlink" x="0px" y="0px"
	 viewBox="0 0 74 74" style="enable-background:new 0 0 74 74;" xml:space="preserve">
<style type="text/css">
	.st0{fill:#D92231;}
	.st1{fill:#FFFFFF;}
	.st2{fill:#C31F2C;}
	.st3{fill:#E5E5E5;}
	.st4{fill:#A61A26;}
</style>
<g>
	<circle class="st0" cx="37" cy="37" r="37"/>
	<g id="icomoon-ignore_66_">
	</g>
	<g>
		<path class="st1" d="M43.2,37c4.6,0,8.3-3.7,8.3-8.3c0-4.6-3.7-8.3-8.3-8.3c-2.5,0-4.7,1.1-6.2,2.8v11C38.5,35.9,40.8,37,43.2,37z
			"/>
		<path class="st1" d="M59.9,49.5c0-5.5-11.1-8.3-16.6-8.3c-1.7,0-4,0.3-6.2,0.8v11.7h22.9V49.5z"/>
		<path class="st2" d="M26.6,49.5c0-3.8,5.3-6.3,10.4-7.5v-7.8c-1.3-1.5-2.1-3.4-2.1-5.5c0-2.1,0.8-4,2.1-5.5V0C16.6,0,0,16.6,0,37
			c0,20.4,16.6,37,37,37V53.6H26.6V49.5z M14.1,32.8h16.7V37H14.1V32.8z"/>
		<path class="st3" d="M26.6,49.5v4.2H37V42C31.9,43.1,26.6,45.7,26.6,49.5z"/>
		<path class="st3" d="M37,34.2v-11c-1.3,1.5-2.1,3.4-2.1,5.5C34.9,30.8,35.7,32.7,37,34.2z"/>
		<rect x="14.1" y="32.8" class="st3" width="16.7" height="4.2"/>
	</g>
	<path class="st4" d="M1.9,38.8c0-20.4,16.6-37,37-37c9.7,0,18.6,3.8,25.2,10C57.3,4.6,47.7,0,37,0C16.6,0,0,16.6,0,37
		c0,10.7,4.6,20.3,11.8,27C5.6,57.4,1.9,48.6,1.9,38.8z"/>
</g>
</svg>
