<?xml version="1.0" encoding="utf-8"?>
<!-- Generator: Adobe Illustrator 19.1.0, SVG Export Plug-In . SVG Version: 6.00 Build 0)  -->
<svg version="1.1" id="Layer_3" xmlns="http://www.w3.org/2000/svg" xmlns:xlink="http://www.w3.org/1999/xlink" x="0px" y="0px"
	 viewBox="-275 398.9 45 45" style="enable-background:new -275 398.9 45 45;" xml:space="preserve">
<style type="text/css">
	.st0{fill:#333333;}
</style>
<g>
	<path class="st0" d="M-252.8,409.4c6.9,0.3,11.9,3.9,16.1,8.6c3,3.3,3,3.4,0,6.8c-3.9,4.3-8.3,7.7-14.4,8.5
		c-3.9,0.5-7.5-0.5-10.5-2.7c-3.1-2.2-5.7-5.1-8.5-7.8c-0.4-0.4-0.7-1.7-0.4-2.1C-266,414.5-260.6,409.9-252.8,409.4z M-243.6,421.2
		c0-5-4-9.1-8.9-9.1s-8.9,4.1-8.9,9.1c0,5.1,4,9.1,8.9,9.1S-243.6,426.2-243.6,421.2z"/>
	<path class="st0" d="M-252.5,425c-2.2,0-3.7-1.5-3.7-3.7c0-2.3,1.7-4,3.8-4c2,0.1,3.6,1.8,3.6,4C-248.9,423.5-250.4,425-252.5,425z
		"/>
</g>
</svg>
